# 3ds Max Wavefront OBJ Exporter v0.97b - (c)2007 guruware
# File Created: 20.07.2026 00:41:24

mtllib heavy_a_emissive.mtl

#
# object heavy_a_emissive
#

v  -0.3259 0.5635 0.0856
v  -0.3259 0.7628 -0.1135
v  -1.7437 0.7770 -0.1153
v  -1.8044 0.5762 0.2689
v  0.5242 0.0000 -0.1093
v  -0.1935 0.7068 -0.1110
v  -0.1961 0.5091 0.0831
v  0.3297 0.0000 0.0811
v  -3.9873 0.4676 -0.2302
v  -3.9873 0.4676 0.4733
v  -3.9649 0.5388 0.3949
v  -3.9649 0.5388 -0.1519
v  -4.7075 2.0722 -0.0473
v  -4.7075 2.0722 0.2904
v  -4.5291 3.2350 0.2167
v  -4.5277 3.2350 0.0263
v  -1.2555 0.0000 0.2835
v  -1.7342 0.7861 -0.0105
v  -1.7508 0.6282 0.4263
v  -1.4759 0.0000 0.4748
v  -4.8007 0.4888 0.0625
v  -4.8007 0.0000 0.0557
v  -4.8007 0.0000 0.5556
v  -4.8007 0.3241 0.4991
v  -4.8007 0.4275 -0.0448
v  -4.8007 0.0000 -0.0448
v  -5.6991 0.0000 0.6929
v  -5.6991 0.4339 0.6172
v  -5.6991 0.6543 0.0328
v  -5.6991 0.5723 -0.1108
v  -5.6991 0.0000 -0.1108
v  -4.8651 3.9335 -0.3986
v  -4.8921 3.6251 -0.4815
v  -4.8921 3.6251 -0.2671
v  -4.8745 3.8267 -0.2129
v  -4.9191 3.3166 -0.3986
v  -4.9098 3.4234 -0.2129
v  -4.9389 3.0908 -0.1719
v  -4.9227 3.2758 -0.0647
v  -4.9461 3.0081 0.1377
v  -4.9274 3.2217 0.1377
v  -4.9389 3.0908 0.4474
v  -4.9227 3.2758 0.3402
v  -4.9191 3.3166 0.6741
v  -4.9098 3.4234 0.4884
v  -4.8921 3.6251 0.7570
v  -4.8921 3.6251 0.5426
v  -4.8651 3.9335 0.6741
v  -4.8745 3.8267 0.4884
v  -4.8454 4.1593 0.4474
v  -4.8615 3.9743 0.3402
v  -4.8381 4.2420 0.1377
v  -4.8568 4.0284 0.1377
v  -4.8454 4.1593 -0.1719
v  -4.8615 3.9743 -0.0647
v  -5.3922 3.5924 0.0059
v  -5.3970 3.5369 0.0616
v  -5.3988 3.5166 0.1377
v  -5.3970 3.5369 0.2138
v  -5.3922 3.5924 0.2695
v  -5.3856 3.6682 0.2899
v  -5.3789 3.7440 0.2695
v  -5.3741 3.7995 0.2138
v  -5.3723 3.8198 0.1377
v  -5.3741 3.7995 0.0616
v  -5.3789 3.7440 0.0059
v  -5.3855 3.6682 -0.0145
v  -0.3259 -0.5635 0.0856
v  -1.8044 -0.5762 0.2689
v  -1.7437 -0.7770 -0.1153
v  -0.3259 -0.7628 -0.1135
v  -0.1961 -0.5091 0.0831
v  -0.1935 -0.7068 -0.1110
v  -3.9873 -0.4676 -0.2302
v  -3.9649 -0.5388 -0.1519
v  -3.9649 -0.5388 0.3949
v  -3.9873 -0.4676 0.4733
v  -4.7075 -2.0722 -0.0473
v  -4.7075 -2.0722 0.2904
v  -4.5277 -3.2350 0.0263
v  -4.5291 -3.2350 0.2167
v  -1.7508 -0.6282 0.4263
v  -1.7342 -0.7861 -0.0105
v  -4.8007 -0.4888 0.0625
v  -4.8007 -0.3241 0.4991
v  -4.8007 -0.4275 -0.0448
v  -5.6991 -0.4339 0.6172
v  -5.6991 -0.6543 0.0328
v  -5.6991 -0.5723 -0.1108
v  -4.8651 -3.9335 -0.3986
v  -4.8745 -3.8267 -0.2129
v  -4.8921 -3.6251 -0.2671
v  -4.8921 -3.6251 -0.4815
v  -4.9098 -3.4234 -0.2129
v  -4.9191 -3.3166 -0.3986
v  -4.9227 -3.2758 -0.0647
v  -4.9389 -3.0908 -0.1719
v  -4.9274 -3.2217 0.1377
v  -4.9461 -3.0081 0.1377
v  -4.9227 -3.2758 0.3402
v  -4.9389 -3.0908 0.4474
v  -4.9098 -3.4234 0.4884
v  -4.9191 -3.3166 0.6741
v  -4.8921 -3.6251 0.5426
v  -4.8921 -3.6251 0.7570
v  -4.8745 -3.8267 0.4884
v  -4.8651 -3.9335 0.6741
v  -4.8615 -3.9743 0.3402
v  -4.8454 -4.1593 0.4474
v  -4.8568 -4.0284 0.1377
v  -4.8381 -4.2420 0.1377
v  -4.8615 -3.9743 -0.0647
v  -4.8454 -4.1593 -0.1719
v  -5.3922 -3.5924 0.0059
v  -5.3855 -3.6682 -0.0145
v  -5.3789 -3.7440 0.0059
v  -5.3741 -3.7995 0.0616
v  -5.3723 -3.8198 0.1377
v  -5.3741 -3.7995 0.2138
v  -5.3789 -3.7440 0.2695
v  -5.3856 -3.6682 0.2899
v  -5.3922 -3.5924 0.2695
v  -5.3970 -3.5369 0.2138
v  -5.3988 -3.5166 0.1377
v  -5.3970 -3.5369 0.0616
# 125 vertices

vn 0.0934 0.7037 0.7044
vn 0.0062 0.7068 0.7074
vn 0.0083 0.8856 0.4643
vn 0.0659 0.8800 0.4705
vn 0.6994 0.0000 0.7147
vn 0.5644 0.5746 0.5927
vn 0.5604 0.5765 0.5946
vn -0.9540 0.2998 -0.0000
vn -0.9999 0.0154 0.0000
vn -0.9871 -0.1604 -0.0000
vn -0.9870 -0.1609 -0.0000
vn -0.9885 0.1512 -0.0072
vn -0.9882 0.1533 -0.0072
vn 0.6553 0.0000 0.7554
vn 0.7885 0.5682 0.2353
vn 0.8959 0.4059 0.1807
vn -0.6907 -0.7212 0.0532
vn -1.0000 0.0000 0.0000
vn -0.7247 0.0000 -0.6891
vn -0.6764 -0.4677 -0.5690
vn -0.6616 -0.3539 0.6611
vn -0.7326 0.0000 0.6807
vn -0.1511 0.0000 -0.9885
vn -0.1764 -0.6299 -0.7564
vn -0.1832 -0.9796 0.0820
vn -0.1459 -0.5225 0.8401
vn -0.0733 0.0000 0.9973
vn -0.9962 0.0872 0.0000
vn -0.9962 0.0872 -0.0000
vn -0.9962 0.0871 -0.0000
vn -0.9962 0.0871 0.0000
vn 0.0934 -0.7037 0.7044
vn 0.0659 -0.8800 0.4705
vn 0.0083 -0.8856 0.4643
vn 0.0062 -0.7068 0.7074
vn 0.5604 -0.5765 0.5946
vn 0.5644 -0.5746 0.5927
vn -0.9540 -0.2998 -0.0000
vn -0.9999 -0.0154 0.0000
vn -0.9871 0.1604 -0.0000
vn -0.9870 0.1609 -0.0000
vn -0.9882 -0.1533 -0.0072
vn -0.9885 -0.1512 -0.0072
vn 0.8959 -0.4059 0.1807
vn 0.7885 -0.5682 0.2353
vn -0.6907 0.7212 0.0532
vn -0.6764 0.4677 -0.5690
vn -0.6616 0.3539 0.6611
vn -0.1764 0.6299 -0.7564
vn -0.1832 0.9796 0.0820
vn -0.1459 0.5225 0.8401
vn -0.9962 -0.0872 0.0000
vn -0.9962 -0.0872 -0.0000
vn -0.9962 -0.0871 0.0000
vn -0.9962 -0.0871 -0.0000
# 55 vertex normals

vt 1.0000 1.0000 0.0000
vt 1.0000 0.0000 0.0000
vt 0.5000 0.0000 0.0000
vt 0.5000 1.0000 0.0000
vt 0.0000 0.0000 0.0000
vt 0.0000 1.0000 0.0000
vt 1.0000 0.5000 0.0000
vt 0.8333 0.0000 1.0000
vt 0.7500 0.0000 1.0000
vt 0.4450 0.0000 0.2679
vt 0.2440 0.0000 -0.2680
vt 0.1116 0.0000 -0.7321
vt 0.0833 0.0000 -1.0000
vt 0.1667 0.0000 -1.0000
vt 0.3393 0.0000 -0.7320
vt 0.5550 0.0000 -0.2679
vt 0.7560 0.0000 0.2679
vt 0.8884 0.0000 0.7321
vt 0.9167 0.0000 1.0000
# 19 texture coords

o heavy_a_emissive
g heavy_a_emissive
usemtl 03___Default
s 1
f 1/1/1 2/2/2 3/2/3 4/1/4 
f 5/3/5 6/2/6 7/1/7 8/4/5 
usemtl 01___Default
f 9/2/8 10/1/8 11/1/9 12/2/9 
usemtl 03___Default
f 13/5/10 12/2/9 11/1/9 14/6/11 
f 13/2/10 14/1/11 15/1/12 16/2/13 
f 17/3/14 18/2/15 19/1/16 20/4/14 
f 21/5/17 22/3/18 23/4/19 24/6/20 
f 22/7/18 21/1/17 25/1/21 26/7/22 
f 27/4/23 28/6/24 24/6/20 23/4/19 
f 28/6/24 29/5/25 21/5/17 24/6/20 
f 29/1/25 30/1/26 25/1/21 21/1/17 
f 30/1/26 31/7/27 26/7/22 25/1/21 
f 32/8/28 33/9/28 34/9/28 35/8/28 
f 33/9/28 36/10/28 37/10/28 34/9/28 
f 36/10/28 38/11/29 39/11/28 37/10/28 
f 38/11/29 40/12/29 41/12/29 39/11/28 
f 40/12/29 42/13/28 43/13/29 41/12/29 
f 42/13/28 44/14/29 45/14/29 43/13/29 
f 44/14/29 46/15/28 47/15/28 45/14/29 
f 46/15/28 48/16/29 49/16/29 47/15/28 
f 48/16/29 50/17/29 51/17/29 49/16/29 
f 50/17/29 52/18/28 53/18/29 51/17/29 
f 52/18/28 54/19/28 55/19/28 53/18/29 
f 54/19/28 32/8/28 35/8/28 55/19/28 
f 56/10/28 57/11/28 58/12/30 59/13/29 60/14/31 61/15/28 62/16/30 63/17/28 64/18/29 65/19/29 66/8/31 67/9/29 
f 68/1/32 69/1/33 70/2/34 71/2/35 
f 5/3/5 8/4/5 72/1/36 73/2/37 
usemtl 01___Default
f 74/2/38 75/2/39 76/1/39 77/1/38 
usemtl 03___Default
f 78/5/40 79/6/41 76/1/39 75/2/39 
f 78/2/40 80/2/42 81/1/43 79/1/41 
f 17/3/14 20/4/14 82/1/44 83/2/45 
f 84/5/46 85/6/47 23/4/19 22/3/18 
f 22/7/18 26/7/22 86/1/48 84/1/46 
f 27/4/23 23/4/19 85/6/47 87/6/49 
f 87/6/49 85/6/47 84/5/46 88/5/50 
f 88/1/50 84/1/46 86/1/48 89/1/51 
f 89/1/51 86/1/48 26/7/22 31/7/27 
f 90/8/52 91/8/52 92/9/52 93/9/52 
f 93/9/52 92/9/52 94/10/52 95/10/52 
f 95/10/52 94/10/52 96/11/52 97/11/53 
f 97/11/53 96/11/52 98/12/53 99/12/53 
f 99/12/53 98/12/53 100/13/53 101/13/52 
f 101/13/52 100/13/53 102/14/53 103/14/53 
f 103/14/53 102/14/53 104/15/52 105/15/52 
f 105/15/52 104/15/52 106/16/53 107/16/53 
f 107/16/53 106/16/53 108/17/53 109/17/53 
f 109/17/53 108/17/53 110/18/53 111/18/52 
f 111/18/52 110/18/53 112/19/52 113/19/52 
f 113/19/52 112/19/52 91/8/52 90/8/52 
f 114/10/52 115/9/53 116/8/54 117/19/53 118/18/53 119/17/52 120/16/55 121/15/52 122/14/54 123/13/53 124/12/55 125/11/52 
# 50 polygons

