# 3ds Max Wavefront OBJ Exporter v0.97b - (c)2007 guruware
# File Created: 26.07.2026 03:25:37

mtllib heavy_a_ship.mtl

#
# object heavy_a_base
#

v  3.7926 0.6560 -0.4615
v  4.4363 0.0000 -0.4615
v  2.4189 0.0000 -0.4652
v  2.4189 0.6560 -0.4964
v  0.0565 0.4676 -0.4155
v  -0.6650 2.0766 -0.3072
v  1.0143 1.8767 -0.3072
v  1.4475 0.4676 -0.4155
v  0.0565 0.4676 0.2880
v  1.4475 0.4676 0.2880
v  1.0143 1.8767 0.1797
v  -0.6650 2.0766 0.1797
v  1.1420 3.2426 -0.2275
v  -0.5080 3.2956 -0.2275
v  -0.5080 3.2956 0.1000
v  1.1420 3.2426 0.1000
v  1.0148 1.8721 -0.2327
v  1.4255 0.5390 -0.3351
v  1.1274 3.1694 -0.1566
v  1.1274 3.1694 0.0291
v  1.0148 1.8721 0.1051
v  1.4255 0.5390 0.2076
v  0.0789 0.5388 -0.3372
v  -0.6637 2.0722 -0.2326
v  -0.6637 2.0722 0.1051
v  0.0789 0.5388 0.2096
v  -0.4852 3.2350 0.0314
v  -0.4838 3.2350 -0.1590
v  -0.9082 1.2613 -0.2418
v  1.2256 1.2613 -0.2418
v  1.2256 1.0378 -0.6334
v  -0.9082 1.0378 -0.6334
v  -0.9082 0.0000 0.7305
v  -0.9082 0.6063 0.6247
v  -1.6553 0.6063 0.6247
v  -1.6553 0.0000 0.7305
v  -0.9082 0.9138 -0.1908
v  -1.6553 0.9138 -0.1908
v  -0.9082 0.7707 -0.4415
v  -1.6553 0.7707 -0.4415
v  -0.9082 0.0000 -0.4415
v  -1.6553 0.0000 -0.4415
v  2.6569 0.9286 -0.1991
v  2.5136 0.7456 -0.2476
v  2.6441 0.8004 -0.4034
v  2.3097 0.7861 -0.1958
v  2.6403 0.6282 0.3517
v  2.2931 0.6282 0.2410
v  3.3553 0.0000 0.4630
v  2.5679 0.0000 0.2895
v  1.3750 1.0139 -0.2006
v  2.5385 1.0139 -0.2006
v  2.5385 0.8343 -0.5155
v  1.3750 0.8343 -0.5155
v  2.7884 0.0000 0.0982
v  3.6080 0.0000 -0.2041
v  3.4541 0.0000 -0.3970
v  1.5420 3.4159 -0.6668
v  1.5690 3.7244 -0.5839
v  1.6933 3.6363 -0.4506
v  1.6730 3.4045 -0.5130
v  1.5887 3.9502 -0.3572
v  1.7082 3.8060 -0.2803
v  1.5960 4.0329 -0.0476
v  1.7136 3.8681 -0.0476
v  1.5887 3.9502 0.2621
v  1.7082 3.8060 0.1851
v  1.5690 3.7244 0.4888
v  1.6933 3.6363 0.3555
v  1.5420 3.4159 0.5717
v  1.6730 3.4045 0.4178
v  1.5150 3.1075 0.4888
v  1.6528 3.1727 0.3555
v  1.4953 2.8817 0.2621
v  1.6379 3.0030 0.1851
v  1.4880 2.7990 -0.0476
v  1.6325 2.9408 -0.0476
v  1.4953 2.8817 -0.3572
v  1.6379 3.0030 -0.2803
v  1.5150 3.1075 -0.5839
v  1.6528 3.1727 -0.4506
v  -0.5129 3.9065 -0.5839
v  1.2636 3.7511 -0.5839
v  1.2366 3.4427 -0.6668
v  -0.5399 3.5981 -0.6668
v  -0.4932 4.1324 -0.3572
v  1.2834 3.9769 -0.3572
v  -0.4859 4.2150 -0.0476
v  1.2906 4.0596 -0.0476
v  -0.4932 4.1324 0.2621
v  1.2834 3.9769 0.2621
v  -0.5129 3.9065 0.4888
v  1.2636 3.7511 0.4888
v  -0.5399 3.5981 0.5717
v  1.2366 3.4427 0.5717
v  -0.5669 3.2896 0.4888
v  1.2096 3.1342 0.4888
v  1.2096 3.1342 -0.5839
v  -0.5669 3.2896 -0.5839
v  1.1899 2.9084 0.2621
v  1.0657 3.0407 0.3831
v  1.0551 2.9202 0.2621
v  -0.4414 3.1726 0.3831
v  -0.5867 3.0638 0.2621
v  -0.4519 3.0520 0.2621
v  -0.5939 2.9812 -0.0476
v  -0.4591 2.9694 -0.0476
v  -0.5867 3.0638 -0.3572
v  -0.4519 3.0520 -0.3572
v  -0.4414 3.1726 -0.4782
v  1.0657 3.0407 -0.4782
v  1.1899 2.9084 -0.3572
v  1.0551 2.9202 -0.3572
v  1.1827 2.8257 -0.0476
v  1.0479 2.8375 -0.0476
v  3.7926 -0.6560 -0.4615
v  2.4189 -0.6560 -0.4964
v  0.0565 -0.4676 -0.4155
v  1.4475 -0.4676 -0.4155
v  1.0143 -1.8767 -0.3072
v  -0.6650 -2.0766 -0.3072
v  0.0565 -0.4676 0.2880
v  -0.6650 -2.0766 0.1797
v  1.0143 -1.8767 0.1797
v  1.4475 -0.4676 0.2880
v  1.1420 -3.2426 -0.2275
v  1.1420 -3.2426 0.1000
v  -0.5080 -3.2956 0.1000
v  -0.5080 -3.2956 -0.2275
v  1.4255 -0.5390 -0.3351
v  1.0148 -1.8721 -0.2327
v  1.1274 -3.1694 -0.1566
v  1.1274 -3.1694 0.0291
v  1.0148 -1.8721 0.1051
v  1.4255 -0.5390 0.2076
v  -0.6637 -2.0722 -0.2326
v  0.0789 -0.5388 -0.3372
v  0.0789 -0.5388 0.2096
v  -0.6637 -2.0722 0.1051
v  -0.4852 -3.2350 0.0314
v  -0.4838 -3.2350 -0.1590
v  -0.9082 -1.2613 -0.2418
v  -0.9082 -1.0378 -0.6334
v  1.2256 -1.0378 -0.6334
v  1.2256 -1.2613 -0.2418
v  -1.6553 -0.6063 0.6247
v  -0.9082 -0.6063 0.6247
v  -1.6553 -0.9138 -0.1908
v  -0.9082 -0.9138 -0.1908
v  -1.6553 -0.7707 -0.4415
v  -0.9082 -0.7707 -0.4415
v  2.6569 -0.9286 -0.1991
v  2.6441 -0.8004 -0.4034
v  2.5136 -0.7456 -0.2476
v  2.3097 -0.7861 -0.1958
v  2.2931 -0.6282 0.2410
v  2.6403 -0.6282 0.3517
v  1.3750 -1.0139 -0.2006
v  1.3750 -0.8343 -0.5155
v  2.5385 -0.8343 -0.5155
v  2.5385 -1.0139 -0.2006
v  1.5420 -3.4159 -0.6668
v  1.6730 -3.4045 -0.5130
v  1.6933 -3.6363 -0.4506
v  1.5690 -3.7244 -0.5839
v  1.7082 -3.8060 -0.2803
v  1.5887 -3.9502 -0.3572
v  1.7136 -3.8681 -0.0476
v  1.5960 -4.0329 -0.0476
v  1.7082 -3.8060 0.1851
v  1.5887 -3.9502 0.2621
v  1.6933 -3.6363 0.3555
v  1.5690 -3.7244 0.4888
v  1.6730 -3.4045 0.4178
v  1.5420 -3.4159 0.5717
v  1.6528 -3.1727 0.3555
v  1.5150 -3.1075 0.4888
v  1.6379 -3.0030 0.1851
v  1.4953 -2.8817 0.2621
v  1.6325 -2.9408 -0.0476
v  1.4880 -2.7990 -0.0476
v  1.6379 -3.0030 -0.2803
v  1.4953 -2.8817 -0.3572
v  1.6528 -3.1727 -0.4506
v  1.5150 -3.1075 -0.5839
v  -0.5129 -3.9065 -0.5839
v  -0.5399 -3.5981 -0.6668
v  1.2366 -3.4427 -0.6668
v  1.2636 -3.7511 -0.5839
v  -0.4932 -4.1324 -0.3572
v  1.2834 -3.9769 -0.3572
v  -0.4859 -4.2150 -0.0476
v  1.2906 -4.0596 -0.0476
v  -0.4932 -4.1324 0.2621
v  1.2834 -3.9769 0.2621
v  -0.5129 -3.9065 0.4888
v  1.2636 -3.7511 0.4888
v  -0.5399 -3.5981 0.5717
v  1.2366 -3.4427 0.5717
v  -0.5669 -3.2896 0.4888
v  1.2096 -3.1342 0.4888
v  -0.5669 -3.2896 -0.5839
v  1.2096 -3.1342 -0.5839
v  1.1899 -2.9084 0.2621
v  1.0551 -2.9202 0.2621
v  1.0657 -3.0407 0.3831
v  -0.4414 -3.1726 0.3831
v  -0.4519 -3.0520 0.2621
v  -0.5867 -3.0638 0.2621
v  -0.4591 -2.9694 -0.0476
v  -0.5939 -2.9812 -0.0476
v  -0.4519 -3.0520 -0.3572
v  -0.5867 -3.0638 -0.3572
v  -0.4414 -3.1726 -0.4782
v  1.0657 -3.0407 -0.4782
v  1.0551 -2.9202 -0.3572
v  1.1899 -2.9084 -0.3572
v  1.0479 -2.8375 -0.0476
v  1.1827 -2.8257 -0.0476
# 219 vertices

vn 0.0254 0.0249 -0.9994
vn 0.0018 0.0000 -1.0000
vn 0.0253 -0.0475 -0.9986
vn -0.4455 -0.1403 -0.8842
vn -0.7549 -0.0694 -0.6522
vn 0.6573 0.1196 -0.7441
vn 0.7202 0.2705 -0.6389
vn -0.4455 -0.1403 0.8842
vn 0.7202 0.2705 0.6389
vn 0.6573 0.1196 0.7441
vn -0.7549 -0.0694 0.6522
vn 0.6377 0.5437 -0.5456
vn -0.6211 0.5962 -0.5087
vn -0.6174 0.5980 0.5111
vn 0.6377 0.5437 0.5456
vn 0.9945 0.1051 0.0008
vn 0.9558 0.2942 -0.0003
vn 0.9880 -0.1445 0.0543
vn 0.9880 -0.1445 -0.0543
vn 0.9945 0.1051 -0.0008
vn 0.9558 0.2942 0.0003
vn -0.7279 -0.3909 0.5634
vn -0.9890 -0.1479 0.0093
vn -0.9889 -0.1485 -0.0092
vn -0.7279 -0.3909 -0.5634
vn -0.9699 -0.1331 -0.2039
vn -0.9667 -0.1522 0.2057
vn 0.0000 0.8685 -0.4956
vn 0.0000 0.0000 1.0000
vn 0.0000 0.6377 0.7703
vn 0.0000 0.9969 -0.0789
vn 0.0000 0.5022 -0.8648
vn 0.0000 0.0000 -1.0000
vn 0.5209 -0.8474 0.1030
vn 0.4280 0.1229 0.8954
vn 0.7370 0.1298 0.6633
vn 0.5554 -0.6940 0.4582
vn 0.2953 -0.2353 -0.9260
vn 0.2243 -0.6746 -0.7033
vn 0.2152 0.0000 -0.9766
vn 0.3461 0.0000 0.9382
vn 0.9779 0.0000 0.2090
vn 0.7817 0.0000 -0.6237
vn 0.7572 -0.0662 -0.6498
vn 0.7855 0.2574 -0.5627
vn 0.8063 0.4943 -0.3249
vn 0.8139 0.5811 -0.0000
vn 0.8139 0.5811 0.0000
vn 0.8063 0.4943 0.3249
vn 0.7855 0.2574 0.5627
vn 0.7572 -0.0662 0.6498
vn 0.7289 -0.3899 0.5627
vn 0.7082 -0.6268 0.3249
vn 0.7006 -0.7136 0.0000
vn 0.7082 -0.6268 -0.3249
vn 0.7289 -0.3899 -0.5627
vn 0.0436 0.4981 -0.8660
vn -0.0000 -0.0000 -1.0000
vn 0.0755 0.8627 -0.5000
vn 0.0872 0.9962 -0.0000
vn 0.0755 0.8627 0.5000
vn 0.0436 0.4981 0.8660
vn 0.0000 -0.0000 1.0000
vn -0.0436 -0.4981 0.8660
vn -0.0436 -0.4981 -0.8660
vn -0.0755 -0.8627 0.5000
vn -0.0616 -0.7044 0.7071
vn -0.0755 -0.8628 0.4999
vn -0.0872 -0.9962 -0.0000
vn -0.0872 -0.9962 0.0000
vn -0.0755 -0.8627 -0.5000
vn -0.0616 -0.7044 -0.7071
vn 0.0254 -0.0249 -0.9994
vn 0.0253 0.0475 -0.9986
vn -0.4455 0.1403 -0.8842
vn 0.7202 -0.2705 -0.6389
vn 0.6573 -0.1196 -0.7441
vn -0.7549 0.0694 -0.6522
vn -0.4455 0.1403 0.8842
vn -0.7549 0.0694 0.6522
vn 0.6573 -0.1196 0.7441
vn 0.7202 -0.2705 0.6389
vn 0.6377 -0.5437 -0.5456
vn 0.6377 -0.5437 0.5456
vn -0.6174 -0.5980 0.5111
vn -0.6211 -0.5962 -0.5087
vn 0.9558 -0.2942 -0.0003
vn 0.9945 -0.1051 0.0008
vn 0.9880 0.1445 0.0543
vn 0.9880 0.1445 -0.0543
vn 0.9945 -0.1051 -0.0008
vn 0.9558 -0.2942 0.0003
vn -0.9890 0.1479 0.0093
vn -0.7279 0.3909 0.5634
vn -0.7279 0.3909 -0.5634
vn -0.9889 0.1485 -0.0092
vn -0.9699 0.1331 -0.2039
vn -0.9667 0.1522 0.2057
vn 0.0000 -0.8685 -0.4956
vn 0.0000 -0.6377 0.7703
vn 0.0000 -0.9969 -0.0789
vn 0.0000 -0.5022 -0.8648
vn 0.5209 0.8474 0.1030
vn 0.7370 -0.1298 0.6633
vn 0.4280 -0.1229 0.8954
vn 0.5554 0.6940 0.4582
vn 0.2243 0.6746 -0.7033
vn 0.2953 0.2353 -0.9260
vn 0.7572 0.0662 -0.6498
vn 0.7855 -0.2574 -0.5627
vn 0.8063 -0.4943 -0.3249
vn 0.8139 -0.5811 0.0000
vn 0.8139 -0.5811 -0.0000
vn 0.8063 -0.4943 0.3249
vn 0.7855 -0.2574 0.5627
vn 0.7572 0.0662 0.6498
vn 0.7289 0.3899 0.5627
vn 0.7082 0.6268 0.3249
vn 0.7006 0.7136 0.0000
vn 0.7082 0.6268 -0.3249
vn 0.7289 0.3899 -0.5627
vn 0.0436 -0.4981 -0.8660
vn -0.0000 0.0000 -1.0000
vn 0.0755 -0.8627 -0.5000
vn 0.0872 -0.9962 -0.0000
vn 0.0755 -0.8627 0.5000
vn 0.0436 -0.4981 0.8660
vn -0.0436 0.4981 0.8660
vn -0.0436 0.4981 -0.8660
vn -0.0755 0.8627 0.5000
vn -0.0616 0.7044 0.7071
vn -0.0755 0.8628 0.4999
vn -0.0872 0.9962 0.0000
vn -0.0872 0.9962 -0.0000
vn -0.0755 0.8627 -0.5000
vn -0.0616 0.7044 -0.7071
# 136 vertex normals

vt 0.0000 1.0000 0.0000
vt 0.0000 0.5000 0.0000
vt 1.0000 0.0000 0.0000
vt 1.0000 1.0000 0.0000
vt 0.0000 0.0000 0.0000
vt 0.3809 1.0000 0.0000
vt 0.5000 1.0000 0.0000
vt 1.0000 0.5000 0.0000
vt 0.0000 0.9589 0.0000
vt 0.9589 0.0000 0.0000
vt 0.3376 1.0000 0.0000
vt 0.5000 0.0000 0.0000
vt 0.7500 1.0000 1.0000
vt 0.8333 1.0000 1.0000
vt 0.9167 1.0000 1.0000
vt 0.8884 1.0000 0.7321
vt 0.7560 1.0000 0.2679
vt 0.5550 1.0000 -0.2679
vt 0.3393 1.0000 -0.7321
vt 0.1667 1.0000 -1.0000
vt 0.0833 1.0000 -1.0000
vt 0.1116 1.0000 -0.7321
vt 0.2440 1.0000 -0.2679
vt 0.6667 1.0000 1.0000
vt 0.8333 0.1290 1.0000
vt 0.8333 0.8722 1.0000
vt 0.7500 0.8722 1.0000
vt 0.7500 0.1290 1.0000
vt 0.9167 0.1290 1.0000
vt 0.9167 0.8722 1.0000
vt 0.0000 0.1290 1.0000
vt 0.0000 0.8722 1.0000
vt -0.0833 0.8722 1.0000
vt -0.0833 0.1290 1.0000
vt 0.0833 0.1290 1.0000
vt 0.0833 0.8722 1.0000
vt 0.1667 0.1290 1.0000
vt 0.1667 0.8722 1.0000
vt 0.2500 0.1290 1.0000
vt 0.2500 0.8722 1.0000
vt 0.3333 0.1290 1.0000
vt 0.3333 0.8722 1.0000
vt 0.6667 0.8722 1.0000
vt 0.6667 0.1290 1.0000
vt 0.4167 0.8722 1.0000
vt 0.4167 0.1290 1.0000
vt 0.5000 0.1290 1.0000
vt 0.5833 0.1290 1.0000
vt 0.5833 0.8722 1.0000
vt 0.5000 0.8722 1.0000
# 50 texture coords

o heavy_a_base
g heavy_a_base
usemtl 01___Default
s 1
f 1/1/1 2/2/2 3/2/2 4/1/3 
f 5/3/4 6/4/5 7/1/6 8/5/7 
f 9/5/8 10/3/9 11/4/10 12/1/11 
f 13/5/12 14/3/13 15/4/14 16/1/15 
f 7/5/6 6/3/5 14/3/13 13/5/12 
f 12/4/11 11/1/10 16/1/15 15/4/14 
f 8/5/7 7/3/6 17/3/16 18/5/17 
f 7/5/6 13/5/12 19/5/18 17/5/16 
f 13/5/12 16/1/15 20/1/19 19/5/18 
f 16/1/15 11/1/10 21/1/20 20/1/19 
f 11/4/10 10/1/9 22/1/21 21/4/20 
f 10/1/9 8/5/7 18/5/17 22/1/21 
f 6/5/5 5/3/4 23/3/22 24/5/23 
f 9/4/8 12/1/11 25/1/24 26/4/25 
f 12/4/11 15/4/14 27/4/26 25/4/24 
f 15/4/14 14/3/13 28/3/27 27/4/26 
f 14/3/13 6/3/5 24/3/23 28/3/27 
f 29/4/28 30/6/28 31/6/28 32/4/28 
f 33/7/29 34/1/30 35/1/30 36/7/29 
f 34/1/30 37/5/31 38/5/31 35/1/30 
f 37/4/31 39/4/32 40/4/32 38/4/31 
f 39/4/32 41/8/33 42/8/33 40/4/32 
f 43/1/34 44/9/35 45/1/36 
f 44/10/35 43/3/34 46/3/37 
f 43/3/34 47/4/38 48/4/39 46/3/37 
f 47/4/38 49/7/40 50/7/40 48/4/39 
f 51/11/28 52/1/28 53/1/28 54/11/28 
f 46/3/37 55/12/41 56/12/42 44/10/35 
f 44/9/35 56/2/42 57/2/43 45/1/36 
f 58/13/44 59/14/45 60/14/45 61/13/44 
f 59/14/45 62/15/46 63/15/46 60/14/45 
f 62/15/46 64/16/47 65/16/48 63/15/46 
f 64/16/47 66/17/49 67/17/49 65/16/48 
f 66/17/49 68/18/50 69/18/50 67/17/49 
f 68/18/50 70/19/51 71/19/51 69/18/50 
f 70/19/51 72/20/52 73/20/52 71/19/51 
f 72/20/52 74/21/53 75/21/53 73/20/52 
f 74/21/53 76/22/54 77/22/54 75/21/53 
f 76/22/54 78/23/55 79/23/55 77/22/54 
f 78/23/55 80/24/56 81/24/56 79/23/55 
f 80/24/56 58/13/44 61/13/44 81/24/56 
f 82/25/57 83/26/57 84/27/58 85/28/58 
f 86/29/59 87/30/59 83/26/57 82/25/57 
f 88/31/60 89/32/60 87/33/59 86/34/59 
f 90/35/61 91/36/61 89/32/60 88/31/60 
f 92/37/62 93/38/62 91/36/61 90/35/61 
f 94/39/29 95/40/63 93/38/62 92/37/62 
f 96/41/64 97/42/64 95/40/63 94/39/29 
f 85/28/58 84/27/58 98/43/65 99/44/65 
f 100/45/66 97/42/64 101/42/67 102/45/66 
f 97/42/64 96/41/64 103/41/67 101/42/67 
f 96/41/64 104/46/68 105/46/66 103/41/67 
f 104/46/68 106/47/69 107/47/70 105/46/66 
f 106/47/69 108/48/71 109/48/71 107/47/70 
f 108/48/71 99/44/65 110/44/72 109/48/71 
f 99/44/65 98/43/65 111/43/72 110/44/72 
f 98/43/65 112/49/71 113/49/71 111/43/72 
f 112/49/71 114/50/69 115/50/70 113/49/71 
f 114/50/69 100/45/66 102/45/66 115/50/70 
f 116/1/73 117/1/74 3/2/2 2/2/2 
f 118/3/75 119/5/76 120/1/77 121/4/78 
f 122/5/79 123/1/80 124/4/81 125/3/82 
f 126/5/83 127/1/84 128/4/85 129/3/86 
f 120/5/77 126/5/83 129/3/86 121/3/78 
f 123/4/80 128/4/85 127/1/84 124/1/81 
f 119/5/76 130/5/87 131/3/88 120/3/77 
f 120/5/77 131/5/88 132/5/89 126/5/83 
f 126/5/83 132/5/89 133/1/90 127/1/84 
f 127/1/84 133/1/90 134/1/91 124/1/81 
f 124/4/81 134/4/91 135/1/92 125/1/82 
f 125/1/82 135/1/92 130/5/87 119/5/76 
f 121/5/78 136/5/93 137/3/94 118/3/75 
f 122/4/79 138/4/95 139/1/96 123/1/80 
f 123/4/80 139/4/96 140/4/97 128/4/85 
f 128/4/85 140/4/97 141/3/98 129/3/86 
f 129/3/86 141/3/98 136/3/93 121/3/78 
f 142/4/99 143/4/99 144/6/99 145/6/99 
f 33/7/29 36/7/29 146/1/100 147/1/100 
f 147/1/100 146/1/100 148/5/101 149/5/101 
f 149/4/101 148/4/101 150/4/102 151/4/102 
f 151/4/102 150/4/102 42/8/33 41/8/33 
f 152/1/103 153/1/104 154/9/105 
f 154/10/105 155/3/106 152/3/103 
f 152/3/103 155/3/106 156/4/107 157/4/108 
f 157/4/108 156/4/107 50/7/40 49/7/40 
f 158/11/99 159/11/99 160/1/99 161/1/99 
f 155/3/106 154/10/105 56/12/42 55/12/41 
f 154/9/105 153/1/104 57/2/43 56/2/42 
f 162/13/109 163/13/109 164/14/110 165/14/110 
f 165/14/110 164/14/110 166/15/111 167/15/111 
f 167/15/111 166/15/111 168/16/112 169/16/113 
f 169/16/113 168/16/112 170/17/114 171/17/114 
f 171/17/114 170/17/114 172/18/115 173/18/115 
f 173/18/115 172/18/115 174/19/116 175/19/116 
f 175/19/116 174/19/116 176/20/117 177/20/117 
f 177/20/117 176/20/117 178/21/118 179/21/118 
f 179/21/118 178/21/118 180/22/119 181/22/119 
f 181/22/119 180/22/119 182/23/120 183/23/120 
f 183/23/120 182/23/120 184/24/121 185/24/121 
f 185/24/121 184/24/121 163/13/109 162/13/109 
f 186/25/122 187/28/123 188/27/123 189/26/122 
f 190/29/124 186/25/122 189/26/122 191/30/124 
f 192/31/125 190/34/124 191/33/124 193/32/125 
f 194/35/126 192/31/125 193/32/125 195/36/126 
f 196/37/127 194/35/126 195/36/126 197/38/127 
f 198/39/63 196/37/127 197/38/127 199/40/29 
f 200/41/128 198/39/63 199/40/29 201/42/128 
f 187/28/123 202/44/129 203/43/129 188/27/123 
f 204/45/130 205/45/130 206/42/131 201/42/128 
f 201/42/128 206/42/131 207/41/131 200/41/128 
f 200/41/128 207/41/131 208/46/130 209/46/132 
f 209/46/132 208/46/130 210/47/133 211/47/134 
f 211/47/134 210/47/133 212/48/135 213/48/135 
f 213/48/135 212/48/135 214/44/136 202/44/129 
f 202/44/129 214/44/136 215/43/136 203/43/129 
f 203/43/129 215/43/136 216/49/135 217/49/135 
f 217/49/135 216/49/135 218/50/133 219/50/134 
f 219/50/134 218/50/133 205/45/130 204/45/130 
# 114 polygons - 4 triangles

#
# object heavy_a_boltz
#

v  3.7926 0.7972 -0.3332
v  4.5861 0.0000 -0.3332
v  4.4363 0.0000 -0.4615
v  3.7926 0.6560 -0.4615
v  2.4189 0.6560 -0.4964
v  2.2255 0.8114 -0.4112
v  3.8504 0.7068 -0.2963
v  4.5681 0.0000 -0.2946
v  3.7926 0.5291 -0.0654
v  3.8478 0.5091 -0.1022
v  4.3560 0.0000 -0.0654
v  4.3735 0.0000 -0.1042
v  3.7179 0.7628 -0.2988
v  3.7179 0.5635 -0.0997
v  2.3002 0.7770 -0.3006
v  2.4189 0.5291 0.1499
v  2.3307 0.5762 0.0835
v  1.0077 1.3308 0.3183
v  -0.7258 1.3308 0.3183
v  -0.7258 1.1042 0.5861
v  1.0077 1.1042 0.5861
v  1.0077 1.4138 -0.0476
v  -0.7258 1.4138 -0.0476
v  1.0077 1.3308 -0.4134
v  -0.7258 1.3308 -0.4134
v  1.0077 1.1042 -0.6812
v  -0.7258 1.1042 -0.6812
v  -0.6216 0.9573 0.3474
v  -0.6216 0.8363 0.5017
v  0.9243 0.8363 0.5017
v  0.9243 0.9573 0.3474
v  0.9243 1.0403 -0.0476
v  0.9243 0.9573 -0.4425
v  0.9243 0.8363 -0.5969
v  -0.6216 0.8363 -0.5969
v  -0.6216 0.9573 -0.4425
v  -0.6216 1.0403 -0.0476
v  3.4113 0.0000 -0.5155
v  2.5385 0.8343 -0.5155
v  2.6441 0.8004 -0.4034
v  3.4541 0.0000 -0.3970
v  2.5385 1.0139 -0.2006
v  2.6569 0.9286 -0.1991
v  2.5385 0.6729 0.4566
v  2.6403 0.6282 0.3517
v  3.3103 0.0000 0.5780
v  3.3553 0.0000 0.4630
v  -0.9082 0.0000 -0.6334
v  -0.9082 1.0378 -0.6334
v  1.2256 1.0378 -0.6334
v  1.2256 0.0000 -0.6334
v  -0.9082 0.0000 1.0293
v  -0.9082 0.8371 0.8832
v  -0.9082 0.6063 0.6247
v  -0.9082 0.0000 0.7305
v  -0.9082 1.2613 -0.2418
v  -0.9082 0.9138 -0.1908
v  -0.9082 0.7707 -0.4415
v  -0.9082 0.0000 -0.4415
v  -1.6553 0.0000 0.7305
v  -1.6553 0.6063 0.6247
v  -1.6553 0.4339 0.4319
v  -1.6553 0.0000 0.5076
v  -1.6553 0.9138 -0.1908
v  -1.6553 0.6543 -0.1525
v  -1.6553 0.7707 -0.4415
v  -1.6553 0.5723 -0.2961
v  -1.6553 0.0000 -0.4415
v  -1.6553 0.0000 -0.2961
v  1.3750 0.8343 -0.5155
v  1.3750 0.0000 -0.5155
v  1.2256 1.2613 -0.2418
v  1.3750 1.0139 -0.2006
v  1.2259 0.8371 0.6929
v  1.3747 0.6729 0.5400
v  1.2258 0.0000 0.8763
v  1.3748 0.0000 0.6896
v  0.5692 0.3659 1.0710
v  -0.0734 0.3659 1.0710
v  -0.0734 0.0000 1.1540
v  0.5692 0.0000 1.1540
v  0.5692 0.6337 0.8444
v  -0.0734 0.6337 0.8444
v  0.7682 0.0000 0.7805
v  0.7682 0.3949 0.6975
v  0.7682 0.5493 0.5765
v  -0.0734 0.5493 0.5765
v  -1.3633 0.5493 0.5765
v  -1.3633 0.3949 0.6177
v  -1.1643 0.3659 1.0710
v  -1.1643 0.6337 0.8444
v  -1.3633 0.0000 0.6496
v  -1.1643 0.0000 1.1540
v  -0.5217 0.3659 1.0710
v  -0.5217 0.0000 1.1540
v  -0.5217 0.6337 0.8444
v  -0.5217 0.5493 0.5765
v  -0.2976 0.4095 1.3398
v  -0.2976 0.0000 1.3533
v  -0.2976 0.7911 1.0512
v  -0.2976 0.8088 0.5765
v  -0.7712 3.7296 -0.7918
v  -0.7568 3.8943 -0.7475
v  -0.5832 3.8791 -0.7475
v  -0.5976 3.7144 -0.7918
v  -0.7401 4.0855 -0.6367
v  -0.7295 4.2061 -0.5157
v  -0.5559 4.1909 -0.5157
v  -0.5665 4.0703 -0.6367
v  -0.7199 4.3165 -0.3237
v  -0.7160 4.3606 -0.1584
v  -0.5424 4.3454 -0.1584
v  -0.5463 4.3013 -0.3237
v  -0.7160 4.3606 0.0633
v  -0.7199 4.3165 0.2286
v  -0.5463 4.3013 0.2286
v  -0.5424 4.3454 0.0633
v  -0.7295 4.2061 0.4206
v  -0.7401 4.0855 0.5416
v  -0.5665 4.0703 0.5416
v  -0.5559 4.1909 0.4206
v  -0.7568 3.8943 0.6524
v  -0.7712 3.7296 0.6967
v  -0.5976 3.7144 0.6967
v  -0.5832 3.8791 0.6524
v  -0.7905 3.5088 0.6967
v  -0.8050 3.3441 0.6524
v  -0.6314 3.3289 0.6524
v  -0.6169 3.4936 0.6967
v  -0.8217 3.1528 0.5416
v  -0.8322 3.0323 0.4206
v  -0.6586 3.0171 0.4206
v  -0.6481 3.1376 0.5416
v  -0.8419 2.9219 0.2286
v  -0.8457 2.8777 0.0633
v  -0.6722 2.8625 0.0633
v  -0.6683 2.9067 0.2286
v  -0.8457 2.8777 -0.1584
v  -0.8419 2.9219 -0.3237
v  -0.6683 2.9067 -0.3237
v  -0.6722 2.8625 -0.1584
v  -0.8322 3.0323 -0.5157
v  -0.8217 3.1528 -0.6367
v  -0.6481 3.1376 -0.6367
v  -0.6586 3.0171 -0.5157
v  -0.8050 3.3441 -0.7475
v  -0.7905 3.5088 -0.7918
v  -0.6169 3.4936 -0.7918
v  -0.6314 3.3289 -0.7475
v  2.7757 3.2773 -0.1004
v  2.7784 3.3078 -0.1086
v  2.7810 3.3382 -0.1004
v  2.7830 3.3605 -0.0781
v  2.7837 3.3686 -0.0476
v  2.7830 3.3605 -0.0170
v  2.7810 3.3382 0.0053
v  2.7784 3.3078 0.0135
v  2.7757 3.2773 0.0053
v  2.7738 3.2551 -0.0170
v  2.7731 3.2469 -0.0476
v  2.7738 3.2551 -0.0781
v  1.6730 3.4045 -0.5130
v  1.6933 3.6363 -0.4506
v  2.1705 3.4859 -0.2632
v  2.1597 3.3619 -0.2965
v  1.7082 3.8060 -0.2803
v  2.1785 3.5767 -0.1720
v  1.7136 3.8681 -0.0476
v  2.1814 3.6099 -0.0476
v  1.7082 3.8060 0.1851
v  2.1785 3.5767 0.0769
v  1.6933 3.6363 0.3555
v  2.1705 3.4859 0.1681
v  1.6730 3.4045 0.4178
v  2.1597 3.3619 0.2014
v  1.6528 3.1727 0.3555
v  2.1488 3.2379 0.1681
v  1.6379 3.0030 0.1851
v  2.1409 3.1471 0.0769
v  1.6325 2.9408 -0.0476
v  2.1380 3.1139 -0.0476
v  1.6379 3.0030 -0.2803
v  2.1409 3.1471 -0.1720
v  1.6528 3.1727 -0.4506
v  2.1488 3.2379 -0.2632
v  -0.8306 3.8267 -0.3982
v  -0.8483 3.6251 -0.4524
v  -1.5220 3.6840 -0.3544
v  -1.5086 3.8369 -0.3133
v  -0.8659 3.4234 -0.3982
v  -1.5353 3.5311 -0.3133
v  -0.8788 3.2758 -0.2500
v  -1.5451 3.4193 -0.2010
v  -0.8835 3.2217 -0.0476
v  -1.5487 3.3783 -0.0476
v  -0.8788 3.2758 0.1549
v  -1.5451 3.4193 0.1059
v  -0.8659 3.4234 0.3031
v  -1.5353 3.5311 0.2182
v  -0.8483 3.6251 0.3573
v  -1.5220 3.6840 0.2593
v  -0.8306 3.8267 0.3031
v  -1.5086 3.8369 0.2182
v  -0.8177 3.9743 0.1549
v  -1.4988 3.9487 0.1059
v  -0.8130 4.0284 -0.0476
v  -1.4952 3.9897 -0.0476
v  -0.8177 3.9743 -0.2500
v  -1.4988 3.9487 -0.2010
v  -1.5776 3.6889 -0.2771
v  -1.5676 3.8032 -0.2463
v  -1.5876 3.5745 -0.2463
v  -1.5950 3.4908 -0.1623
v  -1.5976 3.4602 -0.0476
v  -1.5950 3.4908 0.0672
v  -1.5876 3.5745 0.1512
v  -1.5776 3.6889 0.1820
v  -1.5676 3.8032 0.1512
v  -1.5603 3.8869 0.0672
v  -1.5576 3.9175 -0.0476
v  -1.5603 3.8869 -0.1623
v  -1.3417 3.6682 -0.1998
v  -1.3351 3.7440 -0.1794
v  -1.3483 3.5924 -0.1794
v  -1.3532 3.5369 -0.1237
v  -1.3550 3.5166 -0.0476
v  -1.3532 3.5369 0.0285
v  -1.3483 3.5924 0.0842
v  -1.3417 3.6682 0.1046
v  -1.3351 3.7440 0.0842
v  -1.3302 3.7995 0.0285
v  -1.3284 3.8198 -0.0476
v  -1.3302 3.7995 -0.1237
v  1.3281 3.7119 -0.7475
v  1.4987 3.6969 -0.7475
v  1.4843 3.5322 -0.7918
v  1.3137 3.5472 -0.7918
v  1.3554 4.0237 -0.5157
v  1.5260 4.0087 -0.5157
v  1.5154 3.8882 -0.6367
v  1.3448 3.9031 -0.6367
v  1.3689 4.1782 -0.1584
v  1.5395 4.1633 -0.1584
v  1.5356 4.1191 -0.3237
v  1.3650 4.1341 -0.3237
v  1.3650 4.1341 0.2286
v  1.5356 4.1191 0.2286
v  1.5395 4.1633 0.0633
v  1.3689 4.1782 0.0633
v  1.3448 3.9031 0.5416
v  1.5154 3.8882 0.5416
v  1.5260 4.0087 0.4206
v  1.3554 4.0237 0.4206
v  1.3137 3.5472 0.6967
v  1.4843 3.5322 0.6967
v  1.4987 3.6969 0.6524
v  1.3281 3.7119 0.6524
v  1.2799 3.1617 0.6524
v  1.4506 3.1467 0.6524
v  1.4650 3.3114 0.6967
v  1.2943 3.3264 0.6967
v  1.2527 2.8499 0.4206
v  1.4233 2.8349 0.4206
v  1.4338 2.9555 0.5416
v  1.2632 2.9704 0.5416
v  1.2391 2.6953 0.0633
v  1.4098 2.6804 0.0633
v  1.4136 2.7245 0.2286
v  1.2430 2.7395 0.2286
v  1.2430 2.7395 -0.3237
v  1.4136 2.7245 -0.3237
v  1.4098 2.6804 -0.1584
v  1.2391 2.6953 -0.1584
v  1.2632 2.9704 -0.6367
v  1.4338 2.9555 -0.6367
v  1.4233 2.8349 -0.5157
v  1.2527 2.8499 -0.5157
v  1.2943 3.3264 -0.7918
v  1.4650 3.3114 -0.7918
v  1.4506 3.1467 -0.7475
v  1.2799 3.1617 -0.7475
v  -0.3438 2.6676 0.2393
v  0.8819 2.5604 0.2393
v  0.9017 2.7862 0.4493
v  -0.3240 2.8934 0.4493
v  -0.3510 2.5850 -0.0476
v  0.8747 2.4777 -0.0476
v  -0.3438 2.6676 -0.3344
v  0.8819 2.5604 -0.3344
v  -0.3240 2.8934 -0.5444
v  0.9017 2.7862 -0.5444
v  -0.8483 3.6251 -0.6668
v  -0.8213 3.9335 -0.5839
v  -0.5129 3.9065 -0.5839
v  -0.5399 3.5981 -0.6668
v  -0.8015 4.1593 -0.3572
v  -0.4932 4.1324 -0.3572
v  -0.7943 4.2420 -0.0476
v  -0.4859 4.2150 -0.0476
v  -0.8015 4.1593 0.2621
v  -0.4932 4.1324 0.2621
v  -0.8213 3.9335 0.4888
v  -0.5129 3.9065 0.4888
v  -0.8483 3.6251 0.5717
v  -0.5399 3.5981 0.5717
v  -0.8752 3.3166 0.4888
v  -0.5669 3.2896 0.4888
v  -0.8950 3.0908 0.2621
v  -0.5867 3.0638 0.2621
v  -0.9022 3.0081 -0.0476
v  -0.5939 2.9812 -0.0476
v  -0.8950 3.0908 -0.3572
v  -0.5867 3.0638 -0.3572
v  -0.8752 3.3166 -0.5839
v  -0.5669 3.2896 -0.5839
v  1.2636 3.7511 -0.5839
v  1.5690 3.7244 -0.5839
v  1.5420 3.4159 -0.6668
v  1.2366 3.4427 -0.6668
v  1.2834 3.9769 -0.3572
v  1.5887 3.9502 -0.3572
v  1.2906 4.0596 -0.0476
v  1.5960 4.0329 -0.0476
v  1.2834 3.9769 0.2621
v  1.5887 3.9502 0.2621
v  1.2636 3.7511 0.4888
v  1.5690 3.7244 0.4888
v  1.2366 3.4427 0.5717
v  1.5420 3.4159 0.5717
v  1.2096 3.1342 0.4888
v  1.5150 3.1075 0.4888
v  1.1899 2.9084 0.2621
v  1.4953 2.8817 0.2621
v  1.1827 2.8257 -0.0476
v  1.4880 2.7990 -0.0476
v  1.1899 2.9084 -0.3572
v  1.4953 2.8817 -0.3572
v  1.2096 3.1342 -0.5839
v  1.5150 3.1075 -0.5839
v  1.0551 2.9202 0.2621
v  1.0657 3.0407 0.3831
v  -0.4414 3.1726 0.3831
v  -0.4519 3.0520 0.2621
v  -0.4591 2.9694 -0.0476
v  -0.4519 3.0520 -0.3572
v  -0.4414 3.1726 -0.4782
v  1.0657 3.0407 -0.4782
v  1.0551 2.9202 -0.3572
v  1.0479 2.8375 -0.0476
v  3.7926 -0.7972 -0.3332
v  3.7926 -0.6560 -0.4615
v  2.2255 -0.8114 -0.4112
v  2.4189 -0.6560 -0.4964
v  3.8504 -0.7068 -0.2963
v  3.8478 -0.5091 -0.1022
v  3.7926 -0.5291 -0.0654
v  3.7179 -0.5635 -0.0997
v  3.7179 -0.7628 -0.2988
v  2.3002 -0.7770 -0.3006
v  2.4189 -0.5291 0.1499
v  2.3307 -0.5762 0.0835
v  1.0077 -1.3308 0.3183
v  1.0077 -1.1042 0.5861
v  -0.7258 -1.1042 0.5861
v  -0.7258 -1.3308 0.3183
v  1.0077 -1.4138 -0.0476
v  -0.7258 -1.4138 -0.0476
v  1.0077 -1.3308 -0.4134
v  -0.7258 -1.3308 -0.4134
v  1.0077 -1.1042 -0.6812
v  -0.7258 -1.1042 -0.6812
v  -0.6216 -0.9573 0.3474
v  -0.6216 -0.8363 0.5017
v  0.9243 -0.8363 0.5017
v  0.9243 -0.9573 0.3474
v  0.9243 -1.0403 -0.0476
v  0.9243 -0.9573 -0.4425
v  0.9243 -0.8363 -0.5969
v  -0.6216 -0.8363 -0.5969
v  -0.6216 -0.9573 -0.4425
v  -0.6216 -1.0403 -0.0476
v  2.6441 -0.8004 -0.4034
v  2.5385 -0.8343 -0.5155
v  2.6569 -0.9286 -0.1991
v  2.5385 -1.0139 -0.2006
v  2.6403 -0.6282 0.3517
v  2.5385 -0.6729 0.4566
v  1.2256 -1.0378 -0.6334
v  -0.9082 -1.0378 -0.6334
v  -0.9082 -0.6063 0.6247
v  -0.9082 -0.8371 0.8832
v  -0.9082 -0.9138 -0.1908
v  -0.9082 -1.2613 -0.2418
v  -0.9082 -0.7707 -0.4415
v  -1.6553 -0.4339 0.4319
v  -1.6553 -0.6063 0.6247
v  -1.6553 -0.6543 -0.1525
v  -1.6553 -0.9138 -0.1908
v  -1.6553 -0.5723 -0.2961
v  -1.6553 -0.7707 -0.4415
v  1.3750 -0.8343 -0.5155
v  1.2256 -1.2613 -0.2418
v  1.3750 -1.0139 -0.2006
v  1.3747 -0.6729 0.5400
v  1.2259 -0.8371 0.6929
v  0.5692 -0.3659 1.0710
v  -0.0734 -0.3659 1.0710
v  0.5692 -0.6337 0.8444
v  -0.0734 -0.6337 0.8444
v  0.7682 -0.3949 0.6975
v  0.7682 -0.5493 0.5765
v  -0.0734 -0.5493 0.5765
v  -1.3633 -0.5493 0.5765
v  -1.1643 -0.6337 0.8444
v  -1.1643 -0.3659 1.0710
v  -1.3633 -0.3949 0.6177
v  -0.5217 -0.3659 1.0710
v  -0.5217 -0.6337 0.8444
v  -0.5217 -0.5493 0.5765
v  -0.2976 -0.4095 1.3398
v  -0.2976 -0.7911 1.0512
v  -0.2976 -0.8088 0.5765
v  -0.7712 -3.7296 -0.7918
v  -0.5976 -3.7144 -0.7918
v  -0.5832 -3.8791 -0.7475
v  -0.7568 -3.8943 -0.7475
v  -0.7401 -4.0855 -0.6367
v  -0.5665 -4.0703 -0.6367
v  -0.5559 -4.1909 -0.5157
v  -0.7295 -4.2061 -0.5157
v  -0.7199 -4.3165 -0.3237
v  -0.5463 -4.3013 -0.3237
v  -0.5424 -4.3454 -0.1584
v  -0.7160 -4.3606 -0.1584
v  -0.7160 -4.3606 0.0633
v  -0.5424 -4.3454 0.0633
v  -0.5463 -4.3013 0.2286
v  -0.7199 -4.3165 0.2286
v  -0.7295 -4.2061 0.4206
v  -0.5559 -4.1909 0.4206
v  -0.5665 -4.0703 0.5416
v  -0.7401 -4.0855 0.5416
v  -0.7568 -3.8943 0.6524
v  -0.5832 -3.8791 0.6524
v  -0.5976 -3.7144 0.6967
v  -0.7712 -3.7296 0.6967
v  -0.7905 -3.5088 0.6967
v  -0.6169 -3.4936 0.6967
v  -0.6314 -3.3289 0.6524
v  -0.8050 -3.3441 0.6524
v  -0.8217 -3.1528 0.5416
v  -0.6481 -3.1376 0.5416
v  -0.6586 -3.0171 0.4206
v  -0.8322 -3.0323 0.4206
v  -0.8419 -2.9219 0.2286
v  -0.6683 -2.9067 0.2286
v  -0.6722 -2.8625 0.0633
v  -0.8457 -2.8777 0.0633
v  -0.8457 -2.8777 -0.1584
v  -0.6722 -2.8625 -0.1584
v  -0.6683 -2.9067 -0.3237
v  -0.8419 -2.9219 -0.3237
v  -0.8322 -3.0323 -0.5157
v  -0.6586 -3.0171 -0.5157
v  -0.6481 -3.1376 -0.6367
v  -0.8217 -3.1528 -0.6367
v  -0.8050 -3.3441 -0.7475
v  -0.6314 -3.3289 -0.7475
v  -0.6169 -3.4936 -0.7918
v  -0.7905 -3.5088 -0.7918
v  2.7757 -3.2773 -0.1004
v  2.7738 -3.2551 -0.0781
v  2.7731 -3.2469 -0.0476
v  2.7738 -3.2551 -0.0170
v  2.7757 -3.2773 0.0053
v  2.7784 -3.3078 0.0135
v  2.7810 -3.3382 0.0053
v  2.7830 -3.3605 -0.0170
v  2.7837 -3.3686 -0.0476
v  2.7830 -3.3605 -0.0781
v  2.7810 -3.3382 -0.1004
v  2.7784 -3.3078 -0.1086
v  1.6730 -3.4045 -0.5130
v  2.1597 -3.3619 -0.2965
v  2.1705 -3.4859 -0.2632
v  1.6933 -3.6363 -0.4506
v  2.1785 -3.5767 -0.1720
v  1.7082 -3.8060 -0.2803
v  2.1814 -3.6099 -0.0476
v  1.7136 -3.8681 -0.0476
v  2.1785 -3.5767 0.0769
v  1.7082 -3.8060 0.1851
v  2.1705 -3.4859 0.1681
v  1.6933 -3.6363 0.3555
v  2.1597 -3.3619 0.2014
v  1.6730 -3.4045 0.4178
v  2.1488 -3.2379 0.1681
v  1.6528 -3.1727 0.3555
v  2.1409 -3.1471 0.0769
v  1.6379 -3.0030 0.1851
v  2.1380 -3.1139 -0.0476
v  1.6325 -2.9408 -0.0476
v  2.1409 -3.1471 -0.1720
v  1.6379 -3.0030 -0.2803
v  2.1488 -3.2379 -0.2632
v  1.6528 -3.1727 -0.4506
v  -0.8306 -3.8267 -0.3982
v  -1.5086 -3.8369 -0.3133
v  -1.5220 -3.6840 -0.3544
v  -0.8483 -3.6251 -0.4524
v  -1.5353 -3.5311 -0.3133
v  -0.8659 -3.4234 -0.3982
v  -1.5451 -3.4193 -0.2010
v  -0.8788 -3.2758 -0.2500
v  -1.5487 -3.3783 -0.0476
v  -0.8835 -3.2217 -0.0476
v  -1.5451 -3.4193 0.1059
v  -0.8788 -3.2758 0.1549
v  -1.5353 -3.5311 0.2182
v  -0.8659 -3.4234 0.3031
v  -1.5220 -3.6840 0.2593
v  -0.8483 -3.6251 0.3573
v  -1.5086 -3.8369 0.2182
v  -0.8306 -3.8267 0.3031
v  -1.4988 -3.9487 0.1059
v  -0.8177 -3.9743 0.1549
v  -1.4952 -3.9897 -0.0476
v  -0.8130 -4.0284 -0.0476
v  -1.4988 -3.9487 -0.2010
v  -0.8177 -3.9743 -0.2500
v  -1.5676 -3.8032 -0.2463
v  -1.5776 -3.6889 -0.2771
v  -1.5876 -3.5745 -0.2463
v  -1.5950 -3.4908 -0.1623
v  -1.5976 -3.4602 -0.0476
v  -1.5950 -3.4908 0.0672
v  -1.5876 -3.5745 0.1512
v  -1.5776 -3.6889 0.1820
v  -1.5676 -3.8032 0.1512
v  -1.5603 -3.8869 0.0672
v  -1.5576 -3.9175 -0.0476
v  -1.5603 -3.8869 -0.1623
v  -1.3351 -3.7440 -0.1794
v  -1.3417 -3.6682 -0.1998
v  -1.3483 -3.5924 -0.1794
v  -1.3532 -3.5369 -0.1237
v  -1.3550 -3.5166 -0.0476
v  -1.3532 -3.5369 0.0285
v  -1.3483 -3.5924 0.0842
v  -1.3417 -3.6682 0.1046
v  -1.3351 -3.7440 0.0842
v  -1.3302 -3.7995 0.0285
v  -1.3284 -3.8198 -0.0476
v  -1.3302 -3.7995 -0.1237
v  1.3281 -3.7119 -0.7475
v  1.3137 -3.5472 -0.7918
v  1.4843 -3.5322 -0.7918
v  1.4987 -3.6969 -0.7475
v  1.3554 -4.0237 -0.5157
v  1.3448 -3.9031 -0.6367
v  1.5154 -3.8882 -0.6367
v  1.5260 -4.0087 -0.5157
v  1.3689 -4.1782 -0.1584
v  1.3650 -4.1341 -0.3237
v  1.5356 -4.1191 -0.3237
v  1.5395 -4.1633 -0.1584
v  1.3650 -4.1341 0.2286
v  1.3689 -4.1782 0.0633
v  1.5395 -4.1633 0.0633
v  1.5356 -4.1191 0.2286
v  1.3448 -3.9031 0.5416
v  1.3554 -4.0237 0.4206
v  1.5260 -4.0087 0.4206
v  1.5154 -3.8882 0.5416
v  1.3137 -3.5472 0.6967
v  1.3281 -3.7119 0.6524
v  1.4987 -3.6969 0.6524
v  1.4843 -3.5322 0.6967
v  1.2799 -3.1617 0.6524
v  1.2943 -3.3264 0.6967
v  1.4650 -3.3114 0.6967
v  1.4506 -3.1467 0.6524
v  1.2527 -2.8499 0.4206
v  1.2632 -2.9704 0.5416
v  1.4338 -2.9555 0.5416
v  1.4233 -2.8349 0.4206
v  1.2391 -2.6953 0.0633
v  1.2430 -2.7395 0.2286
v  1.4136 -2.7245 0.2286
v  1.4098 -2.6804 0.0633
v  1.2430 -2.7395 -0.3237
v  1.2391 -2.6953 -0.1584
v  1.4098 -2.6804 -0.1584
v  1.4136 -2.7245 -0.3237
v  1.2632 -2.9704 -0.6367
v  1.2527 -2.8499 -0.5157
v  1.4233 -2.8349 -0.5157
v  1.4338 -2.9555 -0.6367
v  1.2943 -3.3264 -0.7918
v  1.2799 -3.1617 -0.7475
v  1.4506 -3.1467 -0.7475
v  1.4650 -3.3114 -0.7918
v  -0.3438 -2.6676 0.2393
v  -0.3240 -2.8934 0.4493
v  0.9017 -2.7862 0.4493
v  0.8819 -2.5604 0.2393
v  -0.3510 -2.5850 -0.0476
v  0.8747 -2.4777 -0.0476
v  -0.3438 -2.6676 -0.3344
v  0.8819 -2.5604 -0.3344
v  -0.3240 -2.8934 -0.5444
v  0.9017 -2.7862 -0.5444
v  -0.8483 -3.6251 -0.6668
v  -0.8213 -3.9335 -0.5839
v  -0.5129 -3.9065 -0.5839
v  -0.5399 -3.5981 -0.6668
v  -0.8015 -4.1593 -0.3572
v  -0.4932 -4.1324 -0.3572
v  -0.7943 -4.2420 -0.0476
v  -0.4859 -4.2150 -0.0476
v  -0.8015 -4.1593 0.2621
v  -0.4932 -4.1324 0.2621
v  -0.8213 -3.9335 0.4888
v  -0.5129 -3.9065 0.4888
v  -0.8483 -3.6251 0.5717
v  -0.5399 -3.5981 0.5717
v  -0.8752 -3.3166 0.4888
v  -0.5669 -3.2896 0.4888
v  -0.8950 -3.0908 0.2621
v  -0.5867 -3.0638 0.2621
v  -0.9022 -3.0081 -0.0476
v  -0.5939 -2.9812 -0.0476
v  -0.8950 -3.0908 -0.3572
v  -0.5867 -3.0638 -0.3572
v  -0.8752 -3.3166 -0.5839
v  -0.5669 -3.2896 -0.5839
v  1.2636 -3.7511 -0.5839
v  1.5690 -3.7244 -0.5839
v  1.5420 -3.4159 -0.6668
v  1.2366 -3.4427 -0.6668
v  1.2834 -3.9769 -0.3572
v  1.5887 -3.9502 -0.3572
v  1.2906 -4.0596 -0.0476
v  1.5960 -4.0329 -0.0476
v  1.2834 -3.9769 0.2621
v  1.5887 -3.9502 0.2621
v  1.2636 -3.7511 0.4888
v  1.5690 -3.7244 0.4888
v  1.2366 -3.4427 0.5717
v  1.5420 -3.4159 0.5717
v  1.2096 -3.1342 0.4888
v  1.5150 -3.1075 0.4888
v  1.1899 -2.9084 0.2621
v  1.4953 -2.8817 0.2621
v  1.1827 -2.8257 -0.0476
v  1.4880 -2.7990 -0.0476
v  1.1899 -2.9084 -0.3572
v  1.4953 -2.8817 -0.3572
v  1.2096 -3.1342 -0.5839
v  1.5150 -3.1075 -0.5839
v  1.0551 -2.9202 0.2621
v  1.0657 -3.0407 0.3831
v  -0.4414 -3.1726 0.3831
v  -0.4519 -3.0520 0.2621
v  -0.4591 -2.9694 -0.0476
v  -0.4519 -3.0520 -0.3572
v  -0.4414 -3.1726 -0.4782
v  1.0657 -3.0407 -0.4782
v  1.0551 -2.9202 -0.3572
v  1.0479 -2.8375 -0.0476
# 670 vertices

vn 0.3377 0.9412 -0.0140
vn 0.9853 0.0000 -0.1706
vn 0.6506 0.0000 -0.7594
vn 0.3459 0.6309 -0.6945
vn 0.0219 0.5014 -0.8649
vn 0.0220 0.9636 -0.2666
vn 0.5625 0.5940 0.5750
vn 0.9062 0.0000 0.4228
vn 0.3562 0.6874 0.6329
vn 0.5866 0.5842 0.5609
vn 0.9117 0.0000 0.4108
vn 0.0033 0.7031 0.7111
vn 0.0467 0.7549 0.6541
vn 0.0092 0.9566 0.2914
vn 0.0791 0.8594 0.5052
vn 0.0751 0.8574 0.5092
vn 0.7331 0.6032 0.3143
vn -0.7498 0.5851 0.3089
vn -0.7215 0.1124 0.6833
vn 0.7016 0.1351 0.6996
vn 0.7294 0.6841 -0.0000
vn -0.7447 0.6674 0.0000
vn 0.7331 0.6031 -0.3143
vn -0.7498 0.5852 -0.3089
vn 0.7016 0.1351 -0.6996
vn -0.7215 0.1123 -0.6832
vn -0.9476 -0.2766 -0.1601
vn -0.5342 -0.4358 0.7244
vn 0.5526 -0.4020 0.7301
vn 0.9653 -0.2257 -0.1311
vn 0.9760 -0.2179 -0.0000
vn 0.9653 -0.2257 0.1311
vn 0.5526 -0.4020 -0.7301
vn -0.5342 -0.4358 -0.7244
vn -0.9476 -0.2766 0.1601
vn -0.9633 -0.2685 -0.0000
vn 0.7116 0.0000 -0.7026
vn 0.3367 0.3583 -0.8708
vn 0.6491 0.6343 -0.4199
vn 0.9404 0.0000 -0.3402
vn 0.5848 0.8110 -0.0160
vn 0.5847 0.8106 -0.0314
vn 0.6339 0.7070 0.3136
vn 0.6393 0.6979 0.3228
vn 0.9312 0.0000 0.3644
vn -0.7071 0.0000 -0.7071
vn -0.7993 0.0000 -0.6009
vn 0.5551 0.2264 -0.8004
vn 0.3279 0.0000 -0.9447
vn -1.0000 0.0000 0.0000
vn 0.5814 0.1518 -0.7993
vn 0.8580 0.5124 -0.0350
vn 0.8558 0.5173 0.0026
vn 0.8316 0.3601 0.4229
vn 0.8284 0.3288 0.4534
vn 0.7816 0.0000 0.6238
vn 0.4638 0.3804 0.8001
vn 0.4391 0.4154 0.7967
vn 0.3733 0.0000 0.9277
vn 0.4851 0.0000 0.8745
vn 0.3436 0.8808 0.3256
vn 0.3552 0.9234 0.1456
vn 0.8826 0.0000 0.4702
vn 0.8422 0.2654 0.4693
vn 0.5825 0.7919 0.1832
vn 0.3733 0.8848 -0.2788
vn -0.7094 0.6223 0.3309
vn -0.9113 0.0754 0.4048
vn -0.4962 0.3743 0.7834
vn -0.3436 0.8808 0.3256
vn -0.9302 0.0000 0.3670
vn -0.5285 0.0000 0.8489
vn -0.4391 0.4154 0.7967
vn -0.3733 0.0000 0.9277
vn -0.3552 0.9234 0.1457
vn -0.3733 0.8848 -0.2788
vn -0.0000 0.3131 0.9497
vn -0.0000 0.0000 1.0000
vn -0.0000 0.8525 0.5227
vn 0.0000 0.9993 0.0374
vn -0.4568 -0.1650 -0.8741
vn -0.3855 0.6499 -0.6549
vn 0.4925 0.5731 -0.6549
vn 0.4213 -0.2418 -0.8741
vn -0.4164 0.2977 -0.8591
vn -0.3642 0.8942 -0.2603
vn 0.5139 0.8174 -0.2603
vn 0.4617 0.2209 -0.8591
vn -0.3820 0.6908 -0.6139
vn -0.3629 0.9092 0.2042
vn 0.5153 0.8324 0.2042
vn 0.4961 0.6140 -0.6139
vn -0.3628 0.9092 -0.2041
vn -0.3820 0.6908 0.6139
vn 0.4961 0.6140 0.6139
vn 0.5153 0.8324 -0.2042
vn -0.3642 0.8942 0.2603
vn -0.4164 0.2977 0.8591
vn 0.4617 0.2209 0.8591
vn 0.5139 0.8174 0.2603
vn -0.3855 0.6499 0.6549
vn -0.4568 -0.1650 0.8741
vn 0.4212 -0.2418 0.8741
vn 0.4926 0.5731 0.6549
vn -0.4212 0.2418 0.8741
vn -0.4925 -0.5731 0.6549
vn 0.3855 -0.6499 0.6549
vn 0.4568 0.1650 0.8741
vn -0.4617 -0.2209 0.8591
vn -0.5139 -0.8174 0.2603
vn 0.3642 -0.8942 0.2603
vn 0.4164 -0.2977 0.8591
vn -0.4961 -0.6141 0.6138
vn -0.5152 -0.8324 -0.2042
vn 0.3628 -0.9092 -0.2041
vn 0.3820 -0.6908 0.6139
vn -0.5153 -0.8324 0.2042
vn -0.4961 -0.6141 -0.6138
vn 0.3820 -0.6908 -0.6139
vn 0.3628 -0.9092 0.2041
vn -0.5139 -0.8174 -0.2602
vn -0.4617 -0.2209 -0.8591
vn 0.4164 -0.2977 -0.8591
vn 0.3642 -0.8942 -0.2603
vn -0.4926 -0.5731 -0.6549
vn -0.4212 0.2418 -0.8741
vn 0.4568 0.1650 -0.8741
vn 0.3855 -0.6499 -0.6549
vn 0.7262 -0.3912 -0.5654
vn 0.7546 -0.0660 -0.6528
vn 0.7831 0.2591 -0.5654
vn 0.8039 0.4972 -0.3264
vn 0.8115 0.5843 0.0000
vn 0.8039 0.4972 0.3264
vn 0.7831 0.2591 0.5654
vn 0.7546 -0.0660 0.6528
vn 0.7262 -0.3912 0.5654
vn 0.7054 -0.6292 0.3264
vn 0.6977 -0.7164 -0.0000
vn 0.7054 -0.6292 -0.3264
vn 0.4035 -0.0353 -0.9143
vn 0.4434 0.4201 -0.7918
vn 0.3908 0.4357 -0.8108
vn 0.3500 -0.0306 -0.9362
vn 0.4725 0.7535 -0.4571
vn 0.4207 0.7771 -0.4681
vn 0.4832 0.8755 -0.0000
vn 0.4316 0.9021 0.0000
vn 0.4725 0.7535 0.4571
vn 0.4207 0.7771 0.4681
vn 0.4434 0.4201 0.7918
vn 0.3908 0.4357 0.8108
vn 0.4035 -0.0353 0.9143
vn 0.3500 -0.0306 0.9362
vn 0.3637 -0.4907 0.7918
vn 0.3092 -0.4970 0.8108
vn 0.3345 -0.8241 0.4571
vn 0.2793 -0.8383 0.4681
vn 0.3238 -0.9461 0.0000
vn 0.2684 -0.9633 0.0000
vn 0.3345 -0.8241 -0.4571
vn 0.2793 -0.8383 -0.4681
vn 0.3637 -0.4907 -0.7918
vn 0.3092 -0.4970 -0.8108
vn -0.0997 0.5054 -0.8571
vn -0.1428 0.0125 -0.9897
vn -0.4894 0.0428 -0.8710
vn -0.4515 0.4767 -0.7543
vn -0.1860 -0.4805 -0.8571
vn -0.5274 -0.3910 -0.7543
vn -0.2175 -0.8413 -0.4948
vn -0.5552 -0.7086 -0.4355
vn -0.2291 -0.9734 0.0000
vn -0.5653 -0.8249 -0.0000
vn -0.2175 -0.8413 0.4948
vn -0.5552 -0.7086 0.4355
vn -0.1860 -0.4805 0.8571
vn -0.5274 -0.3910 0.7543
vn -0.1428 0.0125 0.9897
vn -0.4894 0.0428 0.8710
vn -0.0997 0.5054 0.8571
vn -0.4515 0.4767 0.7543
vn -0.0681 0.8663 0.4948
vn -0.4237 0.7942 0.4355
vn -0.0566 0.9984 -0.0000
vn -0.4135 0.9105 -0.0000
vn -0.0681 0.8663 -0.4948
vn -0.4237 0.7942 -0.4355
vn -0.9801 0.0857 0.1793
vn -0.9879 -0.0035 0.1552
vn -0.9722 0.1750 0.1552
vn -0.9665 0.2404 0.0896
vn -0.9644 0.2643 0.0000
vn -0.9665 0.2404 -0.0896
vn -0.9722 0.1750 -0.1552
vn -0.9801 0.0857 -0.1793
vn -0.9879 -0.0035 -0.1552
vn -0.9936 -0.0689 -0.0896
vn -0.9957 -0.0928 0.0000
vn -0.9936 -0.0689 0.0896
vn -0.3092 0.0271 0.9506
vn -0.3506 -0.4464 0.8232
vn -0.2678 0.5005 0.8232
vn -0.2375 0.8472 0.4753
vn -0.2264 0.9740 0.0000
vn -0.2375 0.8472 -0.4753
vn -0.2678 0.5005 -0.8232
vn -0.3092 0.0271 -0.9506
vn -0.3506 -0.4464 -0.8232
vn -0.3810 -0.7931 -0.4753
vn -0.3921 -0.9199 0.0000
vn -0.3810 -0.7931 0.4753
vn 0.4212 -0.2418 -0.8741
vn 0.5152 0.8324 0.2042
vn -0.3820 0.6909 0.6139
vn 0.5152 0.8324 -0.2042
vn -0.3629 0.9092 -0.2042
vn 0.4925 0.5731 0.6549
vn -0.5139 -0.8174 0.2602
vn 0.3641 -0.8942 0.2603
vn 0.4164 -0.2976 0.8591
vn 0.3629 -0.9092 -0.2042
vn 0.3819 -0.6909 0.6138
vn -0.4961 -0.6140 0.6139
vn -0.4961 -0.6140 -0.6139
vn 0.3819 -0.6909 -0.6138
vn 0.3629 -0.9092 0.2042
vn -0.5152 -0.8324 0.2042
vn 0.4164 -0.2976 -0.8591
vn 0.3641 -0.8942 -0.2603
vn -0.4925 -0.5731 -0.6549
vn -0.5711 -0.6950 0.4368
vn 0.4418 -0.7836 0.4368
vn 0.3664 -0.3249 0.8719
vn -0.4173 -0.2563 0.8719
vn -0.5979 -0.8016 0.0000
vn 0.4496 -0.8932 0.0000
vn -0.5711 -0.6950 -0.4368
vn 0.4418 -0.7836 -0.4368
vn -0.4173 -0.2563 -0.8719
vn 0.3664 -0.3249 -0.8719
vn -0.6400 0.0560 -0.7663
vn -0.6066 0.4377 -0.6636
vn 0.6734 0.3257 -0.6636
vn 0.6400 -0.0560 -0.7663
vn -0.5822 0.7171 -0.3831
vn 0.6979 0.6051 -0.3831
vn -0.5733 0.8194 -0.0000
vn 0.7068 0.7074 0.0000
vn -0.5822 0.7171 0.3831
vn 0.6979 0.6051 0.3831
vn -0.6066 0.4377 0.6636
vn 0.6734 0.3257 0.6636
vn -0.6400 0.0560 0.7663
vn 0.6400 -0.0560 0.7663
vn -0.6734 -0.3257 0.6636
vn 0.6066 -0.4377 0.6636
vn -0.6979 -0.6051 0.3832
vn 0.5822 -0.7171 0.3831
vn -0.7068 -0.7074 0.0000
vn 0.5733 -0.8194 0.0000
vn -0.6979 -0.6051 -0.3831
vn 0.5822 -0.7171 -0.3831
vn -0.6734 -0.3257 -0.6636
vn 0.6066 -0.4377 -0.6636
vn -0.5822 0.7171 -0.3832
vn -0.5733 0.8194 0.0000
vn -0.5822 0.7171 0.3832
vn 0.5822 -0.7171 0.3832
vn 0.5732 -0.8194 0.0000
vn -0.6979 -0.6051 -0.3832
vn 0.5822 -0.7171 -0.3832
vn 0.8627 -0.4321 0.2627
vn 0.5296 -0.1231 0.8393
vn -0.5429 -0.0293 0.8393
vn -0.9246 -0.2757 0.2627
vn -0.9626 -0.2708 0.0000
vn -0.9246 -0.2757 -0.2627
vn -0.5429 -0.0293 -0.8393
vn 0.5296 -0.1231 -0.8393
vn 0.8627 -0.4321 -0.2627
vn 0.9010 -0.4338 0.0000
vn 0.3377 -0.9412 -0.0140
vn 0.3459 -0.6309 -0.6945
vn 0.0220 -0.9636 -0.2666
vn 0.0219 -0.5014 -0.8649
vn 0.5625 -0.5940 0.5750
vn 0.5866 -0.5842 0.5609
vn 0.3562 -0.6874 0.6329
vn 0.0467 -0.7549 0.6541
vn 0.0033 -0.7031 0.7111
vn 0.0092 -0.9566 0.2914
vn 0.0791 -0.8594 0.5052
vn 0.0751 -0.8574 0.5092
vn 0.7331 -0.6032 0.3143
vn 0.7016 -0.1351 0.6996
vn -0.7215 -0.1124 0.6833
vn -0.7498 -0.5851 0.3089
vn 0.7294 -0.6841 -0.0000
vn -0.7447 -0.6674 0.0000
vn 0.7331 -0.6031 -0.3143
vn -0.7498 -0.5852 -0.3089
vn 0.7016 -0.1351 -0.6996
vn -0.7215 -0.1123 -0.6832
vn -0.9476 0.2766 -0.1601
vn -0.5342 0.4358 0.7244
vn 0.5526 0.4020 0.7301
vn 0.9653 0.2257 -0.1311
vn 0.9760 0.2179 -0.0000
vn 0.9653 0.2257 0.1311
vn 0.5526 0.4020 -0.7301
vn -0.5342 0.4358 -0.7244
vn -0.9476 0.2766 0.1601
vn -0.9633 0.2685 -0.0000
vn 0.6491 -0.6343 -0.4199
vn 0.3367 -0.3583 -0.8708
vn 0.5847 -0.8106 -0.0314
vn 0.5848 -0.8110 -0.0160
vn 0.6393 -0.6979 0.3228
vn 0.6339 -0.7070 0.3136
vn 0.5551 -0.2264 -0.8004
vn -0.7993 -0.0000 -0.6009
vn 0.5814 -0.1518 -0.7993
vn 0.8580 -0.5124 -0.0350
vn 0.8558 -0.5173 0.0026
vn 0.8284 -0.3288 0.4534
vn 0.8316 -0.3601 0.4229
vn 0.4638 -0.3804 0.8001
vn 0.4391 -0.4154 0.7967
vn 0.3436 -0.8808 0.3256
vn 0.3552 -0.9234 0.1456
vn 0.8422 -0.2654 0.4693
vn 0.5825 -0.7919 0.1832
vn 0.3733 -0.8848 -0.2788
vn -0.7094 -0.6223 0.3309
vn -0.3436 -0.8808 0.3256
vn -0.4962 -0.3743 0.7834
vn -0.9113 -0.0754 0.4048
vn -0.4391 -0.4154 0.7967
vn -0.3552 -0.9234 0.1457
vn -0.3733 -0.8848 -0.2788
vn -0.0000 -0.3131 0.9497
vn -0.0000 -0.8525 0.5227
vn 0.0000 -0.9993 0.0374
vn -0.4568 0.1650 -0.8741
vn 0.4213 0.2418 -0.8741
vn 0.4925 -0.5731 -0.6549
vn -0.3855 -0.6499 -0.6549
vn -0.4164 -0.2977 -0.8591
vn 0.4617 -0.2209 -0.8591
vn 0.5139 -0.8174 -0.2603
vn -0.3642 -0.8942 -0.2603
vn -0.3820 -0.6908 -0.6139
vn 0.4961 -0.6140 -0.6139
vn 0.5153 -0.8324 0.2042
vn -0.3629 -0.9092 0.2042
vn -0.3628 -0.9092 -0.2041
vn 0.5153 -0.8324 -0.2042
vn 0.4961 -0.6140 0.6139
vn -0.3820 -0.6908 0.6139
vn -0.3642 -0.8942 0.2603
vn 0.5139 -0.8174 0.2603
vn 0.4617 -0.2209 0.8591
vn -0.4164 -0.2977 0.8591
vn -0.3855 -0.6499 0.6549
vn 0.4926 -0.5731 0.6549
vn 0.4212 0.2418 0.8741
vn -0.4568 0.1650 0.8741
vn -0.4212 -0.2418 0.8741
vn 0.4568 -0.1650 0.8741
vn 0.3855 0.6499 0.6549
vn -0.4925 0.5731 0.6549
vn -0.4617 0.2209 0.8591
vn 0.4164 0.2977 0.8591
vn 0.3642 0.8942 0.2603
vn -0.5139 0.8174 0.2603
vn -0.4961 0.6141 0.6138
vn 0.3820 0.6908 0.6139
vn 0.3628 0.9092 -0.2041
vn -0.5152 0.8324 -0.2042
vn -0.5153 0.8324 0.2042
vn 0.3628 0.9092 0.2041
vn 0.3820 0.6908 -0.6139
vn -0.4961 0.6141 -0.6138
vn -0.5139 0.8174 -0.2602
vn 0.3642 0.8942 -0.2603
vn 0.4164 0.2977 -0.8591
vn -0.4617 0.2209 -0.8591
vn -0.4926 0.5731 -0.6549
vn 0.3855 0.6499 -0.6549
vn 0.4568 -0.1650 -0.8741
vn -0.4212 -0.2418 -0.8741
vn 0.7262 0.3912 -0.5654
vn 0.7054 0.6292 -0.3264
vn 0.6977 0.7164 -0.0000
vn 0.7054 0.6292 0.3264
vn 0.7262 0.3912 0.5654
vn 0.7546 0.0660 0.6528
vn 0.7831 -0.2591 0.5654
vn 0.8039 -0.4972 0.3264
vn 0.8115 -0.5843 0.0000
vn 0.8039 -0.4972 -0.3264
vn 0.7831 -0.2591 -0.5654
vn 0.7546 0.0660 -0.6528
vn 0.4035 0.0353 -0.9143
vn 0.3500 0.0306 -0.9362
vn 0.3908 -0.4357 -0.8108
vn 0.4434 -0.4201 -0.7918
vn 0.4207 -0.7771 -0.4681
vn 0.4725 -0.7535 -0.4571
vn 0.4316 -0.9021 0.0000
vn 0.4832 -0.8755 -0.0000
vn 0.4207 -0.7771 0.4681
vn 0.4725 -0.7535 0.4571
vn 0.3908 -0.4357 0.8108
vn 0.4434 -0.4201 0.7918
vn 0.3500 0.0306 0.9362
vn 0.4035 0.0353 0.9143
vn 0.3092 0.4970 0.8108
vn 0.3637 0.4907 0.7918
vn 0.2793 0.8383 0.4681
vn 0.3345 0.8241 0.4571
vn 0.2684 0.9633 0.0000
vn 0.3238 0.9461 0.0000
vn 0.2793 0.8383 -0.4681
vn 0.3345 0.8241 -0.4571
vn 0.3092 0.4970 -0.8108
vn 0.3637 0.4907 -0.7918
vn -0.0997 -0.5054 -0.8571
vn -0.4515 -0.4767 -0.7543
vn -0.4894 -0.0428 -0.8710
vn -0.1428 -0.0125 -0.9897
vn -0.5274 0.3910 -0.7543
vn -0.1860 0.4805 -0.8571
vn -0.5552 0.7086 -0.4355
vn -0.2175 0.8413 -0.4948
vn -0.5653 0.8249 -0.0000
vn -0.2291 0.9734 0.0000
vn -0.5552 0.7086 0.4355
vn -0.2175 0.8413 0.4948
vn -0.5274 0.3910 0.7543
vn -0.1860 0.4805 0.8571
vn -0.4894 -0.0428 0.8710
vn -0.1428 -0.0125 0.9897
vn -0.4515 -0.4767 0.7543
vn -0.0997 -0.5054 0.8571
vn -0.4237 -0.7942 0.4355
vn -0.0681 -0.8663 0.4948
vn -0.4135 -0.9105 -0.0000
vn -0.0566 -0.9984 -0.0000
vn -0.4237 -0.7942 -0.4355
vn -0.0681 -0.8663 -0.4948
vn -0.9879 0.0035 0.1552
vn -0.9801 -0.0857 0.1793
vn -0.9722 -0.1750 0.1552
vn -0.9665 -0.2404 0.0896
vn -0.9644 -0.2643 0.0000
vn -0.9665 -0.2404 -0.0896
vn -0.9722 -0.1750 -0.1552
vn -0.9801 -0.0857 -0.1793
vn -0.9879 0.0035 -0.1552
vn -0.9936 0.0689 -0.0896
vn -0.9957 0.0928 0.0000
vn -0.9936 0.0689 0.0896
vn -0.3506 0.4464 0.8232
vn -0.3092 -0.0271 0.9506
vn -0.2678 -0.5005 0.8232
vn -0.2375 -0.8472 0.4753
vn -0.2264 -0.9740 0.0000
vn -0.2375 -0.8472 -0.4753
vn -0.2678 -0.5005 -0.8232
vn -0.3092 -0.0271 -0.9506
vn -0.3506 0.4464 -0.8232
vn -0.3810 0.7931 -0.4753
vn -0.3921 0.9199 0.0000
vn -0.3810 0.7931 0.4753
vn 0.4212 0.2418 -0.8741
vn 0.5152 -0.8324 0.2042
vn -0.3820 -0.6909 0.6139
vn -0.3629 -0.9092 -0.2042
vn 0.5152 -0.8324 -0.2042
vn 0.4925 -0.5731 0.6549
vn -0.5139 0.8174 0.2602
vn 0.4164 0.2976 0.8591
vn 0.3641 0.8942 0.2603
vn -0.4961 0.6140 0.6139
vn 0.3819 0.6909 0.6138
vn 0.3629 0.9092 -0.2042
vn -0.4961 0.6140 -0.6139
vn -0.5152 0.8324 0.2042
vn 0.3629 0.9092 0.2042
vn 0.3819 0.6909 -0.6138
vn 0.3641 0.8942 -0.2603
vn 0.4164 0.2976 -0.8591
vn -0.4925 0.5731 -0.6549
vn -0.5711 0.6950 0.4368
vn -0.4173 0.2563 0.8719
vn 0.3664 0.3249 0.8719
vn 0.4418 0.7836 0.4368
vn -0.5979 0.8016 0.0000
vn 0.4496 0.8932 0.0000
vn -0.5711 0.6950 -0.4368
vn 0.4418 0.7836 -0.4368
vn -0.4173 0.2563 -0.8719
vn 0.3664 0.3249 -0.8719
vn -0.6400 -0.0560 -0.7663
vn -0.6066 -0.4377 -0.6636
vn 0.6734 -0.3257 -0.6636
vn 0.6400 0.0560 -0.7663
vn -0.5822 -0.7171 -0.3831
vn 0.6979 -0.6051 -0.3831
vn -0.5733 -0.8194 -0.0000
vn 0.7068 -0.7074 0.0000
vn -0.5822 -0.7171 0.3831
vn 0.6979 -0.6051 0.3831
vn -0.6066 -0.4377 0.6636
vn 0.6734 -0.3257 0.6636
vn -0.6400 -0.0560 0.7663
vn 0.6400 0.0560 0.7663
vn -0.6734 0.3257 0.6636
vn 0.6066 0.4377 0.6636
vn -0.6979 0.6051 0.3832
vn 0.5822 0.7171 0.3831
vn -0.7068 0.7074 0.0000
vn 0.5733 0.8194 0.0000
vn -0.6979 0.6051 -0.3831
vn 0.5822 0.7171 -0.3831
vn -0.6734 0.3257 -0.6636
vn 0.6066 0.4377 -0.6636
vn -0.5822 -0.7171 -0.3832
vn -0.5733 -0.8194 0.0000
vn -0.5822 -0.7171 0.3832
vn 0.5822 0.7171 0.3832
vn 0.5732 0.8194 0.0000
vn -0.6979 0.6051 -0.3832
vn 0.5822 0.7171 -0.3832
vn 0.8627 0.4321 0.2627
vn 0.5296 0.1231 0.8393
vn -0.5429 0.0293 0.8393
vn -0.9246 0.2757 0.2627
vn -0.9626 0.2708 0.0000
vn -0.9246 0.2757 -0.2627
vn -0.5429 0.0293 -0.8393
vn 0.5296 0.1231 -0.8393
vn 0.8627 0.4321 -0.2627
vn 0.9010 0.4338 0.0000
# 546 vertex normals

vt 0.0000 1.0000 0.0000
vt 0.0000 0.5000 0.0000
vt 0.5000 0.0000 0.0000
vt 1.0000 0.0000 0.0000
vt 1.0000 1.0000 0.0000
vt 0.5000 1.0000 0.0000
vt 0.4167 0.1290 1.0000
vt 0.4167 0.8722 1.0000
vt 0.3333 0.8722 1.0000
vt 0.3333 0.1290 1.0000
vt 0.5000 0.1290 1.0000
vt 0.5000 0.8722 1.0000
vt 0.5833 0.1290 1.0000
vt 0.5833 0.8722 1.0000
vt 0.6667 0.1290 1.0000
vt 0.6667 0.8722 1.0000
vt 1.0000 0.5000 0.0000
vt 0.3809 1.0000 0.0000
vt 0.5060 0.5000 0.0000
vt 0.0000 0.0000 0.0000
vt 0.3376 1.0000 0.0000
vt 0.4714 0.5000 0.0000
vt 0.3376 0.0000 0.0000
vt 0.3809 0.0000 0.0000
vt 0.3808 1.0000 0.0000
vt 0.6624 1.0000 0.0000
vt 0.6192 1.0000 0.0000
vt 0.5059 0.5000 0.0000
vt 0.5412 0.5000 0.0000
vt 0.5833 0.4045 1.0000
vt 0.5000 0.4045 1.0000
vt 0.6667 0.4045 1.0000
vt 0.6667 0.4225 1.0000
vt 0.5833 0.5967 1.0000
vt 0.5000 0.5967 1.0000
vt 0.6667 0.5967 1.0000
vt 0.6667 0.5788 1.0000
vt 0.5833 0.5006 1.0000
vt 0.5000 0.5006 1.0000
vt 0.6667 0.5006 1.0000
vt 0.7500 0.0000 1.0000
vt 0.8333 0.0000 1.0000
vt 0.8333 0.1290 1.0000
vt 0.7500 0.1290 1.0000
vt 0.9167 0.0000 1.0000
vt 0.9167 0.1290 1.0000
vt -0.0833 0.0000 1.0000
vt 0.0000 0.0000 1.0000
vt 0.0000 0.1290 1.0000
vt -0.0833 0.1290 1.0000
vt 0.0833 0.0000 1.0000
vt 0.0833 0.1290 1.0000
vt 0.1667 0.0000 1.0000
vt 0.1667 0.1290 1.0000
vt 0.2500 0.0000 1.0000
vt 0.2500 0.1290 1.0000
vt 0.3333 0.0000 1.0000
vt 0.4167 0.0000 1.0000
vt 0.5000 0.0000 1.0000
vt 0.5833 0.0000 1.0000
vt 0.6667 0.0000 1.0000
vt 0.6667 1.0000 1.0000
vt 0.7500 1.0000 1.0000
vt 0.8333 1.0000 1.0000
vt 0.9167 1.0000 1.0000
vt 0.8884 1.0000 0.7321
vt 0.7560 1.0000 0.2679
vt 0.5550 1.0000 -0.2679
vt 0.3393 1.0000 -0.7321
vt 0.1667 1.0000 -1.0000
vt 0.0833 1.0000 -1.0000
vt 0.1116 1.0000 -0.7321
vt 0.2440 1.0000 -0.2679
vt 0.4450 0.0000 0.2679
vt 0.2440 0.0000 -0.2680
vt 0.1116 0.0000 -0.7321
vt 0.0833 0.0000 -1.0000
vt 0.1667 0.0000 -1.0000
vt 0.3393 0.0000 -0.7320
vt 0.5550 0.0000 -0.2679
vt 0.7560 0.0000 0.2679
vt 0.8884 0.0000 0.7321
vt 0.8333 0.8722 1.0000
vt 0.7500 0.8722 1.0000
vt 0.9167 0.8722 1.0000
vt 0.0000 0.8722 1.0000
vt 0.0000 1.0000 1.0000
vt -0.0833 1.0000 1.0000
vt -0.0833 0.8722 1.0000
vt 0.0833 0.8722 1.0000
vt 0.0833 1.0000 1.0000
vt 0.1667 0.8722 1.0000
vt 0.1667 1.0000 1.0000
vt 0.2500 0.8722 1.0000
vt 0.2500 1.0000 1.0000
vt 0.3333 1.0000 1.0000
vt 0.4167 1.0000 1.0000
vt 0.5000 1.0000 1.0000
vt 0.5833 1.0000 1.0000
# 99 texture coords

o heavy_a_boltz
g heavy_a_boltz
usemtl 04___Default
s off
f 220/51/137 221/52/138 222/52/139 223/51/140 
f 220/51/137 223/51/140 224/51/141 225/51/142 
f 221/53/138 220/54/137 226/54/143 227/53/144 
f 220/54/137 228/55/145 229/55/146 226/54/143 
f 228/55/145 230/56/147 231/56/147 229/55/146 
f 228/55/145 220/54/137 232/54/148 233/55/149 
f 220/54/137 225/54/142 234/54/150 232/54/148 
f 235/55/151 228/55/145 233/55/149 236/55/152 
f 237/57/153 238/58/154 239/59/155 240/60/156 
f 241/61/157 242/62/158 238/58/154 237/57/153 
f 243/63/159 244/64/160 242/62/158 241/61/157 
f 245/65/161 246/66/162 244/64/160 243/63/159 
f 247/58/163 248/59/164 239/59/155 238/58/154 
f 248/59/164 249/60/165 240/60/156 239/59/155 
f 249/60/165 250/57/166 237/57/153 240/60/156 
f 250/57/166 251/61/167 241/61/157 237/57/153 
f 251/61/167 252/63/168 243/63/159 241/61/157 
f 252/63/168 253/65/169 245/65/161 243/63/159 
f 253/65/169 254/66/170 246/66/162 245/65/161 
f 254/66/170 255/64/171 244/64/160 246/66/162 
f 255/64/171 256/62/172 242/62/158 244/64/160 
f 256/62/172 247/58/163 238/58/154 242/62/158 
f 257/52/173 258/51/174 259/51/175 260/52/176 
f 258/51/174 261/51/177 262/51/178 259/51/175 
f 261/54/177 263/55/179 264/55/180 262/54/178 
f 263/55/179 265/56/181 266/56/181 264/55/180 
f 267/67/182 268/55/183 269/68/184 270/69/185 
f 271/56/186 272/51/186 273/51/186 274/56/186 
f 272/51/186 275/70/186 276/70/186 273/51/186 
f 275/55/186 268/55/183 277/55/186 276/55/186 
f 268/55/183 267/67/182 278/67/186 277/55/186 
f 279/56/186 280/51/186 281/51/186 282/56/186 
f 280/51/186 283/70/186 284/70/186 281/51/186 
f 283/55/186 285/55/186 286/55/186 284/55/186 
f 285/55/186 287/67/186 288/67/186 286/55/186 
f 289/71/187 258/51/174 257/52/173 290/72/185 
f 291/68/188 292/71/189 289/71/187 269/68/184 
f 292/73/189 291/74/188 293/75/190 294/71/191 
f 294/76/191 293/77/190 295/78/192 296/79/192 
f 269/68/184 289/71/187 290/72/185 270/69/185 
f 297/63/193 298/80/194 299/81/195 300/61/196 
f 301/65/197 302/82/198 298/80/194 297/63/193 
f 303/61/199 304/63/200 297/63/193 300/61/196 
f 304/63/200 305/65/201 301/65/197 297/63/193 
f 305/65/201 306/83/202 302/82/198 301/65/197 
f 307/66/203 308/64/204 309/64/205 310/66/206 
f 308/64/204 311/62/207 312/62/208 309/64/205 
f 313/84/209 309/64/205 312/62/208 314/85/210 
f 315/86/211 310/66/206 309/64/205 313/84/209 
f 316/87/212 307/66/203 310/66/206 315/86/211 
f 298/80/194 317/88/213 318/89/214 299/81/195 
f 302/82/198 319/90/215 317/88/213 298/80/194 
f 306/83/202 320/90/216 319/90/215 302/82/198 
f 317/88/213 313/84/209 314/85/210 318/89/214 
f 319/90/215 315/86/211 313/84/209 317/88/213 
f 320/90/216 316/87/212 315/86/211 319/90/215 
f 321/91/217 322/92/218 323/93/219 324/94/220 
f 325/92/221 326/95/222 327/96/223 328/93/224 
f 329/97/225 330/98/226 331/99/227 332/100/228 
f 333/98/229 334/101/230 335/102/231 336/99/232 
f 337/101/233 338/103/234 339/104/235 340/102/236 
f 341/103/237 342/105/238 343/106/239 344/104/240 
f 345/105/241 346/107/242 347/60/243 348/106/244 
f 349/107/245 350/108/246 351/57/247 352/60/248 
f 353/108/249 354/109/250 355/61/251 356/57/252 
f 357/109/253 358/110/254 359/63/255 360/61/256 
f 361/110/257 362/111/258 363/65/259 364/63/260 
f 365/111/261 366/91/262 367/94/263 368/65/264 
f 369/112/265 370/113/266 371/114/267 372/115/268 373/116/269 374/117/270 375/118/271 376/119/272 377/120/273 378/121/274 379/122/275 380/123/276 
f 381/113/277 382/114/278 383/114/279 384/113/280 
f 382/114/278 385/115/281 386/115/282 383/114/279 
f 385/115/281 387/116/283 388/116/284 386/115/282 
f 387/116/283 389/117/285 390/117/286 388/116/284 
f 389/117/285 391/118/287 392/118/288 390/117/286 
f 391/118/287 393/119/289 394/119/290 392/118/288 
f 393/119/289 395/120/291 396/120/292 394/119/290 
f 395/120/291 397/121/293 398/121/294 396/120/292 
f 397/121/293 399/122/295 400/122/296 398/121/294 
f 399/122/295 401/123/297 402/123/298 400/122/296 
f 401/123/297 403/112/299 404/112/300 402/123/298 
f 403/112/299 381/113/277 384/113/280 404/112/300 
f 384/113/280 383/114/279 371/114/267 370/113/266 
f 383/114/279 386/115/282 372/115/268 371/114/267 
f 386/115/282 388/116/284 373/116/269 372/115/268 
f 388/116/284 390/117/286 374/117/270 373/116/269 
f 390/117/286 392/118/288 375/118/271 374/117/270 
f 392/118/288 394/119/290 376/119/272 375/118/271 
f 394/119/290 396/120/292 377/120/273 376/119/272 
f 396/120/292 398/121/294 378/121/274 377/120/273 
f 398/121/294 400/122/296 379/122/275 378/121/274 
f 400/122/296 402/123/298 380/123/276 379/122/275 
f 402/123/298 404/112/300 369/112/265 380/123/276 
f 404/112/300 384/113/280 370/113/266 369/112/265 
f 405/92/301 406/91/302 407/91/303 408/92/304 
f 406/91/302 409/124/305 410/124/306 407/91/303 
f 409/124/305 411/125/307 412/125/308 410/124/306 
f 411/125/307 413/126/309 414/126/310 412/125/308 
f 413/126/309 415/127/311 416/127/312 414/126/310 
f 415/127/311 417/128/313 418/128/314 416/127/312 
f 417/128/313 419/129/315 420/129/316 418/128/314 
f 419/129/315 421/130/317 422/130/318 420/129/316 
f 421/130/317 423/131/319 424/131/320 422/130/318 
f 423/131/319 425/132/321 426/132/322 424/131/320 
f 425/132/321 427/95/323 428/95/324 426/132/322 
f 427/95/323 405/92/301 408/92/304 428/95/324 
f 408/92/304 407/91/303 429/91/325 430/92/326 
f 407/91/303 410/124/306 431/124/327 429/91/325 
f 410/124/306 412/125/308 432/125/328 431/124/327 
f 412/125/308 414/126/310 433/126/329 432/125/328 
f 414/126/310 416/127/312 434/127/330 433/126/329 
f 416/127/312 418/128/314 435/128/331 434/127/330 
f 418/128/314 420/129/316 436/129/332 435/128/331 
f 420/129/316 422/130/318 437/130/333 436/129/332 
f 422/130/318 424/131/320 438/131/334 437/130/333 
f 424/131/320 426/132/322 439/132/335 438/131/334 
f 426/132/322 428/95/324 440/95/336 439/132/335 
f 428/95/324 408/92/304 430/92/326 440/95/336 
f 430/92/326 429/91/325 441/91/337 442/92/338 
f 429/91/325 431/124/327 443/124/339 441/91/337 
f 431/124/327 432/125/328 444/125/340 443/124/339 
f 432/125/328 433/126/329 445/126/341 444/125/340 
f 433/126/329 434/127/330 446/127/342 445/126/341 
f 434/127/330 435/128/331 447/128/343 446/127/342 
f 435/128/331 436/129/332 448/129/344 447/128/343 
f 436/129/332 437/130/333 449/130/345 448/129/344 
f 437/130/333 438/131/334 450/131/346 449/130/345 
f 438/131/334 439/132/335 451/132/347 450/131/346 
f 439/132/335 440/95/336 452/95/348 451/132/347 
f 440/95/336 430/92/326 442/92/338 452/95/348 
f 453/133/218 454/114/219 455/113/349 456/134/217 
f 457/135/222 458/115/223 459/114/224 460/133/221 
f 461/136/226 462/137/350 463/138/228 464/139/225 
f 465/140/351 466/141/231 467/137/352 468/136/353 
f 469/142/234 470/143/235 471/141/236 472/140/233 
f 473/144/238 474/145/239 475/143/354 476/142/237 
f 477/59/242 478/146/243 479/145/244 480/144/241 
f 481/58/355 482/147/356 483/146/357 484/59/245 
f 485/62/250 486/148/358 487/147/359 488/58/360 
f 489/64/361 490/149/362 491/148/363 492/62/364 
f 493/66/258 494/112/365 495/149/366 496/64/257 
f 497/134/262 498/113/263 499/112/264 500/66/367 
f 501/57/368 502/58/369 503/59/370 504/60/371 
f 505/61/372 506/62/373 502/58/369 501/57/368 
f 507/63/374 508/64/375 506/62/373 505/61/372 
f 509/65/376 510/66/377 508/64/375 507/63/374 
f 511/91/378 512/92/379 322/92/218 321/91/217 
f 512/92/379 513/93/380 323/93/219 322/92/218 
f 513/93/380 514/94/381 324/94/220 323/93/219 
f 514/94/381 511/91/378 321/91/217 324/94/220 
f 512/92/379 515/95/382 326/95/222 325/92/221 
f 515/95/382 516/96/383 327/96/223 326/95/222 
f 516/96/383 513/93/380 328/93/224 327/96/223 
f 513/93/380 512/92/379 325/92/221 328/93/224 
f 515/97/382 517/98/384 330/98/226 329/97/225 
f 517/98/384 518/99/385 331/99/227 330/98/226 
f 518/99/385 516/100/383 332/100/228 331/99/227 
f 516/100/383 515/97/382 329/97/225 332/100/228 
f 517/98/384 519/101/386 334/101/230 333/98/229 
f 519/101/386 520/102/387 335/102/231 334/101/230 
f 520/102/387 518/99/385 336/99/232 335/102/231 
f 518/99/385 517/98/384 333/98/229 336/99/232 
f 519/101/386 521/103/388 338/103/234 337/101/233 
f 521/103/388 522/104/389 339/104/235 338/103/234 
f 522/104/389 520/102/387 340/102/236 339/104/235 
f 520/102/387 519/101/386 337/101/233 340/102/236 
f 521/103/388 523/105/390 342/105/238 341/103/237 
f 523/105/390 524/106/391 343/106/239 342/105/238 
f 524/106/391 522/104/389 344/104/240 343/106/239 
f 522/104/389 521/103/388 341/103/237 344/104/240 
f 523/105/390 525/107/392 346/107/242 345/105/241 
f 525/107/392 526/60/393 347/60/243 346/107/242 
f 526/60/393 524/106/391 348/106/244 347/60/243 
f 524/106/391 523/105/390 345/105/241 348/106/244 
f 525/107/392 527/108/394 350/108/246 349/107/245 
f 527/108/394 528/57/395 351/57/247 350/108/246 
f 528/57/395 526/60/393 352/60/248 351/57/247 
f 526/60/393 525/107/392 349/107/245 352/60/248 
f 527/108/394 529/109/396 354/109/250 353/108/249 
f 529/109/396 530/61/397 355/61/251 354/109/250 
f 530/61/397 528/57/395 356/57/252 355/61/251 
f 528/57/395 527/108/394 353/108/249 356/57/252 
f 529/109/396 531/110/398 358/110/254 357/109/253 
f 531/110/398 532/63/399 359/63/255 358/110/254 
f 532/63/399 530/61/397 360/61/256 359/63/255 
f 530/61/397 529/109/396 357/109/253 360/61/256 
f 531/110/398 533/111/400 362/111/258 361/110/257 
f 533/111/400 534/65/401 363/65/259 362/111/258 
f 534/65/401 532/63/399 364/63/260 363/65/259 
f 532/63/399 531/110/398 361/110/257 364/63/260 
f 533/111/400 511/91/378 366/91/262 365/111/261 
f 511/91/378 514/94/381 367/94/263 366/91/262 
f 514/94/381 534/65/401 368/65/264 367/94/263 
f 534/65/401 533/111/400 365/111/261 368/65/264 
f 535/133/379 536/114/380 454/114/219 453/133/218 
f 536/114/380 537/113/381 455/113/349 454/114/219 
f 537/113/381 538/134/378 456/134/217 455/113/349 
f 538/134/378 535/133/379 453/133/218 456/134/217 
f 539/135/402 540/115/383 458/115/223 457/135/222 
f 540/115/383 536/114/380 459/114/224 458/115/223 
f 536/114/380 535/133/379 460/133/221 459/114/224 
f 535/133/379 539/135/402 457/135/222 460/133/221 
f 541/136/403 542/137/385 462/137/350 461/136/226 
f 542/137/385 540/138/383 463/138/228 462/137/350 
f 540/138/383 539/139/402 464/139/225 463/138/228 
f 539/139/402 541/136/403 461/136/226 464/139/225 
f 543/140/404 544/141/387 466/141/231 465/140/351 
f 544/141/387 542/137/385 467/137/352 466/141/231 
f 542/137/385 541/136/403 468/136/353 467/137/352 
f 541/136/403 543/140/404 465/140/351 468/136/353 
f 545/142/388 546/143/389 470/143/235 469/142/234 
f 546/143/389 544/141/387 471/141/236 470/143/235 
f 544/141/387 543/140/404 472/140/233 471/141/236 
f 543/140/404 545/142/388 469/142/234 472/140/233 
f 547/144/390 548/145/391 474/145/239 473/144/238 
f 548/145/391 546/143/389 475/143/354 474/145/239 
f 546/143/389 545/142/388 476/142/237 475/143/354 
f 545/142/388 547/144/390 473/144/238 476/142/237 
f 549/59/392 550/146/393 478/146/243 477/59/242 
f 550/146/393 548/145/391 479/145/244 478/146/243 
f 548/145/391 547/144/390 480/144/241 479/145/244 
f 547/144/390 549/59/392 477/59/242 480/144/241 
f 551/58/394 552/147/405 482/147/356 481/58/355 
f 552/147/405 550/146/393 483/146/357 482/147/356 
f 550/146/393 549/59/392 484/59/245 483/146/357 
f 549/59/392 551/58/394 481/58/355 484/59/245 
f 553/62/396 554/148/406 486/148/358 485/62/250 
f 554/148/406 552/147/405 487/147/359 486/148/358 
f 552/147/405 551/58/394 488/58/360 487/147/359 
f 551/58/394 553/62/396 485/62/250 488/58/360 
f 555/64/407 556/149/408 490/149/362 489/64/361 
f 556/149/408 554/148/406 491/148/363 490/149/362 
f 554/148/406 553/62/396 492/62/364 491/148/363 
f 553/62/396 555/64/407 489/64/361 492/62/364 
f 557/66/400 558/112/401 494/112/365 493/66/258 
f 558/112/401 556/149/408 495/149/366 494/112/365 
f 556/149/408 555/64/407 496/64/257 495/149/366 
f 555/64/407 557/66/400 493/66/258 496/64/257 
f 538/134/378 537/113/381 498/113/263 497/134/262 
f 537/113/381 558/112/401 499/112/264 498/113/263 
f 558/112/401 557/66/400 500/66/367 499/112/264 
f 557/66/400 538/134/378 497/134/262 500/66/367 
f 559/58/409 560/59/410 503/59/370 502/58/369 
f 560/59/410 561/60/411 504/60/371 503/59/370 
f 561/60/411 562/57/412 501/57/368 504/60/371 
f 562/57/412 563/61/413 505/61/372 501/57/368 
f 563/61/413 564/63/414 507/63/374 505/61/372 
f 564/63/414 565/65/415 509/65/376 507/63/374 
f 565/65/415 566/66/416 510/66/377 509/65/376 
f 566/66/416 567/64/417 508/64/375 510/66/377 
f 567/64/417 568/62/418 506/62/373 508/64/375 
f 568/62/418 559/58/409 502/58/369 506/62/373 
f 569/51/419 570/51/420 222/52/139 221/52/138 
f 569/51/419 571/51/421 572/51/422 570/51/420 
f 221/53/138 227/53/144 573/54/423 569/54/419 
f 569/54/419 573/54/423 574/55/424 575/55/425 
f 575/55/425 574/55/424 231/56/147 230/56/147 
f 575/55/425 576/55/426 577/54/427 569/54/419 
f 569/54/419 577/54/427 578/54/428 571/54/421 
f 579/55/429 580/55/430 576/55/426 575/55/425 
f 581/57/431 582/60/432 583/59/433 584/58/434 
f 585/61/435 581/57/431 584/58/434 586/62/436 
f 587/63/437 585/61/435 586/62/436 588/64/438 
f 589/65/439 587/63/437 588/64/438 590/66/440 
f 591/58/441 584/58/434 583/59/433 592/59/442 
f 592/59/442 583/59/433 582/60/432 593/60/443 
f 593/60/443 582/60/432 581/57/431 594/57/444 
f 594/57/444 581/57/431 585/61/435 595/61/445 
f 595/61/445 585/61/435 587/63/437 596/63/446 
f 596/63/446 587/63/437 589/65/439 597/65/447 
f 597/65/447 589/65/439 590/66/440 598/66/448 
f 598/66/448 590/66/440 588/64/438 599/64/449 
f 599/64/449 588/64/438 586/62/436 600/62/450 
f 600/62/450 586/62/436 584/58/434 591/58/441 
f 257/52/173 260/52/176 601/51/451 602/51/452 
f 602/51/452 601/51/451 603/51/453 604/51/454 
f 604/54/454 603/54/453 605/55/455 606/55/456 
f 606/55/456 605/55/455 266/56/181 265/56/181 
f 267/67/182 270/69/185 607/68/457 608/55/458 
f 271/56/186 274/56/186 609/51/186 610/51/186 
f 610/51/186 609/51/186 611/70/186 612/70/186 
f 612/55/186 611/55/186 613/55/186 608/55/458 
f 608/55/458 613/55/186 278/67/186 267/67/182 
f 279/56/186 282/56/186 614/51/186 615/51/186 
f 615/51/186 614/51/186 616/70/186 617/70/186 
f 617/55/186 616/55/186 618/55/186 619/55/186 
f 619/55/186 618/55/186 288/67/186 287/67/186 
f 620/71/459 290/72/185 257/52/173 602/51/452 
f 621/68/460 607/68/457 620/71/459 622/71/461 
f 622/73/461 623/71/462 624/75/463 621/74/460 
f 623/76/462 296/79/192 295/78/192 624/77/463 
f 607/68/457 270/69/185 290/72/185 620/71/459 
f 625/63/464 300/61/196 299/81/195 626/80/465 
f 627/65/466 625/63/464 626/80/465 628/82/467 
f 303/61/199 300/61/196 625/63/464 629/63/468 
f 629/63/468 625/63/464 627/65/466 630/65/469 
f 630/65/469 627/65/466 628/82/467 631/83/470 
f 632/66/471 633/66/472 634/64/473 635/64/474 
f 635/64/474 634/64/473 312/62/208 311/62/207 
f 636/84/475 314/85/210 312/62/208 634/64/473 
f 637/86/476 636/84/475 634/64/473 633/66/472 
f 638/87/477 637/86/476 633/66/472 632/66/471 
f 626/80/465 299/81/195 318/89/214 639/88/478 
f 628/82/467 626/80/465 639/88/478 640/90/479 
f 631/83/470 628/82/467 640/90/479 641/90/480 
f 639/88/478 318/89/214 314/85/210 636/84/475 
f 640/90/479 639/88/478 636/84/475 637/86/476 
f 641/90/480 640/90/479 637/86/476 638/87/477 
f 642/91/481 643/94/482 644/93/483 645/92/484 
f 646/92/485 647/93/486 648/96/487 649/95/488 
f 650/97/489 651/100/490 652/99/491 653/98/492 
f 654/98/493 655/99/494 656/102/495 657/101/496 
f 658/101/497 659/102/498 660/104/499 661/103/500 
f 662/103/501 663/104/502 664/106/503 665/105/504 
f 666/105/505 667/106/506 668/60/507 669/107/508 
f 670/107/509 671/60/510 672/57/511 673/108/512 
f 674/108/513 675/57/514 676/61/515 677/109/516 
f 678/109/517 679/61/518 680/63/519 681/110/520 
f 682/110/521 683/63/522 684/65/523 685/111/524 
f 686/111/525 687/65/526 688/94/527 689/91/528 
f 690/112/529 691/123/530 692/122/531 693/121/532 694/120/533 695/119/534 696/118/535 697/117/536 698/116/537 699/115/538 700/114/539 701/113/540 
f 702/113/541 703/113/542 704/114/543 705/114/544 
f 705/114/544 704/114/543 706/115/545 707/115/546 
f 707/115/546 706/115/545 708/116/547 709/116/548 
f 709/116/548 708/116/547 710/117/549 711/117/550 
f 711/117/550 710/117/549 712/118/551 713/118/552 
f 713/118/552 712/118/551 714/119/553 715/119/554 
f 715/119/554 714/119/553 716/120/555 717/120/556 
f 717/120/556 716/120/555 718/121/557 719/121/558 
f 719/121/558 718/121/557 720/122/559 721/122/560 
f 721/122/560 720/122/559 722/123/561 723/123/562 
f 723/123/562 722/123/561 724/112/563 725/112/564 
f 725/112/564 724/112/563 703/113/542 702/113/541 
f 703/113/542 701/113/540 700/114/539 704/114/543 
f 704/114/543 700/114/539 699/115/538 706/115/545 
f 706/115/545 699/115/538 698/116/537 708/116/547 
f 708/116/547 698/116/537 697/117/536 710/117/549 
f 710/117/549 697/117/536 696/118/535 712/118/551 
f 712/118/551 696/118/535 695/119/534 714/119/553 
f 714/119/553 695/119/534 694/120/533 716/120/555 
f 716/120/555 694/120/533 693/121/532 718/121/557 
f 718/121/557 693/121/532 692/122/531 720/122/559 
f 720/122/559 692/122/531 691/123/530 722/123/561 
f 722/123/561 691/123/530 690/112/529 724/112/563 
f 724/112/563 690/112/529 701/113/540 703/113/542 
f 726/92/565 727/92/566 728/91/567 729/91/568 
f 729/91/568 728/91/567 730/124/569 731/124/570 
f 731/124/570 730/124/569 732/125/571 733/125/572 
f 733/125/572 732/125/571 734/126/573 735/126/574 
f 735/126/574 734/126/573 736/127/575 737/127/576 
f 737/127/576 736/127/575 738/128/577 739/128/578 
f 739/128/578 738/128/577 740/129/579 741/129/580 
f 741/129/580 740/129/579 742/130/581 743/130/582 
f 743/130/582 742/130/581 744/131/583 745/131/584 
f 745/131/584 744/131/583 746/132/585 747/132/586 
f 747/132/586 746/132/585 748/95/587 749/95/588 
f 749/95/588 748/95/587 727/92/566 726/92/565 
f 727/92/566 750/92/589 751/91/590 728/91/567 
f 728/91/567 751/91/590 752/124/591 730/124/569 
f 730/124/569 752/124/591 753/125/592 732/125/571 
f 732/125/571 753/125/592 754/126/593 734/126/573 
f 734/126/573 754/126/593 755/127/594 736/127/575 
f 736/127/575 755/127/594 756/128/595 738/128/577 
f 738/128/577 756/128/595 757/129/596 740/129/579 
f 740/129/579 757/129/596 758/130/597 742/130/581 
f 742/130/581 758/130/597 759/131/598 744/131/583 
f 744/131/583 759/131/598 760/132/599 746/132/585 
f 746/132/585 760/132/599 761/95/600 748/95/587 
f 748/95/587 761/95/600 750/92/589 727/92/566 
f 750/92/589 762/92/601 763/91/602 751/91/590 
f 751/91/590 763/91/602 764/124/603 752/124/591 
f 752/124/591 764/124/603 765/125/604 753/125/592 
f 753/125/592 765/125/604 766/126/605 754/126/593 
f 754/126/593 766/126/605 767/127/606 755/127/594 
f 755/127/594 767/127/606 768/128/607 756/128/595 
f 756/128/595 768/128/607 769/129/608 757/129/596 
f 757/129/596 769/129/608 770/130/609 758/130/597 
f 758/130/597 770/130/609 771/131/610 759/131/598 
f 759/131/598 771/131/610 772/132/611 760/132/599 
f 760/132/599 772/132/611 773/95/612 761/95/600 
f 761/95/600 773/95/612 762/92/601 750/92/589 
f 774/133/484 775/134/481 776/113/613 777/114/483 
f 778/135/488 779/133/485 780/114/486 781/115/487 
f 782/136/492 783/139/489 784/138/490 785/137/614 
f 786/140/615 787/136/616 788/137/617 789/141/495 
f 790/142/500 791/140/497 792/141/498 793/143/499 
f 794/144/504 795/142/501 796/143/618 797/145/503 
f 798/59/508 799/144/505 800/145/506 801/146/507 
f 802/58/619 803/59/509 804/146/620 805/147/621 
f 806/62/516 807/58/622 808/147/623 809/148/624 
f 810/64/625 811/62/626 812/148/627 813/149/628 
f 814/66/524 815/64/521 816/149/629 817/112/630 
f 818/134/528 819/66/631 820/112/526 821/113/527 
f 822/57/632 823/60/633 824/59/634 825/58/635 
f 826/61/636 822/57/632 825/58/635 827/62/637 
f 828/63/638 826/61/636 827/62/637 829/64/639 
f 830/65/640 828/63/638 829/64/639 831/66/641 
f 832/91/642 642/91/481 645/92/484 833/92/643 
f 833/92/643 645/92/484 644/93/483 834/93/644 
f 834/93/644 644/93/483 643/94/482 835/94/645 
f 835/94/645 643/94/482 642/91/481 832/91/642 
f 833/92/643 646/92/485 649/95/488 836/95/646 
f 836/95/646 649/95/488 648/96/487 837/96/647 
f 837/96/647 648/96/487 647/93/486 834/93/644 
f 834/93/644 647/93/486 646/92/485 833/92/643 
f 836/97/646 650/97/489 653/98/492 838/98/648 
f 838/98/648 653/98/492 652/99/491 839/99/649 
f 839/99/649 652/99/491 651/100/490 837/100/647 
f 837/100/647 651/100/490 650/97/489 836/97/646 
f 838/98/648 654/98/493 657/101/496 840/101/650 
f 840/101/650 657/101/496 656/102/495 841/102/651 
f 841/102/651 656/102/495 655/99/494 839/99/649 
f 839/99/649 655/99/494 654/98/493 838/98/648 
f 840/101/650 658/101/497 661/103/500 842/103/652 
f 842/103/652 661/103/500 660/104/499 843/104/653 
f 843/104/653 660/104/499 659/102/498 841/102/651 
f 841/102/651 659/102/498 658/101/497 840/101/650 
f 842/103/652 662/103/501 665/105/504 844/105/654 
f 844/105/654 665/105/504 664/106/503 845/106/655 
f 845/106/655 664/106/503 663/104/502 843/104/653 
f 843/104/653 663/104/502 662/103/501 842/103/652 
f 844/105/654 666/105/505 669/107/508 846/107/656 
f 846/107/656 669/107/508 668/60/507 847/60/657 
f 847/60/657 668/60/507 667/106/506 845/106/655 
f 845/106/655 667/106/506 666/105/505 844/105/654 
f 846/107/656 670/107/509 673/108/512 848/108/658 
f 848/108/658 673/108/512 672/57/511 849/57/659 
f 849/57/659 672/57/511 671/60/510 847/60/657 
f 847/60/657 671/60/510 670/107/509 846/107/656 
f 848/108/658 674/108/513 677/109/516 850/109/660 
f 850/109/660 677/109/516 676/61/515 851/61/661 
f 851/61/661 676/61/515 675/57/514 849/57/659 
f 849/57/659 675/57/514 674/108/513 848/108/658 
f 850/109/660 678/109/517 681/110/520 852/110/662 
f 852/110/662 681/110/520 680/63/519 853/63/663 
f 853/63/663 680/63/519 679/61/518 851/61/661 
f 851/61/661 679/61/518 678/109/517 850/109/660 
f 852/110/662 682/110/521 685/111/524 854/111/664 
f 854/111/664 685/111/524 684/65/523 855/65/665 
f 855/65/665 684/65/523 683/63/522 853/63/663 
f 853/63/663 683/63/522 682/110/521 852/110/662 
f 854/111/664 686/111/525 689/91/528 832/91/642 
f 832/91/642 689/91/528 688/94/527 835/94/645 
f 835/94/645 688/94/527 687/65/526 855/65/665 
f 855/65/665 687/65/526 686/111/525 854/111/664 
f 856/133/643 774/133/484 777/114/483 857/114/644 
f 857/114/644 777/114/483 776/113/613 858/113/645 
f 858/113/645 776/113/613 775/134/481 859/134/642 
f 859/134/642 775/134/481 774/133/484 856/133/643 
f 860/135/666 778/135/488 781/115/487 861/115/647 
f 861/115/647 781/115/487 780/114/486 857/114/644 
f 857/114/644 780/114/486 779/133/485 856/133/643 
f 856/133/643 779/133/485 778/135/488 860/135/666 
f 862/136/667 782/136/492 785/137/614 863/137/649 
f 863/137/649 785/137/614 784/138/490 861/138/647 
f 861/138/647 784/138/490 783/139/489 860/139/666 
f 860/139/666 783/139/489 782/136/492 862/136/667 
f 864/140/668 786/140/615 789/141/495 865/141/651 
f 865/141/651 789/141/495 788/137/617 863/137/649 
f 863/137/649 788/137/617 787/136/616 862/136/667 
f 862/136/667 787/136/616 786/140/615 864/140/668 
f 866/142/652 790/142/500 793/143/499 867/143/653 
f 867/143/653 793/143/499 792/141/498 865/141/651 
f 865/141/651 792/141/498 791/140/497 864/140/668 
f 864/140/668 791/140/497 790/142/500 866/142/652 
f 868/144/654 794/144/504 797/145/503 869/145/655 
f 869/145/655 797/145/503 796/143/618 867/143/653 
f 867/143/653 796/143/618 795/142/501 866/142/652 
f 866/142/652 795/142/501 794/144/504 868/144/654 
f 870/59/656 798/59/508 801/146/507 871/146/657 
f 871/146/657 801/146/507 800/145/506 869/145/655 
f 869/145/655 800/145/506 799/144/505 868/144/654 
f 868/144/654 799/144/505 798/59/508 870/59/656 
f 872/58/658 802/58/619 805/147/621 873/147/669 
f 873/147/669 805/147/621 804/146/620 871/146/657 
f 871/146/657 804/146/620 803/59/509 870/59/656 
f 870/59/656 803/59/509 802/58/619 872/58/658 
f 874/62/660 806/62/516 809/148/624 875/148/670 
f 875/148/670 809/148/624 808/147/623 873/147/669 
f 873/147/669 808/147/623 807/58/622 872/58/658 
f 872/58/658 807/58/622 806/62/516 874/62/660 
f 876/64/671 810/64/625 813/149/628 877/149/672 
f 877/149/672 813/149/628 812/148/627 875/148/670 
f 875/148/670 812/148/627 811/62/626 874/62/660 
f 874/62/660 811/62/626 810/64/625 876/64/671 
f 878/66/664 814/66/524 817/112/630 879/112/665 
f 879/112/665 817/112/630 816/149/629 877/149/672 
f 877/149/672 816/149/629 815/64/521 876/64/671 
f 876/64/671 815/64/521 814/66/524 878/66/664 
f 859/134/642 818/134/528 821/113/527 858/113/645 
f 858/113/645 821/113/527 820/112/526 879/112/665 
f 879/112/665 820/112/526 819/66/631 878/66/664 
f 878/66/664 819/66/631 818/134/528 859/134/642 
f 880/58/673 825/58/635 824/59/634 881/59/674 
f 881/59/674 824/59/634 823/60/633 882/60/675 
f 882/60/675 823/60/633 822/57/632 883/57/676 
f 883/57/676 822/57/632 826/61/636 884/61/677 
f 884/61/677 826/61/636 828/63/638 885/63/678 
f 885/63/678 828/63/638 830/65/640 886/65/679 
f 886/65/679 830/65/640 831/66/641 887/66/680 
f 887/66/680 831/66/641 829/64/639 888/64/681 
f 888/64/681 829/64/639 827/62/637 889/62/682 
f 889/62/682 827/62/637 825/58/635 880/58/673 
# 502 polygons

#
# object heavy_a_color
#

v  4.3560 0.0000 -0.0654
v  3.7926 0.5291 -0.0654
v  2.3275 0.5291 0.1499
v  2.4189 0.0000 0.1499
v  1.4255 0.5390 -0.3351
v  1.0148 1.8721 -0.2327
v  1.0148 1.8721 0.1051
v  1.4255 0.5390 0.2076
v  1.1274 3.1694 -0.1566
v  1.1274 3.1694 0.0291
v  2.5385 1.0139 -0.2006
v  1.3750 1.0139 -0.2006
v  1.3747 0.6729 0.5400
v  2.5385 0.6729 0.4566
v  3.3103 0.0000 0.5780
v  1.3748 0.0000 0.6896
v  1.2256 1.2613 -0.2418
v  -0.9082 1.2613 -0.2418
v  -0.9082 0.8371 0.8832
v  1.2259 0.8371 0.6929
v  -0.9082 0.0000 1.0293
v  1.2258 0.0000 0.8763
v  2.3275 -0.5291 0.1499
v  3.7926 -0.5291 -0.0654
v  1.4255 -0.5390 -0.3351
v  1.4255 -0.5390 0.2076
v  1.0148 -1.8721 0.1051
v  1.0148 -1.8721 -0.2327
v  1.1274 -3.1694 0.0291
v  1.1274 -3.1694 -0.1566
v  2.5385 -1.0139 -0.2006
v  2.5385 -0.6729 0.4566
v  1.3747 -0.6729 0.5400
v  1.3750 -1.0139 -0.2006
v  1.2256 -1.2613 -0.2418
v  1.2259 -0.8371 0.6929
v  -0.9082 -0.8371 0.8832
v  -0.9082 -1.2613 -0.2418
# 38 vertices

vn 0.1104 0.0000 0.9939
vn 0.1436 0.1529 0.9777
vn 0.1453 0.0251 0.9891
vn 0.9557 0.2944 -0.0000
vn 0.9935 0.1140 0.0000
vn 0.9963 -0.0865 0.0000
vn 0.0000 0.8876 0.4605
vn 0.0000 0.9084 0.4182
vn 0.0563 0.6173 0.7847
vn 0.0594 0.5560 0.8290
vn 0.0575 0.0000 0.9983
vn 0.0000 0.9106 0.4133
vn 0.0000 0.9357 0.3528
vn 0.0695 0.6227 0.7794
vn 0.0683 0.6401 0.7652
vn 0.0715 0.0000 0.9974
vn 0.1453 -0.0251 0.9891
vn 0.1436 -0.1529 0.9777
vn 0.9557 -0.2944 -0.0000
vn 0.9935 -0.1140 0.0000
vn 0.9963 0.0865 0.0000
vn 0.0000 -0.8876 0.4605
vn 0.0594 -0.5560 0.8290
vn 0.0563 -0.6173 0.7847
vn 0.0000 -0.9084 0.4182
vn 0.0000 -0.9106 0.4133
vn 0.0683 -0.6401 0.7652
vn 0.0695 -0.6227 0.7794
vn 0.0000 -0.9357 0.3528
# 29 vertex normals

vt 0.5000 1.0000 0.0000
vt 1.0000 1.0000 0.0000
vt 0.0000 0.0000 0.0000
vt 1.0000 0.0000 0.0000
vt 0.0000 1.0000 0.0000
vt 0.3376 0.0000 0.0000
vt 0.3376 1.0000 0.0000
vt 1.0000 0.5000 0.0000
vt 0.6624 1.0000 0.0000
vt 0.5412 0.5000 0.0000
vt 0.3809 0.0000 0.0000
vt 0.3808 1.0000 0.0000
vt 0.6192 1.0000 0.0000
vt 0.0000 0.5000 0.0000
vt 0.5059 0.5000 0.0000
# 15 texture coords

o heavy_a_color
g heavy_a_color
usemtl 02___Default
s off
f 890/150/683 891/151/684 892/151/685 893/150/683 
f 894/152/686 895/153/687 896/151/687 897/154/686 
f 896/154/687 895/152/687 898/152/688 899/154/688 
f 900/152/689 901/155/690 902/156/691 903/154/692 
f 904/157/693 903/151/692 902/158/691 905/159/693 
f 906/160/694 907/153/695 908/151/696 909/161/697 
f 909/162/697 908/154/696 910/163/698 911/164/698 
f 890/150/683 893/150/683 912/151/699 913/151/700 
f 914/152/701 915/154/701 916/151/702 917/153/702 
f 916/154/702 918/154/703 919/152/703 917/152/702 
f 920/152/704 921/154/705 922/156/706 923/155/707 
f 904/157/693 905/159/693 922/158/706 921/151/705 
f 924/160/708 925/161/709 926/151/710 927/153/711 
f 925/162/709 911/164/698 910/163/698 926/154/710 
# 14 polygons

#
# object heavy_a_emissive
#

v  3.7179 0.5635 -0.0997
v  3.7179 0.7628 -0.2988
v  2.3002 0.7770 -0.3006
v  2.2394 0.5762 0.0835
v  4.5681 0.0000 -0.2946
v  3.8504 0.7068 -0.2963
v  3.8478 0.5091 -0.1022
v  4.3735 0.0000 -0.1042
v  0.0565 0.4676 -0.4155
v  0.0565 0.4676 0.2880
v  0.0789 0.5388 0.2096
v  0.0789 0.5388 -0.3372
v  -0.6637 2.0722 -0.2326
v  -0.6637 2.0722 0.1051
v  -0.4852 3.2350 0.0314
v  -0.4838 3.2350 -0.1590
v  2.7884 0.0000 0.0982
v  2.3097 0.7861 -0.1958
v  2.2931 0.6282 0.2410
v  2.5679 0.0000 0.2895
v  -0.7569 0.4888 -0.1228
v  -0.7569 0.0000 -0.1296
v  -0.7569 0.0000 0.3703
v  -0.7569 0.3241 0.3138
v  -0.7569 0.4275 -0.2301
v  -0.7569 0.0000 -0.2301
v  -1.6553 0.0000 0.5076
v  -1.6553 0.4339 0.4319
v  -1.6553 0.6543 -0.1525
v  -1.6553 0.5723 -0.2961
v  -1.6553 0.0000 -0.2961
v  -0.8213 3.9335 -0.5839
v  -0.8483 3.6251 -0.6668
v  -0.8483 3.6251 -0.4524
v  -0.8306 3.8267 -0.3982
v  -0.8752 3.3166 -0.5839
v  -0.8659 3.4234 -0.3982
v  -0.8950 3.0908 -0.3572
v  -0.8788 3.2758 -0.2500
v  -0.9022 3.0081 -0.0476
v  -0.8835 3.2217 -0.0476
v  -0.8950 3.0908 0.2621
v  -0.8788 3.2758 0.1549
v  -0.8752 3.3166 0.4888
v  -0.8659 3.4234 0.3031
v  -0.8483 3.6251 0.5717
v  -0.8483 3.6251 0.3573
v  -0.8213 3.9335 0.4888
v  -0.8306 3.8267 0.3031
v  -0.8015 4.1593 0.2621
v  -0.8177 3.9743 0.1549
v  -0.7943 4.2420 -0.0476
v  -0.8130 4.0284 -0.0476
v  -0.8015 4.1593 -0.3572
v  -0.8177 3.9743 -0.2500
v  -1.3483 3.5924 -0.1794
v  -1.3532 3.5369 -0.1237
v  -1.3550 3.5166 -0.0476
v  -1.3532 3.5369 0.0285
v  -1.3483 3.5924 0.0842
v  -1.3417 3.6682 0.1046
v  -1.3351 3.7440 0.0842
v  -1.3302 3.7995 0.0285
v  -1.3284 3.8198 -0.0476
v  -1.3302 3.7995 -0.1237
v  -1.3351 3.7440 -0.1794
v  -1.3417 3.6682 -0.1998
v  3.7179 -0.5635 -0.0997
v  2.2394 -0.5762 0.0835
v  2.3002 -0.7770 -0.3006
v  3.7179 -0.7628 -0.2988
v  3.8478 -0.5091 -0.1022
v  3.8504 -0.7068 -0.2963
v  0.0565 -0.4676 -0.4155
v  0.0789 -0.5388 -0.3372
v  0.0789 -0.5388 0.2096
v  0.0565 -0.4676 0.2880
v  -0.6637 -2.0722 -0.2326
v  -0.6637 -2.0722 0.1051
v  -0.4838 -3.2350 -0.1590
v  -0.4852 -3.2350 0.0314
v  2.2931 -0.6282 0.2410
v  2.3097 -0.7861 -0.1958
v  -0.7569 -0.4888 -0.1228
v  -0.7569 -0.3241 0.3138
v  -0.7569 -0.4275 -0.2301
v  -1.6553 -0.4339 0.4319
v  -1.6553 -0.6543 -0.1525
v  -1.6553 -0.5723 -0.2961
v  -0.8213 -3.9335 -0.5839
v  -0.8306 -3.8267 -0.3982
v  -0.8483 -3.6251 -0.4524
v  -0.8483 -3.6251 -0.6668
v  -0.8659 -3.4234 -0.3982
v  -0.8752 -3.3166 -0.5839
v  -0.8788 -3.2758 -0.2500
v  -0.8950 -3.0908 -0.3572
v  -0.8835 -3.2217 -0.0476
v  -0.9022 -3.0081 -0.0476
v  -0.8788 -3.2758 0.1549
v  -0.8950 -3.0908 0.2621
v  -0.8659 -3.4234 0.3031
v  -0.8752 -3.3166 0.4888
v  -0.8483 -3.6251 0.3573
v  -0.8483 -3.6251 0.5717
v  -0.8306 -3.8267 0.3031
v  -0.8213 -3.9335 0.4888
v  -0.8177 -3.9743 0.1549
v  -0.8015 -4.1593 0.2621
v  -0.8130 -4.0284 -0.0476
v  -0.7943 -4.2420 -0.0476
v  -0.8177 -3.9743 -0.2500
v  -0.8015 -4.1593 -0.3572
v  -1.3483 -3.5924 -0.1794
v  -1.3417 -3.6682 -0.1998
v  -1.3351 -3.7440 -0.1794
v  -1.3302 -3.7995 -0.1237
v  -1.3284 -3.8198 -0.0476
v  -1.3302 -3.7995 0.0285
v  -1.3351 -3.7440 0.0842
v  -1.3417 -3.6682 0.1046
v  -1.3483 -3.5924 0.0842
v  -1.3532 -3.5369 0.0285
v  -1.3550 -3.5166 -0.0476
v  -1.3532 -3.5369 -0.1237
# 125 vertices

vn 0.0934 0.7037 0.7044
vn 0.0062 0.7068 0.7074
vn 0.0083 0.8856 0.4643
vn 0.0659 0.8800 0.4705
vn 0.6994 0.0000 0.7147
vn 0.5644 0.5746 0.5927
vn 0.5604 0.5765 0.5946
vn -0.9540 0.2998 -0.0000
vn -0.9999 0.0154 0.0000
vn -0.9871 -0.1604 -0.0000
vn -0.9870 -0.1609 -0.0000
vn -0.9885 0.1512 -0.0072
vn -0.9882 0.1533 -0.0072
vn 0.6553 0.0000 0.7554
vn 0.7885 0.5682 0.2353
vn 0.8959 0.4059 0.1807
vn -0.6907 -0.7212 0.0532
vn -1.0000 0.0000 0.0000
vn -0.7247 0.0000 -0.6891
vn -0.6764 -0.4677 -0.5690
vn -0.6616 -0.3539 0.6611
vn -0.7326 0.0000 0.6807
vn -0.1511 0.0000 -0.9885
vn -0.1764 -0.6299 -0.7564
vn -0.1832 -0.9796 0.0820
vn -0.1459 -0.5225 0.8401
vn -0.0733 0.0000 0.9973
vn -0.9962 0.0872 0.0000
vn -0.9962 0.0872 -0.0000
vn -0.9962 0.0871 -0.0000
vn -0.9962 0.0871 0.0000
vn 0.0934 -0.7037 0.7044
vn 0.0659 -0.8800 0.4705
vn 0.0083 -0.8856 0.4643
vn 0.0062 -0.7068 0.7074
vn 0.5604 -0.5765 0.5946
vn 0.5644 -0.5746 0.5927
vn -0.9540 -0.2998 -0.0000
vn -0.9999 -0.0154 0.0000
vn -0.9871 0.1604 -0.0000
vn -0.9870 0.1609 -0.0000
vn -0.9882 -0.1533 -0.0072
vn -0.9885 -0.1512 -0.0072
vn 0.8959 -0.4059 0.1807
vn 0.7885 -0.5682 0.2353
vn -0.6907 0.7212 0.0532
vn -0.6764 0.4677 -0.5690
vn -0.6616 0.3539 0.6611
vn -0.1764 0.6299 -0.7564
vn -0.1832 0.9796 0.0820
vn -0.1459 0.5225 0.8401
vn -0.9962 -0.0872 0.0000
vn -0.9962 -0.0872 -0.0000
vn -0.9962 -0.0871 0.0000
vn -0.9962 -0.0871 -0.0000
# 55 vertex normals

vt 1.0000 1.0000 0.0000
vt 1.0000 0.0000 0.0000
vt 0.5000 0.0000 0.0000
vt 0.5000 1.0000 0.0000
vt 0.0000 0.0000 0.0000
vt 0.0000 1.0000 0.0000
vt 1.0000 0.5000 0.0000
vt 0.8333 0.0000 1.0000
vt 0.7500 0.0000 1.0000
vt 0.4450 0.0000 0.2679
vt 0.2440 0.0000 -0.2680
vt 0.1116 0.0000 -0.7321
vt 0.0833 0.0000 -1.0000
vt 0.1667 0.0000 -1.0000
vt 0.3393 0.0000 -0.7320
vt 0.5550 0.0000 -0.2679
vt 0.7560 0.0000 0.2679
vt 0.8884 0.0000 0.7321
vt 0.9167 0.0000 1.0000
# 19 texture coords

o heavy_a_emissive
g heavy_a_emissive
usemtl 03___Default
s 1
f 928/165/712 929/166/713 930/166/714 931/165/715 
f 932/167/716 933/166/717 934/165/718 935/168/716 
usemtl 01___Default
f 936/166/719 937/165/719 938/165/720 939/166/720 
usemtl 03___Default
f 940/169/721 939/166/720 938/165/720 941/170/722 
f 940/166/721 941/165/722 942/165/723 943/166/724 
f 944/167/725 945/166/726 946/165/727 947/168/725 
f 948/169/728 949/167/729 950/168/730 951/170/731 
f 949/171/729 948/165/728 952/165/732 953/171/733 
f 954/168/734 955/170/735 951/170/731 950/168/730 
f 955/170/735 956/169/736 948/169/728 951/170/731 
f 956/165/736 957/165/737 952/165/732 948/165/728 
f 957/165/737 958/171/738 953/171/733 952/165/732 
f 959/172/739 960/173/739 961/173/739 962/172/739 
f 960/173/739 963/174/739 964/174/739 961/173/739 
f 963/174/739 965/175/740 966/175/739 964/174/739 
f 965/175/740 967/176/740 968/176/740 966/175/739 
f 967/176/740 969/177/739 970/177/740 968/176/740 
f 969/177/739 971/178/740 972/178/740 970/177/740 
f 971/178/740 973/179/739 974/179/739 972/178/740 
f 973/179/739 975/180/740 976/180/740 974/179/739 
f 975/180/740 977/181/740 978/181/740 976/180/740 
f 977/181/740 979/182/739 980/182/740 978/181/740 
f 979/182/739 981/183/739 982/183/739 980/182/740 
f 981/183/739 959/172/739 962/172/739 982/183/739 
f 983/174/739 984/175/739 985/176/741 986/177/740 987/178/742 988/179/739 989/180/741 990/181/739 991/182/740 992/183/740 993/172/742 994/173/740 
f 995/165/743 996/165/744 997/166/745 998/166/746 
f 932/167/716 935/168/716 999/165/747 1000/166/748 
usemtl 01___Default
f 1001/166/749 1002/166/750 1003/165/750 1004/165/749 
usemtl 03___Default
f 1005/169/751 1006/170/752 1003/165/750 1002/166/750 
f 1005/166/751 1007/166/753 1008/165/754 1006/165/752 
f 944/167/725 947/168/725 1009/165/755 1010/166/756 
f 1011/169/757 1012/170/758 950/168/730 949/167/729 
f 949/171/729 953/171/733 1013/165/759 1011/165/757 
f 954/168/734 950/168/730 1012/170/758 1014/170/760 
f 1014/170/760 1012/170/758 1011/169/757 1015/169/761 
f 1015/165/761 1011/165/757 1013/165/759 1016/165/762 
f 1016/165/762 1013/165/759 953/171/733 958/171/738 
f 1017/172/763 1018/172/763 1019/173/763 1020/173/763 
f 1020/173/763 1019/173/763 1021/174/763 1022/174/763 
f 1022/174/763 1021/174/763 1023/175/763 1024/175/764 
f 1024/175/764 1023/175/763 1025/176/764 1026/176/764 
f 1026/176/764 1025/176/764 1027/177/764 1028/177/763 
f 1028/177/763 1027/177/764 1029/178/764 1030/178/764 
f 1030/178/764 1029/178/764 1031/179/763 1032/179/763 
f 1032/179/763 1031/179/763 1033/180/764 1034/180/764 
f 1034/180/764 1033/180/764 1035/181/764 1036/181/764 
f 1036/181/764 1035/181/764 1037/182/764 1038/182/763 
f 1038/182/763 1037/182/764 1039/183/763 1040/183/763 
f 1040/183/763 1039/183/763 1018/172/763 1017/172/763 
f 1041/174/763 1042/173/764 1043/172/765 1044/183/764 1045/182/764 1046/181/763 1047/180/766 1048/179/763 1049/178/765 1050/177/764 1051/176/766 1052/175/763 
# 50 polygons

