# 3ds Max Wavefront OBJ Exporter v0.97b - (c)2007 guruware
# File Created: 19.07.2026 03:03:13

mtllib heavy_a_bolz.mtl

#
# object heavy_a_bolz
#

v  -2.3070 0.0000 0.0491
v  -2.3070 1.3893 0.0491
v  2.3070 1.3893 0.0491
v  3.4752 0.0000 0.0491
v  -2.3070 0.0000 2.2748
v  -2.3070 1.1206 2.0793
v  -2.3070 0.8116 1.7333
v  -2.3070 0.0000 1.8749
v  -2.3070 1.6884 0.5734
v  -2.3070 1.2232 0.6416
v  -2.3070 1.0317 0.3060
v  -2.3070 0.0000 0.3060
v  -3.3070 0.0000 1.8749
v  -3.3070 0.8116 1.7333
v  -3.3070 0.5808 1.4752
v  -3.3070 0.0000 1.5766
v  -3.3070 1.2232 0.6416
v  -3.3070 0.8758 0.6929
v  -3.3070 1.0317 0.3060
v  -3.3070 0.7661 0.5007
v  -3.3070 0.0000 0.3060
v  -3.3070 0.0000 0.5007
v  5.0564 0.0000 0.6389
v  3.9942 1.0672 0.6389
v  4.0715 0.9462 0.7342
v  5.0322 0.0000 0.7388
v  3.9942 0.7082 1.3307
v  4.0680 0.6815 1.2356
v  4.7484 0.0000 1.3307
v  4.7718 0.0000 1.2305
v  3.8942 1.0211 0.7277
v  3.8942 0.7543 1.2419
v  2.1552 1.0672 0.6389
v  2.2552 1.0211 0.7277
v  2.1552 0.7082 1.3307
v  2.2552 0.7543 1.2419
v  3.8266 4.6795 0.7626
v  3.8266 4.7203 0.7516
v  3.8266 4.7612 0.7626
v  3.8266 4.7911 0.7925
v  3.8266 4.8021 0.8334
v  3.8266 4.7911 0.8743
v  3.8266 4.7612 0.9042
v  3.8266 4.7203 0.9151
v  3.8266 4.6795 0.9042
v  3.8266 4.6495 0.8743
v  3.8266 4.6386 0.8334
v  3.8266 4.6495 0.7925
v  2.1860 4.7203 0.2104
v  2.1860 5.0318 0.2939
v  2.9082 4.8870 0.5447
v  2.9082 4.7203 0.5001
v  2.1860 5.2599 0.5219
v  2.9082 5.0090 0.6667
v  2.1860 5.3433 0.8334
v  2.9082 5.0536 0.8334
v  2.1860 5.2599 1.1449
v  2.9082 5.0090 1.0000
v  2.1860 5.0318 1.3729
v  2.9082 4.8870 1.1220
v  2.1860 4.7203 1.4564
v  2.9082 4.7203 1.1667
v  2.1860 4.4088 1.3729
v  2.9082 4.5537 1.1220
v  2.1860 4.1808 1.1449
v  2.9082 4.4317 1.0000
v  2.1860 4.0973 0.8334
v  2.9082 4.3871 0.8334
v  2.1860 4.1808 0.5219
v  2.9082 4.4317 0.6667
v  2.1860 4.4088 0.2939
v  2.9082 4.5537 0.5447
v  -1.5564 4.9913 0.3640
v  -1.5564 4.7203 0.2914
v  -2.5564 4.7203 0.4226
v  -2.5564 4.9257 0.4776
v  -1.5564 4.4494 0.3640
v  -2.5564 4.5149 0.4776
v  -1.5564 4.2510 0.5624
v  -2.5564 4.3646 0.6280
v  -1.5564 4.1784 0.8334
v  -2.5564 4.3096 0.8334
v  -1.5564 4.2510 1.1044
v  -2.5564 4.3646 1.0388
v  -1.5564 4.4494 1.3027
v  -2.5564 4.5149 1.1891
v  -1.5564 4.7203 1.3753
v  -2.5564 4.7203 1.2442
v  -1.5564 4.9913 1.3027
v  -2.5564 4.9257 1.1891
v  -1.5564 5.1897 1.1044
v  -2.5564 5.0761 1.0388
v  -1.5564 5.2623 0.8334
v  -2.5564 5.1311 0.8334
v  -1.5564 5.1897 0.5624
v  -2.5564 5.0761 0.6280
v  -2.6391 4.7203 0.5261
v  -2.6391 4.8740 0.5673
v  -2.6391 4.5667 0.5673
v  -2.6391 4.4542 0.6798
v  -2.6391 4.4131 0.8334
v  -2.6391 4.4542 0.9870
v  -2.6391 4.5667 1.0995
v  -2.6391 4.7203 1.1406
v  -2.6391 4.8740 1.0995
v  -2.6391 4.9864 0.9870
v  -2.6391 5.0276 0.8334
v  -2.6391 4.9864 0.6798
v  -2.2889 4.7203 0.6297
v  -2.2889 4.8222 0.6569
v  -2.2889 4.6185 0.6569
v  -2.2889 4.5439 0.7315
v  -2.2889 4.5166 0.8334
v  -2.2889 4.5439 0.9353
v  -2.2889 4.6185 1.0098
v  -2.2889 4.7203 1.0371
v  -2.2889 4.8222 1.0098
v  -2.2889 4.8968 0.9353
v  -2.2889 4.9241 0.8334
v  -2.2889 4.8968 0.7315
v  2.3070 -1.3893 0.0491
v  -2.3070 -1.3893 0.0491
v  -2.3070 -0.8116 1.7333
v  -2.3070 -1.1206 2.0793
v  -2.3070 -1.2232 0.6416
v  -2.3070 -1.6884 0.5734
v  -2.3070 -1.0317 0.3060
v  -3.3070 -0.5808 1.4752
v  -3.3070 -0.8116 1.7333
v  -3.3070 -0.8758 0.6929
v  -3.3070 -1.2232 0.6416
v  -3.3070 -0.7661 0.5007
v  -3.3070 -1.0317 0.3060
v  4.0715 -0.9462 0.7342
v  3.9942 -1.0672 0.6389
v  4.0680 -0.6815 1.2356
v  3.9942 -0.7082 1.3307
v  3.8942 -0.7543 1.2419
v  3.8942 -1.0211 0.7277
v  2.2552 -1.0211 0.7277
v  2.1552 -1.0672 0.6389
v  2.1552 -0.7082 1.3307
v  2.2552 -0.7543 1.2419
v  3.8266 -4.6795 0.7626
v  3.8266 -4.6495 0.7925
v  3.8266 -4.6386 0.8334
v  3.8266 -4.6495 0.8743
v  3.8266 -4.6795 0.9042
v  3.8266 -4.7203 0.9151
v  3.8266 -4.7612 0.9042
v  3.8266 -4.7911 0.8743
v  3.8266 -4.8021 0.8334
v  3.8266 -4.7911 0.7925
v  3.8266 -4.7612 0.7626
v  3.8266 -4.7203 0.7516
v  2.1860 -4.7203 0.2104
v  2.9082 -4.7203 0.5001
v  2.9082 -4.8870 0.5447
v  2.1860 -5.0318 0.2939
v  2.9082 -5.0090 0.6667
v  2.1860 -5.2599 0.5219
v  2.9082 -5.0536 0.8334
v  2.1860 -5.3433 0.8334
v  2.9082 -5.0090 1.0000
v  2.1860 -5.2599 1.1449
v  2.9082 -4.8870 1.1220
v  2.1860 -5.0318 1.3729
v  2.9082 -4.7203 1.1667
v  2.1860 -4.7203 1.4564
v  2.9082 -4.5537 1.1220
v  2.1860 -4.4088 1.3729
v  2.9082 -4.4317 1.0000
v  2.1860 -4.1808 1.1449
v  2.9082 -4.3871 0.8334
v  2.1860 -4.0973 0.8334
v  2.9082 -4.4317 0.6667
v  2.1860 -4.1808 0.5219
v  2.9082 -4.5537 0.5447
v  2.1860 -4.4088 0.2939
v  -1.5564 -4.9913 0.3640
v  -2.5564 -4.9257 0.4776
v  -2.5564 -4.7203 0.4226
v  -1.5564 -4.7203 0.2914
v  -2.5564 -4.5149 0.4776
v  -1.5564 -4.4494 0.3640
v  -2.5564 -4.3646 0.6280
v  -1.5564 -4.2510 0.5624
v  -2.5564 -4.3096 0.8334
v  -1.5564 -4.1784 0.8334
v  -2.5564 -4.3646 1.0388
v  -1.5564 -4.2510 1.1044
v  -2.5564 -4.5149 1.1891
v  -1.5564 -4.4494 1.3027
v  -2.5564 -4.7203 1.2442
v  -1.5564 -4.7203 1.3753
v  -2.5564 -4.9257 1.1891
v  -1.5564 -4.9913 1.3027
v  -2.5564 -5.0761 1.0388
v  -1.5564 -5.1897 1.1044
v  -2.5564 -5.1311 0.8334
v  -1.5564 -5.2623 0.8334
v  -2.5564 -5.0761 0.6280
v  -1.5564 -5.1897 0.5624
v  -2.6391 -4.8740 0.5673
v  -2.6391 -4.7203 0.5261
v  -2.6391 -4.5667 0.5673
v  -2.6391 -4.4542 0.6798
v  -2.6391 -4.4131 0.8334
v  -2.6391 -4.4542 0.9870
v  -2.6391 -4.5667 1.0995
v  -2.6391 -4.7203 1.1406
v  -2.6391 -4.8740 1.0995
v  -2.6391 -4.9864 0.9870
v  -2.6391 -5.0276 0.8334
v  -2.6391 -4.9864 0.6798
v  -2.2889 -4.8222 0.6569
v  -2.2889 -4.7203 0.6297
v  -2.2889 -4.6185 0.6569
v  -2.2889 -4.5439 0.7315
v  -2.2889 -4.5166 0.8334
v  -2.2889 -4.5439 0.9353
v  -2.2889 -4.6185 1.0098
v  -2.2889 -4.7203 1.0371
v  -2.2889 -4.8222 1.0098
v  -2.2889 -4.8968 0.9353
v  -2.2889 -4.9241 0.8334
v  -2.2889 -4.8968 0.7315
# 227 vertices

vn -0.7071 0.0000 -0.7071
vn -0.7993 0.0000 -0.6009
vn 0.0000 0.0000 -1.0000
vn -1.0000 0.0000 0.0000
vn -1.0000 0.0000 -0.0000
vn 0.9720 0.0000 0.2350
vn 0.3081 0.8486 0.4302
vn 0.6447 0.6827 0.3439
vn 0.3874 0.8242 0.4131
vn 0.6703 0.6629 0.3335
vn 0.9738 0.0000 0.2274
vn 0.0000 0.8876 0.4605
vn -0.0000 0.8876 0.4605
vn 0.7486 -0.3315 -0.5742
vn 0.7486 0.0000 -0.6630
vn 0.7486 0.3315 -0.5742
vn 0.7486 0.5742 -0.3315
vn 0.7486 0.6630 -0.0000
vn 0.7486 0.5742 0.3315
vn 0.7486 0.3315 0.5742
vn 0.7486 0.0000 0.6630
vn 0.7486 -0.3315 0.5742
vn 0.7486 -0.5742 0.3315
vn 0.7486 -0.6630 -0.0000
vn 0.7486 -0.5742 -0.3315
vn 0.3723 0.0000 -0.9281
vn 0.3723 0.4641 -0.8038
vn 0.3216 0.4734 -0.8200
vn 0.3216 0.0000 -0.9469
vn 0.3723 0.8038 -0.4641
vn 0.3216 0.8200 -0.4734
vn 0.3723 0.9281 0.0000
vn 0.3216 0.9469 0.0000
vn 0.3723 0.8038 0.4641
vn 0.3216 0.8200 0.4734
vn 0.3723 0.4641 0.8038
vn 0.3216 0.4734 0.8200
vn 0.3723 0.0000 0.9281
vn 0.3216 0.0000 0.9469
vn 0.3723 -0.4641 0.8038
vn 0.3216 -0.4734 0.8200
vn 0.3723 -0.8038 0.4641
vn 0.3216 -0.8200 0.4734
vn 0.3723 -0.9281 0.0000
vn 0.3216 -0.9469 0.0000
vn 0.3723 -0.8038 -0.4641
vn 0.3216 -0.8200 -0.4734
vn 0.3723 -0.4641 -0.8038
vn 0.3216 -0.4734 -0.8200
vn -0.1300 0.4958 -0.8587
vn -0.1300 -0.0000 -0.9915
vn -0.4668 -0.0000 -0.8844
vn -0.4668 0.4422 -0.7659
vn -0.1300 -0.4958 -0.8587
vn -0.4668 -0.4422 -0.7659
vn -0.1300 -0.8587 -0.4958
vn -0.4668 -0.7659 -0.4422
vn -0.1300 -0.9915 -0.0000
vn -0.4668 -0.8844 -0.0000
vn -0.1300 -0.8587 0.4958
vn -0.4668 -0.7659 0.4422
vn -0.1300 -0.4958 0.8587
vn -0.4668 -0.4422 0.7659
vn -0.1300 0.0000 0.9915
vn -0.4668 0.0000 0.8844
vn -0.1300 0.4958 0.8587
vn -0.4668 0.4422 0.7659
vn -0.1300 0.8587 0.4958
vn -0.4668 0.7659 0.4422
vn -0.1300 0.9915 -0.0000
vn -0.4668 0.8844 -0.0000
vn -0.1300 0.8587 -0.4958
vn -0.4668 0.7659 -0.4422
vn -0.9862 -0.0000 0.1657
vn -0.9862 -0.0828 0.1435
vn -0.9862 0.0828 0.1435
vn -0.9862 0.1435 0.0828
vn -0.9862 0.1657 -0.0000
vn -0.9862 0.1435 -0.0828
vn -0.9862 0.0828 -0.1435
vn -0.9862 0.0000 -0.1657
vn -0.9862 -0.0828 -0.1435
vn -0.9862 -0.1435 -0.0828
vn -0.9862 -0.1657 -0.0000
vn -0.9862 -0.1435 0.0828
vn -0.2835 0.0000 0.9590
vn -0.2835 -0.4795 0.8305
vn -0.2835 0.4795 0.8305
vn -0.2835 0.8305 0.4795
vn -0.2835 0.9590 0.0000
vn -0.2835 0.8305 -0.4795
vn -0.2835 0.4795 -0.8305
vn -0.2835 -0.0000 -0.9590
vn -0.2835 -0.4795 -0.8305
vn -0.2835 -0.8305 -0.4795
vn -0.2835 -0.9590 0.0000
vn -0.2835 -0.8305 0.4795
vn -1.0000 -0.0000 0.0000
vn -1.0000 -0.0000 -0.0000
vn 0.6447 -0.6827 0.3439
vn 0.3081 -0.8486 0.4302
vn 0.6703 -0.6629 0.3335
vn 0.3874 -0.8242 0.4131
vn -0.0000 -0.8876 0.4605
vn 0.0000 -0.8876 0.4605
vn 0.7486 -0.0000 -0.6630
vn 0.3723 -0.0000 -0.9281
vn 0.3216 -0.0000 -0.9469
vn 0.3216 -0.0000 0.9469
vn 0.3723 -0.0000 0.9281
vn -0.4668 0.0000 -0.8844
vn -0.1300 0.0000 -0.9915
vn -0.4668 -0.0000 0.8844
vn -0.1300 -0.0000 0.9915
vn -0.9862 0.0000 0.1657
vn -0.9862 -0.0000 -0.1657
vn -0.2835 -0.0000 0.9590
vn -0.2835 0.0000 -0.9590
# 118 vertex normals

vt 1.0000 0.5000 0.0000
vt 1.0000 1.0000 0.0000
vt 0.0000 1.0000 0.0000
vt 0.0000 0.5000 0.0000
vt 0.5000 1.0000 0.0000
vt 0.0000 0.0000 0.0000
vt 0.5000 0.0000 0.0000
vt 1.0000 0.0000 0.0000
vt 0.6667 1.0000 1.0000
vt 0.7500 1.0000 1.0000
vt 0.8333 1.0000 1.0000
vt 0.9167 1.0000 1.0000
vt 0.8884 1.0000 0.7321
vt 0.7560 1.0000 0.2679
vt 0.5550 1.0000 -0.2679
vt 0.3393 1.0000 -0.7321
vt 0.1667 1.0000 -1.0000
vt 0.0833 1.0000 -1.0000
vt 0.1116 1.0000 -0.7321
vt 0.2440 1.0000 -0.2679
vt 0.8333 0.0000 1.0000
vt 0.7500 0.0000 1.0000
vt 0.4450 0.0000 0.2679
vt 0.2440 0.0000 -0.2680
vt 0.1116 0.0000 -0.7321
vt 0.0833 0.0000 -1.0000
vt 0.1667 0.0000 -1.0000
vt 0.3393 0.0000 -0.7320
vt 0.5550 0.0000 -0.2679
vt 0.7560 0.0000 0.2679
vt 0.8884 0.0000 0.7321
vt 0.9167 0.0000 1.0000
# 32 texture coords

o heavy_a_bolz
g heavy_a_bolz
usemtl 04___Default
s 2
f 1/1/1 2/2/2 3/3/3 4/4/3 
s off
f 5/5/4 6/3/4 7/3/4 8/5/4 
f 6/3/4 9/6/4 10/6/4 7/3/4 
f 9/2/4 2/2/2 11/2/4 10/2/4 
f 2/2/2 1/1/1 12/1/4 11/2/4 
f 13/5/4 14/3/4 15/3/4 16/5/4 
f 14/3/4 17/6/5 18/6/5 15/3/4 
f 17/2/5 19/2/5 20/2/5 18/2/5 
f 19/2/5 21/1/5 22/1/5 20/2/5 
f 23/7/6 24/8/7 25/8/8 26/7/6 
f 24/8/7 27/2/9 28/2/10 25/8/8 
f 27/2/9 29/5/11 30/5/11 28/2/10 
f 27/2/9 24/8/7 31/8/12 32/2/13 
f 24/8/7 33/8/12 34/8/12 31/8/12 
f 35/2/12 27/2/9 32/2/13 36/2/12 
s 1
f 37/9/14 38/10/15 39/11/16 40/12/17 41/13/18 42/14/19 43/15/20 44/16/21 45/17/22 46/18/23 47/19/24 48/20/25 
s off
f 49/10/26 50/11/27 51/11/28 52/10/29 
f 50/11/27 53/12/30 54/12/31 51/11/28 
f 53/12/30 55/13/32 56/13/33 54/12/31 
f 55/13/32 57/14/34 58/14/35 56/13/33 
f 57/14/34 59/15/36 60/15/37 58/14/35 
f 59/15/36 61/16/38 62/16/39 60/15/37 
f 61/16/38 63/17/40 64/17/41 62/16/39 
f 63/17/40 65/18/42 66/18/43 64/17/41 
f 65/18/42 67/19/44 68/19/45 66/18/43 
f 67/19/44 69/20/46 70/20/47 68/19/45 
f 69/20/46 71/9/48 72/9/49 70/20/47 
f 71/9/48 49/10/26 52/10/29 72/9/49 
f 52/10/29 51/11/28 39/11/16 38/10/15 
f 51/11/28 54/12/31 40/12/17 39/11/16 
f 54/12/31 56/13/33 41/13/18 40/12/17 
f 56/13/33 58/14/35 42/14/19 41/13/18 
f 58/14/35 60/15/37 43/15/20 42/14/19 
f 60/15/37 62/16/39 44/16/21 43/15/20 
f 62/16/39 64/17/41 45/17/22 44/16/21 
f 64/17/41 66/18/43 46/18/23 45/17/22 
f 66/18/43 68/19/45 47/19/24 46/18/23 
f 68/19/45 70/20/47 48/20/25 47/19/24 
f 70/20/47 72/9/49 37/9/14 48/20/25 
f 72/9/49 52/10/29 38/10/15 37/9/14 
f 73/21/50 74/22/51 75/22/52 76/21/53 
f 74/22/51 77/23/54 78/23/55 75/22/52 
f 77/23/54 79/24/56 80/24/57 78/23/55 
f 79/24/56 81/25/58 82/25/59 80/24/57 
f 81/25/58 83/26/60 84/26/61 82/25/59 
f 83/26/60 85/27/62 86/27/63 84/26/61 
f 85/27/62 87/28/64 88/28/65 86/27/63 
f 87/28/64 89/29/66 90/29/67 88/28/65 
f 89/29/66 91/30/68 92/30/69 90/29/67 
f 91/30/68 93/31/70 94/31/71 92/30/69 
f 93/31/70 95/32/72 96/32/73 94/31/71 
f 95/32/72 73/21/50 76/21/53 96/32/73 
f 76/21/53 75/22/52 97/22/74 98/21/75 
f 75/22/52 78/23/55 99/23/76 97/22/74 
f 78/23/55 80/24/57 100/24/77 99/23/76 
f 80/24/57 82/25/59 101/25/78 100/24/77 
f 82/25/59 84/26/61 102/26/79 101/25/78 
f 84/26/61 86/27/63 103/27/80 102/26/79 
f 86/27/63 88/28/65 104/28/81 103/27/80 
f 88/28/65 90/29/67 105/29/82 104/28/81 
f 90/29/67 92/30/69 106/30/83 105/29/82 
f 92/30/69 94/31/71 107/31/84 106/30/83 
f 94/31/71 96/32/73 108/32/85 107/31/84 
f 96/32/73 76/21/53 98/21/75 108/32/85 
f 98/21/75 97/22/74 109/22/86 110/21/87 
f 97/22/74 99/23/76 111/23/88 109/22/86 
f 99/23/76 100/24/77 112/24/89 111/23/88 
f 100/24/77 101/25/78 113/25/90 112/24/89 
f 101/25/78 102/26/79 114/26/91 113/25/90 
f 102/26/79 103/27/80 115/27/92 114/26/91 
f 103/27/80 104/28/81 116/28/93 115/27/92 
f 104/28/81 105/29/82 117/29/94 116/28/93 
f 105/29/82 106/30/83 118/30/95 117/29/94 
f 106/30/83 107/31/84 119/31/96 118/30/95 
f 107/31/84 108/32/85 120/32/97 119/31/96 
f 108/32/85 98/21/75 110/21/87 120/32/97 
s 2
f 1/1/1 4/4/3 121/3/3 122/2/2 
s off
f 5/5/4 8/5/4 123/3/4 124/3/4 
f 124/3/4 123/3/4 125/6/4 126/6/4 
f 126/2/4 125/2/4 127/2/4 122/2/2 
f 122/2/2 127/2/4 12/1/4 1/1/1 
f 13/5/4 16/5/4 128/3/98 129/3/98 
f 129/3/98 128/3/98 130/6/99 131/6/99 
f 131/2/99 130/2/99 132/2/99 133/2/99 
f 133/2/99 132/2/99 22/1/5 21/1/5 
f 23/7/6 26/7/6 134/8/100 135/8/101 
f 135/8/101 134/8/100 136/2/102 137/2/103 
f 137/2/103 136/2/102 30/5/11 29/5/11 
f 137/2/103 138/2/104 139/8/105 135/8/101 
f 135/8/101 139/8/105 140/8/105 141/8/105 
f 142/2/105 143/2/105 138/2/104 137/2/103 
s 1
f 144/9/16 145/20/17 146/19/18 147/18/19 148/17/20 149/16/21 150/15/22 151/14/23 152/13/24 153/12/25 154/11/14 155/10/106 
s off
f 156/10/107 157/10/108 158/11/49 159/11/48 
f 159/11/48 158/11/49 160/12/47 161/12/46 
f 161/12/46 160/12/47 162/13/45 163/13/44 
f 163/13/44 162/13/45 164/14/43 165/14/42 
f 165/14/42 164/14/43 166/15/41 167/15/40 
f 167/15/40 166/15/41 168/16/109 169/16/110 
f 169/16/110 168/16/109 170/17/37 171/17/36 
f 171/17/36 170/17/37 172/18/35 173/18/34 
f 173/18/34 172/18/35 174/19/33 175/19/32 
f 175/19/32 174/19/33 176/20/31 177/20/30 
f 177/20/30 176/20/31 178/9/28 179/9/27 
f 179/9/27 178/9/28 157/10/108 156/10/107 
f 157/10/108 155/10/106 154/11/14 158/11/49 
f 158/11/49 154/11/14 153/12/25 160/12/47 
f 160/12/47 153/12/25 152/13/24 162/13/45 
f 162/13/45 152/13/24 151/14/23 164/14/43 
f 164/14/43 151/14/23 150/15/22 166/15/41 
f 166/15/41 150/15/22 149/16/21 168/16/109 
f 168/16/109 149/16/21 148/17/20 170/17/37 
f 170/17/37 148/17/20 147/18/19 172/18/35 
f 172/18/35 147/18/19 146/19/18 174/19/33 
f 174/19/33 146/19/18 145/20/17 176/20/31 
f 176/20/31 145/20/17 144/9/16 178/9/28 
f 178/9/28 144/9/16 155/10/106 157/10/108 
f 180/21/54 181/21/55 182/22/111 183/22/112 
f 183/22/112 182/22/111 184/23/53 185/23/50 
f 185/23/50 184/23/53 186/24/73 187/24/72 
f 187/24/72 186/24/73 188/25/71 189/25/70 
f 189/25/70 188/25/71 190/26/69 191/26/68 
f 191/26/68 190/26/69 192/27/67 193/27/66 
f 193/27/66 192/27/67 194/28/113 195/28/114 
f 195/28/114 194/28/113 196/29/63 197/29/62 
f 197/29/62 196/29/63 198/30/61 199/30/60 
f 199/30/60 198/30/61 200/31/59 201/31/58 
f 201/31/58 200/31/59 202/32/57 203/32/56 
f 203/32/56 202/32/57 181/21/55 180/21/54 
f 181/21/55 204/21/76 205/22/115 182/22/111 
f 182/22/111 205/22/115 206/23/75 184/23/53 
f 184/23/53 206/23/75 207/24/85 186/24/73 
f 186/24/73 207/24/85 208/25/84 188/25/71 
f 188/25/71 208/25/84 209/26/83 190/26/69 
f 190/26/69 209/26/83 210/27/82 192/27/67 
f 192/27/67 210/27/82 211/28/116 194/28/113 
f 194/28/113 211/28/116 212/29/80 196/29/63 
f 196/29/63 212/29/80 213/30/79 198/30/61 
f 198/30/61 213/30/79 214/31/78 200/31/59 
f 200/31/59 214/31/78 215/32/77 202/32/57 
f 202/32/57 215/32/77 204/21/76 181/21/55 
f 204/21/76 216/21/88 217/22/117 205/22/115 
f 205/22/115 217/22/117 218/23/87 206/23/75 
f 206/23/75 218/23/87 219/24/97 207/24/85 
f 207/24/85 219/24/97 220/25/96 208/25/84 
f 208/25/84 220/25/96 221/26/95 209/26/83 
f 209/26/83 221/26/95 222/27/94 210/27/82 
f 210/27/82 222/27/94 223/28/118 211/28/116 
f 211/28/116 223/28/118 224/29/92 212/29/80 
f 212/29/80 224/29/92 225/30/91 213/30/79 
f 213/30/79 225/30/91 226/31/90 214/31/78 
f 214/31/78 226/31/90 227/32/89 215/32/77 
f 215/32/77 227/32/89 216/21/88 204/21/76 
# 152 polygons

