# 3ds Max Wavefront OBJ Exporter v0.97b - (c)2007 guruware
# File Created: 20.07.2026 01:09:40

mtllib heavy_a_base.mtl

#
# object heavy_a_base
#

v  3.7926 0.6560 -0.4615
v  4.4363 0.0000 -0.4615
v  2.4189 0.0000 -0.4652
v  2.4189 0.6560 -0.4964
v  0.0565 0.4676 -0.4155
v  -0.6650 2.0766 -0.3072
v  1.0143 1.8767 -0.3072
v  1.4475 0.4676 -0.4155
v  0.0565 0.4676 0.2880
v  1.4475 0.4676 0.2880
v  1.0143 1.8767 0.1797
v  -0.6650 2.0766 0.1797
v  1.1420 3.2426 -0.2275
v  -0.5080 3.2956 -0.2275
v  -0.5080 3.2956 0.1000
v  1.1420 3.2426 0.1000
v  1.0148 1.8721 -0.2327
v  1.4255 0.5390 -0.3351
v  1.1274 3.1694 -0.1566
v  1.1274 3.1694 0.0291
v  1.0148 1.8721 0.1051
v  1.4255 0.5390 0.2076
v  0.0789 0.5388 -0.3372
v  -0.6637 2.0722 -0.2326
v  -0.6637 2.0722 0.1051
v  0.0789 0.5388 0.2096
v  -0.4852 3.2350 0.0314
v  -0.4838 3.2350 -0.1590
v  -0.9082 1.2613 -0.2418
v  1.2256 1.2613 -0.2418
v  1.2256 1.0378 -0.6334
v  -0.9082 1.0378 -0.6334
v  -0.9082 0.0000 0.7305
v  -0.9082 0.6063 0.6247
v  -1.6553 0.6063 0.6247
v  -1.6553 0.0000 0.7305
v  -0.9082 0.9138 -0.1908
v  -1.6553 0.9138 -0.1908
v  -0.9082 0.7707 -0.4415
v  -1.6553 0.7707 -0.4415
v  -0.9082 0.0000 -0.4415
v  -1.6553 0.0000 -0.4415
v  2.6569 0.9286 -0.1991
v  2.5136 0.7456 -0.2476
v  2.6441 0.8004 -0.4034
v  2.3097 0.7861 -0.1958
v  2.6403 0.6282 0.3517
v  2.2931 0.6282 0.2410
v  3.3553 0.0000 0.4630
v  2.5679 0.0000 0.2895
v  1.3750 1.0139 -0.2006
v  2.5385 1.0139 -0.2006
v  2.5385 0.8343 -0.5155
v  1.3750 0.8343 -0.5155
v  2.7884 0.0000 0.0982
v  3.6080 0.0000 -0.2041
v  3.4541 0.0000 -0.3970
v  1.5420 3.4159 -0.6668
v  1.5690 3.7244 -0.5839
v  1.6933 3.6363 -0.4506
v  1.6730 3.4045 -0.5130
v  1.5887 3.9502 -0.3572
v  1.7082 3.8060 -0.2803
v  1.5960 4.0329 -0.0476
v  1.7136 3.8681 -0.0476
v  1.5887 3.9502 0.2621
v  1.7082 3.8060 0.1851
v  1.5690 3.7244 0.4888
v  1.6933 3.6363 0.3555
v  1.5420 3.4159 0.5717
v  1.6730 3.4045 0.4178
v  1.5150 3.1075 0.4888
v  1.6528 3.1727 0.3555
v  1.4953 2.8817 0.2621
v  1.6379 3.0030 0.1851
v  1.4880 2.7990 -0.0476
v  1.6325 2.9408 -0.0476
v  1.4953 2.8817 -0.3572
v  1.6379 3.0030 -0.2803
v  1.5150 3.1075 -0.5839
v  1.6528 3.1727 -0.4506
v  -0.5129 3.9065 -0.5839
v  1.2636 3.7511 -0.5839
v  1.2366 3.4427 -0.6668
v  -0.5399 3.5981 -0.6668
v  -0.4932 4.1324 -0.3572
v  1.2834 3.9769 -0.3572
v  -0.4859 4.2150 -0.0476
v  1.2906 4.0596 -0.0476
v  -0.4932 4.1324 0.2621
v  1.2834 3.9769 0.2621
v  -0.5129 3.9065 0.4888
v  1.2636 3.7511 0.4888
v  -0.5399 3.5981 0.5717
v  1.2366 3.4427 0.5717
v  -0.5669 3.2896 0.4888
v  1.2096 3.1342 0.4888
v  1.2096 3.1342 -0.5839
v  -0.5669 3.2896 -0.5839
v  1.1899 2.9084 0.2621
v  1.0657 3.0407 0.3831
v  1.0551 2.9202 0.2621
v  -0.4414 3.1726 0.3831
v  -0.5867 3.0638 0.2621
v  -0.4519 3.0520 0.2621
v  -0.5939 2.9812 -0.0476
v  -0.4591 2.9694 -0.0476
v  -0.5867 3.0638 -0.3572
v  -0.4519 3.0520 -0.3572
v  -0.4414 3.1726 -0.4782
v  1.0657 3.0407 -0.4782
v  1.1899 2.9084 -0.3572
v  1.0551 2.9202 -0.3572
v  1.1827 2.8257 -0.0476
v  1.0479 2.8375 -0.0476
v  3.7926 -0.6560 -0.4615
v  2.4189 -0.6560 -0.4964
v  0.0565 -0.4676 -0.4155
v  1.4475 -0.4676 -0.4155
v  1.0143 -1.8767 -0.3072
v  -0.6650 -2.0766 -0.3072
v  0.0565 -0.4676 0.2880
v  -0.6650 -2.0766 0.1797
v  1.0143 -1.8767 0.1797
v  1.4475 -0.4676 0.2880
v  1.1420 -3.2426 -0.2275
v  1.1420 -3.2426 0.1000
v  -0.5080 -3.2956 0.1000
v  -0.5080 -3.2956 -0.2275
v  1.4255 -0.5390 -0.3351
v  1.0148 -1.8721 -0.2327
v  1.1274 -3.1694 -0.1566
v  1.1274 -3.1694 0.0291
v  1.0148 -1.8721 0.1051
v  1.4255 -0.5390 0.2076
v  -0.6637 -2.0722 -0.2326
v  0.0789 -0.5388 -0.3372
v  0.0789 -0.5388 0.2096
v  -0.6637 -2.0722 0.1051
v  -0.4852 -3.2350 0.0314
v  -0.4838 -3.2350 -0.1590
v  -0.9082 -1.2613 -0.2418
v  -0.9082 -1.0378 -0.6334
v  1.2256 -1.0378 -0.6334
v  1.2256 -1.2613 -0.2418
v  -1.6553 -0.6063 0.6247
v  -0.9082 -0.6063 0.6247
v  -1.6553 -0.9138 -0.1908
v  -0.9082 -0.9138 -0.1908
v  -1.6553 -0.7707 -0.4415
v  -0.9082 -0.7707 -0.4415
v  2.6569 -0.9286 -0.1991
v  2.6441 -0.8004 -0.4034
v  2.5136 -0.7456 -0.2476
v  2.3097 -0.7861 -0.1958
v  2.2931 -0.6282 0.2410
v  2.6403 -0.6282 0.3517
v  1.3750 -1.0139 -0.2006
v  1.3750 -0.8343 -0.5155
v  2.5385 -0.8343 -0.5155
v  2.5385 -1.0139 -0.2006
v  1.5420 -3.4159 -0.6668
v  1.6730 -3.4045 -0.5130
v  1.6933 -3.6363 -0.4506
v  1.5690 -3.7244 -0.5839
v  1.7082 -3.8060 -0.2803
v  1.5887 -3.9502 -0.3572
v  1.7136 -3.8681 -0.0476
v  1.5960 -4.0329 -0.0476
v  1.7082 -3.8060 0.1851
v  1.5887 -3.9502 0.2621
v  1.6933 -3.6363 0.3555
v  1.5690 -3.7244 0.4888
v  1.6730 -3.4045 0.4178
v  1.5420 -3.4159 0.5717
v  1.6528 -3.1727 0.3555
v  1.5150 -3.1075 0.4888
v  1.6379 -3.0030 0.1851
v  1.4953 -2.8817 0.2621
v  1.6325 -2.9408 -0.0476
v  1.4880 -2.7990 -0.0476
v  1.6379 -3.0030 -0.2803
v  1.4953 -2.8817 -0.3572
v  1.6528 -3.1727 -0.4506
v  1.5150 -3.1075 -0.5839
v  -0.5129 -3.9065 -0.5839
v  -0.5399 -3.5981 -0.6668
v  1.2366 -3.4427 -0.6668
v  1.2636 -3.7511 -0.5839
v  -0.4932 -4.1324 -0.3572
v  1.2834 -3.9769 -0.3572
v  -0.4859 -4.2150 -0.0476
v  1.2906 -4.0596 -0.0476
v  -0.4932 -4.1324 0.2621
v  1.2834 -3.9769 0.2621
v  -0.5129 -3.9065 0.4888
v  1.2636 -3.7511 0.4888
v  -0.5399 -3.5981 0.5717
v  1.2366 -3.4427 0.5717
v  -0.5669 -3.2896 0.4888
v  1.2096 -3.1342 0.4888
v  -0.5669 -3.2896 -0.5839
v  1.2096 -3.1342 -0.5839
v  1.1899 -2.9084 0.2621
v  1.0551 -2.9202 0.2621
v  1.0657 -3.0407 0.3831
v  -0.4414 -3.1726 0.3831
v  -0.4519 -3.0520 0.2621
v  -0.5867 -3.0638 0.2621
v  -0.4591 -2.9694 -0.0476
v  -0.5939 -2.9812 -0.0476
v  -0.4519 -3.0520 -0.3572
v  -0.5867 -3.0638 -0.3572
v  -0.4414 -3.1726 -0.4782
v  1.0657 -3.0407 -0.4782
v  1.0551 -2.9202 -0.3572
v  1.1899 -2.9084 -0.3572
v  1.0479 -2.8375 -0.0476
v  1.1827 -2.8257 -0.0476
# 219 vertices

vn 0.0254 0.0249 -0.9994
vn 0.0018 0.0000 -1.0000
vn 0.0253 -0.0475 -0.9986
vn -0.4455 -0.1403 -0.8842
vn -0.7549 -0.0694 -0.6522
vn 0.6573 0.1196 -0.7441
vn 0.7202 0.2705 -0.6389
vn -0.4455 -0.1403 0.8842
vn 0.7202 0.2705 0.6389
vn 0.6573 0.1196 0.7441
vn -0.7549 -0.0694 0.6522
vn 0.6377 0.5437 -0.5456
vn -0.6211 0.5962 -0.5087
vn -0.6174 0.5980 0.5111
vn 0.6377 0.5437 0.5456
vn 0.9945 0.1051 0.0008
vn 0.9558 0.2942 -0.0003
vn 0.9880 -0.1445 0.0543
vn 0.9880 -0.1445 -0.0543
vn 0.9945 0.1051 -0.0008
vn 0.9558 0.2942 0.0003
vn -0.7279 -0.3909 0.5634
vn -0.9890 -0.1479 0.0093
vn -0.9889 -0.1485 -0.0092
vn -0.7279 -0.3909 -0.5634
vn -0.9699 -0.1331 -0.2039
vn -0.9667 -0.1522 0.2057
vn 0.0000 0.8685 -0.4956
vn 0.0000 0.0000 1.0000
vn 0.0000 0.6377 0.7703
vn 0.0000 0.9969 -0.0789
vn 0.0000 0.5022 -0.8648
vn 0.0000 0.0000 -1.0000
vn 0.5209 -0.8474 0.1030
vn 0.4280 0.1229 0.8954
vn 0.7370 0.1298 0.6633
vn 0.5554 -0.6940 0.4582
vn 0.2953 -0.2353 -0.9260
vn 0.2243 -0.6746 -0.7033
vn 0.2152 0.0000 -0.9766
vn 0.3461 0.0000 0.9382
vn 0.9779 0.0000 0.2090
vn 0.7817 0.0000 -0.6237
vn 0.7572 -0.0662 -0.6498
vn 0.7855 0.2574 -0.5627
vn 0.8063 0.4943 -0.3249
vn 0.8139 0.5811 -0.0000
vn 0.8139 0.5811 0.0000
vn 0.8063 0.4943 0.3249
vn 0.7855 0.2574 0.5627
vn 0.7572 -0.0662 0.6498
vn 0.7289 -0.3899 0.5627
vn 0.7082 -0.6268 0.3249
vn 0.7006 -0.7136 0.0000
vn 0.7082 -0.6268 -0.3249
vn 0.7289 -0.3899 -0.5627
vn 0.0436 0.4981 -0.8660
vn -0.0000 -0.0000 -1.0000
vn 0.0755 0.8627 -0.5000
vn 0.0872 0.9962 -0.0000
vn 0.0755 0.8627 0.5000
vn 0.0436 0.4981 0.8660
vn 0.0000 -0.0000 1.0000
vn -0.0436 -0.4981 0.8660
vn -0.0436 -0.4981 -0.8660
vn -0.0755 -0.8627 0.5000
vn -0.0616 -0.7044 0.7071
vn -0.0755 -0.8628 0.4999
vn -0.0872 -0.9962 -0.0000
vn -0.0872 -0.9962 0.0000
vn -0.0755 -0.8627 -0.5000
vn -0.0616 -0.7044 -0.7071
vn 0.0254 -0.0249 -0.9994
vn 0.0253 0.0475 -0.9986
vn -0.4455 0.1403 -0.8842
vn 0.7202 -0.2705 -0.6389
vn 0.6573 -0.1196 -0.7441
vn -0.7549 0.0694 -0.6522
vn -0.4455 0.1403 0.8842
vn -0.7549 0.0694 0.6522
vn 0.6573 -0.1196 0.7441
vn 0.7202 -0.2705 0.6389
vn 0.6377 -0.5437 -0.5456
vn 0.6377 -0.5437 0.5456
vn -0.6174 -0.5980 0.5111
vn -0.6211 -0.5962 -0.5087
vn 0.9558 -0.2942 -0.0003
vn 0.9945 -0.1051 0.0008
vn 0.9880 0.1445 0.0543
vn 0.9880 0.1445 -0.0543
vn 0.9945 -0.1051 -0.0008
vn 0.9558 -0.2942 0.0003
vn -0.9890 0.1479 0.0093
vn -0.7279 0.3909 0.5634
vn -0.7279 0.3909 -0.5634
vn -0.9889 0.1485 -0.0092
vn -0.9699 0.1331 -0.2039
vn -0.9667 0.1522 0.2057
vn 0.0000 -0.8685 -0.4956
vn 0.0000 -0.6377 0.7703
vn 0.0000 -0.9969 -0.0789
vn 0.0000 -0.5022 -0.8648
vn 0.5209 0.8474 0.1030
vn 0.7370 -0.1298 0.6633
vn 0.4280 -0.1229 0.8954
vn 0.5554 0.6940 0.4582
vn 0.2243 0.6746 -0.7033
vn 0.2953 0.2353 -0.9260
vn 0.7572 0.0662 -0.6498
vn 0.7855 -0.2574 -0.5627
vn 0.8063 -0.4943 -0.3249
vn 0.8139 -0.5811 0.0000
vn 0.8139 -0.5811 -0.0000
vn 0.8063 -0.4943 0.3249
vn 0.7855 -0.2574 0.5627
vn 0.7572 0.0662 0.6498
vn 0.7289 0.3899 0.5627
vn 0.7082 0.6268 0.3249
vn 0.7006 0.7136 0.0000
vn 0.7082 0.6268 -0.3249
vn 0.7289 0.3899 -0.5627
vn 0.0436 -0.4981 -0.8660
vn -0.0000 0.0000 -1.0000
vn 0.0755 -0.8627 -0.5000
vn 0.0872 -0.9962 -0.0000
vn 0.0755 -0.8627 0.5000
vn 0.0436 -0.4981 0.8660
vn -0.0436 0.4981 0.8660
vn -0.0436 0.4981 -0.8660
vn -0.0755 0.8627 0.5000
vn -0.0616 0.7044 0.7071
vn -0.0755 0.8628 0.4999
vn -0.0872 0.9962 0.0000
vn -0.0872 0.9962 -0.0000
vn -0.0755 0.8627 -0.5000
vn -0.0616 0.7044 -0.7071
# 136 vertex normals

vt 0.0000 1.0000 0.0000
vt 0.0000 0.5000 0.0000
vt 1.0000 0.0000 0.0000
vt 1.0000 1.0000 0.0000
vt 0.0000 0.0000 0.0000
vt 0.3809 1.0000 0.0000
vt 0.5000 1.0000 0.0000
vt 1.0000 0.5000 0.0000
vt 0.0000 0.9589 0.0000
vt 0.9589 0.0000 0.0000
vt 0.3376 1.0000 0.0000
vt 0.5000 0.0000 0.0000
vt 0.7500 1.0000 1.0000
vt 0.8333 1.0000 1.0000
vt 0.9167 1.0000 1.0000
vt 0.8884 1.0000 0.7321
vt 0.7560 1.0000 0.2679
vt 0.5550 1.0000 -0.2679
vt 0.3393 1.0000 -0.7321
vt 0.1667 1.0000 -1.0000
vt 0.0833 1.0000 -1.0000
vt 0.1116 1.0000 -0.7321
vt 0.2440 1.0000 -0.2679
vt 0.6667 1.0000 1.0000
vt 0.8333 0.1290 1.0000
vt 0.8333 0.8722 1.0000
vt 0.7500 0.8722 1.0000
vt 0.7500 0.1290 1.0000
vt 0.9167 0.1290 1.0000
vt 0.9167 0.8722 1.0000
vt 0.0000 0.1290 1.0000
vt 0.0000 0.8722 1.0000
vt -0.0833 0.8722 1.0000
vt -0.0833 0.1290 1.0000
vt 0.0833 0.1290 1.0000
vt 0.0833 0.8722 1.0000
vt 0.1667 0.1290 1.0000
vt 0.1667 0.8722 1.0000
vt 0.2500 0.1290 1.0000
vt 0.2500 0.8722 1.0000
vt 0.3333 0.1290 1.0000
vt 0.3333 0.8722 1.0000
vt 0.6667 0.8722 1.0000
vt 0.6667 0.1290 1.0000
vt 0.4167 0.8722 1.0000
vt 0.4167 0.1290 1.0000
vt 0.5000 0.1290 1.0000
vt 0.5833 0.1290 1.0000
vt 0.5833 0.8722 1.0000
vt 0.5000 0.8722 1.0000
# 50 texture coords

o heavy_a_base
g heavy_a_base
usemtl 01___Default
s 1
f 1/1/1 2/2/2 3/2/2 4/1/3 
f 5/3/4 6/4/5 7/1/6 8/5/7 
f 9/5/8 10/3/9 11/4/10 12/1/11 
f 13/5/12 14/3/13 15/4/14 16/1/15 
f 7/5/6 6/3/5 14/3/13 13/5/12 
f 12/4/11 11/1/10 16/1/15 15/4/14 
f 8/5/7 7/3/6 17/3/16 18/5/17 
f 7/5/6 13/5/12 19/5/18 17/5/16 
f 13/5/12 16/1/15 20/1/19 19/5/18 
f 16/1/15 11/1/10 21/1/20 20/1/19 
f 11/4/10 10/1/9 22/1/21 21/4/20 
f 10/1/9 8/5/7 18/5/17 22/1/21 
f 6/5/5 5/3/4 23/3/22 24/5/23 
f 9/4/8 12/1/11 25/1/24 26/4/25 
f 12/4/11 15/4/14 27/4/26 25/4/24 
f 15/4/14 14/3/13 28/3/27 27/4/26 
f 14/3/13 6/3/5 24/3/23 28/3/27 
f 29/4/28 30/6/28 31/6/28 32/4/28 
f 33/7/29 34/1/30 35/1/30 36/7/29 
f 34/1/30 37/5/31 38/5/31 35/1/30 
f 37/4/31 39/4/32 40/4/32 38/4/31 
f 39/4/32 41/8/33 42/8/33 40/4/32 
f 43/1/34 44/9/35 45/1/36 
f 44/10/35 43/3/34 46/3/37 
f 43/3/34 47/4/38 48/4/39 46/3/37 
f 47/4/38 49/7/40 50/7/40 48/4/39 
f 51/11/28 52/1/28 53/1/28 54/11/28 
f 46/3/37 55/12/41 56/12/42 44/10/35 
f 44/9/35 56/2/42 57/2/43 45/1/36 
f 58/13/44 59/14/45 60/14/45 61/13/44 
f 59/14/45 62/15/46 63/15/46 60/14/45 
f 62/15/46 64/16/47 65/16/48 63/15/46 
f 64/16/47 66/17/49 67/17/49 65/16/48 
f 66/17/49 68/18/50 69/18/50 67/17/49 
f 68/18/50 70/19/51 71/19/51 69/18/50 
f 70/19/51 72/20/52 73/20/52 71/19/51 
f 72/20/52 74/21/53 75/21/53 73/20/52 
f 74/21/53 76/22/54 77/22/54 75/21/53 
f 76/22/54 78/23/55 79/23/55 77/22/54 
f 78/23/55 80/24/56 81/24/56 79/23/55 
f 80/24/56 58/13/44 61/13/44 81/24/56 
f 82/25/57 83/26/57 84/27/58 85/28/58 
f 86/29/59 87/30/59 83/26/57 82/25/57 
f 88/31/60 89/32/60 87/33/59 86/34/59 
f 90/35/61 91/36/61 89/32/60 88/31/60 
f 92/37/62 93/38/62 91/36/61 90/35/61 
f 94/39/29 95/40/63 93/38/62 92/37/62 
f 96/41/64 97/42/64 95/40/63 94/39/29 
f 85/28/58 84/27/58 98/43/65 99/44/65 
f 100/45/66 97/42/64 101/42/67 102/45/66 
f 97/42/64 96/41/64 103/41/67 101/42/67 
f 96/41/64 104/46/68 105/46/66 103/41/67 
f 104/46/68 106/47/69 107/47/70 105/46/66 
f 106/47/69 108/48/71 109/48/71 107/47/70 
f 108/48/71 99/44/65 110/44/72 109/48/71 
f 99/44/65 98/43/65 111/43/72 110/44/72 
f 98/43/65 112/49/71 113/49/71 111/43/72 
f 112/49/71 114/50/69 115/50/70 113/49/71 
f 114/50/69 100/45/66 102/45/66 115/50/70 
f 116/1/73 117/1/74 3/2/2 2/2/2 
f 118/3/75 119/5/76 120/1/77 121/4/78 
f 122/5/79 123/1/80 124/4/81 125/3/82 
f 126/5/83 127/1/84 128/4/85 129/3/86 
f 120/5/77 126/5/83 129/3/86 121/3/78 
f 123/4/80 128/4/85 127/1/84 124/1/81 
f 119/5/76 130/5/87 131/3/88 120/3/77 
f 120/5/77 131/5/88 132/5/89 126/5/83 
f 126/5/83 132/5/89 133/1/90 127/1/84 
f 127/1/84 133/1/90 134/1/91 124/1/81 
f 124/4/81 134/4/91 135/1/92 125/1/82 
f 125/1/82 135/1/92 130/5/87 119/5/76 
f 121/5/78 136/5/93 137/3/94 118/3/75 
f 122/4/79 138/4/95 139/1/96 123/1/80 
f 123/4/80 139/4/96 140/4/97 128/4/85 
f 128/4/85 140/4/97 141/3/98 129/3/86 
f 129/3/86 141/3/98 136/3/93 121/3/78 
f 142/4/99 143/4/99 144/6/99 145/6/99 
f 33/7/29 36/7/29 146/1/100 147/1/100 
f 147/1/100 146/1/100 148/5/101 149/5/101 
f 149/4/101 148/4/101 150/4/102 151/4/102 
f 151/4/102 150/4/102 42/8/33 41/8/33 
f 152/1/103 153/1/104 154/9/105 
f 154/10/105 155/3/106 152/3/103 
f 152/3/103 155/3/106 156/4/107 157/4/108 
f 157/4/108 156/4/107 50/7/40 49/7/40 
f 158/11/99 159/11/99 160/1/99 161/1/99 
f 155/3/106 154/10/105 56/12/42 55/12/41 
f 154/9/105 153/1/104 57/2/43 56/2/42 
f 162/13/109 163/13/109 164/14/110 165/14/110 
f 165/14/110 164/14/110 166/15/111 167/15/111 
f 167/15/111 166/15/111 168/16/112 169/16/113 
f 169/16/113 168/16/112 170/17/114 171/17/114 
f 171/17/114 170/17/114 172/18/115 173/18/115 
f 173/18/115 172/18/115 174/19/116 175/19/116 
f 175/19/116 174/19/116 176/20/117 177/20/117 
f 177/20/117 176/20/117 178/21/118 179/21/118 
f 179/21/118 178/21/118 180/22/119 181/22/119 
f 181/22/119 180/22/119 182/23/120 183/23/120 
f 183/23/120 182/23/120 184/24/121 185/24/121 
f 185/24/121 184/24/121 163/13/109 162/13/109 
f 186/25/122 187/28/123 188/27/123 189/26/122 
f 190/29/124 186/25/122 189/26/122 191/30/124 
f 192/31/125 190/34/124 191/33/124 193/32/125 
f 194/35/126 192/31/125 193/32/125 195/36/126 
f 196/37/127 194/35/126 195/36/126 197/38/127 
f 198/39/63 196/37/127 197/38/127 199/40/29 
f 200/41/128 198/39/63 199/40/29 201/42/128 
f 187/28/123 202/44/129 203/43/129 188/27/123 
f 204/45/130 205/45/130 206/42/131 201/42/128 
f 201/42/128 206/42/131 207/41/131 200/41/128 
f 200/41/128 207/41/131 208/46/130 209/46/132 
f 209/46/132 208/46/130 210/47/133 211/47/134 
f 211/47/134 210/47/133 212/48/135 213/48/135 
f 213/48/135 212/48/135 214/44/136 202/44/129 
f 202/44/129 214/44/136 215/43/136 203/43/129 
f 203/43/129 215/43/136 216/49/135 217/49/135 
f 217/49/135 216/49/135 218/50/133 219/50/134 
f 219/50/134 218/50/133 205/45/130 204/45/130 
# 114 polygons - 4 triangles

