# 3ds Max Wavefront OBJ Exporter v0.97b - (c)2007 guruware
# File Created: 20.07.2026 00:41:12

mtllib heavy_a_color.mtl

#
# object heavy_a_color
#

v  0.3122 0.0000 0.1199
v  -0.2512 0.5291 0.1199
v  -1.7163 0.5291 0.3352
v  -1.6250 0.0000 0.3352
v  -2.6183 0.5390 -0.1498
v  -3.0291 1.8721 -0.0474
v  -3.0291 1.8721 0.2904
v  -2.6183 0.5390 0.3929
v  -2.9165 3.1694 0.0287
v  -2.9165 3.1694 0.2144
v  -1.5053 1.0139 -0.0153
v  -2.6688 1.0139 -0.0153
v  -2.6691 0.6729 0.7253
v  -1.5053 0.6729 0.6419
v  -0.7336 0.0000 0.7633
v  -2.6690 0.0000 0.8749
v  -2.8182 1.2613 -0.0565
v  -4.9521 1.2613 -0.0565
v  -4.9521 0.8371 1.0685
v  -2.8179 0.8371 0.8782
v  -4.9521 0.0000 1.2146
v  -2.8180 0.0000 1.0616
v  -1.7163 -0.5291 0.3352
v  -0.2512 -0.5291 0.1199
v  -2.6183 -0.5390 -0.1498
v  -2.6183 -0.5390 0.3929
v  -3.0291 -1.8721 0.2904
v  -3.0291 -1.8721 -0.0474
v  -2.9165 -3.1694 0.2144
v  -2.9165 -3.1694 0.0287
v  -1.5053 -1.0139 -0.0153
v  -1.5053 -0.6729 0.6419
v  -2.6691 -0.6729 0.7253
v  -2.6688 -1.0139 -0.0153
v  -2.8182 -1.2613 -0.0565
v  -2.8179 -0.8371 0.8782
v  -4.9521 -0.8371 1.0685
v  -4.9521 -1.2613 -0.0565
# 38 vertices

vn 0.1104 0.0000 0.9939
vn 0.1436 0.1529 0.9777
vn 0.1453 0.0251 0.9891
vn 0.9557 0.2944 -0.0000
vn 0.9935 0.1140 0.0000
vn 0.9963 -0.0865 0.0000
vn 0.0000 0.8876 0.4605
vn 0.0000 0.9084 0.4182
vn 0.0563 0.6173 0.7847
vn 0.0594 0.5560 0.8290
vn 0.0575 0.0000 0.9983
vn 0.0000 0.9106 0.4133
vn 0.0000 0.9357 0.3528
vn 0.0695 0.6227 0.7794
vn 0.0683 0.6401 0.7652
vn 0.0715 0.0000 0.9974
vn 0.1453 -0.0251 0.9891
vn 0.1436 -0.1529 0.9777
vn 0.9557 -0.2944 -0.0000
vn 0.9935 -0.1140 0.0000
vn 0.9963 0.0865 0.0000
vn 0.0000 -0.8876 0.4605
vn 0.0594 -0.5560 0.8290
vn 0.0563 -0.6173 0.7847
vn 0.0000 -0.9084 0.4182
vn 0.0000 -0.9106 0.4133
vn 0.0683 -0.6401 0.7652
vn 0.0695 -0.6227 0.7794
vn 0.0000 -0.9357 0.3528
# 29 vertex normals

vt 0.5000 1.0000 0.0000
vt 1.0000 1.0000 0.0000
vt 0.0000 0.0000 0.0000
vt 1.0000 0.0000 0.0000
vt 0.0000 1.0000 0.0000
vt 0.3376 0.0000 0.0000
vt 0.3376 1.0000 0.0000
vt 1.0000 0.5000 0.0000
vt 0.6624 1.0000 0.0000
vt 0.5412 0.5000 0.0000
vt 0.3809 0.0000 0.0000
vt 0.3808 1.0000 0.0000
vt 0.6192 1.0000 0.0000
vt 0.0000 0.5000 0.0000
vt 0.5059 0.5000 0.0000
# 15 texture coords

o heavy_a_color
g heavy_a_color
usemtl 02___Default
s off
f 1/1/1 2/2/2 3/2/3 4/1/1 
f 5/3/4 6/4/5 7/2/5 8/5/4 
f 7/5/5 6/3/5 9/3/6 10/5/6 
f 11/3/7 12/6/8 13/7/9 14/5/10 
f 15/8/11 14/2/10 13/9/9 16/10/11 
f 17/11/12 18/4/13 19/2/14 20/12/15 
f 20/13/15 19/5/14 21/14/16 22/15/16 
f 1/1/1 4/1/1 23/2/17 24/2/18 
f 25/3/19 26/5/19 27/2/20 28/4/20 
f 27/5/20 29/5/21 30/3/21 28/3/20 
f 31/3/22 32/5/23 33/7/24 34/6/25 
f 15/8/11 16/10/11 33/9/24 32/2/23 
f 35/11/26 36/12/27 37/2/28 38/4/29 
f 36/13/27 22/15/16 21/14/16 37/5/28 
# 14 polygons

