# 3ds Max Wavefront OBJ Exporter v0.97b - (c)2007 guruware
# File Created: 17.07.2026 18:33:49

mtllib scout_a_base.mtl

#
# object scout_a_base
#

v  0.6788 -0.0000 0.0269
v  0.6035 0.1713 0.0269
v  -0.0220 0.1836 0.0269
v  -0.1003 0.0000 0.0269
v  0.5337 0.3331 0.0269
v  -0.1273 0.3406 0.0269
v  0.3846 0.6816 0.0269
v  0.1811 0.6860 0.0269
v  0.1010 1.3305 0.0269
v  -0.0223 1.2343 0.0269
v  0.7189 -0.0000 0.0024
v  0.6256 0.1817 0.0024
v  0.5561 0.3427 0.0024
v  0.4071 0.6913 0.0024
v  0.1108 1.3692 0.0024
v  -0.0514 1.2425 0.0024
v  0.1531 0.6913 0.0024
v  -0.1581 0.3427 0.0024
v  -0.0502 0.1817 0.0024
v  -0.1396 0.0000 0.0024
v  0.6788 -0.0000 -0.0220
v  -0.1003 0.0000 -0.0220
v  -0.0220 0.1836 -0.0220
v  0.6035 0.1713 -0.0220
v  -0.1273 0.3406 -0.0220
v  0.5337 0.3331 -0.0220
v  0.1811 0.6860 -0.0220
v  0.3846 0.6816 -0.0220
v  -0.0223 1.2343 -0.0220
v  0.1010 1.3305 -0.0220
v  -0.0220 -0.1836 0.0269
v  0.6035 -0.1713 0.0269
v  -0.1273 -0.3406 0.0269
v  0.5337 -0.3331 0.0269
v  0.1811 -0.6860 0.0269
v  0.3846 -0.6816 0.0269
v  -0.0223 -1.2343 0.0269
v  0.1010 -1.3305 0.0269
v  0.6256 -0.1817 0.0024
v  0.5561 -0.3427 0.0024
v  0.4071 -0.6913 0.0024
v  0.1108 -1.3692 0.0024
v  -0.0514 -1.2425 0.0024
v  0.1531 -0.6913 0.0024
v  -0.1581 -0.3427 0.0024
v  -0.0502 -0.1817 0.0024
v  0.6035 -0.1713 -0.0220
v  -0.0220 -0.1836 -0.0220
v  0.5337 -0.3331 -0.0220
v  -0.1273 -0.3406 -0.0220
v  0.3846 -0.6816 -0.0220
v  0.1811 -0.6860 -0.0220
v  0.1010 -1.3305 -0.0220
v  -0.0223 -1.2343 -0.0220
# 54 vertices

vn 0.3340 -0.0000 0.9426
vn 0.3501 0.1526 0.9242
vn -0.2449 -0.0219 0.9693
vn -0.3372 0.0000 0.9414
vn 0.3513 0.1509 0.9240
vn -0.4370 0.0302 0.8990
vn 0.3520 0.1522 0.9235
vn -0.2300 0.0435 0.9722
vn 0.0982 0.3879 0.9164
vn -0.4230 0.1200 0.8981
vn 1.0000 -0.0000 0.0000
vn 0.9044 0.4266 -0.0000
vn 0.9189 0.3946 0.0000
vn 0.9179 0.3969 0.0000
vn 0.2454 0.9694 0.0000
vn -0.9620 0.2729 0.0000
vn -0.9826 0.1857 -0.0000
vn -0.9976 0.0690 0.0000
vn -0.9978 -0.0666 0.0000
vn -1.0000 0.0000 -0.0000
vn 0.3340 -0.0000 -0.9426
vn -0.3372 0.0000 -0.9414
vn -0.2449 -0.0219 -0.9693
vn 0.3501 0.1526 -0.9242
vn -0.4370 0.0302 -0.8990
vn 0.3513 0.1509 -0.9240
vn -0.2300 0.0435 -0.9722
vn 0.3520 0.1522 -0.9235
vn -0.4230 0.1200 -0.8981
vn 0.0982 0.3879 -0.9164
vn -0.2449 0.0219 0.9693
vn 0.3501 -0.1526 0.9242
vn -0.4370 -0.0302 0.8990
vn 0.3513 -0.1509 0.9240
vn -0.2300 -0.0435 0.9722
vn 0.3520 -0.1522 0.9235
vn -0.4230 -0.1200 0.8981
vn 0.0982 -0.3879 0.9164
vn 0.9044 -0.4266 -0.0000
vn 0.9189 -0.3946 0.0000
vn 0.9179 -0.3969 0.0000
vn 0.2454 -0.9694 0.0000
vn -0.9620 -0.2729 0.0000
vn -0.9826 -0.1857 -0.0000
vn -0.9976 -0.0690 0.0000
vn -0.9978 0.0666 0.0000
vn 0.3501 -0.1526 -0.9242
vn -0.2449 0.0219 -0.9693
vn 0.3513 -0.1509 -0.9240
vn -0.4370 -0.0302 -0.8990
vn 0.3520 -0.1522 -0.9235
vn -0.2300 -0.0435 -0.9722
vn 0.0982 -0.3879 -0.9164
vn -0.4230 -0.1200 -0.8981
# 54 vertex normals

vt 0.0000 0.0000 0.0000
vt 1.0000 0.0000 0.0000
vt 1.0000 1.0000 0.0000
vt 0.0000 1.0000 0.0000
# 4 texture coords

o scout_a_base
g scout_a_base
usemtl 01___Default
s 4
f 1/1/1 2/2/2 3/3/3 4/4/4 
s off
f 3/3/3 2/2/2 5/2/5 6/3/6 
f 6/3/6 5/2/5 7/2/7 8/3/8 
f 8/3/8 7/2/7 9/2/9 10/3/10 
f 11/1/11 12/2/12 2/2/2 1/1/1 
f 12/2/12 13/2/13 5/2/5 2/2/2 
f 13/2/13 14/2/14 7/2/7 5/2/5 
f 14/2/14 15/2/15 9/2/9 7/2/7 
f 15/2/15 16/3/16 10/3/10 9/2/9 
f 16/3/16 17/3/17 8/3/8 10/3/10 
f 17/3/17 18/3/18 6/3/6 8/3/8 
f 18/3/18 19/3/19 3/3/3 6/3/6 
f 19/3/19 20/4/20 4/4/4 3/3/3 
s 4
f 21/1/21 22/4/22 23/3/23 24/2/24 
s off
f 23/3/23 25/3/25 26/2/26 24/2/24 
f 25/3/25 27/3/27 28/2/28 26/2/26 
f 27/3/27 29/3/29 30/2/30 28/2/28 
f 11/1/11 21/1/21 24/2/24 12/2/12 
f 12/2/12 24/2/24 26/2/26 13/2/13 
f 13/2/13 26/2/26 28/2/28 14/2/14 
f 14/2/14 28/2/28 30/2/30 15/2/15 
f 15/2/15 30/2/30 29/3/29 16/3/16 
f 16/3/16 29/3/29 27/3/27 17/3/17 
f 17/3/17 27/3/27 25/3/25 18/3/18 
f 18/3/18 25/3/25 23/3/23 19/3/19 
f 19/3/19 23/3/23 22/4/22 20/4/20 
s 4
f 1/1/1 4/4/4 31/3/31 32/2/32 
s off
f 31/3/31 33/3/33 34/2/34 32/2/32 
f 33/3/33 35/3/35 36/2/36 34/2/34 
f 35/3/35 37/3/37 38/2/38 36/2/36 
f 11/1/11 1/1/1 32/2/32 39/2/39 
f 39/2/39 32/2/32 34/2/34 40/2/40 
f 40/2/40 34/2/34 36/2/36 41/2/41 
f 41/2/41 36/2/36 38/2/38 42/2/42 
f 42/2/42 38/2/38 37/3/37 43/3/43 
f 43/3/43 37/3/37 35/3/35 44/3/44 
f 44/3/44 35/3/35 33/3/33 45/3/45 
f 45/3/45 33/3/33 31/3/31 46/3/46 
f 46/3/46 31/3/31 4/4/4 20/4/20 
s 4
f 21/1/21 47/2/47 48/3/48 22/4/22 
s off
f 48/3/48 47/2/47 49/2/49 50/3/50 
f 50/3/50 49/2/49 51/2/51 52/3/52 
f 52/3/52 51/2/51 53/2/53 54/3/54 
f 11/1/11 39/2/39 47/2/47 21/1/21 
f 39/2/39 40/2/40 49/2/49 47/2/47 
f 40/2/40 41/2/41 51/2/51 49/2/49 
f 41/2/41 42/2/42 53/2/53 51/2/51 
f 42/2/42 43/3/43 54/3/54 53/2/53 
f 43/3/43 44/3/44 52/3/52 54/3/54 
f 44/3/44 45/3/45 50/3/50 52/3/52 
f 45/3/45 46/3/46 48/3/48 50/3/50 
f 46/3/46 20/4/20 22/4/22 48/3/48 
# 52 polygons

