# 3ds Max Wavefront OBJ Exporter v0.97b - (c)2007 guruware
# File Created: 17.07.2026 18:34:11

mtllib scout_a_color.mtl

#
# object scout_a_color
#

v  0.6068 -0.0000 -0.0350
v  0.5856 -0.0000 -0.0537
v  0.5856 0.0489 -0.0335
v  0.6068 0.0265 -0.0240
v  0.5856 0.0691 0.0024
v  0.6068 0.0374 0.0024
v  0.6068 0.0265 0.0289
v  0.5856 0.0381 0.0421
v  0.5856 -0.0000 0.0545
v  0.6068 -0.0000 0.0398
v  0.5539 -0.0000 -0.0595
v  0.5539 0.0639 -0.0330
v  0.5539 0.0903 0.0024
v  0.5539 0.0497 0.0552
v  0.5539 -0.0000 0.0645
v  0.5165 -0.0000 -0.0629
v  0.5165 0.0691 -0.0343
v  0.5165 0.0978 0.0024
v  0.5165 0.0410 0.0392
v  0.5165 -0.0000 0.0719
v  0.0886 -0.0000 -0.0629
v  0.0886 0.0691 -0.0343
v  0.0886 0.0978 0.0024
v  0.0886 0.0410 0.0392
v  0.0886 -0.0000 0.0719
v  0.0512 -0.0000 -0.0595
v  0.0512 0.0639 -0.0330
v  0.0512 0.0903 0.0024
v  0.0512 0.0497 0.0552
v  0.0512 -0.0000 0.0645
v  0.0194 -0.0000 -0.0537
v  0.0194 0.0489 -0.0335
v  0.0194 0.0691 0.0024
v  0.0194 0.0381 0.0421
v  0.0194 -0.0000 0.0545
v  -0.0018 0.0000 -0.0350
v  -0.0018 0.0265 -0.0240
v  -0.0018 0.0374 0.0024
v  -0.0018 0.0265 0.0289
v  -0.0018 0.0000 0.0398
v  -0.0092 0.0000 0.0024
v  0.4395 0.3365 0.0024
v  0.0139 0.3365 0.1175
v  0.0139 0.2320 0.0024
v  -0.4118 0.3365 0.0024
v  0.0139 0.3365 -0.1127
v  0.0139 0.4409 0.0024
v  0.6068 -0.0265 -0.0240
v  0.5856 -0.0489 -0.0335
v  0.6068 -0.0374 0.0024
v  0.5856 -0.0691 0.0024
v  0.6068 -0.0265 0.0289
v  0.5856 -0.0381 0.0421
v  0.5539 -0.0639 -0.0330
v  0.5539 -0.0903 0.0024
v  0.5539 -0.0497 0.0552
v  0.5165 -0.0691 -0.0343
v  0.5165 -0.0978 0.0024
v  0.5165 -0.0410 0.0392
v  0.0886 -0.0691 -0.0343
v  0.0886 -0.0978 0.0024
v  0.0886 -0.0410 0.0392
v  0.0512 -0.0639 -0.0330
v  0.0512 -0.0903 0.0024
v  0.0512 -0.0497 0.0552
v  0.0194 -0.0489 -0.0335
v  0.0194 -0.0691 0.0024
v  0.0194 -0.0381 0.0421
v  -0.0018 -0.0265 -0.0240
v  -0.0018 -0.0374 0.0024
v  -0.0018 -0.0265 0.0289
v  0.4395 -0.3365 0.0024
v  0.0139 -0.2320 0.0024
v  0.0139 -0.3365 0.1175
v  0.0139 -0.3365 -0.1127
v  -0.4118 -0.3365 0.0024
v  0.0139 -0.4409 0.0024
# 77 vertices

vn 0.6619 -0.0000 -0.7496
vn 0.4122 -0.0000 -0.9111
vn 0.4924 0.5594 -0.6668
vn 0.7130 0.4466 -0.5405
vn 0.6255 0.6795 -0.3834
vn 0.8103 0.5414 -0.2243
vn 0.6178 0.3009 0.7265
vn 0.5199 0.2647 0.8122
vn 0.4283 -0.0000 0.9036
vn 0.5689 -0.0000 0.8224
vn 0.1339 0.0000 -0.9910
vn 0.1971 0.6159 -0.7628
vn 0.2941 0.7657 -0.5720
vn -0.0145 0.1838 0.9829
vn 0.2466 -0.0000 0.9691
vn 0.0456 -0.0000 -0.9990
vn 0.0561 0.6102 -0.7903
vn 0.0746 0.7862 -0.6135
vn -0.2160 0.6090 0.7631
vn 0.0944 -0.0000 0.9955
vn -0.0456 -0.0000 -0.9990
vn -0.0561 0.6102 -0.7903
vn -0.0746 0.7862 -0.6135
vn 0.2161 0.6090 0.7631
vn -0.0944 -0.0000 0.9955
vn -0.1339 -0.0000 -0.9910
vn -0.1971 0.6159 -0.7628
vn -0.2941 0.7657 -0.5720
vn 0.0145 0.1838 0.9829
vn -0.2466 0.0000 0.9691
vn -0.4122 0.0000 -0.9111
vn -0.4924 0.5594 -0.6668
vn -0.6255 0.6795 -0.3834
vn -0.5199 0.2647 0.8122
vn -0.4283 0.0000 0.9036
vn -0.8328 0.0000 -0.5536
vn -0.8544 0.3369 -0.3956
vn -0.8928 0.4163 -0.1724
vn -0.8077 0.2256 0.5447
vn -0.7943 0.0000 0.6076
vn -0.9996 0.0000 -0.0275
vn 1.0000 0.0000 -0.0000
vn 0.0000 -0.0000 1.0000
vn -0.0000 -1.0000 -0.0000
vn -1.0000 0.0000 0.0000
vn -0.0000 0.0000 -1.0000
vn 0.0000 1.0000 0.0000
vn 0.7130 -0.4466 -0.5405
vn 0.4924 -0.5594 -0.6668
vn 0.8103 -0.5414 -0.2243
vn 0.6255 -0.6795 -0.3834
vn 0.6178 -0.3009 0.7265
vn 0.5199 -0.2647 0.8122
vn 0.1971 -0.6159 -0.7628
vn 0.2941 -0.7657 -0.5720
vn -0.0145 -0.1838 0.9829
vn 0.0561 -0.6102 -0.7903
vn 0.0746 -0.7862 -0.6135
vn -0.2160 -0.6090 0.7631
vn -0.0561 -0.6102 -0.7903
vn -0.0746 -0.7862 -0.6135
vn 0.2161 -0.6090 0.7631
vn -0.1971 -0.6159 -0.7628
vn -0.2941 -0.7657 -0.5720
vn 0.0145 -0.1838 0.9829
vn -0.4924 -0.5594 -0.6668
vn -0.6255 -0.6795 -0.3834
vn -0.5199 -0.2647 0.8122
vn -0.8544 -0.3369 -0.3956
vn -0.8928 -0.4163 -0.1724
vn -0.8077 -0.2256 0.5447
vn 1.0000 -0.0000 -0.0000
vn 0.0000 1.0000 -0.0000
vn 0.0000 0.0000 1.0000
vn -0.0000 -0.0000 -1.0000
vn -1.0000 -0.0000 0.0000
vn -0.0000 -1.0000 0.0000
# 77 vertex normals

vt 0.5000 0.6913 0.0000
vt 0.5000 0.8536 0.0000
vt 0.2500 0.7500 0.0000
vt 0.3647 0.6353 0.0000
vt 0.1464 0.5000 0.0000
vt 0.3087 0.5000 0.0000
vt 0.3647 0.3647 0.0000
vt 0.2500 0.2500 0.0000
vt 0.5000 0.1464 0.0000
vt 0.5000 0.3087 0.0000
vt 0.5000 0.9619 0.0000
vt 0.1734 0.8266 0.0000
vt 0.0381 0.5000 0.0000
vt 0.1734 0.1734 0.0000
vt 0.5000 0.0381 0.0000
vt 0.5000 1.0000 0.0000
vt 0.1464 0.8536 0.0000
vt 0.0000 0.5000 0.0000
vt 0.1464 0.1464 0.0000
vt 0.5000 0.0000 0.0000
vt 0.2500 1.0000 0.0000
vt 0.2500 0.0000 0.0000
vt 0.3750 0.0000 0.0000
vt 0.3750 1.0000 0.0000
vt 0.6250 1.0000 0.0000
vt 0.6250 0.0000 0.0000
vt 0.7500 0.0000 0.0000
vt 0.7500 1.0000 0.0000
vt 0.5000 0.5000 0.0000
vt -0.5000 0.0000 0.5000
vt 0.5000 0.0000 0.5000
vt 0.0000 0.5000 0.5000
vt -0.5000 0.0000 0.0000
vt 0.0000 -0.5000 0.5000
vt 0.5000 0.0000 -0.5000
vt -0.5000 0.0000 -0.5000
vt 0.0000 -0.5000 -0.5000
vt 0.0000 0.5000 -0.5000
vt 0.0000 -0.5000 0.0000
# 39 texture coords

o scout_a_color
g scout_a_color
usemtl 02___Default
s 4
f 1/1/1 2/2/2 3/3/3 4/4/4 
f 4/4/4 3/3/3 5/5/5 6/6/6 
f 7/7/7 8/8/8 9/9/9 10/10/10 
f 2/2/2 11/11/11 12/12/12 3/3/3 
f 3/3/3 12/12/12 13/13/13 5/5/5 
f 8/8/8 14/14/14 15/15/15 9/9/9 
f 11/11/11 16/16/16 17/17/17 12/12/12 
f 12/12/12 17/17/17 18/18/18 13/13/13 
f 14/14/14 19/19/19 20/20/20 15/15/15 
f 16/21/16 21/22/21 22/23/22 17/24/17 
f 17/24/17 22/23/22 23/20/23 18/16/18 
f 19/25/19 24/26/24 25/27/25 20/28/20 
f 21/16/21 26/11/26 27/12/27 22/17/22 
f 22/17/22 27/12/27 28/13/28 23/18/23 
f 24/19/24 29/14/29 30/15/30 25/20/25 
f 26/11/26 31/2/31 32/3/32 27/12/27 
f 27/12/27 32/3/32 33/5/33 28/13/28 
f 29/14/29 34/8/34 35/9/35 30/15/30 
f 31/2/31 36/1/36 37/4/37 32/3/32 
f 32/3/32 37/4/37 38/6/38 33/5/33 
f 34/8/34 39/7/39 40/10/40 35/9/35 
f 36/1/36 41/29/41 37/4/37 
f 37/4/37 41/29/41 38/6/38 
f 39/7/39 41/29/41 40/10/40 
s off
f 42/18/42 43/30/43 44/31/44 
f 44/32/44 45/33/45 46/34/46 
f 46/35/46 47/36/47 42/18/42 
f 47/37/47 45/33/45 43/38/43 
f 44/32/44 46/34/46 42/20/42 
f 47/37/47 43/38/43 42/20/42 
f 43/30/43 45/39/45 44/31/44 
f 47/36/47 46/35/46 45/39/45 
s 4
f 1/1/1 48/4/48 49/3/49 2/2/2 
f 48/4/48 50/6/50 51/5/51 49/3/49 
f 52/7/52 10/10/10 9/9/9 53/8/53 
f 2/2/2 49/3/49 54/12/54 11/11/11 
f 49/3/49 51/5/51 55/13/55 54/12/54 
f 53/8/53 9/9/9 15/15/15 56/14/56 
f 11/11/11 54/12/54 57/17/57 16/16/16 
f 54/12/54 55/13/55 58/18/58 57/17/57 
f 56/14/56 15/15/15 20/20/20 59/19/59 
f 16/21/16 57/24/57 60/23/60 21/22/21 
f 57/24/57 58/16/58 61/20/61 60/23/60 
f 59/25/59 20/28/20 25/27/25 62/26/62 
f 21/16/21 60/17/60 63/12/63 26/11/26 
f 60/17/60 61/18/61 64/13/64 63/12/63 
f 62/19/62 25/20/25 30/15/30 65/14/65 
f 26/11/26 63/12/63 66/3/66 31/2/31 
f 63/12/63 64/13/64 67/5/67 66/3/66 
f 65/14/65 30/15/30 35/9/35 68/8/68 
f 31/2/31 66/3/66 69/4/69 36/1/36 
f 66/3/66 67/5/67 70/6/70 69/4/69 
f 68/8/68 35/9/35 40/10/40 71/7/71 
f 36/1/36 69/4/69 41/29/41 
f 69/4/69 70/6/70 41/29/41 
f 71/7/71 40/10/40 41/29/41 
s off
f 72/18/72 73/31/73 74/30/74 
f 73/32/73 75/34/75 76/33/76 
f 75/35/75 72/18/72 77/36/77 
f 77/37/77 74/38/74 76/33/76 
f 73/32/73 72/20/72 75/34/75 
f 77/37/77 72/20/72 74/38/74 
f 74/30/74 73/31/73 76/39/76 
f 77/36/77 76/39/76 75/35/75 
# 42 polygons - 22 triangles

