# 3ds Max Wavefront OBJ Exporter v0.97b - (c)2007 guruware
# File Created: 17.07.2026 18:34:01

mtllib scout_a_boltz.mtl

#
# object scout_a_boltz
#

v  0.0713 -0.1933 0.0277
v  0.4664 -0.1933 0.0277
v  0.4664 -0.2564 0.0277
v  0.0713 -0.2564 0.0277
v  0.0713 -0.1933 0.0347
v  0.0713 -0.2564 0.0347
v  0.4664 -0.2564 0.0620
v  0.4664 -0.1933 0.0620
v  0.1252 -0.5039 0.0175
v  0.1142 -0.4773 0.0175
v  0.1252 -0.4507 0.0175
v  0.1518 -0.4397 0.0175
v  0.1784 -0.4507 0.0175
v  0.1895 -0.4773 0.0175
v  0.1784 -0.5039 0.0175
v  0.1518 -0.5149 0.0175
v  0.1680 -0.4935 0.0429
v  0.1518 -0.5001 0.0429
v  0.1747 -0.4773 0.0429
v  0.1680 -0.4612 0.0429
v  0.1518 -0.4545 0.0429
v  0.1357 -0.4612 0.0429
v  0.1290 -0.4773 0.0429
v  0.1357 -0.4935 0.0429
v  0.2511 -0.6075 0.0175
v  0.2401 -0.5809 0.0175
v  0.2511 -0.5543 0.0175
v  0.2777 -0.5432 0.0175
v  0.3043 -0.5543 0.0175
v  0.3153 -0.5809 0.0175
v  0.3043 -0.6075 0.0175
v  0.2777 -0.6185 0.0175
v  0.2939 -0.5970 0.0429
v  0.2777 -0.6037 0.0429
v  0.3005 -0.5809 0.0429
v  0.2939 -0.5647 0.0429
v  0.2777 -0.5580 0.0429
v  0.2616 -0.5647 0.0429
v  0.2549 -0.5809 0.0429
v  0.2616 -0.5970 0.0429
v  0.3374 -0.4479 0.0175
v  0.3264 -0.4212 0.0175
v  0.3374 -0.3946 0.0175
v  0.3641 -0.3836 0.0175
v  0.3907 -0.3946 0.0175
v  0.4017 -0.4212 0.0175
v  0.3907 -0.4479 0.0175
v  0.3641 -0.4589 0.0175
v  0.3802 -0.4374 0.0429
v  0.3641 -0.4441 0.0429
v  0.3869 -0.4212 0.0429
v  0.3802 -0.4051 0.0429
v  0.3641 -0.3984 0.0429
v  0.3479 -0.4051 0.0429
v  0.3412 -0.4212 0.0429
v  0.3479 -0.4374 0.0429
v  0.0713 0.1933 0.0277
v  0.0713 0.2564 0.0277
v  0.4664 0.2564 0.0277
v  0.4664 0.1933 0.0277
v  0.0713 0.1933 0.0347
v  0.4664 0.1933 0.0620
v  0.4664 0.2564 0.0620
v  0.0713 0.2564 0.0347
v  0.1252 0.5039 0.0175
v  0.1518 0.5149 0.0175
v  0.1784 0.5039 0.0175
v  0.1895 0.4773 0.0175
v  0.1784 0.4507 0.0175
v  0.1518 0.4397 0.0175
v  0.1252 0.4507 0.0175
v  0.1142 0.4773 0.0175
v  0.1518 0.5001 0.0429
v  0.1680 0.4935 0.0429
v  0.1747 0.4773 0.0429
v  0.1680 0.4612 0.0429
v  0.1518 0.4545 0.0429
v  0.1357 0.4612 0.0429
v  0.1290 0.4773 0.0429
v  0.1357 0.4935 0.0429
v  0.2511 0.6075 0.0175
v  0.2777 0.6185 0.0175
v  0.3043 0.6075 0.0175
v  0.3153 0.5809 0.0175
v  0.3043 0.5543 0.0175
v  0.2777 0.5432 0.0175
v  0.2511 0.5543 0.0175
v  0.2401 0.5809 0.0175
v  0.2777 0.6037 0.0429
v  0.2939 0.5970 0.0429
v  0.3005 0.5809 0.0429
v  0.2939 0.5647 0.0429
v  0.2777 0.5580 0.0429
v  0.2616 0.5647 0.0429
v  0.2549 0.5809 0.0429
v  0.2616 0.5970 0.0429
v  0.3374 0.4479 0.0175
v  0.3641 0.4589 0.0175
v  0.3907 0.4479 0.0175
v  0.4017 0.4212 0.0175
v  0.3907 0.3946 0.0175
v  0.3641 0.3836 0.0175
v  0.3374 0.3946 0.0175
v  0.3264 0.4212 0.0175
v  0.3641 0.4441 0.0429
v  0.3802 0.4374 0.0429
v  0.3869 0.4212 0.0429
v  0.3802 0.4051 0.0429
v  0.3641 0.3984 0.0429
v  0.3479 0.4051 0.0429
v  0.3412 0.4212 0.0429
v  0.3479 0.4374 0.0429
v  0.8115 -0.0270 -0.0135
v  0.4611 -0.0270 -0.0415
v  0.4611 0.0361 -0.0415
v  0.8115 0.0361 -0.0135
v  0.8562 -0.0270 0.0093
v  0.8562 0.0361 0.0093
v  0.4611 0.0361 0.0366
v  0.4611 -0.0270 0.0366
# 120 vertices

vn -0.5774 0.5774 -0.5774
vn 0.5774 0.5774 -0.5774
vn 0.5774 -0.5774 -0.5773
vn -0.5774 -0.5774 -0.5773
vn -0.5950 0.5811 0.5553
vn -0.5950 -0.5811 0.5553
vn 0.5588 -0.5738 0.5987
vn 0.5588 0.5738 0.5987
vn -0.6993 -0.5938 -0.3981
vn -0.8982 0.0000 -0.4395
vn -0.6993 0.5938 -0.3981
vn 0.0000 0.9364 -0.3509
vn 0.6993 0.5938 -0.3981
vn 0.8982 -0.0000 -0.4395
vn 0.6993 -0.5938 -0.3981
vn -0.0000 -0.9364 -0.3509
vn 0.4454 -0.3244 0.8345
vn 0.0000 -0.5338 0.8456
vn 0.5614 -0.0000 0.8276
vn 0.4454 0.3244 0.8345
vn 0.0000 0.5338 0.8456
vn -0.4454 0.3244 0.8345
vn -0.5614 0.0000 0.8276
vn -0.4454 -0.3244 0.8345
vn -0.0000 0.9364 -0.3509
vn -0.0000 -0.5338 0.8456
vn -0.0000 0.5338 0.8456
vn -0.5774 -0.5774 -0.5774
vn -0.5774 0.5774 -0.5773
vn 0.5774 0.5774 -0.5773
vn 0.5774 -0.5774 -0.5774
vn 0.0000 -0.9364 -0.3509
vn 0.8982 0.0000 -0.4395
vn 0.2027 -0.6659 -0.7180
vn -0.5558 -0.5733 -0.6020
vn -0.5558 0.5733 -0.6020
vn 0.2027 0.6659 -0.7180
vn 0.8237 -0.5417 0.1676
vn 0.8237 0.5417 0.1676
vn -0.5588 0.5738 0.5987
vn -0.5588 -0.5738 0.5987
# 41 vertex normals

vt 1.0000 0.0000 0.0000
vt 1.0000 1.0000 0.0000
vt 0.0000 1.0000 0.0000
vt 0.0000 0.0000 0.0000
vt 0.4786 0.0000 0.4142
vt 0.2197 0.0000 -0.4142
vt 0.1250 0.0000 -1.0000
vt 0.2500 0.0000 -1.0000
vt 0.5214 0.0000 -0.4142
vt 0.7803 0.0000 0.4142
vt 0.8750 0.0000 1.0000
vt 0.7500 0.0000 1.0000
vt 0.8750 1.0000 1.0000
vt 0.7500 1.0000 1.0000
vt -0.1250 0.0000 1.0000
vt 0.0000 0.0000 1.0000
vt 0.0000 1.0000 1.0000
vt -0.1250 1.0000 1.0000
vt 0.1250 0.0000 1.0000
vt 0.1250 1.0000 1.0000
vt 0.2500 0.0000 1.0000
vt 0.2500 1.0000 1.0000
vt 0.3750 0.0000 1.0000
vt 0.3750 1.0000 1.0000
vt 0.5000 0.0000 1.0000
vt 0.5000 1.0000 1.0000
vt 0.6250 0.0000 1.0000
vt 0.6250 1.0000 1.0000
vt 0.7803 1.0000 0.4142
vt 0.5214 1.0000 -0.4142
vt 0.2500 1.0000 -1.0000
vt 0.1250 1.0000 -1.0000
vt 0.2197 1.0000 -0.4142
# 33 texture coords

o scout_a_boltz
g scout_a_boltz
usemtl 04___Default
s 2
f 1/1/1 2/2/2 3/3/3 4/4/4 
s 4
f 5/4/5 6/1/6 7/2/7 8/3/8 
s 8
f 1/4/1 4/1/4 6/2/6 5/3/5 
s 16
f 4/4/4 3/1/3 7/2/7 6/3/6 
s 32
f 3/4/3 2/1/2 8/2/8 7/3/7 
s 64
f 2/4/2 1/1/1 5/2/5 8/3/8 
s 1
f 9/5/9 10/6/10 11/7/11 12/8/12 13/9/13 14/10/14 15/11/15 16/12/16 
s 8
f 16/12/16 15/11/15 17/13/17 18/14/18 
f 15/15/15 14/16/14 19/17/19 17/18/17 
f 14/16/14 13/19/13 20/20/20 19/17/19 
f 13/19/13 12/21/12 21/22/21 20/20/20 
f 12/21/12 11/23/11 22/24/22 21/22/21 
f 11/23/11 10/25/10 23/26/23 22/24/22 
f 10/25/10 9/27/9 24/28/24 23/26/23 
f 9/27/9 16/12/16 18/14/18 24/28/24 
s 1
f 24/28/24 18/14/18 17/13/17 19/29/19 20/30/20 21/31/21 22/32/22 23/33/23 
f 25/5/9 26/6/10 27/7/11 28/8/25 29/9/13 30/10/14 31/11/15 32/12/16 
s 8
f 32/12/16 31/11/15 33/13/17 34/14/26 
f 31/15/15 30/16/14 35/17/19 33/18/17 
f 30/16/14 29/19/13 36/20/20 35/17/19 
f 29/19/13 28/21/25 37/22/21 36/20/20 
f 28/21/25 27/23/11 38/24/22 37/22/21 
f 27/23/11 26/25/10 39/26/23 38/24/22 
f 26/25/10 25/27/9 40/28/24 39/26/23 
f 25/27/9 32/12/16 34/14/26 40/28/24 
s 1
f 40/28/24 34/14/26 33/13/17 35/29/19 36/30/20 37/31/21 38/32/22 39/33/23 
f 41/5/9 42/6/10 43/7/11 44/8/25 45/9/13 46/10/14 47/11/15 48/12/16 
s 8
f 48/12/16 47/11/15 49/13/17 50/14/26 
f 47/15/15 46/16/14 51/17/19 49/18/17 
f 46/16/14 45/19/13 52/20/20 51/17/19 
f 45/19/13 44/21/25 53/22/27 52/20/20 
f 44/21/25 43/23/11 54/24/22 53/22/27 
f 43/23/11 42/25/10 55/26/23 54/24/22 
f 42/25/10 41/27/9 56/28/24 55/26/23 
f 41/27/9 48/12/16 50/14/26 56/28/24 
s 1
f 56/28/24 50/14/26 49/13/17 51/29/19 52/30/20 53/31/27 54/32/22 55/33/23 
s 2
f 57/1/28 58/4/29 59/3/30 60/2/31 
s 4
f 61/4/6 62/3/7 63/2/8 64/1/5 
s 8
f 57/4/28 61/3/6 64/2/5 58/1/29 
s 16
f 58/4/29 64/3/5 63/2/8 59/1/30 
s 32
f 59/4/30 63/3/8 62/2/7 60/1/31 
s 64
f 60/4/31 62/3/7 61/2/6 57/1/28 
s 1
f 65/5/11 66/12/12 67/11/13 68/10/14 69/9/15 70/8/32 71/7/9 72/6/10 
s 8
f 66/12/12 73/14/21 74/13/20 67/11/13 
f 67/15/13 74/18/20 75/17/19 68/16/14 
f 68/16/14 75/17/19 76/20/17 69/19/15 
f 69/19/15 76/20/17 77/22/18 70/21/32 
f 70/21/32 77/22/18 78/24/24 71/23/9 
f 71/23/9 78/24/24 79/26/23 72/25/10 
f 72/25/10 79/26/23 80/28/22 65/27/11 
f 65/27/11 80/28/22 73/14/21 66/12/12 
s 1
f 80/28/22 79/33/23 78/32/24 77/31/18 76/30/17 75/29/19 74/13/20 73/14/21 
f 81/5/11 82/12/12 83/11/13 84/10/33 85/9/15 86/8/16 87/7/9 88/6/10 
s 8
f 82/12/12 89/14/21 90/13/20 83/11/13 
f 83/15/13 90/18/20 91/17/19 84/16/33 
f 84/16/33 91/17/19 92/20/17 85/19/15 
f 85/19/15 92/20/17 93/22/26 86/21/16 
f 86/21/16 93/22/26 94/24/24 87/23/9 
f 87/23/9 94/24/24 95/26/23 88/25/10 
f 88/25/10 95/26/23 96/28/22 81/27/11 
f 81/27/11 96/28/22 89/14/21 82/12/12 
s 1
f 96/28/22 95/33/23 94/32/24 93/31/26 92/30/17 91/29/19 90/13/20 89/14/21 
f 97/5/11 98/12/25 99/11/13 100/10/14 101/9/15 102/8/16 103/7/9 104/6/10 
s 8
f 98/12/25 105/14/27 106/13/20 99/11/13 
f 99/15/13 106/18/20 107/17/19 100/16/14 
f 100/16/14 107/17/19 108/20/17 101/19/15 
f 101/19/15 108/20/17 109/22/26 102/21/16 
f 102/21/16 109/22/26 110/24/24 103/23/9 
f 103/23/9 110/24/24 111/26/23 104/25/10 
f 104/25/10 111/26/23 112/28/22 97/27/11 
f 97/27/11 112/28/22 105/14/27 98/12/25 
s 1
f 112/28/22 111/33/23 110/32/24 109/31/26 108/30/17 107/29/19 106/13/20 105/14/27 
s 2
f 113/1/34 114/2/35 115/3/36 116/4/37 
s 4
f 117/4/38 118/1/39 119/2/40 120/3/41 
s 8
f 113/4/34 116/1/37 118/2/39 117/3/38 
s 16
f 116/4/37 115/1/36 119/2/40 118/3/39 
s 32
f 115/4/36 114/1/35 120/2/41 119/3/40 
s 64
f 114/4/35 113/1/34 117/2/38 120/3/41 
# 78 polygons

