# 3ds Max Wavefront OBJ Exporter v0.97b - (c)2007 guruware
# File Created: 17.07.2026 18:34:20

mtllib scout_a_emissive.mtl

#
# object scout_a_emissive
#

v  0.6143 -0.0000 0.0024
v  0.6068 -0.0000 -0.0350
v  0.6068 0.0265 -0.0240
v  0.6068 0.0374 0.0024
v  0.6068 0.0265 0.0289
v  0.6068 -0.0000 0.0398
v  0.5856 0.0691 0.0024
v  0.5856 0.0381 0.0421
v  0.5539 0.0903 0.0024
v  0.5539 0.0497 0.0552
v  0.5165 0.0978 0.0024
v  0.5165 0.0410 0.0392
v  0.0886 0.0978 0.0024
v  0.0886 0.0410 0.0392
v  0.0512 0.0903 0.0024
v  0.0512 0.0497 0.0552
v  0.0194 0.0691 0.0024
v  0.0194 0.0381 0.0421
v  -0.0018 0.0374 0.0024
v  -0.0018 0.0265 0.0289
v  -0.0092 0.0000 0.0024
v  0.6414 0.0244 0.0341
v  0.5810 0.1615 0.0341
v  0.5586 0.1517 0.0341
v  0.6039 0.0489 0.0341
v  0.5112 0.3234 0.0341
v  0.4888 0.3138 0.0341
v  0.3622 0.6719 0.0341
v  0.3398 0.6622 0.0341
v  0.0912 1.2919 0.0341
v  0.0814 1.2532 0.0341
v  0.0069 1.2260 0.0341
v  0.0360 1.2178 0.0341
v  0.2091 0.6807 0.0341
v  0.2372 0.6754 0.0341
v  -0.0964 0.3385 0.0341
v  -0.0655 0.3363 0.0341
v  0.0057 0.1862 0.0341
v  0.0334 0.1888 0.0341
v  -0.0633 0.0244 0.0341
v  -0.0263 0.0489 0.0341
v  0.6414 0.0244 0.0224
v  0.5810 0.1615 0.0224
v  0.5112 0.3234 0.0224
v  0.3622 0.6719 0.0224
v  0.0912 1.2919 0.0224
v  0.0069 1.2260 0.0224
v  0.2091 0.6807 0.0224
v  -0.0964 0.3385 0.0224
v  0.0057 0.1862 0.0224
v  -0.0633 0.0244 0.0224
v  0.5586 0.1517 0.0224
v  0.6039 0.0489 0.0224
v  0.4888 0.3138 0.0224
v  0.3398 0.6622 0.0224
v  0.0814 1.2532 0.0224
v  0.0360 1.2178 0.0224
v  0.2372 0.6754 0.0224
v  -0.0655 0.3363 0.0224
v  0.0334 0.1888 0.0224
v  -0.0263 0.0489 0.0224
v  0.6068 -0.0265 -0.0240
v  0.6068 -0.0374 0.0024
v  0.6068 -0.0265 0.0289
v  0.5856 -0.0381 0.0421
v  0.5856 -0.0691 0.0024
v  0.5539 -0.0497 0.0552
v  0.5539 -0.0903 0.0024
v  0.5165 -0.0410 0.0392
v  0.5165 -0.0978 0.0024
v  0.0886 -0.0410 0.0392
v  0.0886 -0.0978 0.0024
v  0.0512 -0.0497 0.0552
v  0.0512 -0.0903 0.0024
v  0.0194 -0.0381 0.0421
v  0.0194 -0.0691 0.0024
v  -0.0018 -0.0265 0.0289
v  -0.0018 -0.0374 0.0024
v  0.6414 -0.0244 0.0341
v  0.6039 -0.0489 0.0341
v  0.5586 -0.1517 0.0341
v  0.5810 -0.1615 0.0341
v  0.4888 -0.3138 0.0341
v  0.5112 -0.3234 0.0341
v  0.3398 -0.6622 0.0341
v  0.3622 -0.6719 0.0341
v  0.0814 -1.2532 0.0341
v  0.0912 -1.2919 0.0341
v  0.0360 -1.2178 0.0341
v  0.0069 -1.2260 0.0341
v  0.2372 -0.6754 0.0341
v  0.2091 -0.6807 0.0341
v  -0.0655 -0.3363 0.0341
v  -0.0964 -0.3385 0.0341
v  0.0334 -0.1888 0.0341
v  0.0057 -0.1862 0.0341
v  -0.0263 -0.0489 0.0341
v  -0.0633 -0.0244 0.0341
v  0.5810 -0.1615 0.0224
v  0.6414 -0.0244 0.0224
v  0.5112 -0.3234 0.0224
v  0.3622 -0.6719 0.0224
v  0.0912 -1.2919 0.0224
v  0.0069 -1.2260 0.0224
v  0.2091 -0.6807 0.0224
v  -0.0964 -0.3385 0.0224
v  0.0057 -0.1862 0.0224
v  -0.0633 -0.0244 0.0224
v  0.6039 -0.0489 0.0224
v  0.5586 -0.1517 0.0224
v  0.4888 -0.3138 0.0224
v  0.3398 -0.6622 0.0224
v  0.0814 -1.2532 0.0224
v  0.0360 -1.2178 0.0224
v  0.2372 -0.6754 0.0224
v  -0.0655 -0.3363 0.0224
v  0.0334 -0.1888 0.0224
v  -0.0263 -0.0489 0.0224
v  0.5856 0.0381 -0.0372
v  0.5539 0.0497 -0.0504
v  0.5165 0.0410 -0.0344
v  0.0886 0.0410 -0.0344
v  0.0512 0.0497 -0.0504
v  0.0194 0.0381 -0.0372
v  -0.0018 0.0265 -0.0240
v  0.6414 0.0244 -0.0293
v  0.6039 0.0489 -0.0293
v  0.5586 0.1517 -0.0293
v  0.5810 0.1615 -0.0293
v  0.4888 0.3138 -0.0293
v  0.5112 0.3234 -0.0293
v  0.3398 0.6622 -0.0293
v  0.3622 0.6719 -0.0293
v  0.0814 1.2532 -0.0293
v  0.0912 1.2919 -0.0293
v  0.0360 1.2178 -0.0293
v  0.0069 1.2260 -0.0293
v  0.2372 0.6754 -0.0293
v  0.2091 0.6807 -0.0293
v  -0.0655 0.3363 -0.0293
v  -0.0964 0.3385 -0.0293
v  0.0334 0.1888 -0.0293
v  0.0057 0.1862 -0.0293
v  -0.0263 0.0489 -0.0293
v  -0.0633 0.0244 -0.0293
v  0.5810 0.1615 -0.0176
v  0.6414 0.0244 -0.0176
v  0.5112 0.3234 -0.0176
v  0.3622 0.6719 -0.0176
v  0.0912 1.2919 -0.0176
v  0.0069 1.2260 -0.0176
v  0.2091 0.6807 -0.0176
v  -0.0964 0.3385 -0.0176
v  0.0057 0.1862 -0.0176
v  -0.0633 0.0244 -0.0176
v  0.6039 0.0489 -0.0176
v  0.5586 0.1517 -0.0176
v  0.4888 0.3138 -0.0176
v  0.3398 0.6622 -0.0176
v  0.0814 1.2532 -0.0176
v  0.0360 1.2178 -0.0176
v  0.2372 0.6754 -0.0176
v  -0.0655 0.3363 -0.0176
v  0.0334 0.1888 -0.0176
v  -0.0263 0.0489 -0.0176
v  0.5856 -0.0381 -0.0372
v  0.5539 -0.0497 -0.0504
v  0.5165 -0.0410 -0.0344
v  0.0886 -0.0410 -0.0344
v  0.0512 -0.0497 -0.0504
v  0.0194 -0.0381 -0.0372
v  -0.0018 -0.0265 -0.0240
v  0.6414 -0.0244 -0.0293
v  0.5810 -0.1615 -0.0293
v  0.5586 -0.1517 -0.0293
v  0.6039 -0.0489 -0.0293
v  0.5112 -0.3234 -0.0293
v  0.4888 -0.3138 -0.0293
v  0.3622 -0.6719 -0.0293
v  0.3398 -0.6622 -0.0293
v  0.0912 -1.2919 -0.0293
v  0.0814 -1.2532 -0.0293
v  0.0069 -1.2260 -0.0293
v  0.0360 -1.2178 -0.0293
v  0.2091 -0.6807 -0.0293
v  0.2372 -0.6754 -0.0293
v  -0.0964 -0.3385 -0.0293
v  -0.0655 -0.3363 -0.0293
v  0.0057 -0.1862 -0.0293
v  0.0334 -0.1888 -0.0293
v  -0.0633 -0.0244 -0.0293
v  -0.0263 -0.0489 -0.0293
v  0.6414 -0.0244 -0.0176
v  0.5810 -0.1615 -0.0176
v  0.5112 -0.3234 -0.0176
v  0.3622 -0.6719 -0.0176
v  0.0912 -1.2919 -0.0176
v  0.0069 -1.2260 -0.0176
v  0.2091 -0.6807 -0.0176
v  -0.0964 -0.3385 -0.0176
v  0.0057 -0.1862 -0.0176
v  -0.0633 -0.0244 -0.0176
v  0.5586 -0.1517 -0.0176
v  0.6039 -0.0489 -0.0176
v  0.4888 -0.3138 -0.0176
v  0.3398 -0.6622 -0.0176
v  0.0814 -1.2532 -0.0176
v  0.0360 -1.2178 -0.0176
v  0.2372 -0.6754 -0.0176
v  -0.0655 -0.3363 -0.0176
v  0.0334 -0.1888 -0.0176
v  -0.0263 -0.0489 -0.0176
# 212 vertices

vn 0.9903 0.1393 -0.0000
vn 0.9776 0.0805 -0.1945
vn 0.9808 0.1379 -0.1379
vn 0.9281 0.3581 0.1023
vn 0.8724 0.4325 0.2277
vn 0.9776 0.0805 0.1945
vn 0.5792 0.6421 0.5023
vn 0.5520 0.6568 0.5138
vn 0.2908 0.7581 0.5837
vn 0.0532 0.7912 0.6092
vn 0.0509 0.5432 0.8381
vn -0.2261 0.5298 0.8174
vn -0.0509 0.5432 0.8381
vn 0.2261 0.5298 0.8174
vn -0.2908 0.7581 0.5837
vn -0.0532 0.7912 0.6092
vn -0.5792 0.6421 0.5023
vn -0.5520 0.6568 0.5138
vn -0.8928 0.4163 0.1724
vn -0.7942 0.5614 0.2325
vn -0.9776 0.1945 0.0805
vn 0.6947 -0.4532 0.5586
vn 0.6475 0.2821 0.7080
vn -0.6490 -0.2828 0.7063
vn -0.2659 0.1735 0.9483
vn 0.6494 0.2789 0.7074
vn -0.6500 -0.2792 0.7068
vn 0.6499 0.2810 0.7062
vn -0.6482 -0.2803 0.7080
vn 0.2025 0.7996 0.5653
vn -0.0888 -0.3508 0.9322
vn -0.7730 0.2193 0.5953
vn 0.4799 -0.1361 0.8667
vn -0.5279 0.0998 0.8435
vn 0.7806 -0.1475 0.6074
vn -0.8042 0.0556 0.5917
vn 0.4851 -0.0336 0.8738
vn -0.5529 -0.0520 0.8316
vn 0.7859 0.0739 0.6139
vn -0.6918 -0.4570 0.5591
vn 0.2675 0.1767 0.9472
vn 0.8375 -0.5464 0.0000
vn 0.9168 0.3994 0.0000
vn 0.9189 0.3946 0.0000
vn 0.9179 0.3969 0.0000
vn 0.2454 0.9694 0.0000
vn -0.9620 0.2729 0.0000
vn -0.9826 0.1857 0.0000
vn -0.9976 0.0690 0.0000
vn -0.9956 -0.0936 0.0000
vn -0.8344 -0.5512 0.0000
vn -0.9168 -0.3994 0.0000
vn -0.8375 0.5464 0.0000
vn -0.9189 -0.3946 0.0000
vn -0.9179 -0.3969 0.0000
vn -0.2454 -0.9694 0.0000
vn 0.9620 -0.2729 0.0000
vn 0.9826 -0.1857 0.0000
vn 0.9976 -0.0690 0.0000
vn 0.9956 0.0936 0.0000
vn 0.8344 0.5512 0.0000
vn 0.9903 -0.1393 -0.0000
vn 0.9808 -0.1379 -0.1379
vn 0.9776 -0.0805 -0.1945
vn 0.9281 -0.3581 0.1023
vn 0.8724 -0.4325 0.2277
vn 0.9776 -0.0805 0.1945
vn 0.5520 -0.6568 0.5138
vn 0.5792 -0.6421 0.5023
vn 0.0532 -0.7912 0.6092
vn 0.2908 -0.7581 0.5837
vn -0.2261 -0.5298 0.8174
vn 0.0509 -0.5432 0.8381
vn 0.2261 -0.5298 0.8174
vn -0.0509 -0.5432 0.8381
vn -0.0532 -0.7912 0.6092
vn -0.2908 -0.7581 0.5837
vn -0.5520 -0.6568 0.5138
vn -0.5792 -0.6421 0.5023
vn -0.7942 -0.5614 0.2325
vn -0.8928 -0.4163 0.1724
vn -0.9776 -0.1945 0.0805
vn 0.6947 0.4532 0.5586
vn -0.2659 -0.1735 0.9483
vn -0.6490 0.2828 0.7063
vn 0.6475 -0.2821 0.7080
vn -0.6500 0.2792 0.7068
vn 0.6494 -0.2789 0.7074
vn -0.6482 0.2803 0.7080
vn 0.6499 -0.2810 0.7062
vn -0.0888 0.3508 0.9322
vn 0.2025 -0.7996 0.5653
vn 0.4799 0.1361 0.8667
vn -0.7730 -0.2193 0.5953
vn 0.7806 0.1475 0.6074
vn -0.5279 -0.0998 0.8435
vn 0.4851 0.0336 0.8738
vn -0.8042 -0.0556 0.5917
vn 0.7859 -0.0739 0.6139
vn -0.5529 0.0520 0.8316
vn 0.2675 -0.1767 0.9472
vn -0.6918 0.4570 0.5591
vn 0.9168 -0.3994 0.0000
vn 0.8375 0.5464 0.0000
vn 0.9189 -0.3946 0.0000
vn 0.9179 -0.3969 0.0000
vn 0.2454 -0.9694 0.0000
vn -0.9620 -0.2729 0.0000
vn -0.9826 -0.1857 0.0000
vn -0.9976 -0.0690 0.0000
vn -0.9956 0.0936 0.0000
vn -0.8344 0.5512 0.0000
vn -0.8375 -0.5464 0.0000
vn -0.9168 0.3994 0.0000
vn -0.9189 0.3946 0.0000
vn -0.9179 0.3969 0.0000
vn -0.2454 0.9694 0.0000
vn 0.9620 0.2729 0.0000
vn 0.9826 0.1857 0.0000
vn 0.9976 0.0690 0.0000
vn 0.9956 -0.0936 0.0000
vn 0.8344 -0.5512 0.0000
vn 0.9808 0.1379 0.1379
vn 0.9281 0.3581 -0.1023
vn 0.8724 0.4325 -0.2277
vn 0.5520 0.6568 -0.5138
vn 0.5792 0.6421 -0.5023
vn 0.0532 0.7912 -0.6092
vn 0.2908 0.7581 -0.5837
vn -0.2261 0.5298 -0.8174
vn 0.0509 0.5432 -0.8381
vn 0.2261 0.5298 -0.8174
vn -0.0509 0.5432 -0.8381
vn -0.0532 0.7912 -0.6092
vn -0.2908 0.7581 -0.5837
vn -0.5520 0.6568 -0.5138
vn -0.5792 0.6421 -0.5023
vn -0.7942 0.5614 -0.2325
vn -0.8928 0.4163 -0.1724
vn -0.9776 0.1945 -0.0805
vn 0.6947 -0.4532 -0.5586
vn -0.2659 0.1735 -0.9483
vn -0.6490 -0.2828 -0.7063
vn 0.6475 0.2821 -0.7080
vn -0.6500 -0.2792 -0.7068
vn 0.6494 0.2789 -0.7074
vn -0.6482 -0.2803 -0.7080
vn 0.6499 0.2810 -0.7062
vn -0.0888 -0.3508 -0.9322
vn 0.2025 0.7996 -0.5653
vn 0.4799 -0.1361 -0.8667
vn -0.7730 0.2193 -0.5953
vn 0.7806 -0.1475 -0.6074
vn -0.5279 0.0998 -0.8435
vn 0.4851 -0.0336 -0.8738
vn -0.8042 0.0556 -0.5917
vn 0.7859 0.0739 -0.6139
vn -0.5529 -0.0520 -0.8316
vn 0.2675 0.1767 -0.9472
vn -0.6918 -0.4570 -0.5591
vn 0.2454 0.9694 -0.0000
vn 0.9808 -0.1379 0.1379
vn 0.9281 -0.3581 -0.1023
vn 0.8724 -0.4325 -0.2277
vn 0.5792 -0.6421 -0.5023
vn 0.5520 -0.6568 -0.5138
vn 0.2908 -0.7581 -0.5837
vn 0.0532 -0.7912 -0.6092
vn 0.0509 -0.5432 -0.8381
vn -0.2261 -0.5298 -0.8174
vn -0.0509 -0.5432 -0.8381
vn 0.2261 -0.5298 -0.8174
vn -0.2908 -0.7581 -0.5837
vn -0.0532 -0.7912 -0.6092
vn -0.5792 -0.6421 -0.5023
vn -0.5520 -0.6568 -0.5138
vn -0.8928 -0.4163 -0.1724
vn -0.7942 -0.5614 -0.2325
vn -0.9776 -0.1945 -0.0805
vn 0.6947 0.4532 -0.5586
vn 0.6475 -0.2821 -0.7080
vn -0.6490 0.2828 -0.7063
vn -0.2659 -0.1735 -0.9483
vn 0.6494 -0.2789 -0.7074
vn -0.6500 0.2792 -0.7068
vn 0.6499 -0.2810 -0.7062
vn -0.6482 0.2803 -0.7080
vn 0.2025 -0.7996 -0.5653
vn -0.0888 0.3508 -0.9322
vn -0.7730 -0.2193 -0.5953
vn 0.4799 0.1361 -0.8667
vn -0.5279 -0.0998 -0.8435
vn 0.7806 0.1475 -0.6074
vn -0.8042 -0.0556 -0.5917
vn 0.4851 0.0336 -0.8738
vn -0.5529 0.0520 -0.8316
vn 0.7859 -0.0739 -0.6139
vn -0.6918 0.4570 -0.5591
vn 0.2675 -0.1767 -0.9472
vn 0.2454 -0.9694 -0.0000
# 200 vertex normals

vt 0.5000 0.5000 0.0000
vt 0.5000 0.6913 0.0000
vt 0.3647 0.6353 0.0000
vt 0.3087 0.5000 0.0000
vt 0.3647 0.3647 0.0000
vt 0.5000 0.3087 0.0000
vt 0.1464 0.5000 0.0000
vt 0.2500 0.2500 0.0000
vt 0.0381 0.5000 0.0000
vt 0.1734 0.1734 0.0000
vt 0.0000 0.5000 0.0000
vt 0.1464 0.1464 0.0000
vt 0.5000 1.0000 0.0000
vt 0.5000 0.0000 0.0000
vt 0.6250 0.0000 0.0000
vt 0.6250 1.0000 0.0000
vt 0.0000 0.0000 0.0000
vt 1.0000 0.0000 0.0000
vt 1.0000 1.0000 0.0000
vt 0.0000 1.0000 0.0000
# 20 texture coords

o scout_a_emissive
g scout_a_emissive
usemtl 03___Default
s 4
f 1/1/1 2/2/2 3/3/3 
f 1/1/1 3/3/3 4/4/4 
f 1/1/1 4/4/4 5/5/5 
f 1/1/1 5/5/5 6/6/6 
f 4/4/4 7/7/7 8/8/8 5/5/5 
f 7/7/7 9/9/9 10/10/10 8/8/8 
f 9/9/9 11/11/11 12/12/12 10/10/10 
f 11/13/11 13/14/13 14/15/14 12/16/12 
f 13/11/13 15/9/15 16/10/16 14/12/14 
f 15/9/15 17/7/17 18/8/18 16/10/16 
f 17/7/17 19/4/19 20/5/20 18/8/18 
f 19/4/19 21/1/21 20/5/20 
s off
f 22/17/22 23/18/23 24/18/24 25/17/25 
f 23/18/23 26/18/26 27/18/27 24/18/24 
f 26/18/26 28/18/28 29/18/29 27/18/27 
f 28/18/28 30/18/30 31/18/31 29/18/29 
f 30/18/30 32/19/32 33/19/33 31/18/31 
f 32/19/32 34/19/34 35/19/35 33/19/33 
f 34/19/34 36/19/36 37/19/37 35/19/35 
f 36/19/36 38/19/38 39/19/39 37/19/37 
f 38/19/38 40/20/40 41/20/41 39/19/39 
f 40/20/40 22/17/22 25/17/25 41/20/41 
f 23/18/23 22/17/22 42/17/42 43/18/43 
f 26/18/26 23/18/23 43/18/43 44/18/44 
f 28/18/28 26/18/26 44/18/44 45/18/45 
f 30/18/30 28/18/28 45/18/45 46/18/46 
f 32/19/32 30/18/30 46/18/46 47/19/47 
f 34/19/34 32/19/32 47/19/47 48/19/48 
f 36/19/36 34/19/34 48/19/48 49/19/49 
f 38/19/38 36/19/36 49/19/49 50/19/50 
f 40/20/40 38/19/38 50/19/50 51/20/51 
f 22/17/22 40/20/40 51/20/51 42/17/42 
f 25/17/25 24/18/24 52/18/52 53/17/53 
f 24/18/24 27/18/27 54/18/54 52/18/52 
f 27/18/27 29/18/29 55/18/55 54/18/54 
f 29/18/29 31/18/31 56/18/56 55/18/55 
f 31/18/31 33/19/33 57/19/57 56/18/56 
f 33/19/33 35/19/35 58/19/58 57/19/57 
f 35/19/35 37/19/37 59/19/59 58/19/58 
f 37/19/37 39/19/39 60/19/60 59/19/59 
f 39/19/39 41/20/41 61/20/61 60/19/60 
f 41/20/41 25/17/25 53/17/53 61/20/61 
s 4
f 1/1/62 62/3/63 2/2/64 
f 1/1/62 63/4/65 62/3/63 
f 1/1/62 64/5/66 63/4/65 
f 1/1/62 6/6/67 64/5/66 
f 63/4/65 64/5/66 65/8/68 66/7/69 
f 66/7/69 65/8/68 67/10/70 68/9/71 
f 68/9/71 67/10/70 69/12/72 70/11/73 
f 70/13/73 69/16/72 71/15/74 72/14/75 
f 72/11/75 71/12/74 73/10/76 74/9/77 
f 74/9/77 73/10/76 75/8/78 76/7/79 
f 76/7/79 75/8/78 77/5/80 78/4/81 
f 78/4/81 77/5/80 21/1/82 
s off
f 79/17/83 80/17/84 81/18/85 82/18/86 
f 82/18/86 81/18/85 83/18/87 84/18/88 
f 84/18/88 83/18/87 85/18/89 86/18/90 
f 86/18/90 85/18/89 87/18/91 88/18/92 
f 88/18/92 87/18/91 89/19/93 90/19/94 
f 90/19/94 89/19/93 91/19/95 92/19/96 
f 92/19/96 91/19/95 93/19/97 94/19/98 
f 94/19/98 93/19/97 95/19/99 96/19/100 
f 96/19/100 95/19/99 97/20/101 98/20/102 
f 98/20/102 97/20/101 80/17/84 79/17/83 
f 82/18/86 99/18/103 100/17/104 79/17/83 
f 84/18/88 101/18/105 99/18/103 82/18/86 
f 86/18/90 102/18/106 101/18/105 84/18/88 
f 88/18/92 103/18/107 102/18/106 86/18/90 
f 90/19/94 104/19/108 103/18/107 88/18/92 
f 92/19/96 105/19/109 104/19/108 90/19/94 
f 94/19/98 106/19/110 105/19/109 92/19/96 
f 96/19/100 107/19/111 106/19/110 94/19/98 
f 98/20/102 108/20/112 107/19/111 96/19/100 
f 79/17/83 100/17/104 108/20/112 98/20/102 
f 80/17/84 109/17/113 110/18/114 81/18/85 
f 81/18/85 110/18/114 111/18/115 83/18/87 
f 83/18/87 111/18/115 112/18/116 85/18/89 
f 85/18/89 112/18/116 113/18/117 87/18/91 
f 87/18/91 113/18/117 114/19/118 89/19/93 
f 89/19/93 114/19/118 115/19/119 91/19/95 
f 91/19/95 115/19/119 116/19/120 93/19/97 
f 93/19/97 116/19/120 117/19/121 95/19/99 
f 95/19/99 117/19/121 118/20/122 97/20/101 
f 97/20/101 118/20/122 109/17/113 80/17/84 
s 4
f 1/1/1 5/3/123 6/2/6 
f 1/1/1 4/4/124 5/3/123 
f 1/1/1 3/5/125 4/4/124 
f 1/1/1 2/6/2 3/5/125 
f 4/4/124 3/5/125 119/8/126 7/7/127 
f 7/7/127 119/8/126 120/10/128 9/9/129 
f 9/9/129 120/10/128 121/12/130 11/11/131 
f 11/13/131 121/16/130 122/15/132 13/14/133 
f 13/11/133 122/12/132 123/10/134 15/9/135 
f 15/9/135 123/10/134 124/8/136 17/7/137 
f 17/7/137 124/8/136 125/5/138 19/4/139 
f 19/4/139 125/5/138 21/1/140 
s off
f 126/17/141 127/17/142 128/18/143 129/18/144 
f 129/18/144 128/18/143 130/18/145 131/18/146 
f 131/18/146 130/18/145 132/18/147 133/18/148 
f 133/18/148 132/18/147 134/18/149 135/18/150 
f 135/18/150 134/18/149 136/19/151 137/19/152 
f 137/19/152 136/19/151 138/19/153 139/19/154 
f 139/19/154 138/19/153 140/19/155 141/19/156 
f 141/19/156 140/19/155 142/19/157 143/19/158 
f 143/19/158 142/19/157 144/20/159 145/20/160 
f 145/20/160 144/20/159 127/17/142 126/17/141 
f 129/18/144 146/18/43 147/17/42 126/17/141 
f 131/18/146 148/18/44 146/18/43 129/18/144 
f 133/18/148 149/18/45 148/18/44 131/18/146 
f 135/18/150 150/18/161 149/18/45 133/18/148 
f 137/19/152 151/19/47 150/18/161 135/18/150 
f 139/19/154 152/19/48 151/19/47 137/19/152 
f 141/19/156 153/19/49 152/19/48 139/19/154 
f 143/19/158 154/19/50 153/19/49 141/19/156 
f 145/20/160 155/20/51 154/19/50 143/19/158 
f 126/17/141 147/17/42 155/20/51 145/20/160 
f 127/17/142 156/17/53 157/18/52 128/18/143 
f 128/18/143 157/18/52 158/18/54 130/18/145 
f 130/18/145 158/18/54 159/18/55 132/18/147 
f 132/18/147 159/18/55 160/18/56 134/18/149 
f 134/18/149 160/18/56 161/19/57 136/19/151 
f 136/19/151 161/19/57 162/19/58 138/19/153 
f 138/19/153 162/19/58 163/19/59 140/19/155 
f 140/19/155 163/19/59 164/19/60 142/19/157 
f 142/19/157 164/19/60 165/20/61 144/20/159 
f 144/20/159 165/20/61 156/17/53 127/17/142 
s 4
f 1/1/62 6/2/67 64/3/162 
f 1/1/62 64/3/162 63/4/163 
f 1/1/62 63/4/163 62/5/164 
f 1/1/62 62/5/164 2/6/64 
f 63/4/163 66/7/165 166/8/166 62/5/164 
f 66/7/165 68/9/167 167/10/168 166/8/166 
f 68/9/167 70/11/169 168/12/170 167/10/168 
f 70/13/169 72/14/171 169/15/172 168/16/170 
f 72/11/171 74/9/173 170/10/174 169/12/172 
f 74/9/173 76/7/175 171/8/176 170/10/174 
f 76/7/175 78/4/177 172/5/178 171/8/176 
f 78/4/177 21/1/179 172/5/178 
s off
f 173/17/180 174/18/181 175/18/182 176/17/183 
f 174/18/181 177/18/184 178/18/185 175/18/182 
f 177/18/184 179/18/186 180/18/187 178/18/185 
f 179/18/186 181/18/188 182/18/189 180/18/187 
f 181/18/188 183/19/190 184/19/191 182/18/189 
f 183/19/190 185/19/192 186/19/193 184/19/191 
f 185/19/192 187/19/194 188/19/195 186/19/193 
f 187/19/194 189/19/196 190/19/197 188/19/195 
f 189/19/196 191/20/198 192/20/199 190/19/197 
f 191/20/198 173/17/180 176/17/183 192/20/199 
f 174/18/181 173/17/180 193/17/104 194/18/103 
f 177/18/184 174/18/181 194/18/103 195/18/105 
f 179/18/186 177/18/184 195/18/105 196/18/106 
f 181/18/188 179/18/186 196/18/106 197/18/200 
f 183/19/190 181/18/188 197/18/200 198/19/108 
f 185/19/192 183/19/190 198/19/108 199/19/109 
f 187/19/194 185/19/192 199/19/109 200/19/110 
f 189/19/196 187/19/194 200/19/110 201/19/111 
f 191/20/198 189/19/196 201/19/111 202/20/112 
f 173/17/180 191/20/198 202/20/112 193/17/104 
f 176/17/183 175/18/182 203/18/114 204/17/113 
f 175/18/182 178/18/185 205/18/115 203/18/114 
f 178/18/185 180/18/187 206/18/116 205/18/115 
f 180/18/187 182/18/189 207/18/117 206/18/116 
f 182/18/189 184/19/191 208/19/118 207/18/117 
f 184/19/191 186/19/193 209/19/119 208/19/118 
f 186/19/193 188/19/195 210/19/120 209/19/119 
f 188/19/195 190/19/197 211/19/121 210/19/120 
f 190/19/197 192/20/199 212/20/122 211/19/121 
f 192/20/199 176/17/183 204/17/113 212/20/122 
# 148 polygons - 20 triangles

