# 3ds Max Wavefront OBJ Exporter v0.97b - (c)2007 guruware
# File Created: 18.07.2026 17:09:53

mtllib standard_a_base.mtl

#
# object standard_a_base
#

v  -2.2792 -0.5458 0.1000
v  1.0789 -0.1890 0.1000
v  1.1575 0.0000 0.1000
v  -2.2792 0.0000 0.1000
v  -2.1728 -0.9954 0.1000
v  -0.1864 -0.7547 0.1000
v  -1.7684 -1.3749 0.1000
v  -1.1060 -1.6767 0.1000
v  -1.5769 -1.9308 0.1000
v  -1.4101 -1.9047 0.1000
v  1.1560 -0.2397 0.0499
v  1.3177 0.0000 0.0499
v  -2.3792 0.0000 0.0000
v  -2.3792 -0.5519 0.0000
v  -2.2699 -1.0137 0.0000
v  -1.8690 -1.3862 0.0000
v  -1.6813 -2.0212 0.0000
v  -1.3593 -1.9709 0.0000
v  -1.0327 -1.7260 0.0000
v  -0.1215 -0.8109 0.0499
v  1.0789 -0.1890 -0.0040
v  -0.1864 -0.7547 -0.0040
v  -2.1728 -0.9954 -0.1000
v  -2.2792 -0.5458 -0.1000
v  -1.1060 -1.6767 -0.1000
v  -1.7684 -1.3749 -0.1000
v  -1.4101 -1.9047 -0.1000
v  -1.5769 -1.9308 -0.1000
v  1.1575 0.0000 -0.0040
v  -2.2792 0.0000 -0.1000
v  -2.4950 -0.7017 -0.3907
v  -2.4950 -0.3338 -0.3907
v  -0.7666 -0.3338 -0.0645
v  -0.7666 -0.7017 -0.0645
v  -2.4950 -0.6654 0.2419
v  -0.7666 -0.6289 0.1934
v  -0.7666 -0.4066 0.1934
v  -2.4950 -0.3700 0.2419
v  -2.4950 -0.7017 0.1919
v  -2.4950 -0.3338 0.1919
v  -0.2611 -0.1886 -0.0000
v  -0.2611 -0.1333 0.1840
v  -1.2611 -0.1333 0.1840
v  -1.2611 -0.1886 0.0000
v  -0.2611 0.0000 0.2602
v  -1.2611 0.0000 0.2602
v  -1.3856 -1.2108 -0.2112
v  -0.3147 -1.2193 -0.1995
v  -0.3147 -1.2755 -0.2316
v  -1.3856 -1.2755 -0.2481
v  -1.3856 -1.1840 -0.1218
v  -0.3147 -1.1960 -0.1218
v  -1.3856 -1.2108 -0.0325
v  -0.3147 -1.2193 -0.0442
v  -1.3856 -1.2755 0.0045
v  -0.3147 -1.2755 -0.0121
v  -1.3856 -1.3402 -0.0325
v  -0.3147 -1.3318 -0.0442
v  -1.3856 -1.3670 -0.1218
v  -0.3147 -1.3551 -0.1218
v  -1.3856 -1.3402 -0.2112
v  -0.3147 -1.3318 -0.1995
v  -1.3856 -0.8527 -0.2101
v  0.0362 -0.8604 -0.1995
v  0.0362 -0.9167 -0.2316
v  -1.3856 -0.9167 -0.2467
v  -1.3856 -0.8262 -0.1218
v  0.0362 -0.8371 -0.1218
v  -1.3856 -0.8527 -0.0336
v  0.0362 -0.8604 -0.0442
v  -1.3856 -0.9167 0.0030
v  0.0362 -0.9167 -0.0121
v  -1.3856 -0.9806 -0.0336
v  0.0362 -0.9729 -0.0442
v  -1.3856 -1.0071 -0.1218
v  0.0362 -0.9962 -0.1218
v  -1.3856 -0.9806 -0.2101
v  0.0362 -0.9729 -0.1995
v  -2.2792 0.5458 0.1000
v  1.0789 0.1890 0.1000
v  -0.1864 0.7547 0.1000
v  -2.1728 0.9954 0.1000
v  -1.1060 1.6767 0.1000
v  -1.7684 1.3749 0.1000
v  -1.4101 1.9047 0.1000
v  -1.5769 1.9308 0.1000
v  1.1560 0.2397 0.0499
v  -2.3792 0.5519 0.0000
v  -2.2699 1.0137 0.0000
v  -1.8690 1.3862 0.0000
v  -1.6813 2.0212 0.0000
v  -1.3593 1.9709 0.0000
v  -1.0327 1.7260 0.0000
v  -0.1215 0.8109 0.0499
v  1.0789 0.1890 -0.0040
v  -2.2792 0.5458 -0.1000
v  -2.1728 0.9954 -0.1000
v  -0.1864 0.7547 -0.0040
v  -1.7684 1.3749 -0.1000
v  -1.1060 1.6767 -0.1000
v  -1.5769 1.9308 -0.1000
v  -1.4101 1.9047 -0.1000
v  -2.4950 0.7017 -0.3907
v  -0.7666 0.7017 -0.0645
v  -0.7666 0.3338 -0.0645
v  -2.4950 0.3338 -0.3907
v  -2.4950 0.6654 0.2419
v  -2.4950 0.3700 0.2419
v  -0.7666 0.4066 0.1934
v  -0.7666 0.6289 0.1934
v  -2.4950 0.3338 0.1919
v  -2.4950 0.7017 0.1919
v  -0.2611 0.1886 -0.0000
v  -1.2611 0.1886 0.0000
v  -1.2611 0.1333 0.1840
v  -0.2611 0.1333 0.1840
v  -1.3856 1.2108 -0.2112
v  -1.3856 1.2755 -0.2481
v  -0.3147 1.2755 -0.2316
v  -0.3147 1.2193 -0.1995
v  -1.3856 1.1840 -0.1218
v  -0.3147 1.1960 -0.1218
v  -1.3856 1.2108 -0.0325
v  -0.3147 1.2193 -0.0442
v  -1.3856 1.2755 0.0045
v  -0.3147 1.2755 -0.0121
v  -1.3856 1.3402 -0.0325
v  -0.3147 1.3318 -0.0442
v  -1.3856 1.3670 -0.1218
v  -0.3147 1.3551 -0.1218
v  -1.3856 1.3402 -0.2112
v  -0.3147 1.3318 -0.1995
v  -1.3856 0.8527 -0.2101
v  -1.3856 0.9167 -0.2467
v  0.0362 0.9167 -0.2316
v  0.0362 0.8604 -0.1995
v  -1.3856 0.8262 -0.1218
v  0.0362 0.8371 -0.1218
v  -1.3856 0.8527 -0.0336
v  0.0362 0.8604 -0.0442
v  -1.3856 0.9167 0.0030
v  0.0362 0.9167 -0.0121
v  -1.3856 0.9806 -0.0336
v  0.0362 0.9729 -0.0442
v  -1.3856 1.0071 -0.1218
v  0.0362 0.9962 -0.1218
v  -1.3856 0.9806 -0.2101
v  0.0362 0.9729 -0.1995
# 148 vertices

vn -0.3978 -0.0339 0.9169
vn 0.2187 -0.1601 0.9626
vn 0.1781 0.0000 0.9840
vn -0.3826 0.0000 0.9239
vn -0.3938 -0.1826 0.9009
vn 0.1360 -0.1478 0.9796
vn -0.3118 -0.1418 0.9395
vn 0.3053 -0.2547 0.9176
vn -0.1662 -0.3567 0.9193
vn 0.2087 -0.3753 0.9031
vn 0.7409 -0.6715 0.0129
vn 1.0000 0.0000 0.0088
vn -1.0000 0.0000 0.0000
vn -0.9964 -0.0848 -0.0000
vn -0.9207 -0.3903 0.0000
vn -0.8914 -0.4531 -0.0000
vn -0.5680 -0.8230 -0.0000
vn 0.4859 -0.8740 0.0000
vn 0.7661 -0.6427 -0.0065
vn 0.6853 -0.7277 0.0287
vn 0.3421 -0.2539 -0.9047
vn 0.1880 -0.1901 -0.9636
vn -0.3763 -0.1758 -0.9097
vn -0.5033 -0.0420 -0.8631
vn 0.3205 -0.2295 -0.9190
vn -0.3118 -0.1418 -0.9395
vn 0.2087 -0.3753 -0.9031
vn -0.1662 -0.3567 -0.9193
vn 0.3190 0.0000 -0.9478
vn -0.7071 0.0000 -0.7071
vn -0.6382 0.0000 -0.7699
vn 0.1855 0.0000 -0.9827
vn -0.8322 0.0000 0.5545
vn 0.0281 0.0000 0.9996
vn 0.0000 -0.9239 0.3827
vn 0.0000 -0.7071 0.7071
vn 0.0000 0.0000 1.0000
vn 0.0154 0.7070 -0.7070
vn 0.0154 -0.0000 -0.9999
vn 0.0154 0.0000 -0.9999
vn 0.0154 0.9999 0.0000
vn 0.0154 0.9999 -0.0000
vn 0.0154 0.7070 0.7070
vn 0.0154 -0.0000 0.9999
vn 0.0154 -0.7070 0.7070
vn 0.0154 -0.9999 -0.0000
vn 0.0154 -0.7070 -0.7070
vn 0.0106 0.7071 -0.7071
vn 0.0106 0.0000 -0.9999
vn 0.0106 0.9999 0.0000
vn 0.0106 0.9999 -0.0000
vn 0.0106 0.7071 0.7071
vn 0.0106 -0.0000 0.9999
vn 0.0106 0.0000 0.9999
vn 0.0106 -0.7071 0.7071
vn 0.0106 -0.9999 -0.0000
vn 0.0106 -0.7071 -0.7071
vn -0.3978 0.0339 0.9169
vn 0.2187 0.1601 0.9626
vn 0.1360 0.1478 0.9796
vn -0.3938 0.1826 0.9009
vn 0.3053 0.2547 0.9176
vn -0.3118 0.1418 0.9395
vn 0.2087 0.3753 0.9031
vn -0.1662 0.3567 0.9193
vn 0.7409 0.6715 0.0129
vn -0.9964 0.0848 -0.0000
vn -0.9207 0.3903 0.0000
vn -0.8914 0.4531 -0.0000
vn -0.5680 0.8230 -0.0000
vn 0.4859 0.8740 0.0000
vn 0.7661 0.6427 -0.0065
vn 0.6853 0.7277 0.0287
vn 0.3421 0.2539 -0.9047
vn -0.5033 0.0420 -0.8631
vn -0.3763 0.1758 -0.9097
vn 0.1880 0.1901 -0.9636
vn -0.3118 0.1418 -0.9395
vn 0.3205 0.2295 -0.9190
vn -0.1662 0.3567 -0.9193
vn 0.2087 0.3753 -0.9031
vn 0.0000 0.9239 0.3827
vn 0.0000 0.7071 0.7071
vn 0.0154 0.0000 0.9999
vn 0.0106 -0.0000 -0.9999
vn 0.0106 -0.9999 0.0000
# 86 vertex normals

vt 0.0000 0.0000 0.0000
vt 1.0000 0.0000 0.0000
vt 1.0000 1.0000 0.0000
vt 0.0000 1.0000 0.0000
vt 0.0000 0.0985 0.0000
vt 1.0000 0.0985 0.0000
vt 1.0000 0.9015 0.0000
vt 0.0000 0.9015 0.0000
vt 1.0000 0.9210 0.0000
vt 0.9015 1.0000 0.0000
vt 0.0985 1.0000 0.0000
vt 0.0000 0.9210 0.0000
vt 0.5000 0.0000 1.0000
vt 0.3750 0.0000 1.0000
vt 0.2500 0.0000 1.0000
vt 0.8750 0.2977 1.0000
vt 0.8750 1.0000 1.0000
vt 0.7500 1.0000 1.0000
vt 0.7500 0.2977 1.0000
vt 0.0000 0.2977 1.0000
vt 0.0000 1.0000 1.0000
vt -0.1250 1.0000 1.0000
vt -0.1250 0.2977 1.0000
vt 0.1250 0.2977 1.0000
vt 0.1250 1.0000 1.0000
vt 0.2500 0.2977 1.0000
vt 0.2500 1.0000 1.0000
vt 0.3750 0.2977 1.0000
vt 0.3750 1.0000 1.0000
vt 0.5000 0.2977 1.0000
vt 0.5000 1.0000 1.0000
vt 0.6250 0.2977 1.0000
vt 0.6250 1.0000 1.0000
vt 0.8750 0.3608 1.0000
vt 0.7500 0.3608 1.0000
vt 0.0000 0.3608 1.0000
vt -0.1250 0.3608 1.0000
vt 0.1250 0.3608 1.0000
vt 0.2500 0.3608 1.0000
vt 0.3750 0.3608 1.0000
vt 0.5000 0.3608 1.0000
vt 0.6250 0.3608 1.0000
# 42 texture coords

o standard_a_base
g standard_a_base
usemtl 01___Default
s 4
f 1/1/1 2/2/2 3/3/3 4/4/4 
s off
f 2/2/2 1/1/1 5/1/5 6/2/6 
f 6/2/6 5/1/5 7/1/7 8/2/8 
f 8/2/8 7/1/7 9/1/9 10/2/10 
f 11/2/11 12/3/12 3/3/3 2/2/2 
f 13/4/13 14/1/14 1/1/1 4/4/4 
f 14/1/14 15/1/15 5/1/5 1/1/1 
f 15/1/15 16/1/16 7/1/7 5/1/5 
f 16/1/16 17/1/17 9/1/9 7/1/7 
f 17/1/17 18/2/18 10/2/10 9/1/9 
f 18/2/18 19/2/19 8/2/8 10/2/10 
f 19/2/19 20/2/20 6/2/6 8/2/8 
f 20/2/20 11/2/11 2/2/2 6/2/6 
f 21/2/21 22/2/22 23/1/23 24/1/24 
f 22/2/22 25/2/25 26/1/26 23/1/23 
f 25/2/25 27/2/27 28/1/28 26/1/26 
f 11/2/11 21/2/21 29/3/29 12/3/12 
f 13/4/13 30/4/30 24/1/24 14/1/14 
f 14/1/14 24/1/24 23/1/23 15/1/15 
f 15/1/15 23/1/23 26/1/26 16/1/16 
f 16/1/16 26/1/26 28/1/28 17/1/17 
f 17/1/17 28/1/28 27/2/27 18/2/18 
f 18/2/18 27/2/27 25/2/25 19/2/19 
f 19/2/19 25/2/25 22/2/22 20/2/20 
f 20/2/20 22/2/22 21/2/21 11/2/11 
s 1
f 31/2/31 32/3/31 33/4/32 34/1/32 
f 35/5/33 36/6/34 37/7/34 38/8/33 
s 4
f 32/1/31 31/2/31 39/9/13 35/10/33 38/11/33 40/12/13 
s off
f 41/13/35 42/14/36 43/14/36 44/13/35 
f 42/14/36 45/15/37 46/15/37 43/14/36 
s 8
f 47/16/38 48/17/38 49/18/39 50/19/40 
f 51/20/41 52/21/42 48/22/38 47/23/38 
f 53/24/43 54/25/43 52/21/42 51/20/41 
f 55/26/44 56/27/44 54/25/43 53/24/43 
f 57/28/45 58/29/45 56/27/44 55/26/44 
f 59/30/46 60/31/46 58/29/45 57/28/45 
f 61/32/47 62/33/47 60/31/46 59/30/46 
f 50/19/40 49/18/39 62/33/47 61/32/47 
f 63/34/48 64/17/48 65/18/49 66/35/49 
f 67/36/50 68/21/51 64/22/48 63/37/48 
f 69/38/52 70/25/52 68/21/51 67/36/50 
f 71/39/53 72/27/54 70/25/52 69/38/52 
f 73/40/55 74/29/55 72/27/54 71/39/53 
f 75/41/56 76/31/56 74/29/55 73/40/55 
f 77/42/57 78/33/57 76/31/56 75/41/56 
f 66/35/49 65/18/49 78/33/57 77/42/57 
s 4
f 79/1/58 4/4/4 3/3/3 80/2/59 
s off
f 80/2/59 81/2/60 82/1/61 79/1/58 
f 81/2/60 83/2/62 84/1/63 82/1/61 
f 83/2/62 85/2/64 86/1/65 84/1/63 
f 87/2/66 80/2/59 3/3/3 12/3/12 
f 13/4/13 4/4/4 79/1/58 88/1/67 
f 88/1/67 79/1/58 82/1/61 89/1/68 
f 89/1/68 82/1/61 84/1/63 90/1/69 
f 90/1/69 84/1/63 86/1/65 91/1/70 
f 91/1/70 86/1/65 85/2/64 92/2/71 
f 92/2/71 85/2/64 83/2/62 93/2/72 
f 93/2/72 83/2/62 81/2/60 94/2/73 
f 94/2/73 81/2/60 80/2/59 87/2/66 
f 95/2/74 96/1/75 97/1/76 98/2/77 
f 98/2/77 97/1/76 99/1/78 100/2/79 
f 100/2/79 99/1/78 101/1/80 102/2/81 
f 87/2/66 12/3/12 29/3/29 95/2/74 
f 13/4/13 88/1/67 96/1/75 30/4/30 
f 88/1/67 89/1/68 97/1/76 96/1/75 
f 89/1/68 90/1/69 99/1/78 97/1/76 
f 90/1/69 91/1/70 101/1/80 99/1/78 
f 91/1/70 92/2/71 102/2/81 101/1/80 
f 92/2/71 93/2/72 100/2/79 102/2/81 
f 93/2/72 94/2/73 98/2/77 100/2/79 
f 94/2/73 87/2/66 95/2/74 98/2/77 
s 1
f 103/2/31 104/1/32 105/4/32 106/3/31 
f 107/5/33 108/8/33 109/7/34 110/6/34 
s 4
f 106/1/31 111/12/13 108/11/33 107/10/33 112/9/13 103/2/31 
s off
f 113/13/82 114/13/82 115/14/83 116/14/83 
f 116/14/83 115/14/83 46/15/37 45/15/37 
s 8
f 117/16/47 118/19/40 119/18/40 120/17/47 
f 121/20/46 117/23/47 120/22/47 122/21/46 
f 123/24/45 121/20/46 122/21/46 124/25/45 
f 125/26/84 123/24/45 124/25/45 126/27/84 
f 127/28/43 125/26/84 126/27/84 128/29/43 
f 129/30/42 127/28/43 128/29/43 130/31/42 
f 131/32/38 129/30/42 130/31/42 132/33/38 
f 118/19/40 131/32/38 132/33/38 119/18/40 
f 133/34/57 134/35/49 135/18/85 136/17/57 
f 137/36/86 133/37/57 136/22/57 138/21/86 
f 139/38/55 137/36/86 138/21/86 140/25/55 
f 141/39/54 139/38/55 140/25/55 142/27/53 
f 143/40/52 141/39/54 142/27/53 144/29/52 
f 145/41/51 143/40/52 144/29/52 146/31/51 
f 147/42/48 145/41/51 146/31/51 148/33/48 
f 134/35/49 147/42/48 148/33/48 135/18/85 
# 92 polygons

