# 3ds Max Wavefront OBJ Exporter v0.97b - (c)2007 guruware
# File Created: 18.07.2026 17:10:36

mtllib standard_a_color.mtl

#
# object standard_a_color
#

v  -2.4950 -0.6654 0.2419
v  -2.4950 -0.7017 0.1919
v  -0.7666 -0.6561 0.1558
v  -0.7666 -0.6289 0.1934
v  -0.7666 -0.4066 0.1934
v  -0.7666 -0.3793 0.1558
v  -2.4950 -0.3338 0.1919
v  -2.4950 -0.3700 0.2419
v  -0.5765 -0.9214 0.1337
v  -1.8634 -1.0773 0.1337
v  -1.6319 -1.2946 0.1337
v  -1.1621 -1.5086 0.1337
v  -2.2792 -0.5458 -0.1000
v  -2.2792 0.0000 -0.1000
v  1.1575 0.0000 -0.0040
v  1.0789 -0.1890 -0.0040
v  -2.4950 0.6654 0.2419
v  -0.7666 0.6289 0.1934
v  -0.7666 0.6561 0.1558
v  -2.4950 0.7017 0.1919
v  -0.7666 0.4066 0.1934
v  -2.4950 0.3700 0.2419
v  -2.4950 0.3338 0.1919
v  -0.7666 0.3793 0.1558
v  -0.5765 0.9214 0.1337
v  -1.1621 1.5086 0.1337
v  -1.6319 1.2946 0.1337
v  -1.8634 1.0773 0.1337
v  -2.2792 0.5458 -0.1000
v  1.0789 0.1890 -0.0040
# 30 vertices

vn 0.0405 -0.7065 0.7065
vn 0.0405 0.7065 0.7065
vn 0.0000 0.0000 1.0000
vn 0.0286 0.0000 -0.9996
vn 0.0279 0.0000 -0.9996
vn 0.0279 -0.0084 -0.9996
vn 0.0299 -0.0090 -0.9995
vn 0.0299 0.0090 -0.9995
vn 0.0279 0.0084 -0.9996
# 9 vertex normals

vt 0.0061 0.9461 0.0000
vt 0.0000 0.9210 0.0000
vt 1.0000 0.8368 0.0000
vt 1.0037 0.9339 0.0000
vt -0.0037 0.9339 0.0000
vt 0.0000 0.8368 0.0000
vt 1.0000 0.9210 0.0000
vt 0.9939 0.9461 0.0000
vt 1.0000 0.0000 0.0000
vt 0.0000 0.0000 0.0000
vt 0.0000 1.0000 0.0000
vt 1.0000 1.0000 0.0000
# 12 texture coords

o standard_a_color
g standard_a_color
usemtl 02___Default
s 8
f 1/1/1 2/2/1 3/3/1 4/4/1 
f 5/5/2 6/6/2 7/7/2 8/8/2 
s off
f 9/9/3 10/10/3 11/10/3 12/9/3 
s 4
f 13/10/4 14/11/5 15/12/6 16/9/7 
s 8
f 17/1/2 18/4/2 19/3/2 20/2/2 
f 21/5/1 22/8/1 23/7/1 24/6/1 
s off
f 25/9/3 26/9/3 27/10/3 28/10/3 
s 4
f 29/10/4 30/9/8 15/12/9 14/11/5 
# 8 polygons

