# 3ds Max Wavefront OBJ Exporter v0.97b - (c)2007 guruware
# File Created: 18.07.2026 17:10:57

mtllib standard_a_emissive.mtl

#
# object standard_a_emissive
#

v  -0.2611 0.0000 0.2602
v  -0.2611 -0.1333 0.1840
v  0.1380 -0.0996 0.1375
v  0.1380 0.0000 0.1944
v  -0.2611 -0.1886 -0.0000
v  0.1380 -0.1409 -0.0000
v  0.4247 -0.0555 0.0767
v  0.4247 0.0000 0.1084
v  0.4247 -0.0786 -0.0000
v  -2.7457 -0.6460 -0.2321
v  -2.7457 -0.6987 -0.0568
v  -2.7457 -0.6460 0.1186
v  -2.7457 -0.5189 0.1912
v  -2.7457 -0.3919 0.1186
v  -2.7457 -0.3392 -0.0568
v  -2.7457 -0.3919 -0.2321
v  -2.7457 -0.5189 -0.3048
v  -0.7666 -0.7017 -0.0645
v  -0.7666 -0.3338 -0.0645
v  -0.7666 -0.3793 0.1558
v  -0.7666 -0.4066 0.1934
v  -0.7666 -0.6289 0.1934
v  -0.7666 -0.6561 0.1558
v  -1.8395 -1.3161 -0.1778
v  -1.8395 -1.3329 -0.1218
v  -1.8395 -1.3161 -0.0659
v  -1.8395 -1.2755 -0.0427
v  -1.8395 -1.2350 -0.0659
v  -1.8395 -1.2181 -0.1218
v  -1.8395 -1.2350 -0.1778
v  -1.8395 -1.2755 -0.2010
v  -2.1881 -0.9573 -0.1778
v  -2.1881 -0.9741 -0.1218
v  -2.1881 -0.9573 -0.0659
v  -2.1881 -0.9167 -0.0427
v  -2.1881 -0.8761 -0.0659
v  -2.1881 -0.8593 -0.1218
v  -2.1881 -0.8761 -0.1778
v  -2.1881 -0.9167 -0.2010
v  0.1380 0.0996 0.1375
v  -0.2611 0.1333 0.1840
v  0.1380 0.1409 -0.0000
v  -0.2611 0.1886 -0.0000
v  0.4247 0.0555 0.0767
v  0.4247 0.0786 -0.0000
v  -2.7457 0.6460 -0.2321
v  -2.7457 0.5189 -0.3048
v  -2.7457 0.3919 -0.2321
v  -2.7457 0.3392 -0.0568
v  -2.7457 0.3919 0.1186
v  -2.7457 0.5189 0.1912
v  -2.7457 0.6460 0.1186
v  -2.7457 0.6987 -0.0568
v  -0.7666 0.7017 -0.0645
v  -0.7666 0.6561 0.1558
v  -0.7666 0.6289 0.1934
v  -0.7666 0.4066 0.1934
v  -0.7666 0.3793 0.1558
v  -0.7666 0.3338 -0.0645
v  -1.8395 1.3161 -0.1778
v  -1.8395 1.2755 -0.2010
v  -1.8395 1.2350 -0.1778
v  -1.8395 1.2181 -0.1218
v  -1.8395 1.2350 -0.0659
v  -1.8395 1.2755 -0.0427
v  -1.8395 1.3161 -0.0659
v  -1.8395 1.3329 -0.1218
v  -2.1881 0.9573 -0.1778
v  -2.1881 0.9167 -0.2010
v  -2.1881 0.8761 -0.1778
v  -2.1881 0.8593 -0.1218
v  -2.1881 0.8761 -0.0659
v  -2.1881 0.9167 -0.0427
v  -2.1881 0.9573 -0.0659
v  -2.1881 0.9741 -0.1218
# 75 vertices

vn 0.1628 0.0000 0.9867
vn 0.1628 -0.6977 0.6977
vn 0.2221 -0.6894 0.6894
vn 0.2221 -0.0000 0.9750
vn 0.1507 -0.9133 0.3783
vn 0.2060 -0.9041 0.3745
vn 0.2873 -0.6773 0.6773
vn 0.2873 0.0000 0.9578
vn 0.2670 -0.8903 0.3688
vn -1.0000 0.0000 -0.0000
vn 1.0000 0.0000 0.0000
vn 0.2221 0.6894 0.6894
vn 0.1628 0.6977 0.6977
vn 0.2060 0.9041 0.3745
vn 0.1507 0.9133 0.3783
vn 0.2873 0.6773 0.6773
vn 0.2670 0.8903 0.3688
# 17 vertex normals

vt 0.2500 0.0000 1.0000
vt 0.3750 0.0000 1.0000
vt 0.3750 1.0000 1.0000
vt 0.2500 1.0000 1.0000
vt 0.5000 0.0000 1.0000
vt 0.5000 1.0000 1.0000
vt 0.2500 1.0000 -1.0000
vt 0.1250 1.0000 -1.0000
vt 0.2197 1.0000 -0.4142
vt 0.6250 0.0000 1.0000
vt 0.1250 0.0000 1.0000
vt 0.0000 0.0000 1.0000
vt -0.1250 0.0000 1.0000
vt 0.1161 0.0000 0.4142
vt 0.0000 0.0000 0.0000
vt 1.0000 0.0000 0.0000
vt 1.0000 0.8368 0.0000
vt 0.9015 1.0000 0.0000
vt 0.0985 1.0000 0.0000
vt 0.0000 0.8368 0.0000
vt 0.4786 0.0000 0.4142
vt 0.2197 0.0000 -0.4142
vt 0.1250 0.0000 -1.0000
vt 0.2500 0.0000 -1.0000
vt 0.5214 0.0000 -0.4142
vt 0.7803 0.0000 0.4142
vt 0.8750 0.0000 1.0000
vt 0.7500 0.0000 1.0000
# 28 texture coords

o standard_a_emissive
g standard_a_emissive
usemtl 03___Default
s 8
f 1/1/1 2/2/2 3/3/3 4/4/4 
f 2/2/2 5/5/5 6/6/6 3/3/3 
s off
f 4/7/4 3/8/3 7/8/7 8/7/8 
f 3/8/3 6/9/6 9/9/9 7/8/7 
s 1
f 10/10/10 11/5/10 12/2/10 13/1/10 14/11/10 15/12/10 16/13/10 17/14/10 
s 4
f 18/15/11 19/16/11 20/17/11 21/18/11 22/19/11 23/20/11 
s 1
f 24/21/10 25/22/10 26/23/10 27/24/10 28/25/10 29/26/10 30/27/10 31/28/10 
f 32/21/10 33/22/10 34/23/10 35/24/10 36/25/10 37/26/10 38/27/10 39/28/10 
s 8
f 1/1/1 4/4/4 40/3/12 41/2/13 
f 41/2/13 40/3/12 42/6/14 43/5/15 
s off
f 4/7/4 8/7/8 44/8/16 40/8/12 
f 40/8/12 44/8/16 45/9/17 42/9/14 
s 1
f 46/10/10 47/14/10 48/13/10 49/12/10 50/11/10 51/1/10 52/2/10 53/5/10 
s 4
f 54/15/11 55/20/11 56/19/11 57/18/11 58/17/11 59/16/11 
s 1
f 60/21/10 61/28/10 62/27/10 63/26/10 64/25/10 65/24/10 66/23/10 67/22/10 
f 68/21/10 69/28/10 70/27/10 71/26/10 72/25/10 73/24/10 74/23/10 75/22/10 
# 16 polygons

