# 3ds Max Wavefront OBJ Exporter v0.97b - (c)2007 guruware
# File Created: 20.07.2026 01:34:10

mtllib standard_a_boltz.mtl

#
# object standard_a_boltz
#

v  -1.2460 -0.5189 -0.4130
v  -1.2460 -0.3364 -0.3087
v  -0.8998 -0.3967 -0.2254
v  -0.8998 -0.5189 -0.2953
v  -1.2460 -0.2608 -0.0568
v  -0.8998 -0.3461 -0.0568
v  -1.2460 -0.3364 0.1951
v  -0.8998 -0.3967 0.1119
v  -1.2460 -0.5189 0.2995
v  -0.8998 -0.5189 0.1818
v  -1.2460 -0.7015 0.1951
v  -0.8998 -0.6412 0.1119
v  -1.2460 -0.7771 -0.0568
v  -0.8998 -0.6918 -0.0568
v  -1.2460 -0.7015 -0.3087
v  -0.8998 -0.6412 -0.2254
v  -1.2460 -0.5189 -0.3048
v  -1.2460 -0.3919 -0.2321
v  -1.2460 -0.6460 -0.2321
v  -1.2460 -0.6987 -0.0568
v  -1.2460 -0.6460 0.1186
v  -1.2460 -0.5189 0.1912
v  -1.2460 -0.3919 0.1186
v  -1.2460 -0.3392 -0.0568
v  -0.3375 -1.7347 -0.2551
v  -0.3434 -1.6666 -0.2161
v  0.1090 -1.6306 -0.2112
v  0.1147 -1.6951 -0.2481
v  -0.3459 -1.6384 -0.1218
v  0.1067 -1.6039 -0.1218
v  -0.3434 -1.6666 -0.0276
v  0.1090 -1.6306 -0.0325
v  -0.3375 -1.7347 0.0115
v  0.1147 -1.6951 0.0045
v  -0.3315 -1.8027 -0.0276
v  0.1203 -1.7596 -0.0325
v  -0.3291 -1.8309 -0.1218
v  0.1226 -1.7863 -0.1218
v  -0.3315 -1.8027 -0.2161
v  0.1203 -1.7596 -0.2112
v  1.2836 -1.6215 -0.1612
v  1.2811 -1.5931 -0.1775
v  1.2787 -1.5646 -0.1612
v  1.2776 -1.5529 -0.1218
v  1.2787 -1.5646 -0.0825
v  1.2811 -1.5931 -0.0662
v  1.2836 -1.6215 -0.0825
v  1.2847 -1.6332 -0.1218
v  1.1815 -1.6018 -0.2316
v  1.1766 -1.5457 -0.1995
v  1.1746 -1.5225 -0.1218
v  1.1766 -1.5457 -0.0442
v  1.1815 -1.6018 -0.0121
v  1.1864 -1.6578 -0.0442
v  1.1885 -1.6810 -0.1218
v  1.1864 -1.6578 -0.1995
v  -0.3375 -1.7347 -0.2010
v  -0.3410 -1.6942 -0.1778
v  -0.3339 -1.7751 -0.1778
v  -0.3325 -1.7918 -0.1218
v  -0.3339 -1.7751 -0.0659
v  -0.3375 -1.7347 -0.0427
v  -0.3410 -1.6942 -0.0659
v  -0.3425 -1.6775 -0.1218
v  -0.6878 -0.9934 -0.2551
v  -0.6938 -0.9253 -0.2161
v  0.1060 -0.8597 -0.2101
v  0.1116 -0.9234 -0.2467
v  -0.6963 -0.8972 -0.1218
v  0.1037 -0.8333 -0.1218
v  -0.6938 -0.9253 -0.0276
v  0.1060 -0.8597 -0.0336
v  -0.6878 -0.9934 0.0115
v  0.1116 -0.9234 0.0030
v  -0.6819 -1.0614 -0.0276
v  0.1172 -0.9872 -0.0336
v  -0.6794 -1.0896 -0.1218
v  0.1195 -1.0135 -0.1218
v  -0.6819 -1.0614 -0.2161
v  0.1172 -0.9872 -0.2101
v  1.6301 -0.8192 -0.1612
v  1.6276 -0.7908 -0.1775
v  1.6251 -0.7624 -0.1612
v  1.6241 -0.7506 -0.1218
v  1.6251 -0.7624 -0.0825
v  1.6276 -0.7908 -0.0662
v  1.6301 -0.8192 -0.0825
v  1.6311 -0.8310 -0.1218
v  1.5280 -0.7995 -0.2316
v  1.5231 -0.7435 -0.1995
v  1.5210 -0.7203 -0.1218
v  1.5231 -0.7435 -0.0442
v  1.5280 -0.7995 -0.0121
v  1.5329 -0.8556 -0.0442
v  1.5349 -0.8788 -0.1218
v  1.5329 -0.8556 -0.1995
v  -0.6878 -0.9934 -0.2010
v  -0.6914 -0.9530 -0.1778
v  -0.6843 -1.0338 -0.1778
v  -0.6828 -1.0505 -0.1218
v  -0.6843 -1.0338 -0.0659
v  -0.6878 -0.9934 -0.0427
v  -0.6914 -0.9530 -0.0659
v  -0.6928 -0.9362 -0.1218
v  0.2386 -0.1886 0.0000
v  0.2386 -0.1333 0.1840
v  -0.5000 -0.0467 0.0644
v  -0.5000 -0.0660 0.0000
v  0.2386 0.0000 0.2602
v  -0.5000 0.0000 0.0911
v  -0.9954 -0.7017 -0.3907
v  1.1802 -0.7017 -0.0645
v  1.1802 -0.6561 0.1558
v  -0.9954 -0.7017 0.1919
v  1.1802 -0.3338 -0.0645
v  -0.9954 -0.3338 -0.3907
v  -0.9954 -0.3338 0.1919
v  1.1802 -0.3793 0.1558
v  1.1293 -0.7382 0.0514
v  -0.5318 -1.0892 0.1989
v  -0.3441 -1.1245 0.2224
v  0.9195 -0.8575 0.1103
v  -0.1618 -1.3814 0.1689
v  -0.0954 -1.3209 0.2022
v  0.4205 -1.5884 0.1197
v  0.3895 -1.4933 0.1613
v  -1.2460 0.5189 -0.4130
v  -0.8998 0.5189 -0.2953
v  -0.8998 0.3967 -0.2254
v  -1.2460 0.3364 -0.3087
v  -0.8998 0.3461 -0.0568
v  -1.2460 0.2608 -0.0568
v  -0.8998 0.3967 0.1119
v  -1.2460 0.3364 0.1951
v  -0.8998 0.5189 0.1818
v  -1.2460 0.5189 0.2995
v  -0.8998 0.6412 0.1119
v  -1.2460 0.7015 0.1951
v  -0.8998 0.6918 -0.0568
v  -1.2460 0.7771 -0.0568
v  -0.8998 0.6412 -0.2254
v  -1.2460 0.7015 -0.3087
v  -1.2460 0.3919 -0.2321
v  -1.2460 0.5189 -0.3048
v  -1.2460 0.6460 -0.2321
v  -1.2460 0.6987 -0.0568
v  -1.2460 0.6460 0.1186
v  -1.2460 0.5189 0.1912
v  -1.2460 0.3919 0.1186
v  -1.2460 0.3392 -0.0568
v  -0.3363 1.7278 -0.2551
v  0.1158 1.6883 -0.2481
v  0.1102 1.6238 -0.2112
v  -0.3423 1.6598 -0.2161
v  0.1078 1.5971 -0.1218
v  -0.3447 1.6316 -0.1218
v  0.1102 1.6238 -0.0325
v  -0.3423 1.6598 -0.0276
v  0.1158 1.6883 0.0045
v  -0.3363 1.7278 0.0115
v  0.1215 1.7528 -0.0325
v  -0.3304 1.7959 -0.0276
v  0.1238 1.7795 -0.1218
v  -0.3279 1.8241 -0.1218
v  0.1215 1.7528 -0.2112
v  -0.3304 1.7959 -0.2161
v  1.2848 1.6146 -0.1612
v  1.2858 1.6264 -0.1218
v  1.2848 1.6146 -0.0825
v  1.2823 1.5862 -0.0662
v  1.2798 1.5578 -0.0825
v  1.2788 1.5460 -0.1218
v  1.2798 1.5578 -0.1612
v  1.2823 1.5862 -0.1775
v  1.1827 1.5949 -0.2316
v  1.1778 1.5389 -0.1995
v  1.1758 1.5157 -0.1218
v  1.1778 1.5389 -0.0442
v  1.1827 1.5949 -0.0121
v  1.1876 1.6510 -0.0442
v  1.1896 1.6742 -0.1218
v  1.1876 1.6510 -0.1995
v  -0.3399 1.6874 -0.1778
v  -0.3363 1.7278 -0.2010
v  -0.3328 1.7683 -0.1778
v  -0.3313 1.7850 -0.1218
v  -0.3328 1.7683 -0.0659
v  -0.3363 1.7278 -0.0427
v  -0.3399 1.6874 -0.0659
v  -0.3413 1.6707 -0.1218
v  -0.6836 1.0270 -0.2551
v  0.1158 0.9571 -0.2467
v  0.1102 0.8934 -0.2101
v  -0.6896 0.9590 -0.2161
v  0.1079 0.8670 -0.1218
v  -0.6920 0.9308 -0.1218
v  0.1102 0.8934 -0.0336
v  -0.6896 0.9590 -0.0276
v  0.1158 0.9571 0.0030
v  -0.6836 1.0270 0.0115
v  0.1214 1.0208 -0.0336
v  -0.6777 1.0951 -0.0276
v  0.1237 1.0472 -0.1218
v  -0.6752 1.1232 -0.1218
v  0.1214 1.0208 -0.2101
v  -0.6777 1.0951 -0.2161
v  1.6343 0.8529 -0.1612
v  1.6353 0.8646 -0.1218
v  1.6343 0.8529 -0.0825
v  1.6318 0.8245 -0.0662
v  1.6293 0.7960 -0.0825
v  1.6283 0.7843 -0.1218
v  1.6293 0.7960 -0.1612
v  1.6318 0.8245 -0.1775
v  1.5322 0.8332 -0.2316
v  1.5273 0.7771 -0.1995
v  1.5252 0.7539 -0.1218
v  1.5273 0.7771 -0.0442
v  1.5322 0.8332 -0.0121
v  1.5371 0.8892 -0.0442
v  1.5391 0.9124 -0.1218
v  1.5371 0.8892 -0.1995
v  -0.6871 0.9866 -0.1778
v  -0.6836 1.0270 -0.2010
v  -0.6801 1.0674 -0.1778
v  -0.6786 1.0842 -0.1218
v  -0.6801 1.0674 -0.0659
v  -0.6836 1.0270 -0.0427
v  -0.6871 0.9866 -0.0659
v  -0.6886 0.9699 -0.1218
v  0.2386 0.1886 0.0000
v  -0.5000 0.0660 0.0000
v  -0.5000 0.0467 0.0644
v  0.2386 0.1333 0.1840
v  -0.9954 0.7017 -0.3907
v  -0.9954 0.7017 0.1919
v  1.1802 0.6561 0.1558
v  1.1802 0.7017 -0.0645
v  1.1802 0.3338 -0.0645
v  1.1802 0.3793 0.1558
v  -0.9954 0.3338 0.1919
v  -0.9954 0.3338 -0.3907
v  1.1440 0.8208 0.0514
v  0.9246 0.9214 0.1103
v  -0.3574 1.0773 0.2224
v  -0.5414 1.0258 0.1989
v  -0.1268 1.2946 0.2022
v  -0.1982 1.3491 0.1689
v  0.3412 1.5086 0.1613
v  0.3638 1.6061 0.1197
# 250 vertices

vn -0.5040 0.0000 -0.8637
vn -0.5040 0.6107 -0.6107
vn 0.7485 0.4689 -0.4689
vn 0.7485 0.0000 -0.6631
vn -0.5040 0.8637 0.0000
vn 0.7485 0.6631 -0.0000
vn -0.5040 0.6107 0.6107
vn 0.7485 0.4689 0.4689
vn -0.5040 -0.0000 0.8637
vn 0.7485 -0.0000 0.6631
vn -0.5040 -0.6107 0.6107
vn 0.7485 -0.4689 0.4689
vn -0.5040 -0.8637 0.0000
vn 0.7485 -0.6631 -0.0000
vn -0.5040 -0.6107 -0.6107
vn 0.7485 -0.4689 -0.4689
vn -1.0000 0.0000 0.0000
vn -0.6221 -0.0502 -0.7813
vn -0.6722 0.4971 -0.5487
vn -0.0704 0.7111 -0.6995
vn 0.0137 0.0148 -0.9998
vn -0.6929 0.7210 0.0000
vn -0.1046 0.9945 0.0000
vn -0.6722 0.4971 0.5487
vn -0.0704 0.7111 0.6995
vn -0.6221 -0.0502 0.7813
vn 0.0137 0.0148 0.9998
vn -0.5721 -0.6039 0.5550
vn 0.0993 -0.6945 0.7126
vn -0.5514 -0.8342 0.0000
vn 0.1350 -0.9908 -0.0000
vn -0.5721 -0.6039 -0.5550
vn 0.0993 -0.6945 -0.7126
vn 0.8378 -0.3549 -0.4150
vn 0.8017 0.0596 -0.5948
vn 0.7646 0.4843 -0.4252
vn 0.7490 0.6626 -0.0000
vn 0.7646 0.4843 0.4252
vn 0.8017 0.0596 0.5948
vn 0.8378 -0.3549 0.4150
vn 0.8524 -0.5229 0.0000
vn 0.4753 0.0209 -0.8796
vn 0.4064 0.6550 -0.6370
vn 0.3766 0.9264 -0.0000
vn 0.4064 0.6550 0.6370
vn 0.4753 0.0209 0.8796
vn 0.5399 -0.5833 0.6069
vn 0.5654 -0.8248 0.0000
vn 0.5399 -0.5833 -0.6069
vn -0.9980 -0.0633 0.0000
vn -0.9980 -0.0633 -0.0000
vn -0.6239 -0.0504 -0.7798
vn -0.6740 0.4959 -0.5476
vn -0.0752 0.7107 -0.6995
vn 0.0089 0.0145 -0.9999
vn -0.6946 0.7194 0.0000
vn -0.1094 0.9940 -0.0000
vn -0.6740 0.4959 0.5476
vn -0.0752 0.7107 0.6995
vn -0.6239 -0.0504 0.7798
vn 0.0089 0.0145 0.9999
vn -0.5740 -0.6030 0.5540
vn 0.0945 -0.6950 0.7128
vn -0.5533 -0.8330 -0.0000
vn 0.1303 -0.9915 0.0000
vn -0.5740 -0.6030 -0.5540
vn 0.0945 -0.6950 -0.7128
vn 0.7646 0.4843 -0.4253
vn 0.8524 -0.5229 -0.0000
vn 0.3766 0.9264 0.0000
vn 0.5654 -0.8248 -0.0000
vn -0.2070 -0.9039 0.3744
vn -0.2232 -0.6893 0.6893
vn -0.2070 -0.3744 0.9039
vn 0.0000 -1.0000 0.0000
vn -0.0411 -0.9608 0.2740
vn 0.0323 -0.9612 0.2741
vn 0.0289 -0.9996 -0.0000
vn -0.0411 0.9608 0.2740
vn 0.0000 1.0000 -0.0000
vn 0.0289 0.9996 -0.0000
vn 0.0323 0.9612 0.2741
vn 0.2001 0.0935 0.9753
vn -0.1092 0.0589 0.9923
vn -0.1070 0.0672 0.9920
vn 0.2014 0.0918 0.9752
vn -0.1292 -0.2778 0.9519
vn -0.1286 -0.2783 0.9519
vn 0.1600 -0.2637 0.9512
vn 0.1702 -0.2610 0.9502
vn -0.5040 -0.0000 -0.8637
vn 0.7485 0.0000 0.6631
vn -0.5040 0.0000 0.8637
vn -0.6221 0.0502 -0.7813
vn 0.0137 -0.0148 -0.9998
vn -0.0704 -0.7111 -0.6995
vn -0.6722 -0.4971 -0.5487
vn -0.1046 -0.9945 0.0000
vn -0.6929 -0.7210 0.0000
vn -0.0704 -0.7111 0.6995
vn -0.6722 -0.4971 0.5487
vn 0.0137 -0.0148 0.9998
vn -0.6221 0.0502 0.7813
vn 0.0993 0.6945 0.7126
vn -0.5721 0.6039 0.5550
vn 0.1350 0.9908 0.0000
vn -0.5514 0.8342 -0.0000
vn 0.0993 0.6945 -0.7126
vn -0.5721 0.6039 -0.5550
vn 0.8378 0.3549 -0.4150
vn 0.8524 0.5229 -0.0000
vn 0.8378 0.3549 0.4150
vn 0.8017 -0.0596 0.5948
vn 0.7646 -0.4843 0.4252
vn 0.7490 -0.6626 -0.0000
vn 0.7646 -0.4843 -0.4252
vn 0.8017 -0.0596 -0.5948
vn 0.4753 -0.0209 -0.8796
vn 0.4064 -0.6550 -0.6370
vn 0.3766 -0.9264 -0.0000
vn 0.4064 -0.6550 0.6370
vn 0.4753 -0.0209 0.8796
vn 0.5399 0.5833 0.6069
vn 0.5654 0.8248 -0.0000
vn 0.5399 0.5833 -0.6069
vn -0.9980 0.0633 -0.0000
vn -0.9980 0.0633 0.0000
vn -0.6239 0.0504 -0.7798
vn 0.0089 -0.0145 -0.9999
vn -0.0752 -0.7107 -0.6995
vn -0.6740 -0.4959 -0.5476
vn -0.1094 -0.9940 -0.0000
vn -0.6946 -0.7194 0.0000
vn -0.0752 -0.7107 0.6995
vn -0.6740 -0.4959 0.5476
vn 0.0089 -0.0145 0.9999
vn -0.6239 0.0504 0.7798
vn 0.0945 0.6950 0.7128
vn -0.5740 0.6030 0.5540
vn 0.1303 0.9915 -0.0000
vn -0.5533 0.8330 0.0000
vn 0.0945 0.6950 -0.7128
vn -0.5740 0.6030 -0.5540
vn 0.7646 -0.4843 -0.4253
vn 0.3766 -0.9264 0.0000
vn -0.2070 0.9039 0.3744
vn -0.2232 0.6893 0.6893
vn -0.2070 0.3744 0.9039
vn 0.0000 1.0000 0.0000
vn 0.0000 -1.0000 -0.0000
vn 0.2118 -0.0782 0.9742
vn -0.0990 -0.0726 0.9924
vn -0.1614 0.2683 0.9497
vn 0.1363 0.2718 0.9527
# 154 vertex normals

vt 0.7500 0.0000 1.0000
vt 0.8750 0.0000 1.0000
vt 0.8750 1.0000 1.0000
vt 0.7500 1.0000 1.0000
vt -0.1250 0.0000 1.0000
vt 0.0000 0.0000 1.0000
vt 0.0000 1.0000 1.0000
vt -0.1250 1.0000 1.0000
vt 0.1250 0.0000 1.0000
vt 0.1250 1.0000 1.0000
vt 0.2500 0.0000 1.0000
vt 0.2500 1.0000 1.0000
vt 0.3750 0.0000 1.0000
vt 0.3750 1.0000 1.0000
vt 0.5000 0.0000 1.0000
vt 0.5000 1.0000 1.0000
vt 0.6250 0.0000 1.0000
vt 0.6250 1.0000 1.0000
vt 0.7803 1.0000 0.4142
vt 0.5214 1.0000 -0.4142
vt 0.2500 1.0000 -1.0000
vt 0.1250 1.0000 -1.0000
vt 0.2197 1.0000 -0.4142
vt 0.1161 0.0000 0.4142
vt 0.8750 0.2977 1.0000
vt 0.7500 0.2977 1.0000
vt 0.0000 0.2977 1.0000
vt -0.1250 0.2977 1.0000
vt 0.1250 0.2977 1.0000
vt 0.2500 0.2977 1.0000
vt 0.3750 0.2977 1.0000
vt 0.5000 0.2977 1.0000
vt 0.6250 0.2977 1.0000
vt 0.4786 0.0000 0.4142
vt 0.2197 0.0000 -0.4142
vt 0.1250 0.0000 -1.0000
vt 0.2500 0.0000 -1.0000
vt 0.5214 0.0000 -0.4142
vt 0.7803 0.0000 0.4142
vt 0.8750 0.3608 1.0000
vt 0.7500 0.3608 1.0000
vt 0.0000 0.3608 1.0000
vt -0.1250 0.3608 1.0000
vt 0.1250 0.3608 1.0000
vt 0.2500 0.3608 1.0000
vt 0.3750 0.3608 1.0000
vt 0.5000 0.3608 1.0000
vt 0.6250 0.3608 1.0000
vt 0.0000 0.0000 0.0000
vt 1.0000 0.0000 0.0000
vt 1.0000 0.8368 0.0000
vt 0.0000 0.9210 0.0000
vt 1.0000 0.9210 0.0000
vt 0.0000 0.8368 0.0000
# 54 texture coords

o standard_a_boltz
g standard_a_boltz
usemtl 04___Default
s 8
f 1/1/1 2/2/2 3/3/3 4/4/4 
f 2/5/2 5/6/5 6/7/6 3/8/3 
f 5/6/5 7/9/7 8/10/8 6/7/6 
f 7/9/7 9/11/9 10/12/10 8/10/8 
f 9/11/9 11/13/11 12/14/12 10/12/10 
f 11/13/11 13/15/13 14/16/14 12/14/12 
f 13/15/13 15/17/15 16/18/16 14/16/14 
f 15/17/15 1/1/1 4/4/4 16/18/16 
s 1
f 16/18/16 4/4/4 3/3/3 6/19/6 8/20/8 10/21/10 12/22/12 14/23/14 
s off
f 2/5/2 1/24/1 17/24/17 18/5/17 
f 1/24/1 15/17/15 19/17/17 17/24/17 
f 15/17/15 13/15/13 20/15/17 19/17/17 
f 13/15/13 11/13/11 21/13/17 20/15/17 
f 11/13/11 9/11/9 22/11/17 21/13/17 
f 9/11/9 7/9/7 23/9/17 22/11/17 
f 7/9/7 5/6/5 24/6/17 23/9/17 
f 5/6/5 2/5/2 18/5/17 24/6/17 
s 8
f 25/1/18 26/2/19 27/25/20 28/26/21 
f 26/5/19 29/6/22 30/27/23 27/28/20 
f 29/6/22 31/9/24 32/29/25 30/27/23 
f 31/9/24 33/11/26 34/30/27 32/29/25 
f 33/11/26 35/13/28 36/31/29 34/30/27 
f 35/13/28 37/15/30 38/32/31 36/31/29 
f 37/15/30 39/17/32 40/33/33 38/32/31 
f 39/17/32 25/1/18 28/26/21 40/33/33 
s 1
f 41/18/34 42/4/35 43/3/36 44/19/37 45/20/38 46/21/39 47/22/40 48/23/41 
s off
f 49/4/42 50/3/43 43/3/36 42/4/35 
f 50/3/43 51/19/44 44/19/37 43/3/36 
f 51/19/44 52/20/45 45/20/38 44/19/37 
f 52/20/45 53/21/46 46/21/39 45/20/38 
f 53/21/46 54/22/47 47/22/40 46/21/39 
f 54/22/47 55/23/48 48/23/41 47/22/40 
f 55/23/48 56/18/49 41/18/34 48/23/41 
f 56/18/49 49/4/42 42/4/35 41/18/34 
f 26/2/19 25/1/18 57/1/50 58/2/51 
f 25/1/18 39/34/32 59/34/50 57/1/50 
f 39/34/32 37/35/30 60/35/50 59/34/50 
f 37/35/30 35/36/28 61/36/51 60/35/50 
f 35/36/28 33/37/26 62/37/50 61/36/51 
f 33/37/26 31/38/24 63/38/51 62/37/50 
f 31/38/24 29/39/22 64/39/50 63/38/51 
f 29/39/22 26/2/19 58/2/51 64/39/50 
s 8
f 65/1/52 66/2/53 67/40/54 68/41/55 
f 66/5/53 69/6/56 70/42/57 67/43/54 
f 69/6/56 71/9/58 72/44/59 70/42/57 
f 71/9/58 73/11/60 74/45/61 72/44/59 
f 73/11/60 75/13/62 76/46/63 74/45/61 
f 75/13/62 77/15/64 78/47/65 76/46/63 
f 77/15/64 79/17/66 80/48/67 78/47/65 
f 79/17/66 65/1/52 68/41/55 80/48/67 
s 1
f 81/18/34 82/4/35 83/3/68 84/19/37 85/20/38 86/21/39 87/22/40 88/23/69 
s off
f 89/4/42 90/3/43 83/3/68 82/4/35 
f 90/3/43 91/19/70 84/19/37 83/3/68 
f 91/19/70 92/20/45 85/20/38 84/19/37 
f 92/20/45 93/21/46 86/21/39 85/20/38 
f 93/21/46 94/22/47 87/22/40 86/21/39 
f 94/22/47 95/23/71 88/23/69 87/22/40 
f 95/23/71 96/18/49 81/18/34 88/23/69 
f 96/18/49 89/4/42 82/4/35 81/18/34 
f 66/2/53 65/1/52 97/1/50 98/2/51 
f 65/1/52 79/34/66 99/34/50 97/1/50 
f 79/34/66 77/35/64 100/35/50 99/34/50 
f 77/35/64 75/36/62 101/36/51 100/35/50 
f 75/36/62 73/37/60 102/37/50 101/36/51 
f 73/37/60 71/38/58 103/38/50 102/37/50 
f 71/38/58 69/39/56 104/39/50 103/38/50 
f 69/39/56 66/2/53 98/2/51 104/39/50 
f 105/15/72 106/13/73 107/13/73 108/15/72 
f 106/13/73 109/11/74 110/11/74 107/13/73 
s 2
f 111/49/75 112/50/76 113/51/77 114/52/78 
f 115/49/79 116/50/80 117/53/81 118/54/82 
s off
f 119/50/83 120/49/84 121/49/85 122/50/86 
f 120/49/84 123/49/87 124/49/88 121/49/85 
f 123/49/87 125/50/89 126/50/90 124/49/88 
f 125/50/89 119/50/83 122/50/86 126/50/90 
s 8
f 127/1/91 128/4/4 129/3/16 130/2/15 
f 130/5/15 129/8/16 131/7/14 132/6/13 
f 132/6/13 131/7/14 133/10/12 134/9/11 
f 134/9/11 133/10/12 135/12/92 136/11/93 
f 136/11/93 135/12/92 137/14/8 138/13/7 
f 138/13/7 137/14/8 139/16/6 140/15/5 
f 140/15/5 139/16/6 141/18/3 142/17/2 
f 142/17/2 141/18/3 128/4/4 127/1/91 
s 1
f 141/18/3 139/23/6 137/22/8 135/21/92 133/20/12 131/19/14 129/3/16 128/4/4 
s off
f 130/5/15 143/5/17 144/24/17 127/24/91 
f 127/24/91 144/24/17 145/17/17 142/17/2 
f 142/17/2 145/17/17 146/15/17 140/15/5 
f 140/15/5 146/15/17 147/13/17 138/13/7 
f 138/13/7 147/13/17 148/11/17 136/11/93 
f 136/11/93 148/11/17 149/9/17 134/9/11 
f 134/9/11 149/9/17 150/6/17 132/6/13 
f 132/6/13 150/6/17 143/5/17 130/5/15 
s 8
f 151/1/94 152/26/95 153/25/96 154/2/97 
f 154/5/97 153/28/96 155/27/98 156/6/99 
f 156/6/99 155/27/98 157/29/100 158/9/101 
f 158/9/101 157/29/100 159/30/102 160/11/103 
f 160/11/103 159/30/102 161/31/104 162/13/105 
f 162/13/105 161/31/104 163/32/106 164/15/107 
f 164/15/107 163/32/106 165/33/108 166/17/109 
f 166/17/109 165/33/108 152/26/95 151/1/94 
s 1
f 167/18/110 168/23/111 169/22/112 170/21/113 171/20/114 172/19/115 173/3/116 174/4/117 
s off
f 175/4/118 174/4/117 173/3/116 176/3/119 
f 176/3/119 173/3/116 172/19/115 177/19/120 
f 177/19/120 172/19/115 171/20/114 178/20/121 
f 178/20/121 171/20/114 170/21/113 179/21/122 
f 179/21/122 170/21/113 169/22/112 180/22/123 
f 180/22/123 169/22/112 168/23/111 181/23/124 
f 181/23/124 168/23/111 167/18/110 182/18/125 
f 182/18/125 167/18/110 174/4/117 175/4/118 
f 154/2/97 183/2/126 184/1/127 151/1/94 
f 151/1/94 184/1/127 185/34/126 166/34/109 
f 166/34/109 185/34/126 186/35/127 164/35/107 
f 164/35/107 186/35/127 187/36/127 162/36/105 
f 162/36/105 187/36/127 188/37/127 160/37/103 
f 160/37/103 188/37/127 189/38/126 158/38/101 
f 158/38/101 189/38/126 190/39/127 156/39/99 
f 156/39/99 190/39/127 183/2/126 154/2/97 
s 8
f 191/1/128 192/41/129 193/40/130 194/2/131 
f 194/5/131 193/43/130 195/42/132 196/6/133 
f 196/6/133 195/42/132 197/44/134 198/9/135 
f 198/9/135 197/44/134 199/45/136 200/11/137 
f 200/11/137 199/45/136 201/46/138 202/13/139 
f 202/13/139 201/46/138 203/47/140 204/15/141 
f 204/15/141 203/47/140 205/48/142 206/17/143 
f 206/17/143 205/48/142 192/41/129 191/1/128 
s 1
f 207/18/110 208/23/111 209/22/112 210/21/113 211/20/114 212/19/115 213/3/144 214/4/117 
s off
f 215/4/118 214/4/117 213/3/144 216/3/119 
f 216/3/119 213/3/144 212/19/115 217/19/145 
f 217/19/145 212/19/115 211/20/114 218/20/121 
f 218/20/121 211/20/114 210/21/113 219/21/122 
f 219/21/122 210/21/113 209/22/112 220/22/123 
f 220/22/123 209/22/112 208/23/111 221/23/124 
f 221/23/124 208/23/111 207/18/110 222/18/125 
f 222/18/125 207/18/110 214/4/117 215/4/118 
f 194/2/131 223/2/127 224/1/127 191/1/128 
f 191/1/128 224/1/127 225/34/126 206/34/143 
f 206/34/143 225/34/126 226/35/127 204/35/141 
f 204/35/141 226/35/127 227/36/127 202/36/139 
f 202/36/139 227/36/127 228/37/127 200/37/137 
f 200/37/137 228/37/127 229/38/126 198/38/135 
f 198/38/135 229/38/126 230/39/127 196/39/133 
f 196/39/133 230/39/127 223/2/127 194/2/131 
f 231/15/146 232/15/146 233/13/147 234/13/147 
f 234/13/147 233/13/147 110/11/148 109/11/148 
s 2
f 235/49/149 236/52/81 237/51/82 238/50/79 
f 239/49/76 240/54/77 241/53/78 242/50/150 
s off
f 243/50/151 244/50/151 245/49/152 246/49/152 
f 246/49/152 245/49/152 247/49/153 248/49/153 
f 248/49/153 247/49/153 249/50/154 250/50/154 
f 250/50/154 249/50/154 244/50/151 243/50/151 
# 150 polygons

