# 3ds Max Wavefront OBJ Exporter v0.97b - (c)2007 guruware
# File Created: 25.07.2026 01:49:27

mtllib standard_a_ship.mtl

#
# object standard_a_base
#

v  -0.7796 -0.5458 0.1000
v  2.5785 -0.1890 0.1000
v  2.6572 0.0000 0.1000
v  -0.7796 0.0000 0.1000
v  -0.6686 -0.9954 0.2158
v  1.3103 -0.7547 0.0427
v  -0.2657 -1.3749 0.1806
v  0.3942 -1.6767 0.1228
v  -0.0749 -1.9308 0.1639
v  0.0913 -1.9047 0.1493
v  2.6557 -0.2397 0.0499
v  2.8173 0.0000 0.0499
v  -0.8796 0.0000 0.0000
v  -0.8796 -0.5519 0.0000
v  -0.7740 -1.0137 0.1247
v  -0.3746 -1.3862 0.0897
v  -0.1876 -2.0212 0.0734
v  0.1331 -1.9709 0.0453
v  0.4585 -1.7260 0.0168
v  1.3706 -0.8109 -0.0128
v  2.5785 -0.1890 -0.0040
v  1.3012 -0.7547 -0.0609
v  -0.6860 -0.9954 0.0166
v  0.3768 -1.6767 -0.0764
v  -0.2831 -1.3749 -0.0187
v  0.0738 -1.9047 -0.0499
v  -0.0923 -1.9308 -0.0354
v  2.6572 0.0000 -0.0040
v  -0.7796 0.0000 -0.1000
v  -0.7796 -0.5458 -0.1000
v  -0.9954 -0.7017 -0.3907
v  -0.9954 -0.3338 -0.3907
v  1.1802 -0.3338 -0.0645
v  1.1802 -0.7017 -0.0645
v  -0.9954 -0.6654 0.2419
v  1.1802 -0.6289 0.1934
v  1.1802 -0.4066 0.1934
v  -0.9954 -0.3700 0.2419
v  -0.9954 -0.7017 0.1919
v  -0.9954 -0.3338 0.1919
v  1.2386 -0.1886 -0.0000
v  1.2386 -0.1333 0.1840
v  0.2386 -0.1333 0.1840
v  0.2386 -0.1886 0.0000
v  1.2386 0.0000 0.2602
v  0.2386 0.0000 0.2602
v  0.1090 -1.6306 -0.2112
v  1.1766 -1.5457 -0.1995
v  1.1815 -1.6018 -0.2316
v  0.1147 -1.6951 -0.2481
v  0.1067 -1.6039 -0.1218
v  1.1746 -1.5225 -0.1218
v  0.1090 -1.6306 -0.0325
v  1.1766 -1.5457 -0.0442
v  0.1147 -1.6951 0.0045
v  1.1815 -1.6018 -0.0121
v  0.1203 -1.7596 -0.0325
v  1.1864 -1.6578 -0.0442
v  0.1226 -1.7863 -0.1218
v  1.1885 -1.6810 -0.1218
v  0.1203 -1.7596 -0.2112
v  1.1864 -1.6578 -0.1995
v  0.1060 -0.8597 -0.2101
v  1.5231 -0.7435 -0.1995
v  1.5280 -0.7995 -0.2316
v  0.1116 -0.9234 -0.2467
v  0.1037 -0.8333 -0.1218
v  1.5210 -0.7203 -0.1218
v  0.1060 -0.8597 -0.0336
v  1.5231 -0.7435 -0.0442
v  0.1116 -0.9234 0.0030
v  1.5280 -0.7995 -0.0121
v  0.1172 -0.9872 -0.0336
v  1.5329 -0.8556 -0.0442
v  0.1195 -1.0135 -0.1218
v  1.5349 -0.8788 -0.1218
v  0.1172 -0.9872 -0.2101
v  1.5329 -0.8556 -0.1995
v  -0.7796 0.5458 0.1000
v  2.5785 0.1890 0.1000
v  -0.6686 0.9954 0.2158
v  1.3103 0.7547 0.0427
v  0.3942 1.6767 0.1228
v  -0.2657 1.3749 0.1806
v  0.0913 1.9047 0.1493
v  -0.0749 1.9308 0.1639
v  2.6557 0.2397 0.0499
v  -0.8796 0.5519 0.0000
v  -0.7703 1.0137 0.0420
v  -0.3746 1.3862 0.0897
v  -0.1876 2.0212 0.0734
v  0.1331 1.9709 0.0453
v  0.4585 1.7260 0.0168
v  1.3706 0.8109 -0.0128
v  2.5785 0.1890 -0.0040
v  -0.6860 0.9954 0.0166
v  1.3012 0.7547 -0.0609
v  -0.2831 1.3749 -0.0187
v  0.3768 1.6767 -0.0764
v  -0.0923 1.9308 -0.0354
v  0.0738 1.9047 -0.0499
v  -0.7796 0.5458 -0.1000
v  -0.9954 0.7017 -0.3907
v  1.1802 0.7017 -0.0645
v  1.1802 0.3338 -0.0645
v  -0.9954 0.3338 -0.3907
v  -0.9954 0.6654 0.2419
v  -0.9954 0.3700 0.2419
v  1.1802 0.4066 0.1934
v  1.1802 0.6289 0.1934
v  -0.9954 0.3338 0.1919
v  -0.9954 0.7017 0.1919
v  1.2386 0.1886 -0.0000
v  0.2386 0.1886 0.0000
v  0.2386 0.1333 0.1840
v  1.2386 0.1333 0.1840
v  0.1102 1.6238 -0.2112
v  0.1158 1.6883 -0.2481
v  1.1827 1.5949 -0.2316
v  1.1778 1.5389 -0.1995
v  0.1078 1.5971 -0.1218
v  1.1758 1.5157 -0.1218
v  0.1102 1.6238 -0.0325
v  1.1778 1.5389 -0.0442
v  0.1158 1.6883 0.0045
v  1.1827 1.5949 -0.0121
v  0.1215 1.7528 -0.0325
v  1.1876 1.6510 -0.0442
v  0.1238 1.7795 -0.1218
v  1.1896 1.6742 -0.1218
v  0.1215 1.7528 -0.2112
v  1.1876 1.6510 -0.1995
v  0.1102 0.8934 -0.2101
v  0.1158 0.9571 -0.2467
v  1.5322 0.8332 -0.2316
v  1.5273 0.7771 -0.1995
v  0.1079 0.8670 -0.1218
v  1.5252 0.7539 -0.1218
v  0.1102 0.8934 -0.0336
v  1.5273 0.7771 -0.0442
v  0.1158 0.9571 0.0030
v  1.5322 0.8332 -0.0121
v  0.1214 1.0208 -0.0336
v  1.5371 0.8892 -0.0442
v  0.1237 1.0472 -0.1218
v  1.5391 0.9124 -0.1218
v  0.1214 1.0208 -0.2101
v  1.5371 0.8892 -0.1995
# 148 vertices

vn -0.4153 0.0485 0.9084
vn 0.2153 -0.1723 0.9612
vn 0.1781 0.0000 0.9840
vn -0.3826 0.0000 0.9239
vn -0.3417 -0.1083 0.9335
vn 0.2197 -0.2864 0.9326
vn -0.2287 -0.1418 0.9631
vn 0.3841 -0.2547 0.8875
vn -0.0854 -0.3567 0.9303
vn 0.2866 -0.3753 0.8815
vn 0.7396 -0.6726 0.0225
vn 1.0000 0.0000 0.0088
vn -1.0000 0.0000 0.0000
vn -0.9952 -0.0894 -0.0406
vn -0.9194 -0.3723 0.1269
vn -0.8881 -0.4531 0.0777
vn -0.5659 -0.8230 0.0495
vn 0.4841 -0.8740 -0.0424
vn 0.7626 -0.6427 -0.0732
vn 0.6853 -0.7251 -0.0674
vn 0.3477 -0.2370 -0.9072
vn 0.1007 -0.0446 -0.9939
vn -0.4340 -0.2504 -0.8654
vn 0.2392 -0.2295 -0.9434
vn -0.3925 -0.1418 -0.9088
vn 0.1292 -0.3753 -0.9179
vn -0.2457 -0.3567 -0.9013
vn 0.3190 0.0000 -0.9478
vn -0.7071 0.0000 -0.7071
vn -0.4818 -0.1444 -0.8643
vn -0.6527 0.0000 -0.7576
vn 0.1483 0.0000 -0.9889
vn -0.8321 0.0000 0.5546
vn 0.0223 0.0000 0.9998
vn 0.0000 -0.9239 0.3827
vn 0.0000 -0.7071 0.7071
vn 0.0000 0.0000 1.0000
vn -0.0687 0.6974 -0.7134
vn -0.0704 0.7111 -0.6995
vn 0.0137 0.0148 -0.9998
vn 0.0170 -0.0127 -0.9998
vn -0.1046 0.9945 0.0000
vn -0.1046 0.9945 -0.0000
vn -0.0687 0.6974 0.7134
vn -0.0704 0.7111 0.6995
vn 0.0170 -0.0127 0.9998
vn 0.0137 0.0148 0.9998
vn 0.1010 -0.7082 0.6987
vn 0.0993 -0.6945 0.7126
vn 0.1350 -0.9908 -0.0000
vn 0.1010 -0.7082 -0.6987
vn 0.0993 -0.6945 -0.7126
vn -0.0735 0.6970 -0.7133
vn -0.0752 0.7107 -0.6994
vn 0.0089 0.0145 -0.9999
vn 0.0122 -0.0131 -0.9998
vn -0.1094 0.9940 0.0000
vn -0.0735 0.6970 0.7133
vn -0.0752 0.7107 0.6994
vn 0.0122 -0.0131 0.9998
vn 0.0089 0.0145 0.9999
vn 0.0962 -0.7087 0.6989
vn 0.0945 -0.6950 0.7128
vn 0.1303 -0.9915 -0.0000
vn 0.0962 -0.7087 -0.6989
vn 0.0945 -0.6950 -0.7128
vn -0.4153 -0.0485 0.9084
vn 0.2153 0.1723 0.9612
vn -0.4799 0.1724 0.8602
vn 0.2197 0.2864 0.9326
vn 0.3841 0.2547 0.8875
vn -0.2287 0.1418 0.9631
vn 0.2866 0.3753 0.8815
vn -0.0854 0.3567 0.9303
vn 0.7396 0.6726 0.0225
vn -0.9962 0.0857 -0.0138
vn -0.8630 0.3847 -0.3275
vn -0.8900 0.4395 0.1214
vn -0.5659 0.8230 0.0495
vn 0.4841 0.8740 -0.0424
vn 0.7626 0.6427 -0.0732
vn 0.6853 0.7251 -0.0674
vn 0.3477 0.2370 -0.9072
vn -0.1377 0.1282 -0.9821
vn 0.1007 0.0446 -0.9939
vn -0.3925 0.1418 -0.9088
vn 0.2392 0.2295 -0.9434
vn -0.2457 0.3567 -0.9013
vn 0.1292 0.3753 -0.9179
vn -0.4818 0.1444 -0.8643
vn 0.0000 0.9239 0.3827
vn 0.0000 0.7071 0.7071
vn -0.0687 -0.6974 -0.7134
vn 0.0170 0.0127 -0.9998
vn 0.0137 -0.0148 -0.9998
vn -0.0704 -0.7111 -0.6995
vn -0.1046 -0.9945 0.0000
vn -0.1046 -0.9945 -0.0000
vn -0.0687 -0.6974 0.7134
vn -0.0704 -0.7111 0.6995
vn 0.0170 0.0127 0.9998
vn 0.0137 -0.0148 0.9998
vn 0.1010 0.7082 0.6988
vn 0.0993 0.6945 0.7126
vn 0.1350 0.9908 0.0000
vn 0.1350 0.9908 -0.0000
vn 0.1010 0.7082 -0.6987
vn 0.0993 0.6945 -0.7126
vn -0.0735 -0.6970 -0.7133
vn 0.0122 0.0131 -0.9998
vn 0.0089 -0.0145 -0.9999
vn -0.0752 -0.7107 -0.6994
vn -0.1094 -0.9940 0.0000
vn -0.1094 -0.9940 -0.0000
vn -0.0735 -0.6970 0.7133
vn -0.0752 -0.7107 0.6994
vn 0.0122 0.0131 0.9998
vn 0.0089 -0.0145 0.9999
vn 0.0962 0.7087 0.6989
vn 0.0945 0.6950 0.7128
vn 0.1303 0.9915 -0.0000
vn 0.1303 0.9915 0.0000
vn 0.0962 0.7087 -0.6989
vn 0.0945 0.6950 -0.7128
# 124 vertex normals

vt 0.0000 0.0000 0.0000
vt 1.0000 0.0000 0.0000
vt 1.0000 1.0000 0.0000
vt 0.0000 1.0000 0.0000
vt 0.0000 0.0985 0.0000
vt 1.0000 0.0985 0.0000
vt 1.0000 0.9015 0.0000
vt 0.0000 0.9015 0.0000
vt 1.0000 0.9210 0.0000
vt 0.9015 1.0000 0.0000
vt 0.0985 1.0000 0.0000
vt 0.0000 0.9210 0.0000
vt 0.5000 0.0000 1.0000
vt 0.3750 0.0000 1.0000
vt 0.2500 0.0000 1.0000
vt 0.8750 0.2977 1.0000
vt 0.8750 1.0000 1.0000
vt 0.7500 1.0000 1.0000
vt 0.7500 0.2977 1.0000
vt 0.0000 0.2977 1.0000
vt 0.0000 1.0000 1.0000
vt -0.1250 1.0000 1.0000
vt -0.1250 0.2977 1.0000
vt 0.1250 0.2977 1.0000
vt 0.1250 1.0000 1.0000
vt 0.2500 0.2977 1.0000
vt 0.2500 1.0000 1.0000
vt 0.3750 0.2977 1.0000
vt 0.3750 1.0000 1.0000
vt 0.5000 0.2977 1.0000
vt 0.5000 1.0000 1.0000
vt 0.6250 0.2977 1.0000
vt 0.6250 1.0000 1.0000
vt 0.8750 0.3608 1.0000
vt 0.7500 0.3608 1.0000
vt 0.0000 0.3608 1.0000
vt -0.1250 0.3608 1.0000
vt 0.1250 0.3608 1.0000
vt 0.2500 0.3608 1.0000
vt 0.3750 0.3608 1.0000
vt 0.5000 0.3608 1.0000
vt 0.6250 0.3608 1.0000
# 42 texture coords

o standard_a_base
g standard_a_base
usemtl 01___Default
s off
f 1/1/1 2/2/2 3/3/3 4/4/4 
f 2/2/2 5/1/5 6/2/6 
f 6/2/6 5/1/5 7/1/7 8/2/8 
f 8/2/8 7/1/7 9/1/9 10/2/10 
f 11/2/11 12/3/12 3/3/3 2/2/2 
f 13/4/13 14/1/14 1/1/1 4/4/4 
f 14/1/14 15/1/15 5/1/5 1/1/1 
f 15/1/15 16/1/16 7/1/7 5/1/5 
f 16/1/16 17/1/17 9/1/9 7/1/7 
f 17/1/17 18/2/18 10/2/10 9/1/9 
f 18/2/18 19/2/19 8/2/8 10/2/10 
f 19/2/19 20/2/20 6/2/6 8/2/8 
f 20/2/20 11/2/11 2/2/2 6/2/6 
f 21/2/21 22/2/22 23/1/23 
f 22/2/22 24/2/24 25/1/25 23/1/23 
f 24/2/24 26/2/26 27/1/27 25/1/25 
f 11/2/11 21/2/21 28/3/28 12/3/12 
f 13/4/13 29/4/29 30/1/30 14/1/14 
f 14/1/14 30/1/30 23/1/23 15/1/15 
f 15/1/15 23/1/23 25/1/25 16/1/16 
f 16/1/16 25/1/25 27/1/27 17/1/17 
f 17/1/17 27/1/27 26/2/26 18/2/18 
f 18/2/18 26/2/26 24/2/24 19/2/19 
f 19/2/19 24/2/24 22/2/22 20/2/20 
f 20/2/20 22/2/22 21/2/21 11/2/11 
f 31/2/31 32/3/31 33/4/32 34/1/32 
f 35/5/33 36/6/34 37/7/34 38/8/33 
f 32/1/31 31/2/31 39/9/13 35/10/33 38/11/33 40/12/13 
f 41/13/35 42/14/36 43/14/36 44/13/35 
f 42/14/36 45/15/37 46/15/37 43/14/36 
f 47/16/38 48/17/39 49/18/40 50/19/41 
f 51/20/42 52/21/43 48/22/39 47/23/38 
f 53/24/44 54/25/45 52/21/43 51/20/42 
f 55/26/46 56/27/47 54/25/45 53/24/44 
f 57/28/48 58/29/49 56/27/47 55/26/46 
f 59/30/50 60/31/50 58/29/49 57/28/48 
f 61/32/51 62/33/52 60/31/50 59/30/50 
f 50/19/41 49/18/40 62/33/52 61/32/51 
f 63/34/53 64/17/54 65/18/55 66/35/56 
f 67/36/57 68/21/57 64/22/54 63/37/53 
f 69/38/58 70/25/59 68/21/57 67/36/57 
f 71/39/60 72/27/61 70/25/59 69/38/58 
f 73/40/62 74/29/63 72/27/61 71/39/60 
f 75/41/64 76/31/64 74/29/63 73/40/62 
f 77/42/65 78/33/66 76/31/64 75/41/64 
f 66/35/56 65/18/55 78/33/66 77/42/65 
f 79/1/67 4/4/4 3/3/3 80/2/68 
f 80/2/68 81/1/69 79/1/67 
f 82/2/70 83/2/71 84/1/72 81/1/69 
f 83/2/71 85/2/73 86/1/74 84/1/72 
f 87/2/75 80/2/68 3/3/3 12/3/12 
f 13/4/13 4/4/4 79/1/67 88/1/76 
f 88/1/76 79/1/67 81/1/69 89/1/77 
f 89/1/77 81/1/69 84/1/72 90/1/78 
f 90/1/78 84/1/72 86/1/74 91/1/79 
f 91/1/79 86/1/74 85/2/73 92/2/80 
f 92/2/80 85/2/73 83/2/71 93/2/81 
f 93/2/81 83/2/71 82/2/70 94/2/82 
f 94/2/82 82/2/70 80/2/68 87/2/75 
f 95/2/83 96/1/84 97/2/85 
f 97/2/85 96/1/84 98/1/86 99/2/87 
f 99/2/87 98/1/86 100/1/88 101/2/89 
f 87/2/75 12/3/12 28/3/28 95/2/83 
f 13/4/13 88/1/76 102/1/90 29/4/29 
f 88/1/76 89/1/77 96/1/84 102/1/90 
f 89/1/77 90/1/78 98/1/86 96/1/84 
f 90/1/78 91/1/79 100/1/88 98/1/86 
f 91/1/79 92/2/80 101/2/89 100/1/88 
f 92/2/80 93/2/81 99/2/87 101/2/89 
f 93/2/81 94/2/82 97/2/85 99/2/87 
f 94/2/82 87/2/75 95/2/83 97/2/85 
f 103/2/31 104/1/32 105/4/32 106/3/31 
f 107/5/33 108/8/33 109/7/34 110/6/34 
f 106/1/31 111/12/13 108/11/33 107/10/33 112/9/13 103/2/31 
f 113/13/91 114/13/91 115/14/92 116/14/92 
f 116/14/92 115/14/92 46/15/37 45/15/37 
f 117/16/93 118/19/94 119/18/95 120/17/96 
f 121/20/97 117/23/93 120/22/96 122/21/98 
f 123/24/99 121/20/97 122/21/98 124/25/100 
f 125/26/101 123/24/99 124/25/100 126/27/102 
f 127/28/103 125/26/101 126/27/102 128/29/104 
f 129/30/105 127/28/103 128/29/104 130/31/106 
f 131/32/107 129/30/105 130/31/106 132/33/108 
f 118/19/94 131/32/107 132/33/108 119/18/95 
f 133/34/109 134/35/110 135/18/111 136/17/112 
f 137/36/113 133/37/109 136/22/112 138/21/114 
f 139/38/115 137/36/113 138/21/114 140/25/116 
f 141/39/117 139/38/115 140/25/116 142/27/118 
f 143/40/119 141/39/117 142/27/118 144/29/120 
f 145/41/121 143/40/119 144/29/120 146/31/122 
f 147/42/123 145/41/121 146/31/122 148/33/124 
f 134/35/110 147/42/123 148/33/124 135/18/111 
f 80/2/68 82/2/70 81/1/69 
f 2/2/2 1/1/1 5/1/5 
f 23/1/23 30/1/30 21/2/21 
f 95/2/83 102/1/90 96/1/84 
# 88 polygons - 8 triangles

#
# object standard_a_emissive
#

v  1.2386 0.0000 0.2602
v  1.2386 -0.1333 0.1840
v  1.6377 -0.0996 0.1375
v  1.6377 0.0000 0.1944
v  1.2386 -0.1886 -0.0000
v  1.6377 -0.1409 -0.0000
v  1.9244 -0.0555 0.0767
v  1.9244 0.0000 0.1084
v  1.9244 -0.0786 -0.0000
v  -1.2460 -0.6460 -0.2321
v  -1.2460 -0.6987 -0.0568
v  -1.2460 -0.6460 0.1186
v  -1.2460 -0.5189 0.1912
v  -1.2460 -0.3919 0.1186
v  -1.2460 -0.3392 -0.0568
v  -1.2460 -0.3919 -0.2321
v  -1.2460 -0.5189 -0.3048
v  1.1802 -0.7017 -0.0645
v  1.1802 -0.3338 -0.0645
v  1.1802 -0.3793 0.1558
v  1.1802 -0.4066 0.1934
v  1.1802 -0.6289 0.1934
v  1.1802 -0.6561 0.1558
v  -0.3339 -1.7751 -0.1778
v  -0.3325 -1.7918 -0.1218
v  -0.3339 -1.7751 -0.0659
v  -0.3375 -1.7347 -0.0427
v  -0.3410 -1.6942 -0.0659
v  -0.3425 -1.6775 -0.1218
v  -0.3410 -1.6942 -0.1778
v  -0.3375 -1.7347 -0.2010
v  -0.6843 -1.0338 -0.1778
v  -0.6828 -1.0505 -0.1218
v  -0.6843 -1.0338 -0.0659
v  -0.6878 -0.9934 -0.0427
v  -0.6914 -0.9530 -0.0659
v  -0.6928 -0.9362 -0.1218
v  -0.6914 -0.9530 -0.1778
v  -0.6878 -0.9934 -0.2010
v  1.6377 0.0996 0.1375
v  1.2386 0.1333 0.1840
v  1.6377 0.1409 -0.0000
v  1.2386 0.1886 -0.0000
v  1.9244 0.0555 0.0767
v  1.9244 0.0786 -0.0000
v  -1.2460 0.6460 -0.2321
v  -1.2460 0.5189 -0.3048
v  -1.2460 0.3919 -0.2321
v  -1.2460 0.3392 -0.0568
v  -1.2460 0.3919 0.1186
v  -1.2460 0.5189 0.1912
v  -1.2460 0.6460 0.1186
v  -1.2460 0.6987 -0.0568
v  1.1802 0.7017 -0.0645
v  1.1802 0.6561 0.1558
v  1.1802 0.6289 0.1934
v  1.1802 0.4066 0.1934
v  1.1802 0.3793 0.1558
v  1.1802 0.3338 -0.0645
v  -0.6801 1.0674 -0.1778
v  -0.6836 1.0270 -0.2010
v  -0.6872 0.9866 -0.1778
v  -0.6886 0.9699 -0.1218
v  -0.6872 0.9866 -0.0659
v  -0.6836 1.0270 -0.0427
v  -0.6801 1.0674 -0.0659
v  -0.6786 1.0842 -0.1218
v  -0.3328 1.7683 -0.1778
v  -0.3363 1.7278 -0.2010
v  -0.3399 1.6874 -0.1778
v  -0.3413 1.6707 -0.1218
v  -0.3399 1.6874 -0.0659
v  -0.3363 1.7278 -0.0427
v  -0.3328 1.7683 -0.0659
v  -0.3313 1.7850 -0.1218
# 75 vertices

vn 0.1628 0.0000 0.9867
vn 0.1628 -0.6977 0.6977
vn 0.2221 -0.6894 0.6894
vn 0.2221 -0.0000 0.9750
vn 0.1507 -0.9133 0.3783
vn 0.2060 -0.9041 0.3745
vn 0.2873 -0.6773 0.6773
vn 0.2873 0.0000 0.9578
vn 0.2670 -0.8903 0.3688
vn -1.0000 0.0000 -0.0000
vn 1.0000 0.0000 0.0000
vn -0.9980 -0.0633 -0.0000
vn -0.9980 -0.0633 0.0000
vn 0.2221 0.6894 0.6894
vn 0.1628 0.6977 0.6977
vn 0.2060 0.9041 0.3745
vn 0.1507 0.9133 0.3783
vn 0.2873 0.6773 0.6773
vn 0.2670 0.8903 0.3688
vn -0.9980 0.0633 -0.0000
vn -0.9980 0.0633 0.0000
# 21 vertex normals

vt 0.2500 0.0000 1.0000
vt 0.3750 0.0000 1.0000
vt 0.3750 1.0000 1.0000
vt 0.2500 1.0000 1.0000
vt 0.5000 0.0000 1.0000
vt 0.5000 1.0000 1.0000
vt 0.2500 1.0000 -1.0000
vt 0.1250 1.0000 -1.0000
vt 0.2197 1.0000 -0.4142
vt 0.6250 0.0000 1.0000
vt 0.1250 0.0000 1.0000
vt 0.0000 0.0000 1.0000
vt -0.1250 0.0000 1.0000
vt 0.1161 0.0000 0.4142
vt 0.0000 0.0000 0.0000
vt 1.0000 0.0000 0.0000
vt 1.0000 0.8368 0.0000
vt 0.9015 1.0000 0.0000
vt 0.0985 1.0000 0.0000
vt 0.0000 0.8368 0.0000
vt 0.4786 0.0000 0.4142
vt 0.2197 0.0000 -0.4142
vt 0.1250 0.0000 -1.0000
vt 0.2500 0.0000 -1.0000
vt 0.5214 0.0000 -0.4142
vt 0.7803 0.0000 0.4142
vt 0.8750 0.0000 1.0000
vt 0.7500 0.0000 1.0000
# 28 texture coords

o standard_a_emissive
g standard_a_emissive
usemtl 03___Default
s off
f 149/43/125 150/44/126 151/45/127 152/46/128 
f 150/44/126 153/47/129 154/48/130 151/45/127 
f 152/49/128 151/50/127 155/50/131 156/49/132 
f 151/50/127 154/51/130 157/51/133 155/50/131 
f 158/52/134 159/47/134 160/44/134 161/43/134 162/53/134 163/54/134 164/55/134 165/56/134 
f 166/57/135 167/58/135 168/59/135 169/60/135 170/61/135 171/62/135 
f 172/63/136 173/64/136 174/65/137 175/66/136 176/67/136 177/68/136 178/69/137 179/70/137 
f 180/63/136 181/64/136 182/65/137 183/66/137 184/67/136 185/68/136 186/69/137 187/70/136 
f 149/43/125 152/46/128 188/45/138 189/44/139 
f 189/44/139 188/45/138 190/48/140 191/47/141 
f 152/49/128 156/49/132 192/50/142 188/50/138 
f 188/50/138 192/50/142 193/51/143 190/51/140 
f 194/52/134 195/56/134 196/55/134 197/54/134 198/53/134 199/43/134 200/44/134 201/47/134 
f 202/57/135 203/62/135 204/61/135 205/60/135 206/59/135 207/58/135 
f 208/63/144 209/70/144 210/69/145 211/68/144 212/67/144 213/66/145 214/65/145 215/64/144 
f 216/63/144 217/70/144 218/69/145 219/68/145 220/67/145 221/66/144 222/65/145 223/64/144 
# 16 polygons

#
# object standard_a_boltz
#

v  -1.2460 -0.5189 -0.4130
v  -1.2460 -0.3364 -0.3087
v  -0.8998 -0.3967 -0.2254
v  -0.8998 -0.5189 -0.2953
v  -1.2460 -0.2608 -0.0568
v  -0.8998 -0.3461 -0.0568
v  -1.2460 -0.3364 0.1951
v  -0.8998 -0.3967 0.1119
v  -1.2460 -0.5189 0.2995
v  -0.8998 -0.5189 0.1818
v  -1.2460 -0.7015 0.1951
v  -0.8998 -0.6412 0.1119
v  -1.2460 -0.7771 -0.0568
v  -0.8998 -0.6918 -0.0568
v  -1.2460 -0.7015 -0.3087
v  -0.8998 -0.6412 -0.2254
v  -1.2460 -0.5189 -0.3048
v  -1.2460 -0.3919 -0.2321
v  -1.2460 -0.6460 -0.2321
v  -1.2460 -0.6987 -0.0568
v  -1.2460 -0.6460 0.1186
v  -1.2460 -0.5189 0.1912
v  -1.2460 -0.3919 0.1186
v  -1.2460 -0.3392 -0.0568
v  -0.3375 -1.7347 -0.2551
v  -0.3434 -1.6666 -0.2161
v  0.1090 -1.6306 -0.2112
v  0.1147 -1.6951 -0.2481
v  -0.3459 -1.6384 -0.1218
v  0.1067 -1.6039 -0.1218
v  -0.3434 -1.6666 -0.0276
v  0.1090 -1.6306 -0.0325
v  -0.3375 -1.7347 0.0115
v  0.1147 -1.6951 0.0045
v  -0.3315 -1.8027 -0.0276
v  0.1203 -1.7596 -0.0325
v  -0.3291 -1.8309 -0.1218
v  0.1226 -1.7863 -0.1218
v  -0.3315 -1.8027 -0.2161
v  0.1203 -1.7596 -0.2112
v  1.2836 -1.6215 -0.1612
v  1.2811 -1.5931 -0.1775
v  1.2787 -1.5646 -0.1612
v  1.2776 -1.5529 -0.1218
v  1.2787 -1.5646 -0.0825
v  1.2811 -1.5931 -0.0662
v  1.2836 -1.6215 -0.0825
v  1.2847 -1.6332 -0.1218
v  1.1815 -1.6018 -0.2316
v  1.1766 -1.5457 -0.1995
v  1.1746 -1.5225 -0.1218
v  1.1766 -1.5457 -0.0442
v  1.1815 -1.6018 -0.0121
v  1.1864 -1.6578 -0.0442
v  1.1885 -1.6810 -0.1218
v  1.1864 -1.6578 -0.1995
v  -0.3375 -1.7347 -0.2010
v  -0.3410 -1.6942 -0.1778
v  -0.3339 -1.7751 -0.1778
v  -0.3325 -1.7918 -0.1218
v  -0.3339 -1.7751 -0.0659
v  -0.3375 -1.7347 -0.0427
v  -0.3410 -1.6942 -0.0659
v  -0.3425 -1.6775 -0.1218
v  -0.6878 -0.9934 -0.2551
v  -0.6938 -0.9253 -0.2161
v  0.1060 -0.8597 -0.2101
v  0.1116 -0.9234 -0.2467
v  -0.6963 -0.8972 -0.1218
v  0.1037 -0.8333 -0.1218
v  -0.6938 -0.9253 -0.0276
v  0.1060 -0.8597 -0.0336
v  -0.6878 -0.9934 0.0115
v  0.1116 -0.9234 0.0030
v  -0.6819 -1.0614 -0.0276
v  0.1172 -0.9872 -0.0336
v  -0.6794 -1.0896 -0.1218
v  0.1195 -1.0135 -0.1218
v  -0.6819 -1.0614 -0.2161
v  0.1172 -0.9872 -0.2101
v  1.6301 -0.8192 -0.1612
v  1.6276 -0.7908 -0.1775
v  1.6251 -0.7624 -0.1612
v  1.6241 -0.7506 -0.1218
v  1.6251 -0.7624 -0.0825
v  1.6276 -0.7908 -0.0662
v  1.6301 -0.8192 -0.0825
v  1.6311 -0.8310 -0.1218
v  1.5280 -0.7995 -0.2316
v  1.5231 -0.7435 -0.1995
v  1.5210 -0.7203 -0.1218
v  1.5231 -0.7435 -0.0442
v  1.5280 -0.7995 -0.0121
v  1.5329 -0.8556 -0.0442
v  1.5349 -0.8788 -0.1218
v  1.5329 -0.8556 -0.1995
v  -0.6878 -0.9934 -0.2010
v  -0.6914 -0.9530 -0.1778
v  -0.6843 -1.0338 -0.1778
v  -0.6828 -1.0505 -0.1218
v  -0.6843 -1.0338 -0.0659
v  -0.6878 -0.9934 -0.0427
v  -0.6914 -0.9530 -0.0659
v  -0.6928 -0.9362 -0.1218
v  0.2386 -0.1886 0.0000
v  0.2386 -0.1333 0.1840
v  -0.5000 -0.0467 0.0644
v  -0.5000 -0.0660 0.0000
v  0.2386 0.0000 0.2602
v  -0.5000 0.0000 0.0911
v  -0.9954 -0.7017 -0.3907
v  1.1802 -0.7017 -0.0645
v  1.1802 -0.6561 0.1558
v  -0.9954 -0.7017 0.1919
v  1.1802 -0.3338 -0.0645
v  -0.9954 -0.3338 -0.3907
v  -0.9954 -0.3338 0.1919
v  1.1802 -0.3793 0.1558
v  1.1293 -0.7382 0.0514
v  -0.5318 -1.0892 0.1989
v  -0.3441 -1.1245 0.2224
v  0.9195 -0.8575 0.1103
v  -0.1618 -1.3814 0.1689
v  -0.0954 -1.3209 0.2022
v  0.4205 -1.5884 0.1197
v  0.3895 -1.4933 0.1613
v  -1.2460 0.5189 -0.4130
v  -0.8998 0.5189 -0.2953
v  -0.8998 0.3967 -0.2254
v  -1.2460 0.3364 -0.3087
v  -0.8998 0.3461 -0.0568
v  -1.2460 0.2608 -0.0568
v  -0.8998 0.3967 0.1119
v  -1.2460 0.3364 0.1951
v  -0.8998 0.5189 0.1818
v  -1.2460 0.5189 0.2995
v  -0.8998 0.6412 0.1119
v  -1.2460 0.7015 0.1951
v  -0.8998 0.6918 -0.0568
v  -1.2460 0.7771 -0.0568
v  -0.8998 0.6412 -0.2254
v  -1.2460 0.7015 -0.3087
v  -1.2460 0.3919 -0.2321
v  -1.2460 0.5189 -0.3048
v  -1.2460 0.6460 -0.2321
v  -1.2460 0.6987 -0.0568
v  -1.2460 0.6460 0.1186
v  -1.2460 0.5189 0.1912
v  -1.2460 0.3919 0.1186
v  -1.2460 0.3392 -0.0568
v  -0.3363 1.7278 -0.2551
v  0.1158 1.6883 -0.2481
v  0.1102 1.6238 -0.2112
v  -0.3423 1.6598 -0.2161
v  0.1078 1.5971 -0.1218
v  -0.3447 1.6316 -0.1218
v  0.1102 1.6238 -0.0325
v  -0.3423 1.6598 -0.0276
v  0.1158 1.6883 0.0045
v  -0.3363 1.7278 0.0115
v  0.1215 1.7528 -0.0325
v  -0.3304 1.7959 -0.0276
v  0.1238 1.7795 -0.1218
v  -0.3279 1.8241 -0.1218
v  0.1215 1.7528 -0.2112
v  -0.3304 1.7959 -0.2161
v  1.2848 1.6146 -0.1612
v  1.2858 1.6264 -0.1218
v  1.2848 1.6146 -0.0825
v  1.2823 1.5862 -0.0662
v  1.2798 1.5578 -0.0825
v  1.2788 1.5460 -0.1218
v  1.2798 1.5578 -0.1612
v  1.2823 1.5862 -0.1775
v  1.1827 1.5949 -0.2316
v  1.1778 1.5389 -0.1995
v  1.1758 1.5157 -0.1218
v  1.1778 1.5389 -0.0442
v  1.1827 1.5949 -0.0121
v  1.1876 1.6510 -0.0442
v  1.1896 1.6742 -0.1218
v  1.1876 1.6510 -0.1995
v  -0.3399 1.6874 -0.1778
v  -0.3363 1.7278 -0.2010
v  -0.3328 1.7683 -0.1778
v  -0.3313 1.7850 -0.1218
v  -0.3328 1.7683 -0.0659
v  -0.3363 1.7278 -0.0427
v  -0.3399 1.6874 -0.0659
v  -0.3413 1.6707 -0.1218
v  -0.6836 1.0270 -0.2551
v  0.1158 0.9571 -0.2467
v  0.1102 0.8934 -0.2101
v  -0.6896 0.9590 -0.2161
v  0.1079 0.8670 -0.1218
v  -0.6920 0.9308 -0.1218
v  0.1102 0.8934 -0.0336
v  -0.6896 0.9590 -0.0276
v  0.1158 0.9571 0.0030
v  -0.6836 1.0270 0.0115
v  0.1214 1.0208 -0.0336
v  -0.6777 1.0951 -0.0276
v  0.1237 1.0472 -0.1218
v  -0.6752 1.1232 -0.1218
v  0.1214 1.0208 -0.2101
v  -0.6777 1.0951 -0.2161
v  1.6343 0.8529 -0.1612
v  1.6353 0.8646 -0.1218
v  1.6343 0.8529 -0.0825
v  1.6318 0.8245 -0.0662
v  1.6293 0.7960 -0.0825
v  1.6283 0.7843 -0.1218
v  1.6293 0.7960 -0.1612
v  1.6318 0.8245 -0.1775
v  1.5322 0.8332 -0.2316
v  1.5273 0.7771 -0.1995
v  1.5252 0.7539 -0.1218
v  1.5273 0.7771 -0.0442
v  1.5322 0.8332 -0.0121
v  1.5371 0.8892 -0.0442
v  1.5391 0.9124 -0.1218
v  1.5371 0.8892 -0.1995
v  -0.6871 0.9866 -0.1778
v  -0.6836 1.0270 -0.2010
v  -0.6801 1.0674 -0.1778
v  -0.6786 1.0842 -0.1218
v  -0.6801 1.0674 -0.0659
v  -0.6836 1.0270 -0.0427
v  -0.6871 0.9866 -0.0659
v  -0.6886 0.9699 -0.1218
v  0.2386 0.1886 0.0000
v  -0.5000 0.0660 0.0000
v  -0.5000 0.0467 0.0644
v  0.2386 0.1333 0.1840
v  -0.9954 0.7017 -0.3907
v  -0.9954 0.7017 0.1919
v  1.1802 0.6561 0.1558
v  1.1802 0.7017 -0.0645
v  1.1802 0.3338 -0.0645
v  1.1802 0.3793 0.1558
v  -0.9954 0.3338 0.1919
v  -0.9954 0.3338 -0.3907
v  1.1440 0.8208 0.0514
v  0.9246 0.9214 0.1103
v  -0.3574 1.0773 0.2224
v  -0.5414 1.0258 0.1989
v  -0.1268 1.2946 0.2022
v  -0.1982 1.3491 0.1689
v  0.3412 1.5086 0.1613
v  0.3638 1.6061 0.1197
# 250 vertices

vn -0.5040 0.0000 -0.8637
vn -0.5040 0.6107 -0.6107
vn 0.7485 0.4689 -0.4689
vn 0.7485 0.0000 -0.6631
vn -0.5040 0.8637 0.0000
vn 0.7485 0.6631 -0.0000
vn -0.5040 0.6107 0.6107
vn 0.7485 0.4689 0.4689
vn -0.5040 -0.0000 0.8637
vn 0.7485 -0.0000 0.6631
vn -0.5040 -0.6107 0.6107
vn 0.7485 -0.4689 0.4689
vn -0.5040 -0.8637 0.0000
vn 0.7485 -0.6631 -0.0000
vn -0.5040 -0.6107 -0.6107
vn 0.7485 -0.4689 -0.4689
vn -1.0000 0.0000 0.0000
vn -0.6221 -0.0502 -0.7813
vn -0.6722 0.4971 -0.5487
vn -0.0704 0.7111 -0.6995
vn 0.0137 0.0148 -0.9998
vn -0.6929 0.7210 0.0000
vn -0.1046 0.9945 0.0000
vn -0.6722 0.4971 0.5487
vn -0.0704 0.7111 0.6995
vn -0.6221 -0.0502 0.7813
vn 0.0137 0.0148 0.9998
vn -0.5721 -0.6039 0.5550
vn 0.0993 -0.6945 0.7126
vn -0.5514 -0.8342 0.0000
vn 0.1350 -0.9908 -0.0000
vn -0.5721 -0.6039 -0.5550
vn 0.0993 -0.6945 -0.7126
vn 0.8378 -0.3549 -0.4150
vn 0.8017 0.0596 -0.5948
vn 0.7646 0.4843 -0.4252
vn 0.7490 0.6626 -0.0000
vn 0.7646 0.4843 0.4252
vn 0.8017 0.0596 0.5948
vn 0.8378 -0.3549 0.4150
vn 0.8524 -0.5229 0.0000
vn 0.4753 0.0209 -0.8796
vn 0.4064 0.6550 -0.6370
vn 0.3766 0.9264 -0.0000
vn 0.4064 0.6550 0.6370
vn 0.4753 0.0209 0.8796
vn 0.5399 -0.5833 0.6069
vn 0.5654 -0.8248 0.0000
vn 0.5399 -0.5833 -0.6069
vn -0.9980 -0.0633 0.0000
vn -0.9980 -0.0633 -0.0000
vn -0.6239 -0.0504 -0.7798
vn -0.6740 0.4959 -0.5476
vn -0.0752 0.7107 -0.6995
vn 0.0089 0.0145 -0.9999
vn -0.6946 0.7194 0.0000
vn -0.1094 0.9940 -0.0000
vn -0.6740 0.4959 0.5476
vn -0.0752 0.7107 0.6995
vn -0.6239 -0.0504 0.7798
vn 0.0089 0.0145 0.9999
vn -0.5740 -0.6030 0.5540
vn 0.0945 -0.6950 0.7128
vn -0.5533 -0.8330 -0.0000
vn 0.1303 -0.9915 0.0000
vn -0.5740 -0.6030 -0.5540
vn 0.0945 -0.6950 -0.7128
vn 0.7646 0.4843 -0.4253
vn 0.8524 -0.5229 -0.0000
vn 0.3766 0.9264 0.0000
vn 0.5654 -0.8248 -0.0000
vn -0.2070 -0.9039 0.3744
vn -0.2232 -0.6893 0.6893
vn -0.2070 -0.3744 0.9039
vn 0.0000 -1.0000 0.0000
vn -0.0411 -0.9608 0.2740
vn 0.0323 -0.9612 0.2741
vn 0.0289 -0.9996 -0.0000
vn -0.0411 0.9608 0.2740
vn 0.0000 1.0000 -0.0000
vn 0.0289 0.9996 -0.0000
vn 0.0323 0.9612 0.2741
vn 0.2001 0.0935 0.9753
vn -0.1092 0.0589 0.9923
vn -0.1070 0.0672 0.9920
vn 0.2014 0.0918 0.9752
vn -0.1292 -0.2778 0.9519
vn -0.1286 -0.2783 0.9519
vn 0.1600 -0.2637 0.9512
vn 0.1702 -0.2610 0.9502
vn -0.5040 -0.0000 -0.8637
vn 0.7485 0.0000 0.6631
vn -0.5040 0.0000 0.8637
vn -0.6221 0.0502 -0.7813
vn 0.0137 -0.0148 -0.9998
vn -0.0704 -0.7111 -0.6995
vn -0.6722 -0.4971 -0.5487
vn -0.1046 -0.9945 0.0000
vn -0.6929 -0.7210 0.0000
vn -0.0704 -0.7111 0.6995
vn -0.6722 -0.4971 0.5487
vn 0.0137 -0.0148 0.9998
vn -0.6221 0.0502 0.7813
vn 0.0993 0.6945 0.7126
vn -0.5721 0.6039 0.5550
vn 0.1350 0.9908 0.0000
vn -0.5514 0.8342 -0.0000
vn 0.0993 0.6945 -0.7126
vn -0.5721 0.6039 -0.5550
vn 0.8378 0.3549 -0.4150
vn 0.8524 0.5229 -0.0000
vn 0.8378 0.3549 0.4150
vn 0.8017 -0.0596 0.5948
vn 0.7646 -0.4843 0.4252
vn 0.7490 -0.6626 -0.0000
vn 0.7646 -0.4843 -0.4252
vn 0.8017 -0.0596 -0.5948
vn 0.4753 -0.0209 -0.8796
vn 0.4064 -0.6550 -0.6370
vn 0.3766 -0.9264 -0.0000
vn 0.4064 -0.6550 0.6370
vn 0.4753 -0.0209 0.8796
vn 0.5399 0.5833 0.6069
vn 0.5654 0.8248 -0.0000
vn 0.5399 0.5833 -0.6069
vn -0.9980 0.0633 -0.0000
vn -0.9980 0.0633 0.0000
vn -0.6239 0.0504 -0.7798
vn 0.0089 -0.0145 -0.9999
vn -0.0752 -0.7107 -0.6995
vn -0.6740 -0.4959 -0.5476
vn -0.1094 -0.9940 -0.0000
vn -0.6946 -0.7194 0.0000
vn -0.0752 -0.7107 0.6995
vn -0.6740 -0.4959 0.5476
vn 0.0089 -0.0145 0.9999
vn -0.6239 0.0504 0.7798
vn 0.0945 0.6950 0.7128
vn -0.5740 0.6030 0.5540
vn 0.1303 0.9915 -0.0000
vn -0.5533 0.8330 0.0000
vn 0.0945 0.6950 -0.7128
vn -0.5740 0.6030 -0.5540
vn 0.7646 -0.4843 -0.4253
vn 0.3766 -0.9264 0.0000
vn -0.2070 0.9039 0.3744
vn -0.2232 0.6893 0.6893
vn -0.2070 0.3744 0.9039
vn 0.0000 1.0000 0.0000
vn 0.0000 -1.0000 -0.0000
vn 0.2118 -0.0782 0.9742
vn -0.0990 -0.0726 0.9924
vn -0.1614 0.2683 0.9497
vn 0.1363 0.2718 0.9527
# 154 vertex normals

vt 0.7500 0.0000 1.0000
vt 0.8750 0.0000 1.0000
vt 0.8750 1.0000 1.0000
vt 0.7500 1.0000 1.0000
vt -0.1250 0.0000 1.0000
vt 0.0000 0.0000 1.0000
vt 0.0000 1.0000 1.0000
vt -0.1250 1.0000 1.0000
vt 0.1250 0.0000 1.0000
vt 0.1250 1.0000 1.0000
vt 0.2500 0.0000 1.0000
vt 0.2500 1.0000 1.0000
vt 0.3750 0.0000 1.0000
vt 0.3750 1.0000 1.0000
vt 0.5000 0.0000 1.0000
vt 0.5000 1.0000 1.0000
vt 0.6250 0.0000 1.0000
vt 0.6250 1.0000 1.0000
vt 0.7803 1.0000 0.4142
vt 0.5214 1.0000 -0.4142
vt 0.2500 1.0000 -1.0000
vt 0.1250 1.0000 -1.0000
vt 0.2197 1.0000 -0.4142
vt 0.1161 0.0000 0.4142
vt 0.8750 0.2977 1.0000
vt 0.7500 0.2977 1.0000
vt 0.0000 0.2977 1.0000
vt -0.1250 0.2977 1.0000
vt 0.1250 0.2977 1.0000
vt 0.2500 0.2977 1.0000
vt 0.3750 0.2977 1.0000
vt 0.5000 0.2977 1.0000
vt 0.6250 0.2977 1.0000
vt 0.4786 0.0000 0.4142
vt 0.2197 0.0000 -0.4142
vt 0.1250 0.0000 -1.0000
vt 0.2500 0.0000 -1.0000
vt 0.5214 0.0000 -0.4142
vt 0.7803 0.0000 0.4142
vt 0.8750 0.3608 1.0000
vt 0.7500 0.3608 1.0000
vt 0.0000 0.3608 1.0000
vt -0.1250 0.3608 1.0000
vt 0.1250 0.3608 1.0000
vt 0.2500 0.3608 1.0000
vt 0.3750 0.3608 1.0000
vt 0.5000 0.3608 1.0000
vt 0.6250 0.3608 1.0000
vt 0.0000 0.0000 0.0000
vt 1.0000 0.0000 0.0000
vt 1.0000 0.8368 0.0000
vt 0.0000 0.9210 0.0000
vt 1.0000 0.9210 0.0000
vt 0.0000 0.8368 0.0000
# 54 texture coords

o standard_a_boltz
g standard_a_boltz
usemtl 04___Default
s off
f 224/71/146 225/72/147 226/73/148 227/74/149 
f 225/75/147 228/76/150 229/77/151 226/78/148 
f 228/76/150 230/79/152 231/80/153 229/77/151 
f 230/79/152 232/81/154 233/82/155 231/80/153 
f 232/81/154 234/83/156 235/84/157 233/82/155 
f 234/83/156 236/85/158 237/86/159 235/84/157 
f 236/85/158 238/87/160 239/88/161 237/86/159 
f 238/87/160 224/71/146 227/74/149 239/88/161 
f 239/88/161 227/74/149 226/73/148 229/89/151 231/90/153 233/91/155 235/92/157 237/93/159 
f 225/75/147 224/94/146 240/94/162 241/75/162 
f 224/94/146 238/87/160 242/87/162 240/94/162 
f 238/87/160 236/85/158 243/85/162 242/87/162 
f 236/85/158 234/83/156 244/83/162 243/85/162 
f 234/83/156 232/81/154 245/81/162 244/83/162 
f 232/81/154 230/79/152 246/79/162 245/81/162 
f 230/79/152 228/76/150 247/76/162 246/79/162 
f 228/76/150 225/75/147 241/75/162 247/76/162 
f 248/71/163 249/72/164 250/95/165 251/96/166 
f 249/75/164 252/76/167 253/97/168 250/98/165 
f 252/76/167 254/79/169 255/99/170 253/97/168 
f 254/79/169 256/81/171 257/100/172 255/99/170 
f 256/81/171 258/83/173 259/101/174 257/100/172 
f 258/83/173 260/85/175 261/102/176 259/101/174 
f 260/85/175 262/87/177 263/103/178 261/102/176 
f 262/87/177 248/71/163 251/96/166 263/103/178 
f 264/88/179 265/74/180 266/73/181 267/89/182 268/90/183 269/91/184 270/92/185 271/93/186 
f 272/74/187 273/73/188 266/73/181 265/74/180 
f 273/73/188 274/89/189 267/89/182 266/73/181 
f 274/89/189 275/90/190 268/90/183 267/89/182 
f 275/90/190 276/91/191 269/91/184 268/90/183 
f 276/91/191 277/92/192 270/92/185 269/91/184 
f 277/92/192 278/93/193 271/93/186 270/92/185 
f 278/93/193 279/88/194 264/88/179 271/93/186 
f 279/88/194 272/74/187 265/74/180 264/88/179 
f 249/72/164 248/71/163 280/71/195 281/72/196 
f 248/71/163 262/104/177 282/104/195 280/71/195 
f 262/104/177 260/105/175 283/105/195 282/104/195 
f 260/105/175 258/106/173 284/106/196 283/105/195 
f 258/106/173 256/107/171 285/107/195 284/106/196 
f 256/107/171 254/108/169 286/108/196 285/107/195 
f 254/108/169 252/109/167 287/109/195 286/108/196 
f 252/109/167 249/72/164 281/72/196 287/109/195 
f 288/71/197 289/72/198 290/110/199 291/111/200 
f 289/75/198 292/76/201 293/112/202 290/113/199 
f 292/76/201 294/79/203 295/114/204 293/112/202 
f 294/79/203 296/81/205 297/115/206 295/114/204 
f 296/81/205 298/83/207 299/116/208 297/115/206 
f 298/83/207 300/85/209 301/117/210 299/116/208 
f 300/85/209 302/87/211 303/118/212 301/117/210 
f 302/87/211 288/71/197 291/111/200 303/118/212 
f 304/88/179 305/74/180 306/73/213 307/89/182 308/90/183 309/91/184 310/92/185 311/93/214 
f 312/74/187 313/73/188 306/73/213 305/74/180 
f 313/73/188 314/89/215 307/89/182 306/73/213 
f 314/89/215 315/90/190 308/90/183 307/89/182 
f 315/90/190 316/91/191 309/91/184 308/90/183 
f 316/91/191 317/92/192 310/92/185 309/91/184 
f 317/92/192 318/93/216 311/93/214 310/92/185 
f 318/93/216 319/88/194 304/88/179 311/93/214 
f 319/88/194 312/74/187 305/74/180 304/88/179 
f 289/72/198 288/71/197 320/71/195 321/72/196 
f 288/71/197 302/104/211 322/104/195 320/71/195 
f 302/104/211 300/105/209 323/105/195 322/104/195 
f 300/105/209 298/106/207 324/106/196 323/105/195 
f 298/106/207 296/107/205 325/107/195 324/106/196 
f 296/107/205 294/108/203 326/108/195 325/107/195 
f 294/108/203 292/109/201 327/109/195 326/108/195 
f 292/109/201 289/72/198 321/72/196 327/109/195 
f 328/85/217 329/83/218 330/83/218 331/85/217 
f 329/83/218 332/81/219 333/81/219 330/83/218 
f 334/119/220 335/120/221 336/121/222 337/122/223 
f 338/119/224 339/120/225 340/123/226 341/124/227 
f 342/120/228 343/119/229 344/119/230 345/120/231 
f 343/119/229 346/119/232 347/119/233 344/119/230 
f 346/119/232 348/120/234 349/120/235 347/119/233 
f 348/120/234 342/120/228 345/120/231 349/120/235 
f 350/71/236 351/74/149 352/73/161 353/72/160 
f 353/75/160 352/78/161 354/77/159 355/76/158 
f 355/76/158 354/77/159 356/80/157 357/79/156 
f 357/79/156 356/80/157 358/82/237 359/81/238 
f 359/81/238 358/82/237 360/84/153 361/83/152 
f 361/83/152 360/84/153 362/86/151 363/85/150 
f 363/85/150 362/86/151 364/88/148 365/87/147 
f 365/87/147 364/88/148 351/74/149 350/71/236 
f 364/88/148 362/93/151 360/92/153 358/91/237 356/90/157 354/89/159 352/73/161 351/74/149 
f 353/75/160 366/75/162 367/94/162 350/94/236 
f 350/94/236 367/94/162 368/87/162 365/87/147 
f 365/87/147 368/87/162 369/85/162 363/85/150 
f 363/85/150 369/85/162 370/83/162 361/83/152 
f 361/83/152 370/83/162 371/81/162 359/81/238 
f 359/81/238 371/81/162 372/79/162 357/79/156 
f 357/79/156 372/79/162 373/76/162 355/76/158 
f 355/76/158 373/76/162 366/75/162 353/75/160 
f 374/71/239 375/96/240 376/95/241 377/72/242 
f 377/75/242 376/98/241 378/97/243 379/76/244 
f 379/76/244 378/97/243 380/99/245 381/79/246 
f 381/79/246 380/99/245 382/100/247 383/81/248 
f 383/81/248 382/100/247 384/101/249 385/83/250 
f 385/83/250 384/101/249 386/102/251 387/85/252 
f 387/85/252 386/102/251 388/103/253 389/87/254 
f 389/87/254 388/103/253 375/96/240 374/71/239 
f 390/88/255 391/93/256 392/92/257 393/91/258 394/90/259 395/89/260 396/73/261 397/74/262 
f 398/74/263 397/74/262 396/73/261 399/73/264 
f 399/73/264 396/73/261 395/89/260 400/89/265 
f 400/89/265 395/89/260 394/90/259 401/90/266 
f 401/90/266 394/90/259 393/91/258 402/91/267 
f 402/91/267 393/91/258 392/92/257 403/92/268 
f 403/92/268 392/92/257 391/93/256 404/93/269 
f 404/93/269 391/93/256 390/88/255 405/88/270 
f 405/88/270 390/88/255 397/74/262 398/74/263 
f 377/72/242 406/72/271 407/71/272 374/71/239 
f 374/71/239 407/71/272 408/104/271 389/104/254 
f 389/104/254 408/104/271 409/105/272 387/105/252 
f 387/105/252 409/105/272 410/106/272 385/106/250 
f 385/106/250 410/106/272 411/107/272 383/107/248 
f 383/107/248 411/107/272 412/108/271 381/108/246 
f 381/108/246 412/108/271 413/109/272 379/109/244 
f 379/109/244 413/109/272 406/72/271 377/72/242 
f 414/71/273 415/111/274 416/110/275 417/72/276 
f 417/75/276 416/113/275 418/112/277 419/76/278 
f 419/76/278 418/112/277 420/114/279 421/79/280 
f 421/79/280 420/114/279 422/115/281 423/81/282 
f 423/81/282 422/115/281 424/116/283 425/83/284 
f 425/83/284 424/116/283 426/117/285 427/85/286 
f 427/85/286 426/117/285 428/118/287 429/87/288 
f 429/87/288 428/118/287 415/111/274 414/71/273 
f 430/88/255 431/93/256 432/92/257 433/91/258 434/90/259 435/89/260 436/73/289 437/74/262 
f 438/74/263 437/74/262 436/73/289 439/73/264 
f 439/73/264 436/73/289 435/89/260 440/89/290 
f 440/89/290 435/89/260 434/90/259 441/90/266 
f 441/90/266 434/90/259 433/91/258 442/91/267 
f 442/91/267 433/91/258 432/92/257 443/92/268 
f 443/92/268 432/92/257 431/93/256 444/93/269 
f 444/93/269 431/93/256 430/88/255 445/88/270 
f 445/88/270 430/88/255 437/74/262 438/74/263 
f 417/72/276 446/72/272 447/71/272 414/71/273 
f 414/71/273 447/71/272 448/104/271 429/104/288 
f 429/104/288 448/104/271 449/105/272 427/105/286 
f 427/105/286 449/105/272 450/106/272 425/106/284 
f 425/106/284 450/106/272 451/107/272 423/107/282 
f 423/107/282 451/107/272 452/108/271 421/108/280 
f 421/108/280 452/108/271 453/109/272 419/109/278 
f 419/109/278 453/109/272 446/72/272 417/72/276 
f 454/85/291 455/85/291 456/83/292 457/83/292 
f 457/83/292 456/83/292 333/81/293 332/81/293 
f 458/119/294 459/122/226 460/121/227 461/120/224 
f 462/119/221 463/124/222 464/123/223 465/120/295 
f 466/120/296 467/120/296 468/119/297 469/119/297 
f 469/119/297 468/119/297 470/119/298 471/119/298 
f 471/119/298 470/119/298 472/120/299 473/120/299 
f 473/120/299 472/120/299 467/120/296 466/120/296 
# 150 polygons

#
# object standard_a_color
#

v  -0.9954 -0.6654 0.2419
v  -0.9954 -0.7017 0.1919
v  1.1802 -0.6561 0.1558
v  1.1802 -0.6289 0.1934
v  1.1802 -0.4066 0.1934
v  1.1802 -0.3793 0.1558
v  -0.9954 -0.3338 0.1919
v  -0.9954 -0.3700 0.2419
v  0.9246 -0.9214 0.1103
v  -0.3574 -1.0773 0.2224
v  -0.1268 -1.2946 0.2022
v  0.3412 -1.5086 0.1613
v  -0.7796 -0.5458 -0.1000
v  -0.7796 0.0000 -0.1000
v  2.6572 0.0000 -0.0040
v  2.5785 -0.1890 -0.0040
v  -0.9954 0.6654 0.2419
v  1.1802 0.6289 0.1934
v  1.1802 0.6561 0.1558
v  -0.9954 0.7017 0.1919
v  1.1802 0.4066 0.1934
v  -0.9954 0.3700 0.2419
v  -0.9954 0.3338 0.1919
v  1.1802 0.3793 0.1558
v  0.9246 0.9214 0.1103
v  0.3412 1.5086 0.1613
v  -0.1268 1.2946 0.2022
v  -0.3574 1.0773 0.2224
v  -0.7796 0.5458 -0.1000
v  2.5785 0.1890 -0.0040
# 30 vertices

vn 0.0321 -0.7067 0.7067
vn 0.0321 0.7067 0.7067
vn 0.0872 0.0000 0.9962
vn 0.0286 0.0000 -0.9996
vn 0.0279 0.0000 -0.9996
vn 0.0279 -0.0084 -0.9996
vn 0.0299 -0.0090 -0.9995
vn 0.0872 -0.0000 0.9962
vn 0.0299 0.0090 -0.9995
vn 0.0279 0.0084 -0.9996
# 10 vertex normals

vt 0.0061 0.9461 0.0000
vt 0.0000 0.9210 0.0000
vt 1.0000 0.8368 0.0000
vt 1.0037 0.9339 0.0000
vt -0.0037 0.9339 0.0000
vt 0.0000 0.8368 0.0000
vt 1.0000 0.9210 0.0000
vt 0.9939 0.9461 0.0000
vt 1.0000 0.0000 0.0000
vt 0.0000 0.0000 0.0000
vt 0.0000 1.0000 0.0000
vt 1.0000 1.0000 0.0000
# 12 texture coords

o standard_a_color
g standard_a_color
usemtl 02___Default
s off
f 474/125/300 475/126/300 476/127/300 477/128/300 
f 478/129/301 479/130/301 480/131/301 481/132/301 
f 482/133/302 483/134/302 484/134/302 485/133/302 
f 486/134/303 487/135/304 488/136/305 489/133/306 
f 490/125/301 491/128/301 492/127/301 493/126/301 
f 494/129/300 495/132/300 496/131/300 497/130/300 
f 498/133/307 499/133/307 500/134/307 501/134/307 
f 502/134/303 503/133/308 488/136/309 487/135/304 
# 8 polygons

