# 3ds Max Wavefront OBJ Exporter v0.97b - (c)2007 guruware
# File Created: 23.07.2026 16:45:52

mtllib stargate_a_base.mtl

#
# object stargate_a_base
#

v  1.5853 15.6735 -0.0000
v  3.4666 14.8942 -0.0000
v  3.4666 14.3867 -3.8549
v  1.5853 15.1394 -4.0566
v  3.4666 7.9610 -0.0000
v  0.2265 6.6189 -0.0000
v  0.2265 6.3934 -1.7131
v  3.4666 7.6898 -2.0605
v  -0.2265 6.6189 0.0000
v  -3.4666 7.9610 0.0000
v  -3.4666 7.6898 -2.0605
v  -0.2265 6.3934 -1.7131
v  -3.4666 14.8942 0.0000
v  -1.5853 15.6735 0.0000
v  -1.5853 15.1394 -4.0566
v  -3.4666 14.3867 -3.8549
v  3.4666 12.8988 -7.4471
v  1.5853 13.5736 -7.8367
v  0.2265 5.7322 -3.3095
v  3.4666 6.8945 -3.9805
v  -3.4666 6.8945 -3.9805
v  -0.2265 5.7322 -3.3095
v  -1.5853 13.5736 -7.8367
v  -3.4666 12.8988 -7.4471
v  3.4666 10.5318 -10.5318
v  1.5853 11.0828 -11.0828
v  0.2265 4.6803 -4.6803
v  3.4666 5.6293 -5.6293
v  -3.4666 5.6293 -5.6293
v  -0.2265 4.6803 -4.6803
v  -1.5853 11.0828 -11.0828
v  -3.4666 10.5318 -10.5318
v  3.4666 7.4471 -12.8988
v  1.5853 7.8367 -13.5736
v  0.2265 3.3095 -5.7322
v  3.4666 3.9805 -6.8945
v  -3.4666 3.9805 -6.8945
v  -0.2265 3.3095 -5.7322
v  -1.5853 7.8367 -13.5736
v  -3.4666 7.4471 -12.8988
v  3.4666 3.8549 -14.3867
v  1.5853 4.0566 -15.1394
v  0.2265 1.7131 -6.3934
v  3.4666 2.0605 -7.6898
v  -3.4666 2.0605 -7.6898
v  -0.2265 1.7131 -6.3934
v  -1.5853 4.0566 -15.1394
v  -3.4666 3.8549 -14.3867
v  3.4666 0.0000 -14.8942
v  1.5853 0.0000 -15.6735
v  0.2265 0.0000 -6.6189
v  3.4666 0.0000 -7.9610
v  -3.4666 0.0000 -7.9610
v  -0.2265 0.0000 -6.6189
v  -1.5853 0.0000 -15.6735
v  -3.4666 0.0000 -14.8942
v  4.9025 11.4276 -0.0000
v  4.7135 11.8194 -0.4896
v  3.6556 14.3735 -0.4896
v  4.9025 11.0382 -2.9577
v  4.7135 11.5434 -2.5861
v  3.6556 14.0105 -3.2472
v  3.6556 8.3528 -0.4896
v  4.7135 10.9069 -0.4896
v  3.6556 8.1949 -1.6889
v  4.7135 10.6620 -2.3500
v  -4.9025 11.4276 0.0000
v  -4.7135 10.9069 -0.4896
v  -3.6556 8.3528 -0.4896
v  -4.9025 11.0382 -2.9577
v  -4.7135 10.6620 -2.3500
v  -3.6556 8.1949 -1.6889
v  -3.6556 14.3735 -0.4896
v  -4.7135 11.8194 -0.4896
v  -3.6556 14.0105 -3.2472
v  -4.7135 11.5434 -2.5861
v  4.7135 11.2900 -3.5320
v  3.6556 13.7570 -4.1931
v  4.9025 9.8966 -5.7138
v  4.7135 10.4807 -5.4857
v  3.6556 12.6926 -6.7627
v  3.6556 7.9415 -2.6348
v  4.7135 10.4085 -3.2959
v  3.6556 7.4786 -3.7524
v  4.7135 9.6905 -5.0294
v  -4.7135 10.4085 -3.2959
v  -3.6556 7.9415 -2.6348
v  -4.9025 9.8966 -5.7138
v  -4.7135 9.6905 -5.0294
v  -3.6556 7.4786 -3.7524
v  -3.6556 13.7570 -4.1931
v  -4.7135 11.2900 -3.5320
v  -3.6556 12.6926 -6.7627
v  -4.7135 10.4807 -5.4857
v  4.7135 9.9911 -6.3337
v  3.6556 12.2030 -7.6108
v  4.9025 8.0806 -8.0806
v  4.7135 8.7038 -8.0114
v  3.6556 10.5098 -9.8174
v  3.6556 6.9890 -4.6005
v  4.7135 9.2008 -5.8775
v  3.6556 6.2526 -5.5601
v  4.7135 8.0586 -7.3661
v  -4.7135 9.2008 -5.8775
v  -3.6556 6.9890 -4.6005
v  -4.9025 8.0806 -8.0806
v  -4.7135 8.0586 -7.3661
v  -3.6556 6.2526 -5.5601
v  -3.6556 12.2030 -7.6108
v  -4.7135 9.9911 -6.3337
v  -3.6556 10.5098 -9.8174
v  -4.7135 8.7038 -8.0114
v  4.7135 8.0114 -8.7038
v  3.6556 9.8174 -10.5098
v  4.9025 5.7138 -9.8966
v  4.7135 6.3337 -9.9911
v  3.6556 7.6108 -12.2030
v  3.6556 5.5601 -6.2526
v  4.7135 7.3661 -8.0586
v  3.6556 4.6005 -6.9890
v  4.7135 5.8775 -9.2008
v  -4.7135 7.3661 -8.0586
v  -3.6556 5.5601 -6.2526
v  -4.9025 5.7138 -9.8966
v  -4.7135 5.8775 -9.2008
v  -3.6556 4.6005 -6.9890
v  -3.6556 9.8174 -10.5098
v  -4.7135 8.0114 -8.7038
v  -3.6556 7.6108 -12.2030
v  -4.7135 6.3337 -9.9911
v  4.7135 5.4857 -10.4807
v  3.6556 6.7627 -12.6926
v  4.9025 2.9577 -11.0382
v  4.7135 3.5320 -11.2900
v  3.6556 4.1931 -13.7570
v  3.6556 3.7524 -7.4786
v  4.7135 5.0294 -9.6905
v  3.6556 2.6348 -7.9415
v  4.7135 3.2959 -10.4085
v  -4.7135 5.0294 -9.6905
v  -3.6556 3.7524 -7.4786
v  -4.9025 2.9577 -11.0382
v  -4.7135 3.2959 -10.4085
v  -3.6556 2.6348 -7.9415
v  -3.6556 6.7627 -12.6926
v  -4.7135 5.4857 -10.4807
v  -3.6556 4.1931 -13.7570
v  -4.7135 3.5320 -11.2900
v  4.7135 2.5861 -11.5434
v  3.6556 3.2472 -14.0105
v  4.9025 0.0000 -11.4276
v  4.7135 0.4896 -11.8194
v  3.6556 0.4896 -14.3735
v  3.6556 1.6889 -8.1949
v  4.7135 2.3500 -10.6620
v  3.6556 0.4896 -8.3528
v  4.7135 0.4896 -10.9069
v  -4.7135 2.3500 -10.6620
v  -3.6556 1.6889 -8.1949
v  -4.9025 0.0000 -11.4276
v  -4.7135 0.4896 -10.9069
v  -3.6556 0.4896 -8.3528
v  -3.6556 3.2472 -14.0105
v  -4.7135 2.5861 -11.5434
v  -3.6556 0.4896 -14.3735
v  -4.7135 0.4896 -11.8194
v  3.5826 11.3510 -0.4280
v  2.5247 13.9051 -0.4280
v  3.5826 11.0750 -2.5245
v  2.5247 13.5420 -3.1855
v  2.5247 8.8213 -0.5513
v  3.5826 11.3753 -0.5513
v  2.5247 8.6634 -1.7506
v  3.5826 11.1304 -2.4116
v  -3.5826 11.3753 -0.5513
v  -2.5247 8.8213 -0.5513
v  -3.5826 11.1304 -2.4116
v  -2.5247 8.6634 -1.7506
v  -2.5247 13.9051 -0.4280
v  -3.5826 11.3510 -0.4280
v  -2.5247 13.5420 -3.1855
v  -3.5826 11.0750 -2.5245
v  3.5826 10.8535 -3.3512
v  2.5247 13.3205 -4.0123
v  3.5826 10.0442 -5.3049
v  2.5247 12.2561 -6.5819
v  2.5247 8.3780 -2.8156
v  3.5826 10.8450 -3.4767
v  2.5247 7.9151 -3.9332
v  3.5826 10.1270 -5.2102
v  -3.5826 10.8450 -3.4767
v  -2.5247 8.3780 -2.8156
v  -3.5826 10.1270 -5.2102
v  -2.5247 7.9151 -3.9332
v  -2.5247 13.3205 -4.0123
v  -3.5826 10.8535 -3.3512
v  -2.5247 12.2561 -6.5819
v  -3.5826 10.0442 -5.3049
v  3.5826 9.6163 -6.0461
v  2.5247 11.8282 -7.3232
v  3.5826 8.3290 -7.7238
v  2.5247 10.1350 -9.5298
v  2.5247 7.3638 -4.8881
v  3.5826 9.5757 -6.1651
v  2.5247 6.6274 -5.8478
v  3.5826 8.4334 -7.6538
v  -3.5826 9.5757 -6.1651
v  -2.5247 7.3638 -4.8881
v  -3.5826 8.4334 -7.6538
v  -2.5247 6.6274 -5.8478
v  -2.5247 11.8282 -7.3232
v  -3.5826 9.6163 -6.0461
v  -2.5247 10.1350 -9.5298
v  -3.5826 8.3290 -7.7238
v  3.5826 7.7238 -8.3290
v  2.5247 9.5298 -10.1350
v  3.5826 6.0461 -9.6163
v  2.5247 7.3232 -11.8282
v  2.5247 5.8478 -6.6274
v  3.5826 7.6538 -8.4334
v  2.5247 4.8881 -7.3638
v  3.5826 6.1651 -9.5757
v  -3.5826 7.6538 -8.4334
v  -2.5247 5.8478 -6.6274
v  -3.5826 6.1651 -9.5757
v  -2.5247 4.8881 -7.3638
v  -2.5247 9.5298 -10.1350
v  -3.5826 7.7238 -8.3290
v  -2.5247 7.3232 -11.8282
v  -3.5826 6.0461 -9.6163
v  3.5826 5.3049 -10.0442
v  2.5247 6.5819 -12.2561
v  3.5826 3.3512 -10.8535
v  2.5247 4.0123 -13.3205
v  2.5247 3.9332 -7.9151
v  3.5826 5.2102 -10.1270
v  2.5247 2.8156 -8.3780
v  3.5826 3.4767 -10.8450
v  -3.5826 5.2102 -10.1270
v  -2.5247 3.9332 -7.9151
v  -3.5826 3.4767 -10.8450
v  -2.5247 2.8156 -8.3780
v  -2.5247 6.5819 -12.2561
v  -3.5826 5.3049 -10.0442
v  -2.5247 4.0123 -13.3205
v  -3.5826 3.3512 -10.8535
v  3.5826 2.5245 -11.0750
v  2.5247 3.1855 -13.5420
v  3.5826 0.4280 -11.3510
v  2.5247 0.4280 -13.9051
v  2.5247 1.7506 -8.6634
v  3.5826 2.4116 -11.1304
v  2.5247 0.5513 -8.8213
v  3.5826 0.5513 -11.3753
v  -3.5826 2.4116 -11.1304
v  -2.5247 1.7506 -8.6634
v  -3.5826 0.5513 -11.3753
v  -2.5247 0.5513 -8.8213
v  -2.5247 3.1855 -13.5420
v  -3.5826 2.5245 -11.0750
v  -2.5247 0.4280 -13.9051
v  -3.5826 0.4280 -11.3510
v  1.5853 -15.6735 -0.0000
v  1.5853 -15.1394 -4.0566
v  3.4666 -14.3867 -3.8549
v  3.4666 -14.8942 -0.0000
v  3.4666 -7.9610 -0.0000
v  3.4666 -7.6898 -2.0605
v  0.2265 -6.3934 -1.7131
v  0.2265 -6.6189 -0.0000
v  -0.2265 -6.6189 0.0000
v  -0.2265 -6.3934 -1.7131
v  -3.4666 -7.6898 -2.0605
v  -3.4666 -7.9610 0.0000
v  -3.4666 -14.8942 0.0000
v  -3.4666 -14.3867 -3.8549
v  -1.5853 -15.1394 -4.0566
v  -1.5853 -15.6735 0.0000
v  1.5853 -13.5736 -7.8367
v  3.4666 -12.8988 -7.4471
v  3.4666 -6.8945 -3.9805
v  0.2265 -5.7322 -3.3095
v  -0.2265 -5.7322 -3.3095
v  -3.4666 -6.8945 -3.9805
v  -3.4666 -12.8988 -7.4471
v  -1.5853 -13.5736 -7.8367
v  1.5853 -11.0828 -11.0828
v  3.4666 -10.5318 -10.5318
v  3.4666 -5.6293 -5.6293
v  0.2265 -4.6803 -4.6803
v  -0.2265 -4.6803 -4.6803
v  -3.4666 -5.6293 -5.6293
v  -3.4666 -10.5318 -10.5318
v  -1.5853 -11.0828 -11.0828
v  1.5853 -7.8367 -13.5736
v  3.4666 -7.4471 -12.8988
v  3.4666 -3.9805 -6.8945
v  0.2265 -3.3095 -5.7322
v  -0.2265 -3.3095 -5.7322
v  -3.4666 -3.9805 -6.8945
v  -3.4666 -7.4471 -12.8988
v  -1.5853 -7.8367 -13.5736
v  1.5853 -4.0566 -15.1394
v  3.4666 -3.8549 -14.3867
v  3.4666 -2.0605 -7.6898
v  0.2265 -1.7131 -6.3934
v  -0.2265 -1.7131 -6.3934
v  -3.4666 -2.0605 -7.6898
v  -3.4666 -3.8549 -14.3867
v  -1.5853 -4.0566 -15.1394
v  3.6556 -14.3735 -0.4896
v  4.7135 -11.8194 -0.4896
v  4.9025 -11.4276 -0.0000
v  4.7135 -11.5434 -2.5861
v  4.9025 -11.0382 -2.9577
v  3.6556 -14.0105 -3.2472
v  4.7135 -10.9069 -0.4896
v  3.6556 -8.3528 -0.4896
v  3.6556 -8.1949 -1.6889
v  4.7135 -10.6620 -2.3500
v  -3.6556 -8.3528 -0.4896
v  -4.7135 -10.9069 -0.4896
v  -4.9025 -11.4276 0.0000
v  -4.7135 -10.6620 -2.3500
v  -4.9025 -11.0382 -2.9577
v  -3.6556 -8.1949 -1.6889
v  -4.7135 -11.8194 -0.4896
v  -3.6556 -14.3735 -0.4896
v  -3.6556 -14.0105 -3.2472
v  -4.7135 -11.5434 -2.5861
v  3.6556 -13.7570 -4.1931
v  4.7135 -11.2900 -3.5320
v  4.7135 -10.4807 -5.4857
v  4.9025 -9.8966 -5.7138
v  3.6556 -12.6926 -6.7627
v  4.7135 -10.4085 -3.2959
v  3.6556 -7.9415 -2.6348
v  3.6556 -7.4786 -3.7524
v  4.7135 -9.6905 -5.0294
v  -3.6556 -7.9415 -2.6348
v  -4.7135 -10.4085 -3.2959
v  -4.7135 -9.6905 -5.0294
v  -4.9025 -9.8966 -5.7138
v  -3.6556 -7.4786 -3.7524
v  -4.7135 -11.2900 -3.5320
v  -3.6556 -13.7570 -4.1931
v  -3.6556 -12.6926 -6.7627
v  -4.7135 -10.4807 -5.4857
v  3.6556 -12.2030 -7.6108
v  4.7135 -9.9911 -6.3337
v  4.7135 -8.7038 -8.0114
v  4.9025 -8.0806 -8.0806
v  3.6556 -10.5098 -9.8174
v  4.7135 -9.2008 -5.8775
v  3.6556 -6.9890 -4.6005
v  3.6556 -6.2526 -5.5601
v  4.7135 -8.0586 -7.3661
v  -3.6556 -6.9890 -4.6005
v  -4.7135 -9.2008 -5.8775
v  -4.7135 -8.0586 -7.3661
v  -4.9025 -8.0806 -8.0806
v  -3.6556 -6.2526 -5.5601
v  -4.7135 -9.9911 -6.3337
v  -3.6556 -12.2030 -7.6108
v  -3.6556 -10.5098 -9.8174
v  -4.7135 -8.7038 -8.0114
v  3.6556 -9.8174 -10.5098
v  4.7135 -8.0114 -8.7038
v  4.7135 -6.3337 -9.9911
v  4.9025 -5.7138 -9.8966
v  3.6556 -7.6108 -12.2030
v  4.7135 -7.3661 -8.0586
v  3.6556 -5.5601 -6.2526
v  3.6556 -4.6005 -6.9890
v  4.7135 -5.8775 -9.2008
v  -3.6556 -5.5601 -6.2526
v  -4.7135 -7.3661 -8.0586
v  -4.7135 -5.8775 -9.2008
v  -4.9025 -5.7138 -9.8966
v  -3.6556 -4.6005 -6.9890
v  -4.7135 -8.0114 -8.7038
v  -3.6556 -9.8174 -10.5098
v  -3.6556 -7.6108 -12.2030
v  -4.7135 -6.3337 -9.9911
v  3.6556 -6.7627 -12.6926
v  4.7135 -5.4857 -10.4807
v  4.7135 -3.5320 -11.2900
v  4.9025 -2.9577 -11.0382
v  3.6556 -4.1931 -13.7570
v  4.7135 -5.0294 -9.6905
v  3.6556 -3.7524 -7.4786
v  3.6556 -2.6348 -7.9415
v  4.7135 -3.2959 -10.4085
v  -3.6556 -3.7524 -7.4786
v  -4.7135 -5.0294 -9.6905
v  -4.7135 -3.2959 -10.4085
v  -4.9025 -2.9577 -11.0382
v  -3.6556 -2.6348 -7.9415
v  -4.7135 -5.4857 -10.4807
v  -3.6556 -6.7627 -12.6926
v  -3.6556 -4.1931 -13.7570
v  -4.7135 -3.5320 -11.2900
v  3.6556 -3.2472 -14.0105
v  4.7135 -2.5861 -11.5434
v  4.7135 -0.4896 -11.8194
v  3.6556 -0.4896 -14.3735
v  4.7135 -2.3500 -10.6620
v  3.6556 -1.6889 -8.1949
v  3.6556 -0.4896 -8.3528
v  4.7135 -0.4896 -10.9069
v  -3.6556 -1.6889 -8.1949
v  -4.7135 -2.3500 -10.6620
v  -4.7135 -0.4896 -10.9069
v  -3.6556 -0.4896 -8.3528
v  -4.7135 -2.5861 -11.5434
v  -3.6556 -3.2472 -14.0105
v  -3.6556 -0.4896 -14.3735
v  -4.7135 -0.4896 -11.8194
v  2.5247 -13.9051 -0.4280
v  3.5826 -11.3510 -0.4280
v  3.5826 -11.0750 -2.5245
v  2.5247 -13.5420 -3.1855
v  3.5826 -11.3753 -0.5513
v  2.5247 -8.8213 -0.5513
v  2.5247 -8.6634 -1.7506
v  3.5826 -11.1304 -2.4116
v  -2.5247 -8.8213 -0.5513
v  -3.5826 -11.3753 -0.5513
v  -3.5826 -11.1304 -2.4116
v  -2.5247 -8.6634 -1.7506
v  -3.5826 -11.3510 -0.4280
v  -2.5247 -13.9051 -0.4280
v  -2.5247 -13.5420 -3.1855
v  -3.5826 -11.0750 -2.5245
v  2.5247 -13.3205 -4.0123
v  3.5826 -10.8535 -3.3512
v  3.5826 -10.0442 -5.3049
v  2.5247 -12.2561 -6.5819
v  3.5826 -10.8450 -3.4767
v  2.5247 -8.3780 -2.8156
v  2.5247 -7.9151 -3.9332
v  3.5826 -10.1270 -5.2102
v  -2.5247 -8.3780 -2.8156
v  -3.5826 -10.8450 -3.4767
v  -3.5826 -10.1270 -5.2102
v  -2.5247 -7.9151 -3.9332
v  -3.5826 -10.8535 -3.3512
v  -2.5247 -13.3205 -4.0123
v  -2.5247 -12.2561 -6.5819
v  -3.5826 -10.0442 -5.3049
v  2.5247 -11.8282 -7.3232
v  3.5826 -9.6163 -6.0461
v  3.5826 -8.3290 -7.7238
v  2.5247 -10.1350 -9.5298
v  3.5826 -9.5757 -6.1651
v  2.5247 -7.3638 -4.8881
v  2.5247 -6.6274 -5.8478
v  3.5826 -8.4334 -7.6538
v  -2.5247 -7.3638 -4.8881
v  -3.5826 -9.5757 -6.1651
v  -3.5826 -8.4334 -7.6538
v  -2.5247 -6.6274 -5.8478
v  -3.5826 -9.6163 -6.0461
v  -2.5247 -11.8282 -7.3232
v  -2.5247 -10.1350 -9.5298
v  -3.5826 -8.3290 -7.7238
v  2.5247 -9.5298 -10.1350
v  3.5826 -7.7238 -8.3290
v  3.5826 -6.0461 -9.6163
v  2.5247 -7.3232 -11.8282
v  3.5826 -7.6538 -8.4334
v  2.5247 -5.8478 -6.6274
v  2.5247 -4.8881 -7.3638
v  3.5826 -6.1651 -9.5757
v  -2.5247 -5.8478 -6.6274
v  -3.5826 -7.6538 -8.4334
v  -3.5826 -6.1651 -9.5757
v  -2.5247 -4.8881 -7.3638
v  -3.5826 -7.7238 -8.3290
v  -2.5247 -9.5298 -10.1350
v  -2.5247 -7.3232 -11.8282
v  -3.5826 -6.0461 -9.6163
v  2.5247 -6.5819 -12.2561
v  3.5826 -5.3049 -10.0442
v  3.5826 -3.3512 -10.8535
v  2.5247 -4.0123 -13.3205
v  3.5826 -5.2102 -10.1270
v  2.5247 -3.9332 -7.9151
v  2.5247 -2.8156 -8.3780
v  3.5826 -3.4767 -10.8450
v  -2.5247 -3.9332 -7.9151
v  -3.5826 -5.2102 -10.1270
v  -3.5826 -3.4767 -10.8450
v  -2.5247 -2.8156 -8.3780
v  -3.5826 -5.3049 -10.0442
v  -2.5247 -6.5819 -12.2561
v  -2.5247 -4.0123 -13.3205
v  -3.5826 -3.3512 -10.8535
v  2.5247 -3.1855 -13.5420
v  3.5826 -2.5245 -11.0750
v  3.5826 -0.4280 -11.3510
v  2.5247 -0.4280 -13.9051
v  3.5826 -2.4116 -11.1304
v  2.5247 -1.7506 -8.6634
v  2.5247 -0.5513 -8.8213
v  3.5826 -0.5513 -11.3753
v  -2.5247 -1.7506 -8.6634
v  -3.5826 -2.4116 -11.1304
v  -3.5826 -0.5513 -11.3753
v  -2.5247 -0.5513 -8.8213
v  -3.5826 -2.5245 -11.0750
v  -2.5247 -3.1855 -13.5420
v  -2.5247 -0.4280 -13.9051
v  -3.5826 -0.4280 -11.3510
v  1.5853 15.1394 4.0566
v  3.4666 14.3867 3.8549
v  3.4666 7.6898 2.0605
v  0.2265 6.3934 1.7131
v  -0.2265 6.3934 1.7131
v  -3.4666 7.6898 2.0605
v  -3.4666 14.3867 3.8549
v  -1.5853 15.1394 4.0566
v  1.5853 13.5736 7.8367
v  3.4666 12.8988 7.4471
v  3.4666 6.8945 3.9805
v  0.2265 5.7322 3.3095
v  -0.2265 5.7322 3.3095
v  -3.4666 6.8945 3.9805
v  -3.4666 12.8988 7.4471
v  -1.5853 13.5736 7.8367
v  1.5853 11.0828 11.0828
v  3.4666 10.5318 10.5318
v  3.4666 5.6293 5.6293
v  0.2265 4.6803 4.6803
v  -0.2265 4.6803 4.6803
v  -3.4666 5.6293 5.6293
v  -3.4666 10.5318 10.5318
v  -1.5853 11.0828 11.0828
v  1.5853 7.8367 13.5736
v  3.4666 7.4471 12.8988
v  3.4666 3.9805 6.8945
v  0.2265 3.3095 5.7322
v  -0.2265 3.3095 5.7322
v  -3.4666 3.9805 6.8945
v  -3.4666 7.4471 12.8988
v  -1.5853 7.8367 13.5736
v  1.5853 4.0566 15.1394
v  3.4666 3.8549 14.3867
v  3.4666 2.0605 7.6898
v  0.2265 1.7131 6.3934
v  -0.2265 1.7131 6.3934
v  -3.4666 2.0605 7.6898
v  -3.4666 3.8549 14.3867
v  -1.5853 4.0566 15.1394
v  1.5853 0.0000 15.6735
v  3.4666 0.0000 14.8942
v  3.4666 0.0000 7.9610
v  0.2265 0.0000 6.6189
v  -0.2265 0.0000 6.6189
v  -3.4666 0.0000 7.9610
v  -3.4666 0.0000 14.8942
v  -1.5853 0.0000 15.6735
v  3.6556 14.3735 0.4896
v  4.7135 11.8194 0.4896
v  4.7135 11.5434 2.5861
v  4.9025 11.0382 2.9577
v  3.6556 14.0105 3.2472
v  4.7135 10.9069 0.4896
v  3.6556 8.3528 0.4896
v  3.6556 8.1949 1.6889
v  4.7135 10.6620 2.3500
v  -3.6556 8.3528 0.4896
v  -4.7135 10.9069 0.4896
v  -4.7135 10.6620 2.3500
v  -4.9025 11.0382 2.9577
v  -3.6556 8.1949 1.6889
v  -4.7135 11.8194 0.4896
v  -3.6556 14.3735 0.4896
v  -3.6556 14.0105 3.2472
v  -4.7135 11.5434 2.5861
v  3.6556 13.7570 4.1931
v  4.7135 11.2900 3.5320
v  4.7135 10.4807 5.4857
v  4.9025 9.8966 5.7138
v  3.6556 12.6926 6.7627
v  4.7135 10.4085 3.2959
v  3.6556 7.9415 2.6348
v  3.6556 7.4786 3.7524
v  4.7135 9.6905 5.0294
v  -3.6556 7.9415 2.6348
v  -4.7135 10.4085 3.2959
v  -4.7135 9.6905 5.0294
v  -4.9025 9.8966 5.7138
v  -3.6556 7.4786 3.7524
v  -4.7135 11.2900 3.5320
v  -3.6556 13.7570 4.1931
v  -3.6556 12.6926 6.7627
v  -4.7135 10.4807 5.4857
v  3.6556 12.2030 7.6108
v  4.7135 9.9911 6.3337
v  4.7135 8.7038 8.0114
v  4.9025 8.0806 8.0806
v  3.6556 10.5098 9.8174
v  4.7135 9.2008 5.8775
v  3.6556 6.9890 4.6005
v  3.6556 6.2526 5.5601
v  4.7135 8.0586 7.3661
v  -3.6556 6.9890 4.6005
v  -4.7135 9.2008 5.8775
v  -4.7135 8.0586 7.3661
v  -4.9025 8.0806 8.0806
v  -3.6556 6.2526 5.5601
v  -4.7135 9.9911 6.3337
v  -3.6556 12.2030 7.6108
v  -3.6556 10.5098 9.8174
v  -4.7135 8.7038 8.0114
v  3.6556 9.8174 10.5098
v  4.7135 8.0114 8.7038
v  4.7135 6.3337 9.9911
v  4.9025 5.7138 9.8966
v  3.6556 7.6108 12.2030
v  4.7135 7.3661 8.0586
v  3.6556 5.5601 6.2526
v  3.6556 4.6005 6.9890
v  4.7135 5.8775 9.2008
v  -3.6556 5.5601 6.2526
v  -4.7135 7.3661 8.0586
v  -4.7135 5.8775 9.2008
v  -4.9025 5.7138 9.8966
v  -3.6556 4.6005 6.9890
v  -4.7135 8.0114 8.7038
v  -3.6556 9.8174 10.5098
v  -3.6556 7.6108 12.2030
v  -4.7135 6.3337 9.9911
v  3.6556 6.7627 12.6926
v  4.7135 5.4857 10.4807
v  4.7135 3.5320 11.2900
v  4.9025 2.9577 11.0382
v  3.6556 4.1931 13.7570
v  4.7135 5.0294 9.6905
v  3.6556 3.7524 7.4786
v  3.6556 2.6348 7.9415
v  4.7135 3.2959 10.4085
v  -3.6556 3.7524 7.4786
v  -4.7135 5.0294 9.6905
v  -4.7135 3.2959 10.4085
v  -4.9025 2.9577 11.0382
v  -3.6556 2.6348 7.9415
v  -4.7135 5.4857 10.4807
v  -3.6556 6.7627 12.6926
v  -3.6556 4.1931 13.7570
v  -4.7135 3.5320 11.2900
v  3.6556 3.2472 14.0105
v  4.7135 2.5861 11.5434
v  4.7135 0.4896 11.8194
v  4.9025 0.0000 11.4276
v  3.6556 0.4896 14.3735
v  4.7135 2.3500 10.6620
v  3.6556 1.6889 8.1949
v  3.6556 0.4896 8.3528
v  4.7135 0.4896 10.9069
v  -3.6556 1.6889 8.1949
v  -4.7135 2.3500 10.6620
v  -4.7135 0.4896 10.9069
v  -4.9025 0.0000 11.4276
v  -3.6556 0.4896 8.3528
v  -4.7135 2.5861 11.5434
v  -3.6556 3.2472 14.0105
v  -3.6556 0.4896 14.3735
v  -4.7135 0.4896 11.8194
v  2.5247 13.9051 0.4280
v  3.5826 11.3510 0.4280
v  3.5826 11.0750 2.5245
v  2.5247 13.5420 3.1855
v  3.5826 11.3753 0.5513
v  2.5247 8.8213 0.5513
v  2.5247 8.6634 1.7506
v  3.5826 11.1304 2.4116
v  -2.5247 8.8213 0.5513
v  -3.5826 11.3753 0.5513
v  -3.5826 11.1304 2.4116
v  -2.5247 8.6634 1.7506
v  -3.5826 11.3510 0.4280
v  -2.5247 13.9051 0.4280
v  -2.5247 13.5420 3.1855
v  -3.5826 11.0750 2.5245
v  2.5247 13.3205 4.0123
v  3.5826 10.8535 3.3512
v  3.5826 10.0442 5.3049
v  2.5247 12.2561 6.5819
v  3.5826 10.8450 3.4767
v  2.5247 8.3780 2.8156
v  2.5247 7.9151 3.9332
v  3.5826 10.1270 5.2102
v  -2.5247 8.3780 2.8156
v  -3.5826 10.8450 3.4767
v  -3.5826 10.1270 5.2102
v  -2.5247 7.9151 3.9332
v  -3.5826 10.8535 3.3512
v  -2.5247 13.3205 4.0123
v  -2.5247 12.2561 6.5819
v  -3.5826 10.0442 5.3049
v  2.5247 11.8282 7.3232
v  3.5826 9.6163 6.0461
v  3.5826 8.3290 7.7238
v  2.5247 10.1350 9.5298
v  3.5826 9.5757 6.1651
v  2.5247 7.3638 4.8881
v  2.5247 6.6274 5.8478
v  3.5826 8.4334 7.6538
v  -2.5247 7.3638 4.8881
v  -3.5826 9.5757 6.1651
v  -3.5826 8.4334 7.6538
v  -2.5247 6.6274 5.8478
v  -3.5826 9.6163 6.0461
v  -2.5247 11.8282 7.3232
v  -2.5247 10.1350 9.5298
v  -3.5826 8.3290 7.7238
v  2.5247 9.5298 10.1350
v  3.5826 7.7238 8.3290
v  3.5826 6.0461 9.6163
v  2.5247 7.3232 11.8282
v  3.5826 7.6538 8.4334
v  2.5247 5.8478 6.6274
v  2.5247 4.8881 7.3638
v  3.5826 6.1651 9.5757
v  -2.5247 5.8478 6.6274
v  -3.5826 7.6538 8.4334
v  -3.5826 6.1651 9.5757
v  -2.5247 4.8881 7.3638
v  -3.5826 7.7238 8.3290
v  -2.5247 9.5298 10.1350
v  -2.5247 7.3232 11.8282
v  -3.5826 6.0461 9.6163
v  2.5247 6.5819 12.2561
v  3.5826 5.3049 10.0442
v  3.5826 3.3512 10.8535
v  2.5247 4.0123 13.3205
v  3.5826 5.2102 10.1270
v  2.5247 3.9332 7.9151
v  2.5247 2.8156 8.3780
v  3.5826 3.4767 10.8450
v  -2.5247 3.9332 7.9151
v  -3.5826 5.2102 10.1270
v  -3.5826 3.4767 10.8450
v  -2.5247 2.8156 8.3780
v  -3.5826 5.3049 10.0442
v  -2.5247 6.5819 12.2561
v  -2.5247 4.0123 13.3205
v  -3.5826 3.3512 10.8535
v  2.5247 3.1855 13.5420
v  3.5826 2.5245 11.0750
v  3.5826 0.4280 11.3510
v  2.5247 0.4280 13.9051
v  3.5826 2.4116 11.1304
v  2.5247 1.7506 8.6634
v  2.5247 0.5513 8.8213
v  3.5826 0.5513 11.3753
v  -2.5247 1.7506 8.6634
v  -3.5826 2.4116 11.1304
v  -3.5826 0.5513 11.3753
v  -2.5247 0.5513 8.8213
v  -3.5826 2.5245 11.0750
v  -2.5247 3.1855 13.5420
v  -2.5247 0.4280 13.9051
v  -3.5826 0.4280 11.3510
v  3.4666 -14.3867 3.8549
v  1.5853 -15.1394 4.0566
v  0.2265 -6.3934 1.7131
v  3.4666 -7.6898 2.0605
v  -3.4666 -7.6898 2.0605
v  -0.2265 -6.3934 1.7131
v  -1.5853 -15.1394 4.0566
v  -3.4666 -14.3867 3.8549
v  3.4666 -12.8988 7.4471
v  1.5853 -13.5736 7.8367
v  0.2265 -5.7322 3.3095
v  3.4666 -6.8945 3.9805
v  -3.4666 -6.8945 3.9805
v  -0.2265 -5.7322 3.3095
v  -1.5853 -13.5736 7.8367
v  -3.4666 -12.8988 7.4471
v  3.4666 -10.5318 10.5318
v  1.5853 -11.0828 11.0828
v  0.2265 -4.6803 4.6803
v  3.4666 -5.6293 5.6293
v  -3.4666 -5.6293 5.6293
v  -0.2265 -4.6803 4.6803
v  -1.5853 -11.0828 11.0828
v  -3.4666 -10.5318 10.5318
v  3.4666 -7.4471 12.8988
v  1.5853 -7.8367 13.5736
v  0.2265 -3.3095 5.7322
v  3.4666 -3.9805 6.8945
v  -3.4666 -3.9805 6.8945
v  -0.2265 -3.3095 5.7322
v  -1.5853 -7.8367 13.5736
v  -3.4666 -7.4471 12.8988
v  3.4666 -3.8549 14.3867
v  1.5853 -4.0566 15.1394
v  0.2265 -1.7131 6.3934
v  3.4666 -2.0605 7.6898
v  -3.4666 -2.0605 7.6898
v  -0.2265 -1.7131 6.3934
v  -1.5853 -4.0566 15.1394
v  -3.4666 -3.8549 14.3867
v  4.7135 -11.8194 0.4896
v  3.6556 -14.3735 0.4896
v  4.9025 -11.0382 2.9577
v  4.7135 -11.5434 2.5861
v  3.6556 -14.0105 3.2472
v  3.6556 -8.3528 0.4896
v  4.7135 -10.9069 0.4896
v  3.6556 -8.1949 1.6889
v  4.7135 -10.6620 2.3500
v  -4.7135 -10.9069 0.4896
v  -3.6556 -8.3528 0.4896
v  -4.9025 -11.0382 2.9577
v  -4.7135 -10.6620 2.3500
v  -3.6556 -8.1949 1.6889
v  -3.6556 -14.3735 0.4896
v  -4.7135 -11.8194 0.4896
v  -3.6556 -14.0105 3.2472
v  -4.7135 -11.5434 2.5861
v  4.7135 -11.2900 3.5320
v  3.6556 -13.7570 4.1931
v  4.9025 -9.8966 5.7138
v  4.7135 -10.4807 5.4857
v  3.6556 -12.6926 6.7627
v  3.6556 -7.9415 2.6348
v  4.7135 -10.4085 3.2959
v  3.6556 -7.4786 3.7524
v  4.7135 -9.6905 5.0294
v  -4.7135 -10.4085 3.2959
v  -3.6556 -7.9415 2.6348
v  -4.9025 -9.8966 5.7138
v  -4.7135 -9.6905 5.0294
v  -3.6556 -7.4786 3.7524
v  -3.6556 -13.7570 4.1931
v  -4.7135 -11.2900 3.5320
v  -3.6556 -12.6926 6.7627
v  -4.7135 -10.4807 5.4857
v  4.7135 -9.9911 6.3337
v  3.6556 -12.2030 7.6108
v  4.9025 -8.0806 8.0806
v  4.7135 -8.7038 8.0114
v  3.6556 -10.5098 9.8174
v  3.6556 -6.9890 4.6005
v  4.7135 -9.2008 5.8775
v  3.6556 -6.2526 5.5601
v  4.7135 -8.0586 7.3661
v  -4.7135 -9.2008 5.8775
v  -3.6556 -6.9890 4.6005
v  -4.9025 -8.0806 8.0806
v  -4.7135 -8.0586 7.3661
v  -3.6556 -6.2526 5.5601
v  -3.6556 -12.2030 7.6108
v  -4.7135 -9.9911 6.3337
v  -3.6556 -10.5098 9.8174
v  -4.7135 -8.7038 8.0114
v  4.7135 -8.0114 8.7038
v  3.6556 -9.8174 10.5098
v  4.9025 -5.7138 9.8966
v  4.7135 -6.3337 9.9911
v  3.6556 -7.6108 12.2030
v  3.6556 -5.5601 6.2526
v  4.7135 -7.3661 8.0586
v  3.6556 -4.6005 6.9890
v  4.7135 -5.8775 9.2008
v  -4.7135 -7.3661 8.0586
v  -3.6556 -5.5601 6.2526
v  -4.9025 -5.7138 9.8966
v  -4.7135 -5.8775 9.2008
v  -3.6556 -4.6005 6.9890
v  -3.6556 -9.8174 10.5098
v  -4.7135 -8.0114 8.7038
v  -3.6556 -7.6108 12.2030
v  -4.7135 -6.3337 9.9911
v  4.7135 -5.4857 10.4807
v  3.6556 -6.7627 12.6926
v  4.9025 -2.9577 11.0382
v  4.7135 -3.5320 11.2900
v  3.6556 -4.1931 13.7570
v  3.6556 -3.7524 7.4786
v  4.7135 -5.0294 9.6905
v  3.6556 -2.6348 7.9415
v  4.7135 -3.2959 10.4085
v  -4.7135 -5.0294 9.6905
v  -3.6556 -3.7524 7.4786
v  -4.9025 -2.9577 11.0382
v  -4.7135 -3.2959 10.4085
v  -3.6556 -2.6348 7.9415
v  -3.6556 -6.7627 12.6926
v  -4.7135 -5.4857 10.4807
v  -3.6556 -4.1931 13.7570
v  -4.7135 -3.5320 11.2900
v  4.7135 -2.5861 11.5434
v  3.6556 -3.2472 14.0105
v  4.7135 -0.4896 11.8194
v  3.6556 -0.4896 14.3735
v  3.6556 -1.6889 8.1949
v  4.7135 -2.3500 10.6620
v  3.6556 -0.4896 8.3528
v  4.7135 -0.4896 10.9069
v  -4.7135 -2.3500 10.6620
v  -3.6556 -1.6889 8.1949
v  -4.7135 -0.4896 10.9069
v  -3.6556 -0.4896 8.3528
v  -3.6556 -3.2472 14.0105
v  -4.7135 -2.5861 11.5434
v  -3.6556 -0.4896 14.3735
v  -4.7135 -0.4896 11.8194
v  3.5826 -11.3510 0.4280
v  2.5247 -13.9051 0.4280
v  3.5826 -11.0750 2.5245
v  2.5247 -13.5420 3.1855
v  2.5247 -8.8213 0.5513
v  3.5826 -11.3753 0.5513
v  2.5247 -8.6634 1.7506
v  3.5826 -11.1304 2.4116
v  -3.5826 -11.3753 0.5513
v  -2.5247 -8.8213 0.5513
v  -3.5826 -11.1304 2.4116
v  -2.5247 -8.6634 1.7506
v  -2.5247 -13.9051 0.4280
v  -3.5826 -11.3510 0.4280
v  -2.5247 -13.5420 3.1855
v  -3.5826 -11.0750 2.5245
v  3.5826 -10.8535 3.3512
v  2.5247 -13.3205 4.0123
v  3.5826 -10.0442 5.3049
v  2.5247 -12.2561 6.5819
v  2.5247 -8.3780 2.8156
v  3.5826 -10.8450 3.4767
v  2.5247 -7.9151 3.9332
v  3.5826 -10.1270 5.2102
v  -3.5826 -10.8450 3.4767
v  -2.5247 -8.3780 2.8156
v  -3.5826 -10.1270 5.2102
v  -2.5247 -7.9151 3.9332
v  -2.5247 -13.3205 4.0123
v  -3.5826 -10.8535 3.3512
v  -2.5247 -12.2561 6.5819
v  -3.5826 -10.0442 5.3049
v  3.5826 -9.6163 6.0461
v  2.5247 -11.8282 7.3232
v  3.5826 -8.3290 7.7238
v  2.5247 -10.1350 9.5298
v  2.5247 -7.3638 4.8881
v  3.5826 -9.5757 6.1651
v  2.5247 -6.6274 5.8478
v  3.5826 -8.4334 7.6538
v  -3.5826 -9.5757 6.1651
v  -2.5247 -7.3638 4.8881
v  -3.5826 -8.4334 7.6538
v  -2.5247 -6.6274 5.8478
v  -2.5247 -11.8282 7.3232
v  -3.5826 -9.6163 6.0461
v  -2.5247 -10.1350 9.5298
v  -3.5826 -8.3290 7.7238
v  3.5826 -7.7238 8.3290
v  2.5247 -9.5298 10.1350
v  3.5826 -6.0461 9.6163
v  2.5247 -7.3232 11.8282
v  2.5247 -5.8478 6.6274
v  3.5826 -7.6538 8.4334
v  2.5247 -4.8881 7.3638
v  3.5826 -6.1651 9.5757
v  -3.5826 -7.6538 8.4334
v  -2.5247 -5.8478 6.6274
v  -3.5826 -6.1651 9.5757
v  -2.5247 -4.8881 7.3638
v  -2.5247 -9.5298 10.1350
v  -3.5826 -7.7238 8.3290
v  -2.5247 -7.3232 11.8282
v  -3.5826 -6.0461 9.6163
v  3.5826 -5.3049 10.0442
v  2.5247 -6.5819 12.2561
v  3.5826 -3.3512 10.8535
v  2.5247 -4.0123 13.3205
v  2.5247 -3.9332 7.9151
v  3.5826 -5.2102 10.1270
v  2.5247 -2.8156 8.3780
v  3.5826 -3.4767 10.8450
v  -3.5826 -5.2102 10.1270
v  -2.5247 -3.9332 7.9151
v  -3.5826 -3.4767 10.8450
v  -2.5247 -2.8156 8.3780
v  -2.5247 -6.5819 12.2561
v  -3.5826 -5.3049 10.0442
v  -2.5247 -4.0123 13.3205
v  -3.5826 -3.3512 10.8535
v  3.5826 -2.5245 11.0750
v  2.5247 -3.1855 13.5420
v  3.5826 -0.4280 11.3510
v  2.5247 -0.4280 13.9051
v  2.5247 -1.7506 8.6634
v  3.5826 -2.4116 11.1304
v  2.5247 -0.5513 8.8213
v  3.5826 -0.5513 11.3753
v  -3.5826 -2.4116 11.1304
v  -2.5247 -1.7506 8.6634
v  -3.5826 -0.5513 11.3753
v  -2.5247 -0.5513 8.8213
v  -2.5247 -3.1855 13.5420
v  -3.5826 -2.5245 11.0750
v  -2.5247 -0.4280 13.9051
v  -3.5826 -0.4280 11.3510
v  -1.9111 -3.8777 28.4380
v  -1.9111 3.7209 28.4380
v  -1.9111 3.6264 14.4314
v  -1.9111 -3.6264 14.4314
v  1.6263 -3.6326 28.1928
v  1.6263 -3.6264 14.4314
v  1.6263 3.6264 14.4314
v  1.6263 3.7209 28.4380
v  1.6263 -3.8777 28.4380
v  1.6263 -3.8777 33.0172
v  0.5856 -10.9889 29.7962
v  0.5856 -10.9889 25.2633
v  -1.9111 -3.8777 33.0172
v  -0.8704 -10.9889 25.2633
v  -0.8704 -10.9889 29.7962
v  -1.9111 3.7209 33.0172
v  -0.8704 10.8321 29.7962
v  -0.8704 10.8321 25.2633
v  1.6263 3.7209 33.0172
v  0.5856 10.8321 25.2633
v  0.5856 10.8321 29.7962
v  -1.9111 26.5669 -10.8608
v  -1.9111 22.7675 -17.4414
v  -1.9111 10.6847 -10.3563
v  -1.9111 14.3111 -4.0751
v  1.6263 26.2320 -10.9505
v  1.6263 14.3111 -4.0751
v  1.6263 10.6847 -10.3563
v  1.6263 22.7675 -17.4414
v  1.6263 26.5669 -10.8608
v  1.6263 30.5326 -13.1504
v  0.5856 31.2987 -5.3814
v  0.5856 27.3731 -3.1150
v  -1.9111 30.5326 -13.1504
v  -0.8704 27.3731 -3.1150
v  -0.8704 31.2987 -5.3814
v  -1.9111 26.7332 -19.7310
v  -0.8704 20.3882 -24.2790
v  -0.8704 16.4626 -22.0126
v  1.6263 26.7332 -19.7310
v  0.5856 16.4626 -22.0126
v  0.5856 20.3882 -24.2790
v  -1.9111 -22.6891 -17.5772
v  -1.9111 -26.4885 -10.9966
v  -1.9111 -14.3111 -4.0751
v  -1.9111 -10.6847 -10.3563
v  1.6263 -22.5994 -17.2423
v  1.6263 -10.6847 -10.3563
v  1.6263 -14.3111 -4.0751
v  1.6263 -26.4885 -10.9966
v  1.6263 -22.6891 -17.5772
v  1.6263 -26.6548 -19.8668
v  0.5856 -20.3098 -24.4148
v  0.5856 -16.3842 -22.1484
v  -1.9111 -26.6548 -19.8668
v  -0.8704 -16.3842 -22.1484
v  -0.8704 -20.3098 -24.4148
v  -1.9111 -30.4542 -13.2862
v  -0.8704 -31.2203 -5.5172
v  -0.8704 -27.2947 -3.2507
v  1.6263 -30.4542 -13.2862
v  0.5856 -27.2947 -3.2507
v  0.5856 -31.2203 -5.5172
# 1071 vertices

vn 0.3827 0.9239 -0.0000
vn 0.6915 0.7223 -0.0000
vn 0.6915 0.6977 -0.1870
vn 0.3827 0.8924 -0.2391
vn 0.7234 -0.6905 0.0000
vn 0.1983 -0.9801 0.0000
vn 0.1983 -0.9468 0.2537
vn 0.7234 -0.6669 0.1787
vn -0.1983 -0.9801 -0.0000
vn -0.7234 -0.6905 -0.0000
vn -0.7234 -0.6669 0.1787
vn -0.1983 -0.9467 0.2537
vn -0.6915 0.7223 0.0000
vn -0.3827 0.9239 0.0000
vn -0.3827 0.8924 -0.2391
vn -0.6915 0.6977 -0.1870
vn 0.6915 0.6256 -0.3612
vn 0.3827 0.8001 -0.4619
vn 0.1983 -0.8488 0.4901
vn 0.7234 -0.5980 0.3452
vn -0.7234 -0.5980 0.3452
vn -0.1983 -0.8488 0.4901
vn -0.3827 0.8001 -0.4619
vn -0.6915 0.6256 -0.3612
vn 0.6915 0.5108 -0.5108
vn 0.3827 0.6533 -0.6533
vn 0.1983 -0.6931 0.6931
vn 0.7234 -0.4882 0.4882
vn -0.7234 -0.4882 0.4882
vn -0.1983 -0.6931 0.6931
vn -0.3827 0.6533 -0.6533
vn -0.6915 0.5108 -0.5108
vn 0.6915 0.3612 -0.6256
vn 0.3827 0.4619 -0.8001
vn 0.1983 -0.4901 0.8488
vn 0.7234 -0.3452 0.5980
vn -0.7234 -0.3452 0.5980
vn -0.1983 -0.4901 0.8488
vn -0.3827 0.4619 -0.8001
vn -0.6915 0.3612 -0.6256
vn 0.6915 0.1870 -0.6977
vn 0.3827 0.2391 -0.8924
vn 0.1983 -0.2537 0.9467
vn 0.7234 -0.1787 0.6669
vn -0.7234 -0.1787 0.6669
vn -0.1983 -0.2537 0.9467
vn -0.3827 0.2391 -0.8924
vn -0.6915 0.1870 -0.6977
vn 0.6915 -0.0000 -0.7223
vn 0.3827 0.0000 -0.9239
vn 0.1983 0.0000 0.9801
vn 0.7234 0.0000 0.6905
vn -0.7234 -0.0000 0.6905
vn -0.1983 -0.0000 0.9801
vn -0.3827 0.0000 -0.9239
vn -0.6915 0.0000 -0.7223
vn 0.9995 0.0319 0.0000
vn 0.6897 0.6128 -0.3856
vn 0.9486 0.0722 -0.3083
vn 0.9995 0.0308 -0.0082
vn 0.6897 0.6918 0.2137
vn 0.9485 0.1496 0.2792
vn 0.9528 -0.0675 -0.2959
vn 0.7461 -0.6298 -0.2160
vn 0.9528 0.0114 0.3034
vn 0.7462 -0.5524 0.3715
vn -0.9995 0.0319 0.0000
vn -0.7462 -0.6297 -0.2160
vn -0.9528 -0.0675 -0.2960
vn -0.9995 0.0308 -0.0082
vn -0.7462 -0.5524 0.3716
vn -0.9528 0.0114 0.3034
vn -0.9485 0.0722 -0.3083
vn -0.6897 0.6128 -0.3856
vn -0.9485 0.1496 0.2792
vn -0.6897 0.6918 0.2137
vn 0.6897 0.4922 -0.5311
vn 0.9485 -0.0101 -0.3165
vn 0.9995 0.0276 -0.0159
vn 0.6897 0.7235 0.0275
vn 0.9485 0.2167 0.2309
vn 0.9528 -0.1418 -0.2684
vn 0.7462 -0.6642 -0.0456
vn 0.9528 0.0896 0.2901
vn 0.7462 -0.4375 0.5018
vn -0.7462 -0.6641 -0.0456
vn -0.9528 -0.1417 -0.2685
vn -0.9995 0.0276 -0.0159
vn -0.7462 -0.4374 0.5019
vn -0.9528 0.0896 0.2901
vn -0.9485 -0.0101 -0.3165
vn -0.6897 0.4922 -0.5311
vn -0.9485 0.2167 0.2309
vn -0.6897 0.7235 0.0275
vn 0.6897 0.3380 -0.6403
vn 0.9485 -0.0916 -0.3031
vn 0.9995 0.0225 -0.0225
vn 0.6897 0.7060 -0.1607
vn 0.9485 0.2691 0.1670
vn 0.9528 -0.2064 -0.2226
vn 0.7462 -0.6534 0.1279
vn 0.9528 0.1616 0.2571
vn 0.7462 -0.2927 0.5980
vn -0.7462 -0.6534 0.1279
vn -0.9528 -0.2064 -0.2226
vn -0.9995 0.0225 -0.0225
vn -0.7462 -0.2927 0.5980
vn -0.9528 0.1616 0.2571
vn -0.9485 -0.0916 -0.3031
vn -0.6897 0.3380 -0.6403
vn -0.9485 0.2691 0.1670
vn -0.6897 0.7060 -0.1607
vn 0.6897 0.1608 -0.7060
vn 0.9485 -0.1670 -0.2691
vn 0.9995 0.0159 -0.0276
vn 0.6897 0.6404 -0.3380
vn 0.9485 0.3032 0.0916
vn 0.9528 -0.2570 -0.1615
vn 0.7462 -0.5980 0.2927
vn 0.9528 0.2226 0.2064
vn 0.7462 -0.1279 0.6533
vn -0.7462 -0.5980 0.2927
vn -0.9528 -0.2571 -0.1616
vn -0.9995 0.0159 -0.0276
vn -0.7462 -0.1279 0.6534
vn -0.9528 0.2226 0.2064
vn -0.9485 -0.1670 -0.2691
vn -0.6897 0.1608 -0.7060
vn -0.9485 0.3031 0.0916
vn -0.6897 0.6403 -0.3381
vn 0.6897 -0.0275 -0.7236
vn 0.9485 -0.2310 -0.2167
vn 0.9995 0.0082 -0.0308
vn 0.6897 0.5311 -0.4922
vn 0.9485 0.3165 0.0101
vn 0.9528 -0.2901 -0.0895
vn 0.7462 -0.5019 0.4374
vn 0.9528 0.2684 0.1418
vn 0.7462 0.0456 0.6641
vn -0.7462 -0.5018 0.4375
vn -0.9528 -0.2901 -0.0895
vn -0.9995 0.0082 -0.0308
vn -0.7462 0.0456 0.6641
vn -0.9528 0.2685 0.1417
vn -0.9486 -0.2309 -0.2167
vn -0.6897 -0.0275 -0.7236
vn -0.9485 0.3166 0.0100
vn -0.6897 0.5310 -0.4923
vn 0.6897 -0.2137 -0.6918
vn 0.9485 -0.2792 -0.1496
vn 0.9995 0.0000 -0.0319
vn 0.6898 0.3855 -0.6128
vn 0.9485 0.3084 -0.0722
vn 0.9528 -0.3034 -0.0114
vn 0.7462 -0.3716 0.5524
vn 0.9528 0.2959 0.0675
vn 0.7462 0.2160 0.6297
vn -0.7462 -0.3715 0.5524
vn -0.9528 -0.3034 -0.0114
vn -0.9995 0.0000 -0.0319
vn -0.7461 0.2160 0.6298
vn -0.9528 0.2960 0.0675
vn -0.9485 -0.2792 -0.1496
vn -0.6897 -0.2137 -0.6918
vn -0.9486 0.3083 -0.0722
vn -0.6897 0.3857 -0.6128
vn -0.2886 0.5982 -0.7476
vn 0.2556 -0.7042 -0.6624
vn -0.2885 0.7713 0.5674
vn 0.2557 -0.5090 0.8219
vn 0.2885 0.5981 -0.7476
vn -0.2556 -0.7043 -0.6623
vn 0.2886 0.7713 0.5673
vn -0.2556 -0.5089 0.8220
vn 0.2556 -0.7043 -0.6622
vn -0.2885 0.5981 -0.7476
vn 0.2556 -0.5088 0.8221
vn -0.2886 0.7713 0.5673
vn -0.2556 -0.7042 -0.6624
vn 0.2886 0.5984 -0.7474
vn -0.2886 0.3843 -0.8769
vn 0.2556 -0.8517 -0.4574
vn -0.2886 0.8919 0.3483
vn 0.2556 -0.2788 0.9257
vn 0.2886 0.3843 -0.8769
vn -0.2557 -0.8518 -0.4573
vn 0.2886 0.8919 0.3482
vn -0.2556 -0.2788 0.9257
vn -0.2886 0.8919 0.3482
vn -0.2556 -0.8517 -0.4574
vn 0.2886 0.8919 0.3483
vn -0.2886 0.1443 -0.9465
vn 0.2556 -0.9411 -0.2214
vn -0.2886 0.9516 0.1056
vn 0.2556 -0.0297 0.9663
vn 0.2886 0.1443 -0.9465
vn -0.2556 -0.9411 -0.2214
vn 0.2886 0.9516 0.1055
vn -0.2556 -0.0297 0.9663
vn -0.2556 -0.9411 -0.2215
vn -0.2886 -0.1056 -0.9516
vn 0.2556 -0.9663 0.0297
vn -0.2886 0.9465 -0.1443
vn 0.2557 0.2213 0.9411
vn 0.2886 -0.1055 -0.9516
vn -0.2556 -0.9663 0.0297
vn 0.2886 0.9465 -0.1443
vn -0.2556 0.2214 0.9411
vn 0.2556 0.2215 0.9411
vn -0.2556 -0.9663 0.0296
vn 0.2885 -0.1057 -0.9516
vn -0.2886 -0.3483 -0.8919
vn 0.2556 -0.9257 0.2788
vn -0.2886 0.8769 -0.3843
vn 0.2556 0.4574 0.8517
vn 0.2886 -0.3482 -0.8919
vn -0.2556 -0.9257 0.2788
vn 0.2885 0.8770 -0.3843
vn -0.2557 0.4573 0.8518
vn 0.2557 -0.9257 0.2789
vn 0.2557 0.4573 0.8518
vn -0.2885 0.8770 -0.3843
vn 0.2886 -0.3483 -0.8919
vn -0.2557 0.4572 0.8518
vn -0.2886 -0.5673 -0.7713
vn 0.2557 -0.8218 0.5091
vn -0.2885 0.7477 -0.5981
vn 0.2556 0.6623 0.7043
vn 0.2886 -0.5673 -0.7713
vn -0.2556 -0.8221 0.5088
vn 0.2885 0.7476 -0.5981
vn -0.2556 0.6623 0.7043
vn 0.2556 -0.8221 0.5088
vn 0.2556 0.6622 0.7043
vn -0.2885 0.7476 -0.5981
vn -0.2557 -0.8219 0.5090
vn 0.2885 -0.5674 -0.7713
vn 0.2886 0.7476 -0.5982
vn 0.3827 -0.9239 -0.0000
vn 0.3827 -0.8924 -0.2391
vn 0.6915 -0.6977 -0.1870
vn 0.6915 -0.7223 -0.0000
vn 0.7234 0.6905 0.0000
vn 0.7234 0.6669 0.1787
vn 0.1983 0.9468 0.2537
vn 0.1983 0.9801 0.0000
vn -0.1983 0.9801 -0.0000
vn -0.1983 0.9467 0.2537
vn -0.7234 0.6669 0.1787
vn -0.7234 0.6905 -0.0000
vn -0.6915 -0.7223 0.0000
vn -0.6915 -0.6977 -0.1870
vn -0.3827 -0.8924 -0.2391
vn -0.3827 -0.9239 0.0000
vn 0.3827 -0.8001 -0.4619
vn 0.6915 -0.6256 -0.3612
vn 0.7234 0.5980 0.3452
vn 0.1983 0.8488 0.4901
vn -0.1983 0.8488 0.4901
vn -0.7234 0.5980 0.3452
vn -0.6915 -0.6256 -0.3612
vn -0.3827 -0.8001 -0.4619
vn 0.3827 -0.6533 -0.6533
vn 0.6915 -0.5108 -0.5108
vn 0.7234 0.4882 0.4882
vn 0.1983 0.6931 0.6931
vn -0.1983 0.6931 0.6931
vn -0.7234 0.4882 0.4882
vn -0.6915 -0.5108 -0.5108
vn -0.3827 -0.6533 -0.6533
vn 0.3827 -0.4619 -0.8001
vn 0.6915 -0.3612 -0.6256
vn 0.7234 0.3452 0.5980
vn 0.1983 0.4901 0.8488
vn -0.1983 0.4901 0.8488
vn -0.7234 0.3452 0.5980
vn -0.6915 -0.3612 -0.6256
vn -0.3827 -0.4619 -0.8001
vn 0.3827 -0.2391 -0.8924
vn 0.6915 -0.1870 -0.6977
vn 0.7234 0.1787 0.6669
vn 0.1983 0.2537 0.9467
vn -0.1983 0.2537 0.9467
vn -0.7234 0.1787 0.6669
vn -0.6915 -0.1870 -0.6977
vn -0.3827 -0.2391 -0.8924
vn 0.9486 -0.0722 -0.3083
vn 0.6897 -0.6128 -0.3856
vn 0.9995 -0.0319 0.0000
vn 0.6897 -0.6918 0.2137
vn 0.9995 -0.0308 -0.0082
vn 0.9485 -0.1496 0.2792
vn 0.7461 0.6298 -0.2160
vn 0.9528 0.0675 -0.2959
vn 0.9528 -0.0114 0.3034
vn 0.7462 0.5524 0.3715
vn -0.9528 0.0675 -0.2960
vn -0.7462 0.6297 -0.2160
vn -0.9995 -0.0319 0.0000
vn -0.7462 0.5524 0.3716
vn -0.9995 -0.0308 -0.0082
vn -0.9528 -0.0114 0.3034
vn -0.6897 -0.6128 -0.3856
vn -0.9485 -0.0722 -0.3083
vn -0.9485 -0.1496 0.2792
vn -0.6897 -0.6918 0.2137
vn 0.9485 0.0101 -0.3165
vn 0.6897 -0.4922 -0.5311
vn 0.6897 -0.7235 0.0275
vn 0.9995 -0.0276 -0.0159
vn 0.9485 -0.2167 0.2309
vn 0.7462 0.6642 -0.0456
vn 0.9528 0.1418 -0.2684
vn 0.9528 -0.0896 0.2901
vn 0.7462 0.4375 0.5018
vn -0.9528 0.1417 -0.2685
vn -0.7462 0.6641 -0.0456
vn -0.7462 0.4374 0.5019
vn -0.9995 -0.0276 -0.0159
vn -0.9528 -0.0896 0.2901
vn -0.6897 -0.4922 -0.5311
vn -0.9485 0.0101 -0.3165
vn -0.9485 -0.2167 0.2309
vn -0.6897 -0.7235 0.0275
vn 0.9485 0.0916 -0.3031
vn 0.6897 -0.3380 -0.6403
vn 0.6897 -0.7060 -0.1607
vn 0.9995 -0.0225 -0.0225
vn 0.9485 -0.2691 0.1670
vn 0.7462 0.6534 0.1279
vn 0.9528 0.2064 -0.2226
vn 0.9528 -0.1616 0.2571
vn 0.7462 0.2927 0.5980
vn -0.9528 0.2064 -0.2226
vn -0.7462 0.6534 0.1279
vn -0.7462 0.2927 0.5980
vn -0.9995 -0.0225 -0.0225
vn -0.9528 -0.1616 0.2571
vn -0.6897 -0.3380 -0.6403
vn -0.9485 0.0916 -0.3031
vn -0.9485 -0.2691 0.1670
vn -0.6897 -0.7060 -0.1607
vn 0.9485 0.1670 -0.2691
vn 0.6897 -0.1608 -0.7060
vn 0.6897 -0.6404 -0.3380
vn 0.9995 -0.0159 -0.0276
vn 0.9485 -0.3032 0.0916
vn 0.7462 0.5980 0.2927
vn 0.9528 0.2570 -0.1615
vn 0.9528 -0.2226 0.2064
vn 0.7462 0.1279 0.6533
vn -0.9528 0.2571 -0.1616
vn -0.7462 0.5980 0.2927
vn -0.7462 0.1279 0.6534
vn -0.9995 -0.0159 -0.0276
vn -0.9528 -0.2226 0.2064
vn -0.6897 -0.1608 -0.7060
vn -0.9485 0.1670 -0.2691
vn -0.9485 -0.3031 0.0916
vn -0.6897 -0.6403 -0.3381
vn 0.9485 0.2310 -0.2167
vn 0.6897 0.0275 -0.7236
vn 0.6897 -0.5311 -0.4922
vn 0.9995 -0.0082 -0.0308
vn 0.9485 -0.3165 0.0101
vn 0.7462 0.5019 0.4374
vn 0.9528 0.2901 -0.0895
vn 0.9528 -0.2684 0.1418
vn 0.7462 -0.0456 0.6641
vn -0.9528 0.2901 -0.0895
vn -0.7462 0.5018 0.4375
vn -0.7462 -0.0456 0.6641
vn -0.9995 -0.0082 -0.0308
vn -0.9528 -0.2685 0.1417
vn -0.6897 0.0275 -0.7236
vn -0.9486 0.2309 -0.2167
vn -0.9485 -0.3166 0.0100
vn -0.6897 -0.5310 -0.4923
vn 0.9485 0.2792 -0.1496
vn 0.6897 0.2137 -0.6918
vn 0.6898 -0.3855 -0.6128
vn 0.9485 -0.3084 -0.0722
vn 0.7462 0.3716 0.5524
vn 0.9528 0.3034 -0.0114
vn 0.9528 -0.2959 0.0675
vn 0.7462 -0.2160 0.6297
vn -0.9528 0.3034 -0.0114
vn -0.7462 0.3715 0.5524
vn -0.7461 -0.2160 0.6298
vn -0.9528 -0.2960 0.0675
vn -0.6897 0.2137 -0.6918
vn -0.9485 0.2792 -0.1496
vn -0.9486 -0.3083 -0.0722
vn -0.6897 -0.3857 -0.6128
vn 0.2556 0.7042 -0.6624
vn -0.2886 -0.5982 -0.7476
vn -0.2885 -0.7713 0.5674
vn 0.2557 0.5090 0.8219
vn -0.2556 0.7043 -0.6623
vn 0.2885 -0.5981 -0.7476
vn 0.2886 -0.7713 0.5673
vn -0.2556 0.5089 0.8220
vn -0.2885 -0.5981 -0.7476
vn 0.2556 0.7043 -0.6622
vn 0.2556 0.5088 0.8221
vn -0.2886 -0.7713 0.5673
vn 0.2886 -0.5984 -0.7474
vn -0.2556 0.7042 -0.6624
vn 0.2556 0.8517 -0.4574
vn -0.2886 -0.3843 -0.8769
vn -0.2886 -0.8919 0.3483
vn 0.2556 0.2788 0.9257
vn -0.2557 0.8518 -0.4573
vn 0.2886 -0.3843 -0.8769
vn 0.2886 -0.8919 0.3482
vn -0.2556 0.2788 0.9257
vn -0.2886 -0.8919 0.3482
vn -0.2556 0.8517 -0.4574
vn 0.2886 -0.8919 0.3483
vn 0.2556 0.9411 -0.2214
vn -0.2886 -0.1443 -0.9465
vn -0.2886 -0.9516 0.1056
vn 0.2556 0.0297 0.9663
vn -0.2556 0.9411 -0.2214
vn 0.2886 -0.1443 -0.9465
vn 0.2886 -0.9516 0.1055
vn -0.2556 0.0297 0.9663
vn -0.2556 0.9411 -0.2215
vn 0.2556 0.9663 0.0297
vn -0.2886 0.1056 -0.9516
vn -0.2886 -0.9465 -0.1443
vn 0.2557 -0.2213 0.9411
vn -0.2556 0.9663 0.0297
vn 0.2886 0.1055 -0.9516
vn 0.2886 -0.9465 -0.1443
vn -0.2556 -0.2214 0.9411
vn 0.2556 -0.2215 0.9411
vn 0.2885 0.1057 -0.9516
vn -0.2556 0.9663 0.0296
vn 0.2556 0.9257 0.2788
vn -0.2886 0.3483 -0.8919
vn -0.2886 -0.8769 -0.3843
vn 0.2556 -0.4574 0.8517
vn -0.2556 0.9257 0.2788
vn 0.2886 0.3482 -0.8919
vn 0.2885 -0.8770 -0.3843
vn -0.2557 -0.4573 0.8518
vn 0.2557 0.9257 0.2789
vn 0.2557 -0.4573 0.8518
vn -0.2885 -0.8770 -0.3843
vn 0.2886 0.3483 -0.8919
vn -0.2557 -0.4572 0.8518
vn 0.2557 0.8218 0.5091
vn -0.2886 0.5673 -0.7713
vn -0.2885 -0.7477 -0.5981
vn 0.2556 -0.6623 0.7043
vn -0.2556 0.8221 0.5088
vn 0.2886 0.5673 -0.7713
vn 0.2885 -0.7476 -0.5981
vn -0.2556 -0.6623 0.7043
vn 0.2556 0.8221 0.5088
vn 0.2556 -0.6622 0.7043
vn -0.2885 -0.7476 -0.5981
vn 0.2885 0.5674 -0.7713
vn -0.2557 0.8219 0.5090
vn 0.2886 -0.7476 -0.5982
vn 0.3827 0.8924 0.2391
vn 0.6915 0.6977 0.1870
vn 0.7234 -0.6669 -0.1787
vn 0.1983 -0.9467 -0.2537
vn -0.1983 -0.9468 -0.2537
vn -0.7234 -0.6669 -0.1787
vn -0.6915 0.6977 0.1870
vn -0.3827 0.8924 0.2391
vn 0.3827 0.8001 0.4619
vn 0.6915 0.6256 0.3612
vn 0.7234 -0.5980 -0.3452
vn 0.1983 -0.8488 -0.4901
vn -0.1983 -0.8488 -0.4901
vn -0.7234 -0.5980 -0.3452
vn -0.6915 0.6256 0.3612
vn -0.3827 0.8001 0.4619
vn 0.3827 0.6533 0.6533
vn 0.6915 0.5108 0.5108
vn 0.7234 -0.4882 -0.4882
vn 0.1983 -0.6931 -0.6931
vn -0.1983 -0.6931 -0.6931
vn -0.7234 -0.4882 -0.4882
vn -0.6915 0.5108 0.5108
vn -0.3827 0.6533 0.6533
vn 0.3827 0.4619 0.8001
vn 0.6915 0.3612 0.6256
vn 0.7234 -0.3452 -0.5980
vn 0.1983 -0.4901 -0.8488
vn -0.1983 -0.4901 -0.8488
vn -0.7234 -0.3452 -0.5980
vn -0.6915 0.3612 0.6256
vn -0.3827 0.4619 0.8001
vn 0.3827 0.2391 0.8924
vn 0.6915 0.1870 0.6977
vn 0.7234 -0.1787 -0.6669
vn 0.1983 -0.2537 -0.9467
vn -0.1983 -0.2537 -0.9467
vn -0.7234 -0.1787 -0.6669
vn -0.6915 0.1870 0.6977
vn -0.3827 0.2391 0.8924
vn 0.3827 0.0000 0.9239
vn 0.6915 0.0000 0.7223
vn 0.7234 0.0000 -0.6905
vn 0.1983 0.0000 -0.9801
vn -0.1983 0.0000 -0.9801
vn -0.7234 0.0000 -0.6905
vn -0.6915 0.0000 0.7223
vn -0.3827 0.0000 0.9239
vn 0.9486 0.0722 0.3083
vn 0.6897 0.6128 0.3856
vn 0.6897 0.6918 -0.2137
vn 0.9995 0.0308 0.0082
vn 0.9485 0.1496 -0.2792
vn 0.7462 -0.6297 0.2160
vn 0.9528 -0.0675 0.2959
vn 0.9528 0.0114 -0.3034
vn 0.7462 -0.5524 -0.3716
vn -0.9528 -0.0675 0.2960
vn -0.7461 -0.6298 0.2160
vn -0.7462 -0.5524 -0.3715
vn -0.9995 0.0308 0.0082
vn -0.9528 0.0114 -0.3034
vn -0.6897 0.6128 0.3856
vn -0.9485 0.0722 0.3083
vn -0.9485 0.1496 -0.2792
vn -0.6897 0.6918 -0.2137
vn 0.9485 -0.0101 0.3165
vn 0.6897 0.4922 0.5311
vn 0.6897 0.7235 -0.0275
vn 0.9995 0.0276 0.0159
vn 0.9485 0.2167 -0.2309
vn 0.7462 -0.6641 0.0456
vn 0.9528 -0.1417 0.2685
vn 0.9528 0.0896 -0.2901
vn 0.7462 -0.4374 -0.5019
vn -0.9528 -0.1418 0.2684
vn -0.7462 -0.6642 0.0456
vn -0.7462 -0.4375 -0.5018
vn -0.9995 0.0276 0.0159
vn -0.9528 0.0896 -0.2901
vn -0.6897 0.4922 0.5311
vn -0.9485 -0.0101 0.3165
vn -0.9485 0.2167 -0.2309
vn -0.6897 0.7235 -0.0275
vn 0.9485 -0.0917 0.3032
vn 0.6897 0.3380 0.6403
vn 0.6897 0.7060 0.1607
vn 0.9995 0.0225 0.0225
vn 0.9485 0.2691 -0.1670
vn 0.7462 -0.6533 -0.1279
vn 0.9528 -0.2064 0.2226
vn 0.9528 0.1616 -0.2570
vn 0.7462 -0.2926 -0.5980
vn -0.9528 -0.2064 0.2226
vn -0.7462 -0.6534 -0.1279
vn -0.7462 -0.2926 -0.5980
vn -0.9995 0.0225 0.0225
vn -0.9528 0.1616 -0.2570
vn -0.6897 0.3380 0.6403
vn -0.9485 -0.0916 0.3031
vn -0.9485 0.2691 -0.1670
vn -0.6897 0.7060 0.1607
vn 0.9485 -0.1670 0.2691
vn 0.6897 0.1608 0.7060
vn 0.6897 0.6404 0.3380
vn 0.9995 0.0159 0.0276
vn 0.9485 0.3032 -0.0916
vn 0.7462 -0.5980 -0.2927
vn 0.9528 -0.2571 0.1616
vn 0.9528 0.2226 -0.2064
vn 0.7462 -0.1279 -0.6533
vn -0.9528 -0.2570 0.1616
vn -0.7462 -0.5980 -0.2927
vn -0.7462 -0.1279 -0.6534
vn -0.9995 0.0159 0.0276
vn -0.9528 0.2226 -0.2064
vn -0.6897 0.1608 0.7060
vn -0.9485 -0.1670 0.2691
vn -0.9485 0.3031 -0.0916
vn -0.6897 0.6403 0.3381
vn 0.9485 -0.2310 0.2167
vn 0.6897 -0.0275 0.7236
vn 0.6897 0.5311 0.4922
vn 0.9995 0.0082 0.0308
vn 0.9485 0.3166 -0.0100
vn 0.7462 -0.5019 -0.4374
vn 0.9528 -0.2901 0.0895
vn 0.9528 0.2684 -0.1418
vn 0.7462 0.0456 -0.6641
vn -0.9528 -0.2901 0.0895
vn -0.7462 -0.5018 -0.4375
vn -0.7462 0.0456 -0.6641
vn -0.9995 0.0082 0.0308
vn -0.9528 0.2684 -0.1418
vn -0.6897 -0.0275 0.7236
vn -0.9486 -0.2309 0.2167
vn -0.9485 0.3166 -0.0101
vn -0.6897 0.5310 0.4923
vn 0.9485 -0.2792 0.1496
vn 0.6897 -0.2137 0.6918
vn 0.6897 0.3856 0.6128
vn 0.9995 0.0000 0.0319
vn 0.9486 0.3083 0.0722
vn 0.7462 -0.3716 -0.5524
vn 0.9528 -0.3034 0.0114
vn 0.9528 0.2959 -0.0675
vn 0.7462 0.2160 -0.6297
vn -0.9528 -0.3034 0.0114
vn -0.7462 -0.3715 -0.5524
vn -0.7461 0.2160 -0.6298
vn -0.9995 0.0000 0.0319
vn -0.9528 0.2960 -0.0675
vn -0.6897 -0.2137 0.6918
vn -0.9485 -0.2792 0.1496
vn -0.9486 0.3083 0.0722
vn -0.6898 0.3855 0.6128
vn 0.2556 -0.7042 0.6624
vn -0.2886 0.5984 0.7475
vn -0.2885 0.7713 -0.5674
vn 0.2557 -0.5090 -0.8219
vn -0.2556 -0.7043 0.6623
vn 0.2885 0.5981 0.7476
vn 0.2886 0.7713 -0.5673
vn -0.2556 -0.5088 -0.8221
vn -0.2885 0.5981 0.7476
vn 0.2556 -0.7043 0.6622
vn 0.2556 -0.5088 -0.8221
vn -0.2886 0.7713 -0.5673
vn 0.2886 0.5982 0.7476
vn -0.2556 -0.7042 0.6624
vn -0.2557 -0.5091 -0.8218
vn 0.2556 -0.8517 0.4574
vn -0.2886 0.3844 0.8769
vn -0.2886 0.8919 -0.3483
vn 0.2556 -0.2788 -0.9257
vn -0.2556 -0.8517 0.4574
vn 0.2886 0.3844 0.8769
vn 0.2886 0.8919 -0.3483
vn -0.2556 -0.2788 -0.9257
vn -0.2886 0.3843 0.8769
vn 0.2557 -0.8518 0.4573
vn -0.2886 0.8919 -0.3482
vn 0.2886 0.3843 0.8769
vn 0.2556 -0.9411 0.2214
vn -0.2886 0.1443 0.9465
vn -0.2886 0.9516 -0.1055
vn 0.2556 -0.0297 -0.9663
vn -0.2556 -0.9411 0.2214
vn 0.2886 0.1443 0.9465
vn 0.2886 0.9516 -0.1055
vn -0.2556 -0.0297 -0.9663
vn 0.2557 -0.9411 0.2213
vn -0.2886 0.9516 -0.1056
vn -0.2556 -0.9411 0.2215
vn 0.2886 0.9516 -0.1056
vn 0.2556 -0.9663 -0.0297
vn -0.2886 -0.1056 0.9516
vn -0.2886 0.9465 0.1443
vn 0.2557 0.2213 -0.9411
vn -0.2556 -0.9663 -0.0297
vn 0.2886 -0.1056 0.9516
vn 0.2886 0.9465 0.1443
vn -0.2556 0.2215 -0.9411
vn -0.2886 -0.1055 0.9516
vn 0.2556 -0.9663 -0.0296
vn 0.2556 0.2214 -0.9411
vn 0.2885 -0.1057 0.9516
vn -0.2556 -0.9663 -0.0296
vn -0.2556 0.2214 -0.9411
vn 0.2556 -0.9257 -0.2788
vn -0.2886 -0.3483 0.8919
vn -0.2886 0.8769 0.3843
vn 0.2556 0.4574 -0.8517
vn -0.2556 -0.9257 -0.2788
vn 0.2886 -0.3483 0.8919
vn 0.2886 0.8769 0.3843
vn -0.2557 0.4573 -0.8518
vn 0.2557 0.4573 -0.8518
vn -0.2557 0.4572 -0.8518
vn 0.2885 0.8770 0.3843
vn 0.2557 -0.8218 -0.5091
vn -0.2886 -0.5673 0.7713
vn -0.2886 0.7476 0.5982
vn 0.2556 0.6623 -0.7043
vn -0.2556 -0.8221 -0.5088
vn 0.2886 -0.5673 0.7713
vn 0.2885 0.7476 0.5981
vn -0.2556 0.6623 -0.7043
vn 0.2556 -0.8221 -0.5088
vn 0.2556 0.6622 -0.7043
vn -0.2885 0.7476 0.5981
vn 0.2885 -0.5674 0.7713
vn -0.2557 -0.8219 -0.5090
vn 0.2886 0.7476 0.5982
vn 0.6915 -0.6977 0.1870
vn 0.3827 -0.8924 0.2391
vn 0.1983 0.9467 -0.2537
vn 0.7234 0.6669 -0.1787
vn -0.7234 0.6669 -0.1787
vn -0.1983 0.9468 -0.2537
vn -0.3827 -0.8924 0.2391
vn -0.6915 -0.6977 0.1870
vn 0.6915 -0.6256 0.3612
vn 0.3827 -0.8001 0.4619
vn 0.1983 0.8488 -0.4901
vn 0.7234 0.5980 -0.3452
vn -0.7234 0.5980 -0.3452
vn -0.1983 0.8488 -0.4901
vn -0.3827 -0.8001 0.4619
vn -0.6915 -0.6256 0.3612
vn 0.6915 -0.5108 0.5108
vn 0.3827 -0.6533 0.6533
vn 0.1983 0.6931 -0.6931
vn 0.7234 0.4882 -0.4882
vn -0.7234 0.4882 -0.4882
vn -0.1983 0.6931 -0.6931
vn -0.3827 -0.6533 0.6533
vn -0.6915 -0.5108 0.5108
vn 0.6915 -0.3612 0.6256
vn 0.3827 -0.4619 0.8001
vn 0.1983 0.4901 -0.8488
vn 0.7234 0.3452 -0.5980
vn -0.7234 0.3452 -0.5980
vn -0.1983 0.4901 -0.8488
vn -0.3827 -0.4619 0.8001
vn -0.6915 -0.3612 0.6256
vn 0.6915 -0.1870 0.6977
vn 0.3827 -0.2391 0.8924
vn 0.1983 0.2537 -0.9467
vn 0.7234 0.1787 -0.6669
vn -0.7234 0.1787 -0.6669
vn -0.1983 0.2537 -0.9467
vn -0.3827 -0.2391 0.8924
vn -0.6915 -0.1870 0.6977
vn 0.6897 -0.6128 0.3856
vn 0.9486 -0.0722 0.3083
vn 0.9995 -0.0308 0.0082
vn 0.6897 -0.6918 -0.2137
vn 0.9485 -0.1496 -0.2792
vn 0.9528 0.0675 0.2959
vn 0.7462 0.6297 0.2160
vn 0.9528 -0.0114 -0.3034
vn 0.7462 0.5524 -0.3716
vn -0.7461 0.6298 0.2160
vn -0.9528 0.0675 0.2960
vn -0.9995 -0.0308 0.0082
vn -0.7462 0.5524 -0.3715
vn -0.9528 -0.0114 -0.3034
vn -0.9485 -0.0722 0.3083
vn -0.6897 -0.6128 0.3856
vn -0.9485 -0.1496 -0.2792
vn -0.6897 -0.6918 -0.2137
vn 0.6897 -0.4922 0.5311
vn 0.9485 0.0101 0.3165
vn 0.9995 -0.0276 0.0159
vn 0.6897 -0.7235 -0.0275
vn 0.9485 -0.2167 -0.2309
vn 0.9528 0.1417 0.2685
vn 0.7462 0.6641 0.0456
vn 0.9528 -0.0896 -0.2901
vn 0.7462 0.4374 -0.5019
vn -0.7462 0.6642 0.0456
vn -0.9528 0.1418 0.2684
vn -0.9995 -0.0276 0.0159
vn -0.7462 0.4375 -0.5018
vn -0.9528 -0.0896 -0.2901
vn -0.9485 0.0101 0.3165
vn -0.6897 -0.4922 0.5311
vn -0.9485 -0.2167 -0.2309
vn -0.6897 -0.7235 -0.0275
vn 0.6897 -0.3380 0.6403
vn 0.9485 0.0917 0.3032
vn 0.9995 -0.0225 0.0225
vn 0.6897 -0.7060 0.1607
vn 0.9485 -0.2691 -0.1670
vn 0.9528 0.2064 0.2226
vn 0.7462 0.6533 -0.1279
vn 0.9528 -0.1616 -0.2570
vn 0.7462 0.2926 -0.5980
vn -0.7462 0.6534 -0.1279
vn -0.9528 0.2064 0.2226
vn -0.9995 -0.0225 0.0225
vn -0.7462 0.2926 -0.5980
vn -0.9528 -0.1616 -0.2570
vn -0.9485 0.0916 0.3031
vn -0.6897 -0.3380 0.6403
vn -0.9485 -0.2691 -0.1670
vn -0.6897 -0.7060 0.1607
vn 0.6897 -0.1608 0.7060
vn 0.9485 0.1670 0.2691
vn 0.9995 -0.0159 0.0276
vn 0.6897 -0.6404 0.3380
vn 0.9485 -0.3032 -0.0916
vn 0.9528 0.2571 0.1616
vn 0.7462 0.5980 -0.2927
vn 0.9528 -0.2226 -0.2064
vn 0.7462 0.1279 -0.6533
vn -0.7462 0.5980 -0.2927
vn -0.9528 0.2570 0.1616
vn -0.9995 -0.0159 0.0276
vn -0.7462 0.1279 -0.6534
vn -0.9528 -0.2226 -0.2064
vn -0.9485 0.1670 0.2691
vn -0.6897 -0.1608 0.7060
vn -0.9485 -0.3031 -0.0916
vn -0.6897 -0.6403 0.3381
vn 0.6897 0.0275 0.7236
vn 0.9485 0.2310 0.2167
vn 0.9995 -0.0082 0.0308
vn 0.6897 -0.5311 0.4922
vn 0.9485 -0.3166 -0.0100
vn 0.9528 0.2901 0.0895
vn 0.7462 0.5019 -0.4374
vn 0.9528 -0.2684 -0.1418
vn 0.7462 -0.0456 -0.6641
vn -0.7462 0.5018 -0.4375
vn -0.9528 0.2901 0.0895
vn -0.9995 -0.0082 0.0308
vn -0.7462 -0.0456 -0.6641
vn -0.9528 -0.2684 -0.1418
vn -0.9486 0.2309 0.2167
vn -0.6897 0.0275 0.7236
vn -0.9485 -0.3166 -0.0101
vn -0.6897 -0.5310 0.4923
vn 0.6897 0.2137 0.6918
vn 0.9485 0.2792 0.1496
vn 0.6897 -0.3856 0.6128
vn 0.9486 -0.3083 0.0722
vn 0.9528 0.3034 0.0114
vn 0.7462 0.3716 -0.5524
vn 0.9528 -0.2959 -0.0675
vn 0.7462 -0.2160 -0.6297
vn -0.7462 0.3715 -0.5524
vn -0.9528 0.3034 0.0114
vn -0.7461 -0.2160 -0.6298
vn -0.9528 -0.2960 -0.0675
vn -0.9485 0.2792 0.1496
vn -0.6897 0.2137 0.6918
vn -0.9486 -0.3083 0.0722
vn -0.6898 -0.3855 0.6128
vn -0.2886 -0.5984 0.7475
vn 0.2556 0.7042 0.6624
vn -0.2885 -0.7713 -0.5674
vn 0.2557 0.5090 -0.8219
vn 0.2885 -0.5981 0.7476
vn -0.2556 0.7043 0.6623
vn 0.2886 -0.7713 -0.5673
vn -0.2556 0.5088 -0.8221
vn 0.2556 0.7043 0.6622
vn -0.2885 -0.5981 0.7476
vn 0.2556 0.5088 -0.8221
vn -0.2886 -0.7713 -0.5673
vn -0.2556 0.7042 0.6624
vn 0.2886 -0.5982 0.7476
vn -0.2557 0.5091 -0.8218
vn -0.2886 -0.3844 0.8769
vn 0.2556 0.8517 0.4574
vn -0.2886 -0.8919 -0.3483
vn 0.2556 0.2788 -0.9257
vn 0.2886 -0.3844 0.8769
vn -0.2556 0.8517 0.4574
vn 0.2886 -0.8919 -0.3483
vn -0.2556 0.2788 -0.9257
vn 0.2557 0.8518 0.4573
vn -0.2886 -0.3843 0.8769
vn -0.2886 -0.8919 -0.3482
vn 0.2886 -0.3843 0.8769
vn -0.2886 -0.1443 0.9465
vn 0.2556 0.9411 0.2214
vn -0.2886 -0.9516 -0.1055
vn 0.2556 0.0297 -0.9663
vn 0.2886 -0.1443 0.9465
vn -0.2556 0.9411 0.2214
vn 0.2886 -0.9516 -0.1055
vn -0.2556 0.0297 -0.9663
vn 0.2557 0.9411 0.2213
vn -0.2886 -0.9516 -0.1056
vn -0.2556 0.9411 0.2215
vn 0.2886 -0.9516 -0.1056
vn -0.2886 0.1056 0.9516
vn 0.2556 0.9663 -0.0297
vn -0.2886 -0.9465 0.1443
vn 0.2557 -0.2213 -0.9411
vn 0.2886 0.1056 0.9516
vn -0.2556 0.9663 -0.0297
vn 0.2886 -0.9465 0.1443
vn -0.2556 -0.2215 -0.9411
vn 0.2556 0.9663 -0.0296
vn -0.2886 0.1055 0.9516
vn 0.2556 -0.2214 -0.9411
vn -0.2556 0.9663 -0.0296
vn 0.2885 0.1057 0.9516
vn -0.2556 -0.2214 -0.9411
vn -0.2886 0.3483 0.8919
vn 0.2556 0.9257 -0.2788
vn -0.2886 -0.8769 0.3843
vn 0.2556 -0.4574 -0.8517
vn 0.2886 0.3483 0.8919
vn -0.2556 0.9257 -0.2788
vn 0.2886 -0.8769 0.3843
vn -0.2557 -0.4573 -0.8518
vn 0.2557 -0.4573 -0.8518
vn -0.2557 -0.4572 -0.8518
vn 0.2885 -0.8770 0.3843
vn -0.2886 0.5673 0.7713
vn 0.2557 0.8218 -0.5091
vn -0.2886 -0.7476 0.5982
vn 0.2556 -0.6623 -0.7043
vn 0.2886 0.5673 0.7713
vn -0.2556 0.8221 -0.5088
vn 0.2885 -0.7476 0.5981
vn -0.2556 -0.6623 -0.7043
vn 0.2556 0.8221 -0.5088
vn 0.2556 -0.6622 -0.7043
vn -0.2885 -0.7476 0.5981
vn -0.2557 0.8219 -0.5090
vn 0.2885 0.5674 0.7713
vn 0.2886 -0.7476 0.5982
vn -0.9967 -0.0815 0.0000
vn -0.9967 0.0812 0.0000
vn -1.0000 0.0000 0.0000
vn 1.0000 0.0000 -0.0000
vn 0.9966 0.0820 -0.0000
vn 0.9895 -0.1448 -0.0000
vn -0.9895 -0.1448 0.0000
vn -0.9895 0.1448 0.0000
vn 0.9895 0.1448 -0.0000
vn -0.9967 0.0407 0.0706
vn -0.9967 -0.0406 -0.0704
vn 1.0000 -0.0000 -0.0000
vn 0.9966 -0.0410 -0.0710
vn 0.9895 0.0724 0.1254
vn -0.9895 0.0724 0.1254
vn -0.9895 -0.0724 -0.1254
vn 0.9895 -0.0724 -0.1254
vn -0.9967 0.0407 -0.0706
vn -0.9967 -0.0406 0.0704
vn -1.0000 -0.0000 0.0000
vn 0.9966 -0.0410 0.0710
vn 0.9895 0.0724 -0.1254
vn -0.9895 0.0724 -0.1254
vn -0.9895 -0.0724 0.1254
vn 0.9895 -0.0724 0.1254
# 949 vertex normals

vt 0.0572 0.0000 0.0000
vt 0.1250 0.0000 0.0000
vt 0.1250 0.0417 0.0000
vt 0.0572 0.0417 0.0000
vt 0.3750 0.0000 0.0000
vt 0.4918 0.0000 0.0000
vt 0.4918 0.0417 0.0000
vt 0.3750 0.0417 0.0000
vt 0.5082 0.0000 0.0000
vt 0.6250 0.0000 0.0000
vt 0.6250 0.0417 0.0000
vt 0.5082 0.0417 0.0000
vt 0.8750 0.0000 0.0000
vt 0.9428 0.0000 0.0000
vt 0.9428 0.0417 0.0000
vt 0.8750 0.0417 0.0000
vt 0.1250 0.0833 0.0000
vt 0.0572 0.0833 0.0000
vt 0.4918 0.0833 0.0000
vt 0.3750 0.0833 0.0000
vt 0.6250 0.0833 0.0000
vt 0.5082 0.0833 0.0000
vt 0.9428 0.0833 0.0000
vt 0.8750 0.0833 0.0000
vt 0.1250 0.1250 0.0000
vt 0.0572 0.1250 0.0000
vt 0.4918 0.1250 0.0000
vt 0.3750 0.1250 0.0000
vt 0.6250 0.1250 0.0000
vt 0.5082 0.1250 0.0000
vt 0.9428 0.1250 0.0000
vt 0.8750 0.1250 0.0000
vt 0.1250 0.1667 0.0000
vt 0.0572 0.1667 0.0000
vt 0.4918 0.1667 0.0000
vt 0.3750 0.1667 0.0000
vt 0.6250 0.1667 0.0000
vt 0.5082 0.1667 0.0000
vt 0.9428 0.1667 0.0000
vt 0.8750 0.1667 0.0000
vt 0.1250 0.2083 0.0000
vt 0.0572 0.2083 0.0000
vt 0.4918 0.2083 0.0000
vt 0.3750 0.2083 0.0000
vt 0.6250 0.2083 0.0000
vt 0.5082 0.2083 0.0000
vt 0.9428 0.2083 0.0000
vt 0.8750 0.2083 0.0000
vt 0.1250 0.2500 0.0000
vt 0.0572 0.2500 0.0000
vt 0.4918 0.2500 0.0000
vt 0.3750 0.2500 0.0000
vt 0.6250 0.2500 0.0000
vt 0.5082 0.2500 0.0000
vt 0.9428 0.2500 0.0000
vt 0.8750 0.2500 0.0000
vt 0.2500 0.0000 0.0000
vt 0.2500 0.0417 0.0000
vt 0.7500 0.0000 0.0000
vt 0.7500 0.0417 0.0000
vt 0.2500 0.0833 0.0000
vt 0.7500 0.0833 0.0000
vt 0.2500 0.1250 0.0000
vt 0.7500 0.1250 0.0000
vt 0.2500 0.1667 0.0000
vt 0.7500 0.1667 0.0000
vt 0.2500 0.2083 0.0000
vt 0.7500 0.2083 0.0000
vt 0.2500 0.2500 0.0000
vt 0.7500 0.2500 0.0000
vt 1.0000 0.0323 0.0000
vt 1.0000 0.9677 0.0000
vt 0.0000 0.9683 0.0000
vt 0.0000 0.0317 0.0000
vt 0.0000 0.0323 0.0000
vt 1.0000 0.0317 0.0000
vt 1.0000 0.9683 0.0000
vt 0.0000 0.9677 0.0000
vt 1.0000 1.0000 0.0000
vt 1.0000 0.0000 0.0000
vt 0.0323 0.0000 0.0000
vt 0.0000 0.0000 0.0000
vt 0.0323 1.0000 0.0000
vt 0.0000 1.0000 0.0000
# 84 texture coords

o stargate_a_base
g stargate_a_base
usemtl 01___Default
s 1
f 1/1/1 2/2/2 3/3/3 4/4/4 
f 5/5/5 6/6/6 7/7/7 8/8/8 
f 9/9/9 10/10/10 11/11/11 12/12/12 
f 13/13/13 14/14/14 15/15/15 16/16/16 
f 4/4/4 3/3/3 17/17/17 18/18/18 
f 8/8/8 7/7/7 19/19/19 20/20/20 
f 12/12/12 11/11/11 21/21/21 22/22/22 
f 16/16/16 15/15/15 23/23/23 24/24/24 
f 18/18/18 17/17/17 25/25/25 26/26/26 
f 20/20/20 19/19/19 27/27/27 28/28/28 
f 22/22/22 21/21/21 29/29/29 30/30/30 
f 24/24/24 23/23/23 31/31/31 32/32/32 
f 26/26/26 25/25/25 33/33/33 34/34/34 
f 28/28/28 27/27/27 35/35/35 36/36/36 
f 30/30/30 29/29/29 37/37/37 38/38/38 
f 32/32/32 31/31/31 39/39/39 40/40/40 
f 34/34/34 33/33/33 41/41/41 42/42/42 
f 36/36/36 35/35/35 43/43/43 44/44/44 
f 38/38/38 37/37/37 45/45/45 46/46/46 
f 40/40/40 39/39/39 47/47/47 48/48/48 
f 42/42/42 41/41/41 49/49/49 50/50/50 
f 44/44/44 43/43/43 51/51/51 52/52/52 
f 46/46/46 45/45/45 53/53/53 54/54/54 
f 48/48/48 47/47/47 55/55/55 56/56/56 
s 2
f 2/2/2 57/57/57 58/57/58 59/2/59 
f 57/57/57 60/58/60 61/58/61 58/57/58 
f 60/58/60 3/3/3 62/3/62 61/58/61 
f 3/3/3 2/2/2 59/2/59 62/3/62 
s 4
f 57/57/57 5/5/5 63/5/63 64/57/64 
f 5/5/5 8/8/8 65/8/65 63/5/63 
f 8/8/8 60/58/60 66/58/66 65/8/65 
f 60/58/60 57/57/57 64/57/64 66/58/66 
s 2
f 10/10/10 67/59/67 68/59/68 69/10/69 
f 67/59/67 70/60/70 71/60/71 68/59/68 
f 70/60/70 11/11/11 72/11/72 71/60/71 
f 11/11/11 10/10/10 69/10/69 72/11/72 
s 4
f 67/59/67 13/13/13 73/13/73 74/59/74 
f 13/13/13 16/16/16 75/16/75 73/13/73 
f 16/16/16 70/60/70 76/60/76 75/16/75 
f 70/60/70 67/59/67 74/59/74 76/60/76 
s 2
f 3/3/3 60/58/60 77/58/77 78/3/78 
f 60/58/60 79/61/79 80/61/80 77/58/77 
f 79/61/79 17/17/17 81/17/81 80/61/80 
f 17/17/17 3/3/3 78/3/78 81/17/81 
s 4
f 60/58/60 8/8/8 82/8/82 83/58/83 
f 8/8/8 20/20/20 84/20/84 82/8/82 
f 20/20/20 79/61/79 85/61/85 84/20/84 
f 79/61/79 60/58/60 83/58/83 85/61/85 
s 2
f 11/11/11 70/60/70 86/60/86 87/11/87 
f 70/60/70 88/62/88 89/62/89 86/60/86 
f 88/62/88 21/21/21 90/21/90 89/62/89 
f 21/21/21 11/11/11 87/11/87 90/21/90 
s 4
f 70/60/70 16/16/16 91/16/91 92/60/92 
f 16/16/16 24/24/24 93/24/93 91/16/91 
f 24/24/24 88/62/88 94/62/94 93/24/93 
f 88/62/88 70/60/70 92/60/92 94/62/94 
s 2
f 17/17/17 79/61/79 95/61/95 96/17/96 
f 79/61/79 97/63/97 98/63/98 95/61/95 
f 97/63/97 25/25/25 99/25/99 98/63/98 
f 25/25/25 17/17/17 96/17/96 99/25/99 
s 4
f 79/61/79 20/20/20 100/20/100 101/61/101 
f 20/20/20 28/28/28 102/28/102 100/20/100 
f 28/28/28 97/63/97 103/63/103 102/28/102 
f 97/63/97 79/61/79 101/61/101 103/63/103 
s 2
f 21/21/21 88/62/88 104/62/104 105/21/105 
f 88/62/88 106/64/106 107/64/107 104/62/104 
f 106/64/106 29/29/29 108/29/108 107/64/107 
f 29/29/29 21/21/21 105/21/105 108/29/108 
s 4
f 88/62/88 24/24/24 109/24/109 110/62/110 
f 24/24/24 32/32/32 111/32/111 109/24/109 
f 32/32/32 106/64/106 112/64/112 111/32/111 
f 106/64/106 88/62/88 110/62/110 112/64/112 
s 2
f 25/25/25 97/63/97 113/63/113 114/25/114 
f 97/63/97 115/65/115 116/65/116 113/63/113 
f 115/65/115 33/33/33 117/33/117 116/65/116 
f 33/33/33 25/25/25 114/25/114 117/33/117 
s 4
f 97/63/97 28/28/28 118/28/118 119/63/119 
f 28/28/28 36/36/36 120/36/120 118/28/118 
f 36/36/36 115/65/115 121/65/121 120/36/120 
f 115/65/115 97/63/97 119/63/119 121/65/121 
s 2
f 29/29/29 106/64/106 122/64/122 123/29/123 
f 106/64/106 124/66/124 125/66/125 122/64/122 
f 124/66/124 37/37/37 126/37/126 125/66/125 
f 37/37/37 29/29/29 123/29/123 126/37/126 
s 4
f 106/64/106 32/32/32 127/32/127 128/64/128 
f 32/32/32 40/40/40 129/40/129 127/32/127 
f 40/40/40 124/66/124 130/66/130 129/40/129 
f 124/66/124 106/64/106 128/64/128 130/66/130 
s 2
f 33/33/33 115/65/115 131/65/131 132/33/132 
f 115/65/115 133/67/133 134/67/134 131/65/131 
f 133/67/133 41/41/41 135/41/135 134/67/134 
f 41/41/41 33/33/33 132/33/132 135/41/135 
s 4
f 115/65/115 36/36/36 136/36/136 137/65/137 
f 36/36/36 44/44/44 138/44/138 136/36/136 
f 44/44/44 133/67/133 139/67/139 138/44/138 
f 133/67/133 115/65/115 137/65/137 139/67/139 
s 2
f 37/37/37 124/66/124 140/66/140 141/37/141 
f 124/66/124 142/68/142 143/68/143 140/66/140 
f 142/68/142 45/45/45 144/45/144 143/68/143 
f 45/45/45 37/37/37 141/37/141 144/45/144 
s 4
f 124/66/124 40/40/40 145/40/145 146/66/146 
f 40/40/40 48/48/48 147/48/147 145/40/145 
f 48/48/48 142/68/142 148/68/148 147/48/147 
f 142/68/142 124/66/124 146/66/146 148/68/148 
s 2
f 41/41/41 133/67/133 149/67/149 150/41/150 
f 133/67/133 151/69/151 152/69/152 149/67/149 
f 151/69/151 49/49/49 153/49/153 152/69/152 
f 49/49/49 41/41/41 150/41/150 153/49/153 
s 4
f 133/67/133 44/44/44 154/44/154 155/67/155 
f 44/44/44 52/52/52 156/52/156 154/44/154 
f 52/52/52 151/69/151 157/69/157 156/52/156 
f 151/69/151 133/67/133 155/67/155 157/69/157 
s 2
f 45/45/45 142/68/142 158/68/158 159/45/159 
f 142/68/142 160/70/160 161/70/161 158/68/158 
f 160/70/160 53/53/53 162/53/162 161/70/161 
f 53/53/53 45/45/45 159/45/159 162/53/162 
s 4
f 142/68/142 48/48/48 163/48/163 164/68/164 
f 48/48/48 56/56/56 165/56/165 163/48/163 
usemtl 03___Default
f 56/56/56 160/70/160 166/70/166 165/56/165 
usemtl 01___Default
f 160/70/160 142/68/142 164/68/164 166/70/166 
s 1
f 59/2/59 58/57/58 167/57/167 168/2/168 
s 4
f 58/57/58 61/58/61 169/58/169 167/57/167 
s 1
f 61/58/61 62/3/62 170/3/170 169/58/169 
s 4
f 62/3/62 59/2/59 168/2/168 170/3/170 
s 1
f 64/57/64 63/5/63 171/5/171 172/57/172 
s 2
f 63/5/63 65/8/65 173/8/173 171/5/171 
s 1
f 65/8/65 66/58/66 174/58/174 173/8/173 
s 2
f 66/58/66 64/57/64 172/57/172 174/58/174 
s 1
f 69/10/69 68/59/68 175/59/175 176/10/176 
s 4
f 68/59/68 71/60/71 177/60/177 175/59/175 
s 1
f 71/60/71 72/11/72 178/11/178 177/60/177 
s 4
f 72/11/72 69/10/69 176/10/176 178/11/178 
s 1
f 74/59/74 73/13/73 179/13/179 180/59/180 
s 2
f 73/13/73 75/16/75 181/16/174 179/13/179 
s 1
f 75/16/75 76/60/76 182/60/173 181/16/174 
s 2
f 76/60/76 74/59/74 180/59/180 182/60/173 
s 1
f 78/3/78 77/58/77 183/58/181 184/3/182 
s 4
f 77/58/77 80/61/80 185/61/183 183/58/181 
s 1
f 80/61/80 81/17/81 186/17/184 185/61/183 
s 4
f 81/17/81 78/3/78 184/3/182 186/17/184 
s 1
f 83/58/83 82/8/82 187/8/185 188/58/186 
s 2
f 82/8/82 84/20/84 189/20/187 187/8/185 
s 1
f 84/20/84 85/61/85 190/61/188 189/20/187 
s 2
f 85/61/85 83/58/83 188/58/186 190/61/188 
s 1
f 87/11/87 86/60/86 191/60/182 192/11/181 
s 4
f 86/60/86 89/62/89 193/62/184 191/60/182 
s 1
f 89/62/89 90/21/90 194/21/189 193/62/184 
s 4
f 90/21/90 87/11/87 192/11/181 194/21/189 
s 1
f 92/60/92 91/16/91 195/16/190 196/60/185 
s 2
f 91/16/91 93/24/93 197/24/188 195/16/190 
s 1
f 93/24/93 94/62/94 198/62/191 197/24/188 
s 2
f 94/62/94 92/60/92 196/60/185 198/62/191 
s 1
f 96/17/96 95/61/95 199/61/192 200/17/193 
s 4
f 95/61/95 98/63/98 201/63/194 199/61/192 
s 1
f 98/63/98 99/25/99 202/25/195 201/63/194 
s 4
f 99/25/99 96/17/96 200/17/193 202/25/195 
s 1
f 101/61/101 100/20/100 203/20/196 204/61/197 
s 2
f 100/20/100 102/28/102 205/28/198 203/20/196 
s 1
f 102/28/102 103/63/103 206/63/199 205/28/198 
s 2
f 103/63/103 101/61/101 204/61/197 206/63/199 
s 1
f 105/21/105 104/62/104 207/62/193 208/21/192 
s 4
f 104/62/104 107/64/107 209/64/195 207/62/193 
s 1
f 107/64/107 108/29/108 210/29/194 209/64/195 
s 4
f 108/29/108 105/21/105 208/21/192 210/29/194 
s 1
f 110/62/110 109/24/109 211/24/200 212/62/196 
s 2
f 109/24/109 111/32/111 213/32/199 211/24/200 
s 1
f 111/32/111 112/64/112 214/64/198 213/32/199 
s 2
f 112/64/112 110/62/110 212/62/196 214/64/198 
s 1
f 114/25/114 113/63/113 215/63/201 216/25/202 
s 4
f 113/63/113 116/65/116 217/65/203 215/63/201 
s 1
f 116/65/116 117/33/117 218/33/204 217/65/203 
s 4
f 117/33/117 114/25/114 216/25/202 218/33/204 
s 1
f 119/63/119 118/28/118 219/28/205 220/63/206 
s 2
f 118/28/118 120/36/120 221/36/207 219/28/205 
s 1
f 120/36/120 121/65/121 222/65/208 221/36/207 
s 2
f 121/65/121 119/63/119 220/63/206 222/65/208 
s 1
f 123/29/123 122/64/122 223/64/202 224/29/201 
s 4
f 122/64/122 125/66/125 225/66/209 223/64/202 
s 1
f 125/66/125 126/37/126 226/37/203 225/66/209 
s 4
f 126/37/126 123/29/123 224/29/201 226/37/203 
s 1
f 128/64/128 127/32/127 227/32/210 228/64/211 
s 2
f 127/32/127 129/40/129 229/40/208 227/32/210 
s 1
f 129/40/129 130/66/130 230/66/207 229/40/208 
s 2
f 130/66/130 128/64/128 228/64/211 230/66/207 
s 1
f 132/33/132 131/65/131 231/65/212 232/33/213 
s 4
f 131/65/131 134/67/134 233/67/214 231/65/212 
s 1
f 134/67/134 135/41/135 234/41/215 233/67/214 
s 4
f 135/41/135 132/33/132 232/33/213 234/41/215 
s 1
f 137/65/137 136/36/136 235/36/216 236/65/217 
s 2
f 136/36/136 138/44/138 237/44/218 235/36/216 
s 1
f 138/44/138 139/67/139 238/67/219 237/44/218 
s 2
f 139/67/139 137/65/137 236/65/217 238/67/219 
s 1
f 141/37/141 140/66/140 239/66/220 240/37/212 
s 4
f 140/66/140 143/68/143 241/68/221 239/66/220 
s 1
f 143/68/143 144/45/144 242/45/222 241/68/221 
s 4
f 144/45/144 141/37/141 240/37/212 242/45/222 
s 1
f 146/66/146 145/40/145 243/40/217 244/66/223 
s 2
f 145/40/145 147/48/147 245/48/224 243/40/217 
s 1
f 147/48/147 148/68/148 246/68/218 245/48/224 
s 2
f 148/68/148 146/66/146 244/66/223 246/68/218 
s 1
f 150/41/150 149/67/149 247/67/225 248/41/226 
s 4
f 149/67/149 152/69/152 249/69/227 247/67/225 
s 1
f 152/69/152 153/49/153 250/49/228 249/69/227 
s 4
f 153/49/153 150/41/150 248/41/226 250/49/228 
s 1
f 155/67/155 154/44/154 251/44/229 252/67/230 
s 2
f 154/44/154 156/52/156 253/52/231 251/44/229 
s 1
f 156/52/156 157/69/157 254/69/232 253/52/231 
s 2
f 157/69/157 155/67/155 252/67/230 254/69/232 
s 1
f 159/45/159 158/68/158 255/68/233 256/45/225 
usemtl 03___Default
s 4
f 158/68/158 161/70/161 257/70/234 255/68/233 
usemtl 01___Default
s 1
f 161/70/161 162/53/162 258/53/235 257/70/234 
s 4
f 162/53/162 159/45/159 256/45/225 258/53/235 
s 1
f 164/68/164 163/48/163 259/48/236 260/68/237 
s 2
f 163/48/163 165/56/165 261/56/232 259/48/236 
usemtl 03___Default
s 1
f 165/56/165 166/70/166 262/70/238 261/56/232 
s 2
f 166/70/166 164/68/164 260/68/237 262/70/238 
s 1
f 6/6/6 9/9/9 12/12/12 7/7/7 
f 7/7/7 12/12/12 22/22/22 19/19/19 
f 19/19/19 22/22/22 30/30/30 27/27/27 
f 27/27/27 30/30/30 38/38/38 35/35/35 
f 35/35/35 38/38/38 46/46/46 43/43/43 
f 43/43/43 46/46/46 54/54/54 51/51/51 
usemtl 01___Default
f 263/1/239 264/4/240 265/3/241 266/2/242 
f 267/5/243 268/8/244 269/7/245 270/6/246 
f 271/9/247 272/12/248 273/11/249 274/10/250 
f 275/13/251 276/16/252 277/15/253 278/14/254 
f 264/4/240 279/18/255 280/17/256 265/3/241 
f 268/8/244 281/20/257 282/19/258 269/7/245 
f 272/12/248 283/22/259 284/21/260 273/11/249 
f 276/16/252 285/24/261 286/23/262 277/15/253 
f 279/18/255 287/26/263 288/25/264 280/17/256 
f 281/20/257 289/28/265 290/27/266 282/19/258 
f 283/22/259 291/30/267 292/29/268 284/21/260 
f 285/24/261 293/32/269 294/31/270 286/23/262 
f 287/26/263 295/34/271 296/33/272 288/25/264 
f 289/28/265 297/36/273 298/35/274 290/27/266 
f 291/30/267 299/38/275 300/37/276 292/29/268 
f 293/32/269 301/40/277 302/39/278 294/31/270 
f 295/34/271 303/42/279 304/41/280 296/33/272 
f 297/36/273 305/44/281 306/43/282 298/35/274 
f 299/38/275 307/46/283 308/45/284 300/37/276 
f 301/40/277 309/48/285 310/47/286 302/39/278 
f 303/42/279 50/50/50 49/49/49 304/41/280 
f 305/44/281 52/52/52 51/51/51 306/43/282 
f 307/46/283 54/54/54 53/53/53 308/45/284 
f 309/48/285 56/56/56 55/55/55 310/47/286 
s 2
f 266/2/242 311/2/287 312/57/288 313/57/289 
f 313/57/289 312/57/288 314/58/290 315/58/291 
f 315/58/291 314/58/290 316/3/292 265/3/241 
f 265/3/241 316/3/292 311/2/287 266/2/242 
s 4
f 313/57/289 317/57/293 318/5/294 267/5/243 
f 267/5/243 318/5/294 319/8/295 268/8/244 
f 268/8/244 319/8/295 320/58/296 315/58/291 
f 315/58/291 320/58/296 317/57/293 313/57/289 
s 2
f 274/10/250 321/10/297 322/59/298 323/59/299 
f 323/59/299 322/59/298 324/60/300 325/60/301 
f 325/60/301 324/60/300 326/11/302 273/11/249 
f 273/11/249 326/11/302 321/10/297 274/10/250 
s 4
f 323/59/299 327/59/303 328/13/304 275/13/251 
f 275/13/251 328/13/304 329/16/305 276/16/252 
f 276/16/252 329/16/305 330/60/306 325/60/301 
f 325/60/301 330/60/306 327/59/303 323/59/299 
s 2
f 265/3/241 331/3/307 332/58/308 315/58/291 
f 315/58/291 332/58/308 333/61/309 334/61/310 
f 334/61/310 333/61/309 335/17/311 280/17/256 
f 280/17/256 335/17/311 331/3/307 265/3/241 
s 4
f 315/58/291 336/58/312 337/8/313 268/8/244 
f 268/8/244 337/8/313 338/20/314 281/20/257 
f 281/20/257 338/20/314 339/61/315 334/61/310 
f 334/61/310 339/61/315 336/58/312 315/58/291 
s 2
f 273/11/249 340/11/316 341/60/317 325/60/301 
f 325/60/301 341/60/317 342/62/318 343/62/319 
f 343/62/319 342/62/318 344/21/320 284/21/260 
f 284/21/260 344/21/320 340/11/316 273/11/249 
s 4
f 325/60/301 345/60/321 346/16/322 276/16/252 
f 276/16/252 346/16/322 347/24/323 285/24/261 
f 285/24/261 347/24/323 348/62/324 343/62/319 
f 343/62/319 348/62/324 345/60/321 325/60/301 
s 2
f 280/17/256 349/17/325 350/61/326 334/61/310 
f 334/61/310 350/61/326 351/63/327 352/63/328 
f 352/63/328 351/63/327 353/25/329 288/25/264 
f 288/25/264 353/25/329 349/17/325 280/17/256 
s 4
f 334/61/310 354/61/330 355/20/331 281/20/257 
f 281/20/257 355/20/331 356/28/332 289/28/265 
f 289/28/265 356/28/332 357/63/333 352/63/328 
f 352/63/328 357/63/333 354/61/330 334/61/310 
s 2
f 284/21/260 358/21/334 359/62/335 343/62/319 
f 343/62/319 359/62/335 360/64/336 361/64/337 
f 361/64/337 360/64/336 362/29/338 292/29/268 
f 292/29/268 362/29/338 358/21/334 284/21/260 
s 4
f 343/62/319 363/62/339 364/24/340 285/24/261 
f 285/24/261 364/24/340 365/32/341 293/32/269 
f 293/32/269 365/32/341 366/64/342 361/64/337 
f 361/64/337 366/64/342 363/62/339 343/62/319 
s 2
f 288/25/264 367/25/343 368/63/344 352/63/328 
f 352/63/328 368/63/344 369/65/345 370/65/346 
f 370/65/346 369/65/345 371/33/347 296/33/272 
f 296/33/272 371/33/347 367/25/343 288/25/264 
s 4
f 352/63/328 372/63/348 373/28/349 289/28/265 
f 289/28/265 373/28/349 374/36/350 297/36/273 
f 297/36/273 374/36/350 375/65/351 370/65/346 
f 370/65/346 375/65/351 372/63/348 352/63/328 
s 2
f 292/29/268 376/29/352 377/64/353 361/64/337 
f 361/64/337 377/64/353 378/66/354 379/66/355 
f 379/66/355 378/66/354 380/37/356 300/37/276 
f 300/37/276 380/37/356 376/29/352 292/29/268 
s 4
f 361/64/337 381/64/357 382/32/358 293/32/269 
f 293/32/269 382/32/358 383/40/359 301/40/277 
f 301/40/277 383/40/359 384/66/360 379/66/355 
f 379/66/355 384/66/360 381/64/357 361/64/337 
s 2
f 296/33/272 385/33/361 386/65/362 370/65/346 
f 370/65/346 386/65/362 387/67/363 388/67/364 
f 388/67/364 387/67/363 389/41/365 304/41/280 
f 304/41/280 389/41/365 385/33/361 296/33/272 
s 4
f 370/65/346 390/65/366 391/36/367 297/36/273 
f 297/36/273 391/36/367 392/44/368 305/44/281 
f 305/44/281 392/44/368 393/67/369 388/67/364 
f 388/67/364 393/67/369 390/65/366 370/65/346 
s 2
f 300/37/276 394/37/370 395/66/371 379/66/355 
f 379/66/355 395/66/371 396/68/372 397/68/373 
f 397/68/373 396/68/372 398/45/374 308/45/284 
f 308/45/284 398/45/374 394/37/370 300/37/276 
s 4
f 379/66/355 399/66/375 400/40/376 301/40/277 
f 301/40/277 400/40/376 401/48/377 309/48/285 
f 309/48/285 401/48/377 402/68/378 397/68/373 
f 397/68/373 402/68/378 399/66/375 379/66/355 
s 2
f 304/41/280 403/41/379 404/67/380 388/67/364 
f 388/67/364 404/67/380 405/69/381 151/69/151 
f 151/69/151 405/69/381 406/49/382 49/49/49 
f 49/49/49 406/49/382 403/41/379 304/41/280 
s 4
f 388/67/364 407/67/383 408/44/384 305/44/281 
f 305/44/281 408/44/384 409/52/385 52/52/52 
f 52/52/52 409/52/385 410/69/386 151/69/151 
f 151/69/151 410/69/386 407/67/383 388/67/364 
s 2
f 308/45/284 411/45/387 412/68/388 397/68/373 
f 397/68/373 412/68/388 413/70/389 160/70/160 
f 160/70/160 413/70/389 414/53/390 53/53/53 
f 53/53/53 414/53/390 411/45/387 308/45/284 
s 4
f 397/68/373 415/68/391 416/48/392 309/48/285 
f 309/48/285 416/48/392 417/56/393 56/56/56 
usemtl 03___Default
f 56/56/56 417/56/393 418/70/394 160/70/160 
usemtl 01___Default
f 160/70/160 418/70/394 415/68/391 397/68/373 
s 1
f 311/2/287 419/2/395 420/57/396 312/57/288 
s 4
f 312/57/288 420/57/396 421/58/397 314/58/290 
s 1
f 314/58/290 421/58/397 422/3/398 316/3/292 
s 4
f 316/3/292 422/3/398 419/2/395 311/2/287 
s 1
f 317/57/293 423/57/399 424/5/400 318/5/294 
s 2
f 318/5/294 424/5/400 425/8/401 319/8/295 
s 1
f 319/8/295 425/8/401 426/58/402 320/58/296 
s 2
f 320/58/296 426/58/402 423/57/399 317/57/293 
s 1
f 321/10/297 427/10/403 428/59/404 322/59/298 
s 4
f 322/59/298 428/59/404 429/60/405 324/60/300 
s 1
f 324/60/300 429/60/405 430/11/406 326/11/302 
s 4
f 326/11/302 430/11/406 427/10/403 321/10/297 
s 1
f 327/59/303 431/59/407 432/13/408 328/13/304 
s 2
f 328/13/304 432/13/408 433/16/402 329/16/305 
s 1
f 329/16/305 433/16/402 434/60/401 330/60/306 
s 2
f 330/60/306 434/60/401 431/59/407 327/59/303 
s 1
f 331/3/307 435/3/409 436/58/410 332/58/308 
s 4
f 332/58/308 436/58/410 437/61/411 333/61/309 
s 1
f 333/61/309 437/61/411 438/17/412 335/17/311 
s 4
f 335/17/311 438/17/412 435/3/409 331/3/307 
s 1
f 336/58/312 439/58/413 440/8/414 337/8/313 
s 2
f 337/8/313 440/8/414 441/20/415 338/20/314 
s 1
f 338/20/314 441/20/415 442/61/416 339/61/315 
s 2
f 339/61/315 442/61/416 439/58/413 336/58/312 
s 1
f 340/11/316 443/11/410 444/60/409 341/60/317 
s 4
f 341/60/317 444/60/409 445/62/412 342/62/318 
s 1
f 342/62/318 445/62/412 446/21/417 344/21/320 
s 4
f 344/21/320 446/21/417 443/11/410 340/11/316 
s 1
f 345/60/321 447/60/414 448/16/418 346/16/322 
s 2
f 346/16/322 448/16/418 449/24/416 347/24/323 
s 1
f 347/24/323 449/24/416 450/62/419 348/62/324 
s 2
f 348/62/324 450/62/419 447/60/414 345/60/321 
s 1
f 349/17/325 451/17/420 452/61/421 350/61/326 
s 4
f 350/61/326 452/61/421 453/63/422 351/63/327 
s 1
f 351/63/327 453/63/422 454/25/423 353/25/329 
s 4
f 353/25/329 454/25/423 451/17/420 349/17/325 
s 1
f 354/61/330 455/61/424 456/20/425 355/20/331 
s 2
f 355/20/331 456/20/425 457/28/426 356/28/332 
s 1
f 356/28/332 457/28/426 458/63/427 357/63/333 
s 2
f 357/63/333 458/63/427 455/61/424 354/61/330 
s 1
f 358/21/334 459/21/421 460/62/420 359/62/335 
s 4
f 359/62/335 460/62/420 461/64/423 360/64/336 
s 1
f 360/64/336 461/64/423 462/29/422 362/29/338 
s 4
f 362/29/338 462/29/422 459/21/421 358/21/334 
s 1
f 363/62/339 463/62/425 464/24/428 364/24/340 
s 2
f 364/24/340 464/24/428 465/32/427 365/32/341 
s 1
f 365/32/341 465/32/427 466/64/426 366/64/342 
s 2
f 366/64/342 466/64/426 463/62/425 363/62/339 
s 1
f 367/25/343 467/25/429 468/63/430 368/63/344 
s 4
f 368/63/344 468/63/430 469/65/431 369/65/345 
s 1
f 369/65/345 469/65/431 470/33/432 371/33/347 
s 4
f 371/33/347 470/33/432 467/25/429 367/25/343 
s 1
f 372/63/348 471/63/433 472/28/434 373/28/349 
s 2
f 373/28/349 472/28/434 473/36/435 374/36/350 
s 1
f 374/36/350 473/36/435 474/65/436 375/65/351 
s 2
f 375/65/351 474/65/436 471/63/433 372/63/348 
s 1
f 376/29/352 475/29/430 476/64/429 377/64/353 
s 4
f 377/64/353 476/64/429 477/66/437 378/66/354 
s 1
f 378/66/354 477/66/437 478/37/431 380/37/356 
s 4
f 380/37/356 478/37/431 475/29/430 376/29/352 
s 1
f 381/64/357 479/64/438 480/32/439 382/32/358 
s 2
f 382/32/358 480/32/439 481/40/436 383/40/359 
s 1
f 383/40/359 481/40/436 482/66/435 384/66/360 
s 2
f 384/66/360 482/66/435 479/64/438 381/64/357 
s 1
f 385/33/361 483/33/440 484/65/441 386/65/362 
s 4
f 386/65/362 484/65/441 485/67/442 387/67/363 
s 1
f 387/67/363 485/67/442 486/41/443 389/41/365 
s 4
f 389/41/365 486/41/443 483/33/440 385/33/361 
s 1
f 390/65/366 487/65/444 488/36/445 391/36/367 
s 2
f 391/36/367 488/36/445 489/44/446 392/44/368 
s 1
f 392/44/368 489/44/446 490/67/447 393/67/369 
s 2
f 393/67/369 490/67/447 487/65/444 390/65/366 
s 1
f 394/37/370 491/37/441 492/66/448 395/66/371 
s 4
f 395/66/371 492/66/448 493/68/449 396/68/372 
s 1
f 396/68/372 493/68/449 494/45/450 398/45/374 
s 4
f 398/45/374 494/45/450 491/37/441 394/37/370 
s 1
f 399/66/375 495/66/451 496/40/444 400/40/376 
s 2
f 400/40/376 496/40/444 497/48/452 401/48/377 
s 1
f 401/48/377 497/48/452 498/68/446 402/68/378 
s 2
f 402/68/378 498/68/446 495/66/451 399/66/375 
s 1
f 403/41/379 499/41/453 500/67/454 404/67/380 
s 4
f 404/67/380 500/67/454 501/69/455 405/69/381 
s 1
f 405/69/381 501/69/455 502/49/456 406/49/382 
s 4
f 406/49/382 502/49/456 499/41/453 403/41/379 
s 1
f 407/67/383 503/67/457 504/44/458 408/44/384 
s 2
f 408/44/384 504/44/458 505/52/459 409/52/385 
s 1
f 409/52/385 505/52/459 506/69/460 410/69/386 
s 2
f 410/69/386 506/69/460 503/67/457 407/67/383 
s 1
f 411/45/387 507/45/454 508/68/461 412/68/388 
usemtl 03___Default
s 4
f 412/68/388 508/68/461 509/70/462 413/70/389 
usemtl 01___Default
s 1
f 413/70/389 509/70/462 510/53/463 414/53/390 
s 4
f 414/53/390 510/53/463 507/45/454 411/45/387 
s 1
f 415/68/391 511/68/464 512/48/465 416/48/392 
s 2
f 416/48/392 512/48/465 513/56/460 417/56/393 
usemtl 03___Default
s 1
f 417/56/393 513/56/460 514/70/466 418/70/394 
s 2
f 418/70/394 514/70/466 511/68/464 415/68/391 
s 1
f 270/6/246 269/7/245 272/12/248 271/9/247 
f 269/7/245 282/19/258 283/22/259 272/12/248 
f 282/19/258 290/27/266 291/30/267 283/22/259 
f 290/27/266 298/35/274 299/38/275 291/30/267 
f 298/35/274 306/43/282 307/46/283 299/38/275 
f 306/43/282 51/51/51 54/54/54 307/46/283 
usemtl 01___Default
f 1/1/1 515/4/467 516/3/468 2/2/2 
f 5/5/5 517/8/469 518/7/470 6/6/6 
f 9/9/9 519/12/471 520/11/472 10/10/10 
f 13/13/13 521/16/473 522/15/474 14/14/14 
f 515/4/467 523/18/475 524/17/476 516/3/468 
f 517/8/469 525/20/477 526/19/478 518/7/470 
f 519/12/471 527/22/479 528/21/480 520/11/472 
f 521/16/473 529/24/481 530/23/482 522/15/474 
f 523/18/475 531/26/483 532/25/484 524/17/476 
f 525/20/477 533/28/485 534/27/486 526/19/478 
f 527/22/479 535/30/487 536/29/488 528/21/480 
f 529/24/481 537/32/489 538/31/490 530/23/482 
f 531/26/483 539/34/491 540/33/492 532/25/484 
f 533/28/485 541/36/493 542/35/494 534/27/486 
f 535/30/487 543/38/495 544/37/496 536/29/488 
f 537/32/489 545/40/497 546/39/498 538/31/490 
f 539/34/491 547/42/499 548/41/500 540/33/492 
f 541/36/493 549/44/501 550/43/502 542/35/494 
f 543/38/495 551/46/503 552/45/504 544/37/496 
f 545/40/497 553/48/505 554/47/506 546/39/498 
f 547/42/499 555/50/507 556/49/508 548/41/500 
f 549/44/501 557/52/509 558/51/510 550/43/502 
f 551/46/503 559/54/511 560/53/512 552/45/504 
f 553/48/505 561/56/513 562/55/514 554/47/506 
s 2
f 2/2/2 563/2/515 564/57/516 57/57/57 
f 57/57/57 564/57/516 565/58/517 566/58/518 
f 566/58/518 565/58/517 567/3/519 516/3/468 
f 516/3/468 567/3/519 563/2/515 2/2/2 
s 4
f 57/57/57 568/57/520 569/5/521 5/5/5 
f 5/5/5 569/5/521 570/8/522 517/8/469 
f 517/8/469 570/8/522 571/58/523 566/58/518 
f 566/58/518 571/58/523 568/57/520 57/57/57 
s 2
f 10/10/10 572/10/524 573/59/525 67/59/67 
f 67/59/67 573/59/525 574/60/526 575/60/527 
f 575/60/527 574/60/526 576/11/528 520/11/472 
f 520/11/472 576/11/528 572/10/524 10/10/10 
s 4
f 67/59/67 577/59/529 578/13/530 13/13/13 
f 13/13/13 578/13/530 579/16/531 521/16/473 
f 521/16/473 579/16/531 580/60/532 575/60/527 
f 575/60/527 580/60/532 577/59/529 67/59/67 
s 2
f 516/3/468 581/3/533 582/58/534 566/58/518 
f 566/58/518 582/58/534 583/61/535 584/61/536 
f 584/61/536 583/61/535 585/17/537 524/17/476 
f 524/17/476 585/17/537 581/3/533 516/3/468 
s 4
f 566/58/518 586/58/538 587/8/539 517/8/469 
f 517/8/469 587/8/539 588/20/540 525/20/477 
f 525/20/477 588/20/540 589/61/541 584/61/536 
f 584/61/536 589/61/541 586/58/538 566/58/518 
s 2
f 520/11/472 590/11/542 591/60/543 575/60/527 
f 575/60/527 591/60/543 592/62/544 593/62/545 
f 593/62/545 592/62/544 594/21/546 528/21/480 
f 528/21/480 594/21/546 590/11/542 520/11/472 
s 4
f 575/60/527 595/60/547 596/16/548 521/16/473 
f 521/16/473 596/16/548 597/24/549 529/24/481 
f 529/24/481 597/24/549 598/62/550 593/62/545 
f 593/62/545 598/62/550 595/60/547 575/60/527 
s 2
f 524/17/476 599/17/551 600/61/552 584/61/536 
f 584/61/536 600/61/552 601/63/553 602/63/554 
f 602/63/554 601/63/553 603/25/555 532/25/484 
f 532/25/484 603/25/555 599/17/551 524/17/476 
s 4
f 584/61/536 604/61/556 605/20/557 525/20/477 
f 525/20/477 605/20/557 606/28/558 533/28/485 
f 533/28/485 606/28/558 607/63/559 602/63/554 
f 602/63/554 607/63/559 604/61/556 584/61/536 
s 2
f 528/21/480 608/21/560 609/62/561 593/62/545 
f 593/62/545 609/62/561 610/64/562 611/64/563 
f 611/64/563 610/64/562 612/29/564 536/29/488 
f 536/29/488 612/29/564 608/21/560 528/21/480 
s 4
f 593/62/545 613/62/565 614/24/566 529/24/481 
f 529/24/481 614/24/566 615/32/567 537/32/489 
f 537/32/489 615/32/567 616/64/568 611/64/563 
f 611/64/563 616/64/568 613/62/565 593/62/545 
s 2
f 532/25/484 617/25/569 618/63/570 602/63/554 
f 602/63/554 618/63/570 619/65/571 620/65/572 
f 620/65/572 619/65/571 621/33/573 540/33/492 
f 540/33/492 621/33/573 617/25/569 532/25/484 
s 4
f 602/63/554 622/63/574 623/28/575 533/28/485 
f 533/28/485 623/28/575 624/36/576 541/36/493 
f 541/36/493 624/36/576 625/65/577 620/65/572 
f 620/65/572 625/65/577 622/63/574 602/63/554 
s 2
f 536/29/488 626/29/578 627/64/579 611/64/563 
f 611/64/563 627/64/579 628/66/580 629/66/581 
f 629/66/581 628/66/580 630/37/582 544/37/496 
f 544/37/496 630/37/582 626/29/578 536/29/488 
s 4
f 611/64/563 631/64/583 632/32/584 537/32/489 
f 537/32/489 632/32/584 633/40/585 545/40/497 
f 545/40/497 633/40/585 634/66/586 629/66/581 
f 629/66/581 634/66/586 631/64/583 611/64/563 
s 2
f 540/33/492 635/33/587 636/65/588 620/65/572 
f 620/65/572 636/65/588 637/67/589 638/67/590 
f 638/67/590 637/67/589 639/41/591 548/41/500 
f 548/41/500 639/41/591 635/33/587 540/33/492 
s 4
f 620/65/572 640/65/592 641/36/593 541/36/493 
f 541/36/493 641/36/593 642/44/594 549/44/501 
f 549/44/501 642/44/594 643/67/595 638/67/590 
f 638/67/590 643/67/595 640/65/592 620/65/572 
s 2
f 544/37/496 644/37/596 645/66/597 629/66/581 
f 629/66/581 645/66/597 646/68/598 647/68/599 
f 647/68/599 646/68/598 648/45/600 552/45/504 
f 552/45/504 648/45/600 644/37/596 544/37/496 
s 4
f 629/66/581 649/66/601 650/40/602 545/40/497 
f 545/40/497 650/40/602 651/48/603 553/48/505 
f 553/48/505 651/48/603 652/68/604 647/68/599 
f 647/68/599 652/68/604 649/66/601 629/66/581 
s 2
f 548/41/500 653/41/605 654/67/606 638/67/590 
f 638/67/590 654/67/606 655/69/607 656/69/608 
f 656/69/608 655/69/607 657/49/609 556/49/508 
f 556/49/508 657/49/609 653/41/605 548/41/500 
s 4
f 638/67/590 658/67/610 659/44/611 549/44/501 
f 549/44/501 659/44/611 660/52/612 557/52/509 
f 557/52/509 660/52/612 661/69/613 656/69/608 
f 656/69/608 661/69/613 658/67/610 638/67/590 
s 2
f 552/45/504 662/45/614 663/68/615 647/68/599 
f 647/68/599 663/68/615 664/70/616 665/70/617 
f 665/70/617 664/70/616 666/53/618 560/53/512 
f 560/53/512 666/53/618 662/45/614 552/45/504 
s 4
f 647/68/599 667/68/619 668/48/620 553/48/505 
f 553/48/505 668/48/620 669/56/621 561/56/513 
usemtl 03___Default
f 561/56/513 669/56/621 670/70/622 665/70/617 
usemtl 01___Default
f 665/70/617 670/70/622 667/68/619 647/68/599 
s 1
f 563/2/515 671/2/623 672/57/624 564/57/516 
s 4
f 564/57/516 672/57/624 673/58/625 565/58/517 
s 1
f 565/58/517 673/58/625 674/3/626 567/3/519 
s 4
f 567/3/519 674/3/626 671/2/623 563/2/515 
s 1
f 568/57/520 675/57/627 676/5/628 569/5/521 
s 2
f 569/5/521 676/5/628 677/8/629 570/8/522 
s 1
f 570/8/522 677/8/629 678/58/630 571/58/523 
s 2
f 571/58/523 678/58/630 675/57/627 568/57/520 
s 1
f 572/10/524 679/10/631 680/59/632 573/59/525 
s 4
f 573/59/525 680/59/632 681/60/633 574/60/526 
s 1
f 574/60/526 681/60/633 682/11/634 576/11/528 
s 4
f 576/11/528 682/11/634 679/10/631 572/10/524 
s 1
f 577/59/529 683/59/635 684/13/636 578/13/530 
s 2
f 578/13/530 684/13/636 685/16/637 579/16/531 
s 1
f 579/16/531 685/16/637 686/60/629 580/60/532 
s 2
f 580/60/532 686/60/629 683/59/635 577/59/529 
s 1
f 581/3/533 687/3/638 688/58/639 582/58/534 
s 4
f 582/58/534 688/58/639 689/61/640 583/61/535 
s 1
f 583/61/535 689/61/640 690/17/641 585/17/537 
s 4
f 585/17/537 690/17/641 687/3/638 581/3/533 
s 1
f 586/58/538 691/58/642 692/8/643 587/8/539 
s 2
f 587/8/539 692/8/643 693/20/644 588/20/540 
s 1
f 588/20/540 693/20/644 694/61/645 589/61/541 
s 2
f 589/61/541 694/61/645 691/58/642 586/58/538 
s 1
f 590/11/542 695/11/646 696/60/647 591/60/543 
s 4
f 591/60/543 696/60/647 697/62/641 592/62/544 
s 1
f 592/62/544 697/62/641 698/21/648 594/21/546 
s 4
f 594/21/546 698/21/648 695/11/646 590/11/542 
s 1
f 595/60/547 699/60/649 700/16/642 596/16/548 
s 2
f 596/16/548 700/16/642 701/24/645 597/24/549 
s 1
f 597/24/549 701/24/645 702/62/644 598/62/550 
s 2
f 598/62/550 702/62/644 699/60/649 595/60/547 
s 1
f 599/17/551 703/17/650 704/61/651 600/61/552 
s 4
f 600/61/552 704/61/651 705/63/652 601/63/553 
s 1
f 601/63/553 705/63/652 706/25/653 603/25/555 
s 4
f 603/25/555 706/25/653 703/17/650 599/17/551 
s 1
f 604/61/556 707/61/654 708/20/655 605/20/557 
s 2
f 605/20/557 708/20/655 709/28/656 606/28/558 
s 1
f 606/28/558 709/28/656 710/63/657 607/63/559 
s 2
f 607/63/559 710/63/657 707/61/654 604/61/556 
s 1
f 608/21/560 711/21/651 712/62/658 609/62/561 
s 4
f 609/62/561 712/62/658 713/64/653 610/64/562 
s 1
f 610/64/562 713/64/653 714/29/659 612/29/564 
s 4
f 612/29/564 714/29/659 711/21/651 608/21/560 
s 1
f 613/62/565 715/62/655 716/24/660 614/24/566 
s 2
f 614/24/566 716/24/660 717/32/657 615/32/567 
s 1
f 615/32/567 717/32/657 718/64/661 616/64/568 
s 2
f 616/64/568 718/64/661 715/62/655 613/62/565 
s 1
f 617/25/569 719/25/662 720/63/663 618/63/570 
s 4
f 618/63/570 720/63/663 721/65/664 619/65/571 
s 1
f 619/65/571 721/65/664 722/33/665 621/33/573 
s 4
f 621/33/573 722/33/665 719/25/662 617/25/569 
s 1
f 622/63/574 723/63/666 724/28/667 623/28/575 
s 2
f 623/28/575 724/28/667 725/36/668 624/36/576 
s 1
f 624/36/576 725/36/668 726/65/669 625/65/577 
s 2
f 625/65/577 726/65/669 723/63/666 622/63/574 
s 1
f 626/29/578 727/29/670 728/64/671 627/64/579 
s 4
f 627/64/579 728/64/671 729/66/672 628/66/580 
s 1
f 628/66/580 729/66/672 730/37/664 630/37/582 
s 4
f 630/37/582 730/37/664 727/29/670 626/29/578 
s 1
f 631/64/583 731/64/673 732/32/674 632/32/584 
s 2
f 632/32/584 732/32/674 733/40/675 633/40/585 
s 1
f 633/40/585 733/40/675 734/66/668 634/66/586 
s 2
f 634/66/586 734/66/668 731/64/673 631/64/583 
s 1
f 635/33/587 735/33/676 736/65/677 636/65/588 
s 4
f 636/65/588 736/65/677 737/67/678 637/67/589 
s 1
f 637/67/589 737/67/678 738/41/679 639/41/591 
s 4
f 639/41/591 738/41/679 735/33/676 635/33/587 
s 1
f 640/65/592 739/65/680 740/36/681 641/36/593 
s 2
f 641/36/593 740/36/681 741/44/682 642/44/594 
s 1
f 642/44/594 741/44/682 742/67/683 643/67/595 
s 2
f 643/67/595 742/67/683 739/65/680 640/65/592 
s 1
f 644/37/596 743/37/677 744/66/676 645/66/597 
s 4
f 645/66/597 744/66/676 745/68/684 646/68/598 
s 1
f 646/68/598 745/68/684 746/45/678 648/45/600 
s 4
f 648/45/600 746/45/678 743/37/677 644/37/596 
s 1
f 649/66/601 747/66/681 748/40/680 650/40/602 
s 2
f 650/40/602 748/40/680 749/48/685 651/48/603 
s 1
f 651/48/603 749/48/685 750/68/686 652/68/604 
s 2
f 652/68/604 750/68/686 747/66/681 649/66/601 
s 1
f 653/41/605 751/41/687 752/67/688 654/67/606 
s 4
f 654/67/606 752/67/688 753/69/689 655/69/607 
s 1
f 655/69/607 753/69/689 754/49/690 657/49/609 
s 4
f 657/49/609 754/49/690 751/41/687 653/41/605 
s 1
f 658/67/610 755/67/691 756/44/692 659/44/611 
s 2
f 659/44/611 756/44/692 757/52/693 660/52/612 
s 1
f 660/52/612 757/52/693 758/69/694 661/69/613 
s 2
f 661/69/613 758/69/694 755/67/691 658/67/610 
s 1
f 662/45/614 759/45/688 760/68/695 663/68/615 
usemtl 03___Default
s 4
f 663/68/615 760/68/695 761/70/696 664/70/616 
usemtl 01___Default
s 1
f 664/70/616 761/70/696 762/53/697 666/53/618 
s 4
f 666/53/618 762/53/697 759/45/688 662/45/614 
s 1
f 667/68/619 763/68/698 764/48/699 668/48/620 
s 2
f 668/48/620 764/48/699 765/56/694 669/56/621 
usemtl 03___Default
s 1
f 669/56/621 765/56/694 766/70/700 670/70/622 
s 2
f 670/70/622 766/70/700 763/68/698 667/68/619 
s 1
f 6/6/6 518/7/470 519/12/471 9/9/9 
f 518/7/470 526/19/478 527/22/479 519/12/471 
f 526/19/478 534/27/486 535/30/487 527/22/479 
f 534/27/486 542/35/494 543/38/495 535/30/487 
f 542/35/494 550/43/502 551/46/503 543/38/495 
f 550/43/502 558/51/510 559/54/511 551/46/503 
usemtl 01___Default
f 263/1/239 266/2/242 767/3/701 768/4/702 
f 267/5/243 270/6/246 769/7/703 770/8/704 
f 271/9/247 274/10/250 771/11/705 772/12/706 
f 275/13/251 278/14/254 773/15/707 774/16/708 
f 768/4/702 767/3/701 775/17/709 776/18/710 
f 770/8/704 769/7/703 777/19/711 778/20/712 
f 772/12/706 771/11/705 779/21/713 780/22/714 
f 774/16/708 773/15/707 781/23/715 782/24/716 
f 776/18/710 775/17/709 783/25/717 784/26/718 
f 778/20/712 777/19/711 785/27/719 786/28/720 
f 780/22/714 779/21/713 787/29/721 788/30/722 
f 782/24/716 781/23/715 789/31/723 790/32/724 
f 784/26/718 783/25/717 791/33/725 792/34/726 
f 786/28/720 785/27/719 793/35/727 794/36/728 
f 788/30/722 787/29/721 795/37/729 796/38/730 
f 790/32/724 789/31/723 797/39/731 798/40/732 
f 792/34/726 791/33/725 799/41/733 800/42/734 
f 794/36/728 793/35/727 801/43/735 802/44/736 
f 796/38/730 795/37/729 803/45/737 804/46/738 
f 798/40/732 797/39/731 805/47/739 806/48/740 
f 800/42/734 799/41/733 556/49/508 555/50/507 
f 802/44/736 801/43/735 558/51/510 557/52/509 
f 804/46/738 803/45/737 560/53/512 559/54/511 
f 806/48/740 805/47/739 562/55/514 561/56/513 
s 2
f 266/2/242 313/57/289 807/57/741 808/2/742 
f 313/57/289 809/58/743 810/58/744 807/57/741 
f 809/58/743 767/3/701 811/3/745 810/58/744 
f 767/3/701 266/2/242 808/2/742 811/3/745 
s 4
f 313/57/289 267/5/243 812/5/746 813/57/747 
f 267/5/243 770/8/704 814/8/748 812/5/746 
f 770/8/704 809/58/743 815/58/749 814/8/748 
f 809/58/743 313/57/289 813/57/747 815/58/749 
s 2
f 274/10/250 323/59/299 816/59/750 817/10/751 
f 323/59/299 818/60/752 819/60/753 816/59/750 
f 818/60/752 771/11/705 820/11/754 819/60/753 
f 771/11/705 274/10/250 817/10/751 820/11/754 
s 4
f 323/59/299 275/13/251 821/13/755 822/59/756 
f 275/13/251 774/16/708 823/16/757 821/13/755 
f 774/16/708 818/60/752 824/60/758 823/16/757 
f 818/60/752 323/59/299 822/59/756 824/60/758 
s 2
f 767/3/701 809/58/743 825/58/759 826/3/760 
f 809/58/743 827/61/761 828/61/762 825/58/759 
f 827/61/761 775/17/709 829/17/763 828/61/762 
f 775/17/709 767/3/701 826/3/760 829/17/763 
s 4
f 809/58/743 770/8/704 830/8/764 831/58/765 
f 770/8/704 778/20/712 832/20/766 830/8/764 
f 778/20/712 827/61/761 833/61/767 832/20/766 
f 827/61/761 809/58/743 831/58/765 833/61/767 
s 2
f 771/11/705 818/60/752 834/60/768 835/11/769 
f 818/60/752 836/62/770 837/62/771 834/60/768 
f 836/62/770 779/21/713 838/21/772 837/62/771 
f 779/21/713 771/11/705 835/11/769 838/21/772 
s 4
f 818/60/752 774/16/708 839/16/773 840/60/774 
f 774/16/708 782/24/716 841/24/775 839/16/773 
f 782/24/716 836/62/770 842/62/776 841/24/775 
f 836/62/770 818/60/752 840/60/774 842/62/776 
s 2
f 775/17/709 827/61/761 843/61/777 844/17/778 
f 827/61/761 845/63/779 846/63/780 843/61/777 
f 845/63/779 783/25/717 847/25/781 846/63/780 
f 783/25/717 775/17/709 844/17/778 847/25/781 
s 4
f 827/61/761 778/20/712 848/20/782 849/61/783 
f 778/20/712 786/28/720 850/28/784 848/20/782 
f 786/28/720 845/63/779 851/63/785 850/28/784 
f 845/63/779 827/61/761 849/61/783 851/63/785 
s 2
f 779/21/713 836/62/770 852/62/786 853/21/787 
f 836/62/770 854/64/788 855/64/789 852/62/786 
f 854/64/788 787/29/721 856/29/790 855/64/789 
f 787/29/721 779/21/713 853/21/787 856/29/790 
s 4
f 836/62/770 782/24/716 857/24/791 858/62/792 
f 782/24/716 790/32/724 859/32/793 857/24/791 
f 790/32/724 854/64/788 860/64/794 859/32/793 
f 854/64/788 836/62/770 858/62/792 860/64/794 
s 2
f 783/25/717 845/63/779 861/63/795 862/25/796 
f 845/63/779 863/65/797 864/65/798 861/63/795 
f 863/65/797 791/33/725 865/33/799 864/65/798 
f 791/33/725 783/25/717 862/25/796 865/33/799 
s 4
f 845/63/779 786/28/720 866/28/800 867/63/801 
f 786/28/720 794/36/728 868/36/802 866/28/800 
f 794/36/728 863/65/797 869/65/803 868/36/802 
f 863/65/797 845/63/779 867/63/801 869/65/803 
s 2
f 787/29/721 854/64/788 870/64/804 871/29/805 
f 854/64/788 872/66/806 873/66/807 870/64/804 
f 872/66/806 795/37/729 874/37/808 873/66/807 
f 795/37/729 787/29/721 871/29/805 874/37/808 
s 4
f 854/64/788 790/32/724 875/32/809 876/64/810 
f 790/32/724 798/40/732 877/40/811 875/32/809 
f 798/40/732 872/66/806 878/66/812 877/40/811 
f 872/66/806 854/64/788 876/64/810 878/66/812 
s 2
f 791/33/725 863/65/797 879/65/813 880/33/814 
f 863/65/797 881/67/815 882/67/816 879/65/813 
f 881/67/815 799/41/733 883/41/817 882/67/816 
f 799/41/733 791/33/725 880/33/814 883/41/817 
s 4
f 863/65/797 794/36/728 884/36/818 885/65/819 
f 794/36/728 802/44/736 886/44/820 884/36/818 
f 802/44/736 881/67/815 887/67/821 886/44/820 
f 881/67/815 863/65/797 885/65/819 887/67/821 
s 2
f 795/37/729 872/66/806 888/66/822 889/37/823 
f 872/66/806 890/68/824 891/68/825 888/66/822 
f 890/68/824 803/45/737 892/45/826 891/68/825 
f 803/45/737 795/37/729 889/37/823 892/45/826 
s 4
f 872/66/806 798/40/732 893/40/827 894/66/828 
f 798/40/732 806/48/740 895/48/829 893/40/827 
f 806/48/740 890/68/824 896/68/830 895/48/829 
f 890/68/824 872/66/806 894/66/828 896/68/830 
s 2
f 799/41/733 881/67/815 897/67/831 898/41/832 
f 881/67/815 656/69/608 899/69/833 897/67/831 
f 656/69/608 556/49/508 900/49/834 899/69/833 
f 556/49/508 799/41/733 898/41/832 900/49/834 
s 4
f 881/67/815 802/44/736 901/44/835 902/67/836 
f 802/44/736 557/52/509 903/52/837 901/44/835 
f 557/52/509 656/69/608 904/69/838 903/52/837 
f 656/69/608 881/67/815 902/67/836 904/69/838 
s 2
f 803/45/737 890/68/824 905/68/839 906/45/840 
f 890/68/824 665/70/617 907/70/841 905/68/839 
f 665/70/617 560/53/512 908/53/842 907/70/841 
f 560/53/512 803/45/737 906/45/840 908/53/842 
s 4
f 890/68/824 806/48/740 909/48/843 910/68/844 
f 806/48/740 561/56/513 911/56/845 909/48/843 
usemtl 03___Default
f 561/56/513 665/70/617 912/70/846 911/56/845 
usemtl 01___Default
f 665/70/617 890/68/824 910/68/844 912/70/846 
s 1
f 808/2/742 807/57/741 913/57/847 914/2/848 
s 4
f 807/57/741 810/58/744 915/58/849 913/57/847 
s 1
f 810/58/744 811/3/745 916/3/850 915/58/849 
s 4
f 811/3/745 808/2/742 914/2/848 916/3/850 
s 1
f 813/57/747 812/5/746 917/5/851 918/57/852 
s 2
f 812/5/746 814/8/748 919/8/853 917/5/851 
s 1
f 814/8/748 815/58/749 920/58/854 919/8/853 
s 2
f 815/58/749 813/57/747 918/57/852 920/58/854 
s 1
f 817/10/751 816/59/750 921/59/855 922/10/856 
s 4
f 816/59/750 819/60/753 923/60/857 921/59/855 
s 1
f 819/60/753 820/11/754 924/11/858 923/60/857 
s 4
f 820/11/754 817/10/751 922/10/856 924/11/858 
s 1
f 822/59/756 821/13/755 925/13/859 926/59/860 
s 2
f 821/13/755 823/16/757 927/16/861 925/13/859 
s 1
f 823/16/757 824/60/758 928/60/853 927/16/861 
s 2
f 824/60/758 822/59/756 926/59/860 928/60/853 
s 1
f 826/3/760 825/58/759 929/58/862 930/3/863 
s 4
f 825/58/759 828/61/762 931/61/864 929/58/862 
s 1
f 828/61/762 829/17/763 932/17/865 931/61/864 
s 4
f 829/17/763 826/3/760 930/3/863 932/17/865 
s 1
f 831/58/765 830/8/764 933/8/866 934/58/867 
s 2
f 830/8/764 832/20/766 935/20/868 933/8/866 
s 1
f 832/20/766 833/61/767 936/61/869 935/20/868 
s 2
f 833/61/767 831/58/765 934/58/867 936/61/869 
s 1
f 835/11/769 834/60/768 937/60/870 938/11/871 
s 4
f 834/60/768 837/62/771 939/62/865 937/60/870 
s 1
f 837/62/771 838/21/772 940/21/872 939/62/865 
s 4
f 838/21/772 835/11/769 938/11/871 940/21/872 
s 1
f 840/60/774 839/16/773 941/16/867 942/60/873 
s 2
f 839/16/773 841/24/775 943/24/869 941/16/867 
s 1
f 841/24/775 842/62/776 944/62/868 943/24/869 
s 2
f 842/62/776 840/60/774 942/60/873 944/62/868 
s 1
f 844/17/778 843/61/777 945/61/874 946/17/875 
s 4
f 843/61/777 846/63/780 947/63/876 945/61/874 
s 1
f 846/63/780 847/25/781 948/25/877 947/63/876 
s 4
f 847/25/781 844/17/778 946/17/875 948/25/877 
s 1
f 849/61/783 848/20/782 949/20/878 950/61/879 
s 2
f 848/20/782 850/28/784 951/28/880 949/20/878 
s 1
f 850/28/784 851/63/785 952/63/881 951/28/880 
s 2
f 851/63/785 849/61/783 950/61/879 952/63/881 
s 1
f 853/21/787 852/62/786 953/62/882 954/21/874 
s 4
f 852/62/786 855/64/789 955/64/877 953/62/882 
s 1
f 855/64/789 856/29/790 956/29/883 955/64/877 
s 4
f 856/29/790 853/21/787 954/21/874 956/29/883 
s 1
f 858/62/792 857/24/791 957/24/884 958/62/878 
s 2
f 857/24/791 859/32/793 959/32/881 957/24/884 
s 1
f 859/32/793 860/64/794 960/64/885 959/32/881 
s 2
f 860/64/794 858/62/792 958/62/878 960/64/885 
s 1
f 862/25/796 861/63/795 961/63/886 962/25/887 
s 4
f 861/63/795 864/65/798 963/65/888 961/63/886 
s 1
f 864/65/798 865/33/799 964/33/889 963/65/888 
s 4
f 865/33/799 862/25/796 962/25/887 964/33/889 
s 1
f 867/63/801 866/28/800 965/28/890 966/63/891 
s 2
f 866/28/800 868/36/802 967/36/892 965/28/890 
s 1
f 868/36/802 869/65/803 968/65/893 967/36/892 
s 2
f 869/65/803 867/63/801 966/63/891 968/65/893 
s 1
f 871/29/805 870/64/804 969/64/894 970/29/895 
s 4
f 870/64/804 873/66/807 971/66/896 969/64/894 
s 1
f 873/66/807 874/37/808 972/37/888 971/66/896 
s 4
f 874/37/808 871/29/805 970/29/895 972/37/888 
s 1
f 876/64/810 875/32/809 973/32/897 974/64/898 
s 2
f 875/32/809 877/40/811 975/40/899 973/32/897 
s 1
f 877/40/811 878/66/812 976/66/892 975/40/899 
s 2
f 878/66/812 876/64/810 974/64/898 976/66/892 
s 1
f 880/33/814 879/65/813 977/65/900 978/33/901 
s 4
f 879/65/813 882/67/816 979/67/902 977/65/900 
s 1
f 882/67/816 883/41/817 980/41/903 979/67/902 
s 4
f 883/41/817 880/33/814 978/33/901 980/41/903 
s 1
f 885/65/819 884/36/818 981/36/904 982/65/905 
s 2
f 884/36/818 886/44/820 983/44/906 981/36/904 
s 1
f 886/44/820 887/67/821 984/67/907 983/44/906 
s 2
f 887/67/821 885/65/819 982/65/905 984/67/907 
s 1
f 889/37/823 888/66/822 985/66/901 986/37/900 
s 4
f 888/66/822 891/68/825 987/68/908 985/66/901 
s 1
f 891/68/825 892/45/826 988/45/902 987/68/908 
s 4
f 892/45/826 889/37/823 986/37/900 988/45/902 
s 1
f 894/66/828 893/40/827 989/40/905 990/66/904 
s 2
f 893/40/827 895/48/829 991/48/909 989/40/905 
s 1
f 895/48/829 896/68/830 992/68/910 991/48/909 
s 2
f 896/68/830 894/66/828 990/66/904 992/68/910 
s 1
f 898/41/832 897/67/831 993/67/911 994/41/912 
s 4
f 897/67/831 899/69/833 995/69/913 993/67/911 
s 1
f 899/69/833 900/49/834 996/49/914 995/69/913 
s 4
f 900/49/834 898/41/832 994/41/912 996/49/914 
s 1
f 902/67/836 901/44/835 997/44/915 998/67/916 
s 2
f 901/44/835 903/52/837 999/52/917 997/44/915 
s 1
f 903/52/837 904/69/838 1000/69/918 999/52/917 
s 2
f 904/69/838 902/67/836 998/67/916 1000/69/918 
s 1
f 906/45/840 905/68/839 1001/68/919 1002/45/911 
usemtl 03___Default
s 4
f 905/68/839 907/70/841 1003/70/920 1001/68/919 
usemtl 01___Default
s 1
f 907/70/841 908/53/842 1004/53/921 1003/70/920 
s 4
f 908/53/842 906/45/840 1002/45/911 1004/53/921 
s 1
f 910/68/844 909/48/843 1005/48/922 1006/68/923 
s 2
f 909/48/843 911/56/845 1007/56/918 1005/48/922 
usemtl 03___Default
s 1
f 911/56/845 912/70/846 1008/70/924 1007/56/918 
s 2
f 912/70/846 910/68/844 1006/68/923 1008/70/924 
s 1
f 270/6/246 271/9/247 772/12/706 769/7/703 
f 769/7/703 772/12/706 780/22/714 777/19/711 
f 777/19/711 780/22/714 788/30/722 785/27/719 
f 785/27/719 788/30/722 796/38/730 793/35/727 
f 793/35/727 796/38/730 804/46/738 801/43/735 
f 801/43/735 804/46/738 559/54/511 558/51/510 
usemtl 01___Default
f 1009/71/925 1010/72/926 1011/73/927 1012/74/927 
f 1013/75/928 1014/76/928 1015/77/928 1016/78/929 
f 1017/79/930 1018/79/930 1019/79/930 1020/79/930 
s 4
f 1021/80/931 1009/80/925 1022/80/931 1023/80/931 
f 1010/81/926 1024/82/932 1025/82/932 1026/82/932 
f 1027/83/933 1016/84/929 1028/84/933 1029/84/933 
s 1
f 1030/71/934 1031/72/935 1032/73/927 1033/74/927 
f 1034/75/928 1035/76/936 1036/77/936 1037/78/937 
f 1038/79/938 1039/79/938 1040/79/938 1041/79/938 
s 4
f 1042/80/939 1030/80/934 1043/80/939 1044/80/939 
f 1031/81/935 1045/82/940 1046/82/940 1047/82/940 
f 1048/83/941 1037/84/937 1049/84/941 1050/84/941 
s 1
f 1051/71/942 1052/72/943 1053/73/944 1054/74/944 
f 1055/75/928 1056/76/928 1057/77/928 1058/78/945 
f 1059/79/946 1060/79/946 1061/79/946 1062/79/946 
s 4
f 1063/80/947 1051/80/942 1064/80/947 1065/80/947 
f 1052/81/943 1066/82/948 1067/82/948 1068/82/948 
f 1069/83/949 1058/84/945 1070/84/949 1071/84/949 
# 906 polygons

