# 3ds Max Wavefront OBJ Exporter v0.97b - (c)2007 guruware
# File Created: 23.07.2026 16:35:44

mtllib stargate_a_color.mtl

#
# object stargate_a_color
#

v  -1.6660 -3.8777 28.1928
v  -1.6660 -3.8716 14.4314
v  1.3812 -3.8716 14.4314
v  1.3812 -3.8777 28.1928
v  -1.9111 -3.6264 14.4314
v  -1.9111 3.6264 14.4314
v  -1.6660 3.8716 14.4314
v  1.3812 3.8716 14.4314
v  1.6263 3.6264 14.4314
v  1.6263 -3.6264 14.4314
v  -1.6660 3.7209 28.1928
v  1.3812 3.7209 28.1928
v  -0.5898 -11.2315 24.8860
v  0.3049 -11.2315 24.8860
v  0.3049 -11.2315 29.9554
v  -0.5898 -11.2315 29.9554
v  0.3049 11.0747 24.8860
v  -0.5898 11.0747 24.8860
v  -0.5898 11.0747 29.9554
v  0.3049 11.0747 29.9554
v  1.3812 -3.8777 33.2623
v  -1.6660 -3.8777 33.2623
v  -1.6660 3.7209 33.2623
v  1.3812 3.7209 33.2623
v  -1.6660 -22.4768 -17.4546
v  -1.6660 -10.5622 -10.5686
v  1.3812 -10.5622 -10.5686
v  1.3812 -22.4768 -17.4546
v  -1.9111 -10.6847 -10.3563
v  -1.9111 -14.3111 -4.0751
v  -1.6660 -14.4337 -3.8628
v  1.3812 -14.4337 -3.8628
v  1.6263 -14.3111 -4.0751
v  1.6263 -10.6847 -10.3563
v  -1.6660 -26.2762 -10.8740
v  1.3812 -26.2762 -10.8740
v  -0.5898 -15.9361 -22.1697
v  0.3049 -15.9361 -22.1697
v  0.3049 -20.3264 -24.7045
v  -0.5898 -20.3264 -24.7045
v  0.3049 -27.0892 -2.8520
v  -0.5898 -27.0892 -2.8520
v  -0.5898 -31.4795 -5.3868
v  0.3049 -31.4795 -5.3868
v  1.3812 -26.8671 -19.9894
v  -1.6660 -26.8671 -19.9894
v  -1.6660 -30.6665 -13.4087
v  1.3812 -30.6665 -13.4087
v  -1.6660 26.3546 -10.7382
v  -1.6660 14.4337 -3.8628
v  1.3812 14.4337 -3.8628
v  1.3812 26.3546 -10.7382
v  -1.9111 14.3111 -4.0751
v  -1.9111 10.6847 -10.3563
v  -1.6660 10.5622 -10.5686
v  1.3812 10.5622 -10.5686
v  1.6263 10.6847 -10.3563
v  1.6263 14.3111 -4.0751
v  -1.6660 22.5552 -17.3188
v  1.3812 22.5552 -17.3188
v  -0.5898 27.1676 -2.7162
v  0.3049 27.1676 -2.7162
v  0.3049 31.5579 -5.2510
v  -0.5898 31.5579 -5.2510
v  0.3049 16.0145 -22.0339
v  -0.5898 16.0145 -22.0339
v  -0.5898 20.4048 -24.5687
v  0.3049 20.4048 -24.5687
v  1.3812 30.7449 -13.2729
v  -1.6660 30.7449 -13.2729
v  -1.6660 26.9455 -19.8536
v  1.3812 26.9455 -19.8536
v  1.5853 15.1394 -4.0566
v  -1.5853 15.1394 -4.0566
v  -1.5853 15.6735 0.0000
v  1.5853 15.6735 0.0000
v  1.5853 13.5736 -7.8367
v  -1.5853 13.5736 -7.8367
v  1.5853 11.0828 -11.0828
v  -1.5853 11.0828 -11.0828
v  1.5853 7.8367 -13.5736
v  -1.5853 7.8367 -13.5736
v  1.5853 4.0566 -15.1394
v  -1.5853 4.0566 -15.1394
v  1.5853 0.0000 -15.6735
v  -1.5853 0.0000 -15.6735
v  1.5853 -15.1394 -4.0566
v  1.5853 -15.6735 0.0000
v  -1.5853 -15.6735 0.0000
v  -1.5853 -15.1394 -4.0566
v  1.5853 -13.5736 -7.8367
v  -1.5853 -13.5736 -7.8367
v  1.5853 -11.0828 -11.0828
v  -1.5853 -11.0828 -11.0828
v  1.5853 -7.8367 -13.5736
v  -1.5853 -7.8367 -13.5736
v  1.5853 -4.0566 -15.1394
v  -1.5853 -4.0566 -15.1394
v  1.5853 15.1394 4.0566
v  1.5853 15.6735 -0.0000
v  -1.5853 15.6735 -0.0000
v  -1.5853 15.1394 4.0566
v  1.5853 13.5736 7.8367
v  -1.5853 13.5736 7.8367
v  1.5853 11.0828 11.0828
v  -1.5853 11.0828 11.0828
v  1.5853 7.8367 13.5736
v  -1.5853 7.8367 13.5736
v  1.5853 4.0566 15.1394
v  -1.5853 4.0566 15.1394
v  1.5853 0.0000 15.6735
v  -1.5853 0.0000 15.6735
v  1.5853 -15.1394 4.0566
v  -1.5853 -15.1394 4.0566
v  -1.5853 -15.6735 -0.0000
v  1.5853 -15.6735 -0.0000
v  1.5853 -13.5736 7.8367
v  -1.5853 -13.5736 7.8367
v  1.5853 -11.0828 11.0828
v  -1.5853 -11.0828 11.0828
v  1.5853 -7.8367 13.5736
v  -1.5853 -7.8367 13.5736
v  1.5853 -4.0566 15.1394
v  -1.5853 -4.0566 15.1394
# 124 vertices

vn -0.0000 -0.5986 -0.8010
vn -0.0000 -0.5545 -0.8322
vn -0.0000 0.0000 -1.0000
vn -0.0000 0.5574 -0.8302
vn -0.0000 0.6038 -0.7971
vn -0.0000 -0.4895 -0.8720
vn 0.0000 -0.8252 0.5649
vn -0.0000 0.4895 -0.8720
vn 0.0000 0.8252 0.5649
vn 0.0000 -0.4101 0.9120
vn 0.0000 0.4101 0.9120
vn -0.0000 0.9930 -0.1181
vn -0.0000 0.9979 -0.0642
vn -0.0000 0.8660 0.5000
vn 0.0000 0.8660 0.5000
vn 0.0000 0.4402 0.8979
vn 0.0000 0.3882 0.9216
vn 0.0000 0.9999 0.0122
vn -0.0000 -0.0767 -0.9971
vn 0.0000 0.5104 0.8599
vn 0.0000 -0.9018 0.4322
vn -0.0000 -0.5848 -0.8112
vn -0.0000 -0.9949 -0.1008
vn 0.0000 -0.3943 0.9190
vn 0.0000 -0.4433 0.8963
vn 0.0000 -0.8660 0.5000
vn -0.0000 -0.8660 0.5000
vn -0.0000 -0.9977 -0.0676
vn -0.0000 -0.9922 -0.1244
vn 0.0000 -0.5104 0.8599
vn 0.0000 0.9018 0.4322
vn 0.0000 -0.9999 0.0122
vn -0.0000 0.0767 -0.9971
vn -0.0000 0.9949 -0.1008
vn -0.0000 0.5848 -0.8112
vn -0.0000 0.9659 -0.2588
vn -0.0000 0.9914 -0.1305
vn -0.0000 0.8660 -0.5000
vn -0.0000 0.7071 -0.7071
vn -0.0000 0.5000 -0.8660
vn -0.0000 0.2588 -0.9659
vn -0.0000 0.1305 -0.9914
vn -0.0000 -0.9659 -0.2588
vn -0.0000 -0.9914 -0.1305
vn -0.0000 -0.8660 -0.5000
vn -0.0000 -0.7071 -0.7071
vn -0.0000 -0.5000 -0.8660
vn -0.0000 -0.2588 -0.9659
vn -0.0000 -0.1305 -0.9914
vn 0.0000 0.9659 0.2588
vn 0.0000 0.9914 0.1305
vn 0.0000 0.7071 0.7071
vn -0.0000 0.5000 0.8660
vn 0.0000 0.2588 0.9659
vn 0.0000 0.1305 0.9914
vn 0.0000 -0.9659 0.2588
vn 0.0000 -0.9914 0.1305
vn 0.0000 -0.7071 0.7071
vn -0.0000 -0.5000 0.8660
vn 0.0000 -0.2588 0.9659
vn 0.0000 -0.1305 0.9914
# 61 vertex normals

vt 0.0000 0.0693 0.0000
vt 1.0000 0.0693 0.0000
vt 1.0000 0.9307 0.0000
vt 0.0000 0.9307 0.0000
vt 0.0317 0.0000 0.0000
vt 0.9683 0.0000 0.0000
vt 0.9683 1.0000 0.0000
vt 0.0317 1.0000 0.0000
vt 1.0000 0.1770 0.0000
vt 1.0000 0.8230 0.0000
vt 0.0000 0.8230 0.0000
vt 0.0000 0.1770 0.0000
vt 1.0000 1.0000 0.0000
vt 0.0000 0.0000 0.0000
vt 0.9768 0.0417 0.0000
vt 0.9428 0.0417 0.0000
vt 0.9428 0.0000 0.0000
vt 0.9768 -0.0000 0.0000
vt 0.9768 0.0833 0.0000
vt 0.9428 0.0833 0.0000
vt 0.9768 0.1250 0.0000
vt 0.9428 0.1250 0.0000
vt 0.9768 0.1667 0.0000
vt 0.9428 0.1667 0.0000
vt 0.9768 0.2083 0.0000
vt 0.9428 0.2083 0.0000
vt 0.9768 0.2500 0.0000
vt 0.9428 0.2500 0.0000
# 28 texture coords

o stargate_a_color
g stargate_a_color
usemtl 02___Default
s 2
f 1/1/1 2/2/2 3/3/2 4/4/1 
s 4
f 2/1/2 5/5/3 6/6/3 7/2/4 8/3/4 9/7/3 10/8/3 3/4/2 
s 2
f 7/1/4 11/2/5 12/3/5 8/4/4 
s 1
f 13/9/6 14/10/6 15/10/7 16/9/7 
f 17/11/8 18/12/8 19/12/9 20/11/9 
s 4
f 1/2/1 4/3/1 14/10/6 13/9/6 
s 8
f 21/13/10 22/2/10 16/9/7 15/10/7 
s 4
f 12/4/5 11/1/5 18/12/8 17/11/8 
s 8
f 23/14/11 24/4/11 20/11/9 19/12/9 
s 2
f 25/1/12 26/2/13 27/3/13 28/4/12 
s 4
f 26/1/13 29/5/14 30/6/15 31/2/16 32/3/16 33/7/14 34/8/15 27/4/13 
s 2
f 31/1/16 35/2/17 36/3/17 32/4/16 
s 1
f 37/9/18 38/10/18 39/10/19 40/9/19 
f 41/11/20 42/12/20 43/12/21 44/11/21 
s 4
f 25/2/12 28/3/12 38/10/18 37/9/18 
s 8
f 45/13/22 46/2/22 40/9/19 39/10/19 
s 4
f 36/4/17 35/1/17 42/12/20 41/11/20 
s 8
f 47/14/23 48/4/23 44/11/21 43/12/21 
s 2
f 49/1/24 50/2/25 51/3/25 52/4/24 
s 4
f 50/1/25 53/5/26 54/6/27 55/2/28 56/3/28 57/7/26 58/8/27 51/4/25 
s 2
f 55/1/28 59/2/29 60/3/29 56/4/28 
s 1
f 61/9/30 62/10/30 63/10/31 64/9/31 
f 65/11/32 66/12/32 67/12/33 68/11/33 
s 4
f 49/2/24 52/3/24 62/10/30 61/9/30 
s 8
f 69/13/34 70/2/34 64/9/31 63/10/31 
s 4
f 60/4/29 59/1/29 66/12/32 65/11/32 
s 8
f 71/14/35 72/4/35 68/11/33 67/12/33 
s 1
f 73/15/36 74/16/36 75/17/37 76/18/37 
f 77/19/38 78/20/38 74/16/36 73/15/36 
f 79/21/39 80/22/39 78/20/38 77/19/38 
f 81/23/40 82/24/40 80/22/39 79/21/39 
f 83/25/41 84/26/41 82/24/40 81/23/40 
f 85/27/42 86/28/42 84/26/41 83/25/41 
f 87/15/43 88/18/44 89/17/44 90/16/43 
f 91/19/45 87/15/43 90/16/43 92/20/45 
f 93/21/46 91/19/45 92/20/45 94/22/46 
f 95/23/47 93/21/46 94/22/46 96/24/47 
f 97/25/48 95/23/47 96/24/47 98/26/48 
f 85/27/49 97/25/48 98/26/48 86/28/49 
f 99/15/50 100/18/51 101/17/51 102/16/50 
f 103/19/14 99/15/50 102/16/50 104/20/14 
f 105/21/52 103/19/14 104/20/14 106/22/52 
f 107/23/53 105/21/52 106/22/52 108/24/53 
f 109/25/54 107/23/53 108/24/53 110/26/54 
f 111/27/55 109/25/54 110/26/54 112/28/55 
f 113/15/56 114/16/56 115/17/57 116/18/57 
f 117/19/27 118/20/27 114/16/56 113/15/56 
f 119/21/58 120/22/58 118/20/27 117/19/27 
f 121/23/59 122/24/59 120/22/58 119/21/58 
f 123/25/60 124/26/60 122/24/59 121/23/59 
f 111/27/61 112/28/61 124/26/60 123/25/60 
# 51 polygons

