# 3ds Max Wavefront OBJ Exporter v0.97b - (c)2007 guruware
# File Created: 23.07.2026 16:35:30

mtllib stargate_a_boltz.mtl

#
# object stargate_a_boltz
#

v  -0.9731 3.7209 36.7718
v  -0.9731 -3.8777 36.7718
v  0.6883 -3.8777 36.7718
v  0.6883 3.7209 36.7718
v  -4.3624 3.7209 29.8534
v  -4.3624 -3.8777 29.8534
v  -4.3624 -3.8777 31.6017
v  -4.3624 3.7209 31.6017
v  4.0776 -3.8777 29.8534
v  4.0776 3.7209 29.8534
v  4.0776 3.7209 31.6017
v  4.0776 -3.8777 31.6017
v  -1.6660 3.7209 33.2623
v  -1.6660 -3.8777 33.2623
v  1.3812 -3.8777 33.2623
v  1.6263 -3.8777 33.0172
v  1.6263 3.7209 33.0172
v  1.3812 3.7209 33.2623
v  2.7154 1.7374 14.7738
v  -2.9303 1.7374 14.7738
v  -3.0422 1.7374 20.3434
v  2.7108 1.7374 20.3434
v  2.7154 -1.8001 14.7738
v  2.7108 -1.8001 20.3434
v  -3.0422 -1.8001 20.3434
v  -2.9303 -1.8001 14.7738
v  -1.9111 3.7209 28.4380
v  -1.9111 -3.8777 28.4380
v  -1.9111 -3.8777 33.0172
v  -1.9111 3.7209 33.0172
v  1.8293 -3.8777 28.3303
v  1.6263 -3.6326 28.1928
v  1.6263 3.7209 28.4380
v  1.6263 -3.8777 28.4380
v  -0.9731 29.9849 -21.6083
v  -0.9731 33.7842 -15.0277
v  0.6883 33.7842 -15.0277
v  0.6883 29.9849 -21.6083
v  -4.3624 23.9934 -18.1491
v  -4.3624 27.7927 -11.5685
v  -4.3624 29.3067 -12.4426
v  -4.3624 25.5074 -19.0233
v  4.0776 27.7927 -11.5685
v  4.0776 23.9934 -18.1491
v  4.0776 25.5074 -19.0233
v  4.0776 29.3067 -12.4426
v  -1.6660 26.9455 -19.8536
v  -1.6660 30.7449 -13.2729
v  1.3812 30.7449 -13.2729
v  1.6263 30.5326 -13.1504
v  1.6263 26.7332 -19.7310
v  1.3812 26.9455 -19.8536
v  2.7154 11.9258 -8.8915
v  -2.9303 11.9258 -8.8915
v  -3.0422 16.7492 -11.6763
v  2.7108 16.7492 -11.6763
v  2.7154 13.6945 -5.8279
v  2.7108 18.5179 -8.6128
v  -3.0422 18.5179 -8.6128
v  -2.9303 13.6945 -5.8279
v  -1.9111 22.7675 -17.4414
v  -1.9111 26.5669 -10.8608
v  -1.9111 30.5326 -13.1504
v  -1.9111 26.7332 -19.7310
v  1.8293 26.4736 -10.8069
v  1.6263 26.2320 -10.9505
v  1.6263 22.7675 -17.4414
v  1.6263 26.5669 -10.8608
v  -0.9731 -33.7058 -15.1635
v  -0.9731 -29.9065 -21.7441
v  0.6883 -29.9065 -21.7441
v  0.6883 -33.7058 -15.1635
v  -4.3624 -27.7143 -11.7043
v  -4.3624 -23.9150 -18.2849
v  -4.3624 -25.4290 -19.1591
v  -4.3624 -29.2283 -12.5784
v  4.0776 -23.9150 -18.2849
v  4.0776 -27.7143 -11.7043
v  4.0776 -29.2283 -12.5784
v  4.0776 -25.4290 -19.1591
v  -1.6660 -30.6665 -13.4087
v  -1.6660 -26.8671 -19.9894
v  1.3812 -26.8671 -19.9894
v  1.6263 -26.6548 -19.8668
v  1.6263 -30.4542 -13.2862
v  1.3812 -30.6665 -13.4087
v  2.7154 -13.6631 -5.8823
v  -2.9303 -13.6631 -5.8823
v  -3.0422 -18.4866 -8.6671
v  2.7108 -18.4866 -8.6671
v  2.7154 -11.8944 -8.9458
v  2.7108 -16.7178 -11.7306
v  -3.0422 -16.7178 -11.7306
v  -2.9303 -11.8944 -8.9458
v  -1.9111 -26.4885 -10.9966
v  -1.9111 -22.6891 -17.5772
v  -1.9111 -26.6548 -19.8668
v  -1.9111 -30.4542 -13.2862
v  1.8293 -22.5959 -17.5234
v  1.6263 -22.5994 -17.2423
v  1.6263 -26.4885 -10.9966
v  1.6263 -22.6891 -17.5772
# 102 vertices

vn -0.5134 0.5883 0.6247
vn -0.5134 -0.5883 0.6247
vn 0.5134 -0.5883 0.6247
vn 0.5134 0.5883 0.6247
vn -0.6863 0.6100 -0.3961
vn -0.6863 -0.6100 -0.3961
vn -0.6863 -0.6100 0.3961
vn -0.6863 0.6100 0.3961
vn 0.6964 -0.6153 -0.3693
vn 0.6863 0.6100 -0.3961
vn 0.6863 0.6100 0.3961
vn 0.6863 -0.6100 0.3961
vn -0.7380 0.6589 0.1457
vn -0.7380 -0.6589 0.1457
vn 0.0000 -1.0000 0.0000
vn 0.5770 -0.3187 0.7520
vn 0.5770 0.3187 0.7520
vn 0.0000 1.0000 0.0000
vn 0.7072 0.7070 0.0006
vn -0.7025 0.7116 -0.0141
vn -0.5836 0.5763 0.5720
vn 0.5772 0.5774 0.5775
vn 0.7074 -0.7068 0.0006
vn 0.5770 -0.5774 0.5776
vn -0.5836 -0.5763 0.5720
vn -0.7025 -0.7116 -0.0141
vn -0.4161 0.5548 -0.7205
vn -0.4161 -0.5548 -0.7205
vn -0.4161 -0.5548 0.7205
vn -0.4161 0.5548 0.7205
vn 0.4224 -0.6579 -0.6235
vn 0.5829 0.0271 -0.8121
vn 0.4118 0.5672 -0.7132
vn -0.5135 0.2469 -0.8218
vn -0.5134 0.8352 0.1971
vn 0.5134 0.8352 0.1971
vn 0.5135 0.2469 -0.8218
vn -0.6863 -0.6481 -0.3302
vn -0.6863 -0.0381 0.7264
vn -0.6863 0.6481 0.3302
vn -0.6863 0.0381 -0.7264
vn 0.6964 -0.0123 0.7175
vn 0.6863 -0.6481 -0.3302
vn 0.6863 0.0381 -0.7264
vn 0.6863 0.6481 0.3302
vn -0.7379 -0.2033 -0.6435
vn -0.7380 0.4556 0.4978
vn 0.0000 0.5000 0.8660
vn 0.5771 0.8106 -0.1000
vn 0.5771 0.4919 -0.6520
vn -0.0000 -0.5000 -0.8660
vn 0.7072 -0.3530 -0.6126
vn -0.7025 -0.3680 -0.6092
vn -0.5836 0.2073 -0.7851
vn 0.5772 0.2115 -0.7888
vn 0.7074 0.3539 0.6118
vn 0.5770 0.7889 0.2113
vn -0.5836 0.7836 0.2131
vn -0.7025 0.3436 0.6233
vn -0.4161 -0.9014 -0.1201
vn -0.4161 -0.3467 0.8406
vn -0.4161 0.9014 0.1201
vn -0.4161 0.3467 -0.8406
vn 0.4224 -0.2110 0.8815
vn 0.5829 -0.7168 0.3826
vn 0.4118 -0.9013 -0.1346
vn -0.5135 -0.8351 0.1972
vn -0.5135 -0.2468 -0.8218
vn 0.5135 -0.2468 -0.8218
vn 0.5135 -0.8351 0.1972
vn -0.6863 0.0381 0.7264
vn -0.6863 0.6481 -0.3302
vn -0.6863 -0.0381 -0.7264
vn -0.6863 -0.6481 0.3302
vn 0.6964 0.6275 -0.3482
vn 0.6863 0.0381 0.7264
vn 0.6863 -0.6481 0.3302
vn 0.6863 -0.0381 -0.7264
vn -0.7380 -0.4556 0.4978
vn -0.7380 0.2033 -0.6435
vn 0.0000 0.5000 -0.8660
vn 0.5771 -0.4919 -0.6520
vn 0.5771 -0.8106 -0.1000
vn -0.0000 -0.5000 0.8660
vn 0.7072 -0.3540 0.6120
vn -0.7024 -0.3436 0.6234
vn -0.5837 -0.7835 0.2131
vn 0.5771 -0.7889 0.2113
vn 0.7074 0.3529 -0.6124
vn 0.5771 -0.2115 -0.7888
vn -0.5836 -0.2073 -0.7851
vn -0.7025 0.3680 -0.6091
vn -0.4161 0.3467 0.8406
vn -0.4161 0.9014 -0.1201
vn -0.4161 -0.3467 -0.8406
vn -0.4161 -0.9014 0.1202
vn 0.4224 0.8689 -0.2580
vn 0.5829 0.6898 0.4295
vn 0.4118 0.3340 0.8478
vn -0.0000 0.5000 -0.8660
# 100 vertex normals

vt 0.0000 0.0000 0.0000
vt 1.0000 0.0000 0.0000
vt 1.0000 1.0000 0.0000
vt 0.0000 1.0000 0.0000
vt 1.0000 0.0693 0.0000
vt 0.0323 1.0000 0.0000
vt 0.0000 0.9307 0.0000
vt 0.0323 0.0000 0.0000
vt 0.9677 1.0000 0.0000
# 9 texture coords

o stargate_a_boltz
g stargate_a_boltz
usemtl 04___Default
s 1
f 1/1/1 2/2/2 3/3/3 4/4/4 
f 5/1/5 6/2/6 7/2/7 8/1/8 
f 9/3/9 10/4/10 11/4/11 12/3/12 
s 2
f 13/1/13 14/5/14 2/2/2 1/1/1 
s 4
f 14/5/14 15/3/15 3/3/3 2/2/2 
s 2
f 15/3/15 16/3/16 17/6/17 18/7/18 4/4/4 3/3/3 
s 4
f 18/7/18 13/1/13 1/1/1 4/4/4 
s 1
f 19/2/19 20/3/20 21/4/21 22/1/22 
f 23/1/23 24/2/24 25/3/25 26/4/26 
s 2
f 19/1/19 22/2/22 24/3/24 23/4/23 
s 4
f 22/1/22 21/2/21 25/3/25 24/4/24 
s 2
f 21/1/21 20/2/20 26/3/26 25/4/25 
s 8
f 27/8/27 28/2/28 6/2/6 5/1/5 
s 16
f 28/2/28 29/2/29 7/2/7 6/2/6 
s 32
f 29/2/29 30/1/30 8/1/8 7/2/7 
s 16
f 30/1/30 27/8/27 5/1/5 8/1/8 
s 8
f 31/3/31 32/9/32 33/4/33 10/4/10 9/3/9 
s 16
f 33/4/33 17/6/17 11/4/11 10/4/10 
s 8
f 17/6/17 16/3/16 12/3/12 11/4/11 
s 4
f 16/3/16 34/3/15 31/3/31 9/3/9 12/3/12 
s 1
f 35/1/34 36/2/35 37/3/36 38/4/37 
f 39/1/38 40/2/39 41/2/40 42/1/41 
f 43/3/42 44/4/43 45/4/44 46/3/45 
s 2
f 47/1/46 48/5/47 36/2/35 35/1/34 
s 4
f 48/5/47 49/3/48 37/3/36 36/2/35 
s 2
f 49/3/48 50/3/49 51/6/50 52/7/51 38/4/37 37/3/36 
s 4
f 52/7/51 47/1/46 35/1/34 38/4/37 
s 1
f 53/2/52 54/3/53 55/4/54 56/1/55 
f 57/1/56 58/2/57 59/3/58 60/4/59 
s 2
f 53/1/52 56/2/55 58/3/57 57/4/56 
s 4
f 56/1/55 55/2/54 59/3/58 58/4/57 
s 2
f 55/1/54 54/2/53 60/3/59 59/4/58 
s 8
f 61/8/60 62/2/61 40/2/39 39/1/38 
s 16
f 62/2/61 63/2/62 41/2/40 40/2/39 
s 32
f 63/2/62 64/1/63 42/1/41 41/2/40 
s 16
f 64/1/63 61/8/60 39/1/38 42/1/41 
s 8
f 65/3/64 66/9/65 67/4/66 44/4/43 43/3/42 
s 16
f 67/4/66 51/6/50 45/4/44 44/4/43 
s 8
f 51/6/50 50/3/49 46/3/45 45/4/44 
s 4
f 50/3/49 68/3/48 65/3/64 43/3/42 46/3/45 
s 1
f 69/1/67 70/2/68 71/3/69 72/4/70 
f 73/1/71 74/2/72 75/2/73 76/1/74 
f 77/3/75 78/4/76 79/4/77 80/3/78 
s 2
f 81/1/79 82/5/80 70/2/68 69/1/67 
s 4
f 82/5/80 83/3/81 71/3/69 70/2/68 
s 2
f 83/3/81 84/3/82 85/6/83 86/7/84 72/4/70 71/3/69 
s 4
f 86/7/84 81/1/79 69/1/67 72/4/70 
s 1
f 87/2/85 88/3/86 89/4/87 90/1/88 
f 91/1/89 92/2/90 93/3/91 94/4/92 
s 2
f 87/1/85 90/2/88 92/3/90 91/4/89 
s 4
f 90/1/88 89/2/87 93/3/91 92/4/90 
s 2
f 89/1/87 88/2/86 94/3/92 93/4/91 
s 8
f 95/8/93 96/2/94 74/2/72 73/1/71 
s 16
f 96/2/94 97/2/95 75/2/73 74/2/72 
s 32
f 97/2/95 98/1/96 76/1/74 75/2/73 
s 16
f 98/1/96 95/8/93 73/1/71 76/1/74 
s 8
f 99/3/97 100/9/98 101/4/99 78/4/76 77/3/75 
s 16
f 101/4/99 85/6/83 79/4/77 78/4/76 
s 8
f 85/6/83 84/3/82 80/3/78 79/4/77 
s 4
f 84/3/82 102/3/100 99/3/97 77/3/75 80/3/78 
# 60 polygons

