# 3ds Max Wavefront OBJ Exporter v0.97b - (c)2007 guruware
# File Created: 23.07.2026 16:35:57

mtllib stargate_a_emissive.mtl

#
# object stargate_a_emissive
#

v  1.3812 -3.8777 28.1928
v  1.6263 -3.6326 28.1928
v  1.8293 -3.8777 28.3303
v  1.6263 -3.8777 28.4380
v  -1.9111 3.7209 28.4380
v  -1.6660 3.7209 28.1928
v  -1.6660 3.8716 14.4314
v  -1.9111 3.6264 14.4314
v  -1.9111 -3.6264 14.4314
v  -1.6660 -3.8716 14.4314
v  -1.6660 -3.8777 28.1928
v  -1.9111 -3.8777 28.4380
v  1.3812 -3.8716 14.4314
v  1.6263 -3.6264 14.4314
v  1.6263 3.6264 14.4314
v  1.3812 3.8716 14.4314
v  1.3812 3.7209 28.1928
v  1.6263 3.7209 28.4380
v  -1.6660 3.7209 33.2623
v  -1.9111 3.7209 33.0172
v  -1.9111 -3.8777 33.0172
v  -1.6660 -3.8777 33.2623
v  -0.5898 -11.2315 24.8860
v  -0.8704 -10.9889 25.2633
v  0.5856 -10.9889 25.2633
v  0.3049 -11.2315 24.8860
v  1.6263 -3.8777 33.0172
v  1.3812 -3.8777 33.2623
v  0.3049 -11.2315 29.9554
v  0.5856 -10.9889 29.7962
v  -0.8704 -10.9889 29.7962
v  -0.5898 -11.2315 29.9554
v  0.3049 11.0747 24.8860
v  0.5856 10.8321 25.2633
v  -0.8704 10.8321 25.2633
v  -0.5898 11.0747 24.8860
v  -0.5898 11.0747 29.9554
v  -0.8704 10.8321 29.7962
v  1.3812 3.7209 33.2623
v  1.6263 3.7209 33.0172
v  0.5856 10.8321 29.7962
v  0.3049 11.0747 29.9554
v  1.3812 -22.4768 -17.4546
v  1.6263 -22.5994 -17.2423
v  1.8293 -22.5959 -17.5234
v  1.6263 -22.6891 -17.5772
v  -1.9111 -26.4885 -10.9966
v  -1.6660 -26.2762 -10.8740
v  -1.6660 -14.4337 -3.8628
v  -1.9111 -14.3111 -4.0751
v  -1.9111 -10.6847 -10.3563
v  -1.6660 -10.5622 -10.5686
v  -1.6660 -22.4768 -17.4546
v  -1.9111 -22.6891 -17.5772
v  1.3812 -10.5622 -10.5686
v  1.6263 -10.6847 -10.3563
v  1.6263 -14.3111 -4.0751
v  1.3812 -14.4337 -3.8628
v  1.3812 -26.2762 -10.8740
v  1.6263 -26.4885 -10.9966
v  -1.6660 -30.6665 -13.4087
v  -1.9111 -30.4542 -13.2862
v  -1.9111 -26.6548 -19.8668
v  -1.6660 -26.8671 -19.9894
v  -0.5898 -15.9361 -22.1697
v  -0.8704 -16.3842 -22.1484
v  0.5856 -16.3842 -22.1484
v  0.3049 -15.9361 -22.1697
v  1.6263 -26.6548 -19.8668
v  1.3812 -26.8671 -19.9894
v  0.3049 -20.3264 -24.7045
v  0.5856 -20.3098 -24.4148
v  -0.8704 -20.3098 -24.4148
v  -0.5898 -20.3264 -24.7045
v  0.3049 -27.0892 -2.8520
v  0.5856 -27.2947 -3.2507
v  -0.8704 -27.2947 -3.2507
v  -0.5898 -27.0892 -2.8520
v  -0.5898 -31.4795 -5.3868
v  -0.8704 -31.2203 -5.5172
v  1.3812 -30.6665 -13.4087
v  1.6263 -30.4542 -13.2862
v  0.5856 -31.2203 -5.5172
v  0.3049 -31.4795 -5.3868
v  1.3812 26.3546 -10.7382
v  1.6263 26.2320 -10.9505
v  1.8293 26.4736 -10.8069
v  1.6263 26.5669 -10.8608
v  -1.9111 22.7675 -17.4414
v  -1.6660 22.5552 -17.3188
v  -1.6660 10.5622 -10.5686
v  -1.9111 10.6847 -10.3563
v  -1.9111 14.3111 -4.0751
v  -1.6660 14.4337 -3.8628
v  -1.6660 26.3546 -10.7382
v  -1.9111 26.5669 -10.8608
v  1.3812 14.4337 -3.8628
v  1.6263 14.3111 -4.0751
v  1.6263 10.6847 -10.3563
v  1.3812 10.5622 -10.5686
v  1.3812 22.5552 -17.3188
v  1.6263 22.7675 -17.4414
v  -1.6660 26.9455 -19.8536
v  -1.9111 26.7332 -19.7310
v  -1.9111 30.5326 -13.1504
v  -1.6660 30.7449 -13.2729
v  -0.5898 27.1676 -2.7162
v  -0.8704 27.3731 -3.1150
v  0.5856 27.3731 -3.1150
v  0.3049 27.1676 -2.7162
v  1.6263 30.5326 -13.1504
v  1.3812 30.7449 -13.2729
v  0.3049 31.5579 -5.2510
v  0.5856 31.2987 -5.3814
v  -0.8704 31.2987 -5.3814
v  -0.5898 31.5579 -5.2510
v  0.3049 16.0145 -22.0339
v  0.5856 16.4626 -22.0126
v  -0.8704 16.4626 -22.0126
v  -0.5898 16.0145 -22.0339
v  -0.5898 20.4048 -24.5687
v  -0.8704 20.3882 -24.2790
v  1.3812 26.9455 -19.8536
v  1.6263 26.7332 -19.7310
v  0.5856 20.3882 -24.2790
v  0.3049 20.4048 -24.5687
v  2.5247 13.9051 -0.4280
v  3.5826 11.3510 -0.4280
v  3.5826 11.0750 -2.5245
v  2.5247 13.5420 -3.1855
v  3.5826 11.3753 -0.5513
v  2.5247 8.8213 -0.5513
v  2.5247 8.6634 -1.7506
v  3.5826 11.1304 -2.4116
v  -2.5247 8.8213 -0.5513
v  -3.5826 11.3753 -0.5513
v  -3.5826 11.1304 -2.4116
v  -2.5247 8.6634 -1.7506
v  -3.5826 11.3510 -0.4280
v  -2.5247 13.9051 -0.4280
v  -2.5247 13.5420 -3.1855
v  -3.5826 11.0750 -2.5245
v  2.5247 13.3205 -4.0123
v  3.5826 10.8535 -3.3512
v  3.5826 10.0442 -5.3049
v  2.5247 12.2561 -6.5819
v  3.5826 10.8450 -3.4767
v  2.5247 8.3780 -2.8156
v  2.5247 7.9151 -3.9332
v  3.5826 10.1270 -5.2102
v  -2.5247 8.3780 -2.8156
v  -3.5826 10.8450 -3.4767
v  -3.5826 10.1270 -5.2102
v  -2.5247 7.9151 -3.9332
v  -3.5826 10.8535 -3.3512
v  -2.5247 13.3205 -4.0123
v  -2.5247 12.2561 -6.5819
v  -3.5826 10.0442 -5.3049
v  2.5247 11.8282 -7.3232
v  3.5826 9.6163 -6.0461
v  3.5826 8.3290 -7.7238
v  2.5247 10.1350 -9.5298
v  3.5826 9.5757 -6.1651
v  2.5247 7.3638 -4.8881
v  2.5247 6.6274 -5.8478
v  3.5826 8.4334 -7.6538
v  -2.5247 7.3638 -4.8881
v  -3.5826 9.5757 -6.1651
v  -3.5826 8.4334 -7.6538
v  -2.5247 6.6274 -5.8478
v  -3.5826 9.6163 -6.0461
v  -2.5247 11.8282 -7.3232
v  -2.5247 10.1350 -9.5298
v  -3.5826 8.3290 -7.7238
v  2.5247 9.5298 -10.1350
v  3.5826 7.7238 -8.3290
v  3.5826 6.0461 -9.6163
v  2.5247 7.3232 -11.8282
v  3.5826 7.6538 -8.4334
v  2.5247 5.8478 -6.6274
v  2.5247 4.8881 -7.3638
v  3.5826 6.1651 -9.5757
v  -2.5247 5.8478 -6.6274
v  -3.5826 7.6538 -8.4334
v  -3.5826 6.1651 -9.5757
v  -2.5247 4.8881 -7.3638
v  -3.5826 7.7238 -8.3290
v  -2.5247 9.5298 -10.1350
v  -2.5247 7.3232 -11.8282
v  -3.5826 6.0461 -9.6163
v  2.5247 6.5819 -12.2561
v  3.5826 5.3049 -10.0442
v  3.5826 3.3512 -10.8535
v  2.5247 4.0123 -13.3205
v  3.5826 5.2102 -10.1270
v  2.5247 3.9332 -7.9151
v  2.5247 2.8156 -8.3780
v  3.5826 3.4767 -10.8450
v  -2.5247 3.9332 -7.9151
v  -3.5826 5.2102 -10.1270
v  -3.5826 3.4767 -10.8450
v  -2.5247 2.8156 -8.3780
v  -3.5826 5.3049 -10.0442
v  -2.5247 6.5819 -12.2561
v  -2.5247 4.0123 -13.3205
v  -3.5826 3.3512 -10.8535
v  2.5247 3.1855 -13.5420
v  3.5826 2.5245 -11.0750
v  3.5826 0.4280 -11.3510
v  2.5247 0.4280 -13.9051
v  3.5826 2.4116 -11.1304
v  2.5247 1.7506 -8.6634
v  2.5247 0.5513 -8.8213
v  3.5826 0.5513 -11.3753
v  -2.5247 1.7506 -8.6634
v  -3.5826 2.4116 -11.1304
v  -3.5826 0.5513 -11.3753
v  -2.5247 0.5513 -8.8213
v  -3.5826 2.5245 -11.0750
v  -2.5247 3.1855 -13.5420
v  -2.5247 0.4280 -13.9051
v  -3.5826 0.4280 -11.3510
v  2.5247 -13.9051 -0.4280
v  2.5247 -13.5420 -3.1855
v  3.5826 -11.0750 -2.5245
v  3.5826 -11.3510 -0.4280
v  3.5826 -11.3753 -0.5513
v  3.5826 -11.1304 -2.4116
v  2.5247 -8.6634 -1.7506
v  2.5247 -8.8213 -0.5513
v  -2.5247 -8.8213 -0.5513
v  -2.5247 -8.6634 -1.7506
v  -3.5826 -11.1304 -2.4116
v  -3.5826 -11.3753 -0.5513
v  -3.5826 -11.3510 -0.4280
v  -3.5826 -11.0750 -2.5245
v  -2.5247 -13.5420 -3.1855
v  -2.5247 -13.9051 -0.4280
v  2.5247 -13.3205 -4.0123
v  2.5247 -12.2561 -6.5819
v  3.5826 -10.0442 -5.3049
v  3.5826 -10.8535 -3.3512
v  3.5826 -10.8450 -3.4767
v  3.5826 -10.1270 -5.2102
v  2.5247 -7.9151 -3.9332
v  2.5247 -8.3780 -2.8156
v  -2.5247 -8.3780 -2.8156
v  -2.5247 -7.9151 -3.9332
v  -3.5826 -10.1270 -5.2102
v  -3.5826 -10.8450 -3.4767
v  -3.5826 -10.8535 -3.3512
v  -3.5826 -10.0442 -5.3049
v  -2.5247 -12.2561 -6.5819
v  -2.5247 -13.3205 -4.0123
v  2.5247 -11.8282 -7.3232
v  2.5247 -10.1350 -9.5298
v  3.5826 -8.3290 -7.7238
v  3.5826 -9.6163 -6.0461
v  3.5826 -9.5757 -6.1651
v  3.5826 -8.4334 -7.6538
v  2.5247 -6.6274 -5.8478
v  2.5247 -7.3638 -4.8881
v  -2.5247 -7.3638 -4.8881
v  -2.5247 -6.6274 -5.8478
v  -3.5826 -8.4334 -7.6538
v  -3.5826 -9.5757 -6.1651
v  -3.5826 -9.6163 -6.0461
v  -3.5826 -8.3290 -7.7238
v  -2.5247 -10.1350 -9.5298
v  -2.5247 -11.8282 -7.3232
v  2.5247 -9.5298 -10.1350
v  2.5247 -7.3232 -11.8282
v  3.5826 -6.0461 -9.6163
v  3.5826 -7.7238 -8.3290
v  3.5826 -7.6538 -8.4334
v  3.5826 -6.1651 -9.5757
v  2.5247 -4.8881 -7.3638
v  2.5247 -5.8478 -6.6274
v  -2.5247 -5.8478 -6.6274
v  -2.5247 -4.8881 -7.3638
v  -3.5826 -6.1651 -9.5757
v  -3.5826 -7.6538 -8.4334
v  -3.5826 -7.7238 -8.3290
v  -3.5826 -6.0461 -9.6163
v  -2.5247 -7.3232 -11.8282
v  -2.5247 -9.5298 -10.1350
v  2.5247 -6.5819 -12.2561
v  2.5247 -4.0123 -13.3205
v  3.5826 -3.3512 -10.8535
v  3.5826 -5.3049 -10.0442
v  3.5826 -5.2102 -10.1270
v  3.5826 -3.4767 -10.8450
v  2.5247 -2.8156 -8.3780
v  2.5247 -3.9332 -7.9151
v  -2.5247 -3.9332 -7.9151
v  -2.5247 -2.8156 -8.3780
v  -3.5826 -3.4767 -10.8450
v  -3.5826 -5.2102 -10.1270
v  -3.5826 -5.3049 -10.0442
v  -3.5826 -3.3512 -10.8535
v  -2.5247 -4.0123 -13.3205
v  -2.5247 -6.5819 -12.2561
v  2.5247 -3.1855 -13.5420
v  2.5247 -0.4280 -13.9051
v  3.5826 -0.4280 -11.3510
v  3.5826 -2.5245 -11.0750
v  3.5826 -2.4116 -11.1304
v  3.5826 -0.5513 -11.3753
v  2.5247 -0.5513 -8.8213
v  2.5247 -1.7506 -8.6634
v  -2.5247 -1.7506 -8.6634
v  -2.5247 -0.5513 -8.8213
v  -3.5826 -0.5513 -11.3753
v  -3.5826 -2.4116 -11.1304
v  -3.5826 -2.5245 -11.0750
v  -3.5826 -0.4280 -11.3510
v  -2.5247 -0.4280 -13.9051
v  -2.5247 -3.1855 -13.5420
v  2.5247 13.9051 0.4280
v  2.5247 13.5420 3.1855
v  3.5826 11.0750 2.5245
v  3.5826 11.3510 0.4280
v  3.5826 11.3753 0.5513
v  3.5826 11.1304 2.4116
v  2.5247 8.6634 1.7506
v  2.5247 8.8213 0.5513
v  -2.5247 8.8213 0.5513
v  -2.5247 8.6634 1.7506
v  -3.5826 11.1304 2.4116
v  -3.5826 11.3753 0.5513
v  -3.5826 11.3510 0.4280
v  -3.5826 11.0750 2.5245
v  -2.5247 13.5420 3.1855
v  -2.5247 13.9051 0.4280
v  2.5247 13.3205 4.0123
v  2.5247 12.2561 6.5819
v  3.5826 10.0442 5.3049
v  3.5826 10.8535 3.3512
v  3.5826 10.8450 3.4767
v  3.5826 10.1270 5.2102
v  2.5247 7.9151 3.9332
v  2.5247 8.3780 2.8156
v  -2.5247 8.3780 2.8156
v  -2.5247 7.9151 3.9332
v  -3.5826 10.1270 5.2102
v  -3.5826 10.8450 3.4767
v  -3.5826 10.8535 3.3512
v  -3.5826 10.0442 5.3049
v  -2.5247 12.2561 6.5819
v  -2.5247 13.3205 4.0123
v  2.5247 11.8282 7.3232
v  2.5247 10.1350 9.5298
v  3.5826 8.3290 7.7238
v  3.5826 9.6163 6.0461
v  3.5826 9.5757 6.1651
v  3.5826 8.4334 7.6538
v  2.5247 6.6274 5.8478
v  2.5247 7.3638 4.8881
v  -2.5247 7.3638 4.8881
v  -2.5247 6.6274 5.8478
v  -3.5826 8.4334 7.6538
v  -3.5826 9.5757 6.1651
v  -3.5826 9.6163 6.0461
v  -3.5826 8.3290 7.7238
v  -2.5247 10.1350 9.5298
v  -2.5247 11.8282 7.3232
v  2.5247 9.5298 10.1350
v  2.5247 7.3232 11.8282
v  3.5826 6.0461 9.6163
v  3.5826 7.7238 8.3290
v  3.5826 7.6538 8.4334
v  3.5826 6.1651 9.5757
v  2.5247 4.8881 7.3638
v  2.5247 5.8478 6.6274
v  -2.5247 5.8478 6.6274
v  -2.5247 4.8881 7.3638
v  -3.5826 6.1651 9.5757
v  -3.5826 7.6538 8.4334
v  -3.5826 7.7238 8.3290
v  -3.5826 6.0461 9.6163
v  -2.5247 7.3232 11.8282
v  -2.5247 9.5298 10.1350
v  2.5247 6.5819 12.2561
v  2.5247 4.0123 13.3205
v  3.5826 3.3512 10.8535
v  3.5826 5.3049 10.0442
v  3.5826 5.2102 10.1270
v  3.5826 3.4767 10.8450
v  2.5247 2.8156 8.3780
v  2.5247 3.9332 7.9151
v  -2.5247 3.9332 7.9151
v  -2.5247 2.8156 8.3780
v  -3.5826 3.4767 10.8450
v  -3.5826 5.2102 10.1270
v  -3.5826 5.3049 10.0442
v  -3.5826 3.3512 10.8535
v  -2.5247 4.0123 13.3205
v  -2.5247 6.5819 12.2561
v  2.5247 3.1855 13.5420
v  2.5247 0.4280 13.9051
v  3.5826 0.4280 11.3510
v  3.5826 2.5245 11.0750
v  3.5826 2.4116 11.1304
v  3.5826 0.5513 11.3753
v  2.5247 0.5513 8.8213
v  2.5247 1.7506 8.6634
v  -2.5247 1.7506 8.6634
v  -2.5247 0.5513 8.8213
v  -3.5826 0.5513 11.3753
v  -3.5826 2.4116 11.1304
v  -3.5826 2.5245 11.0750
v  -3.5826 0.4280 11.3510
v  -2.5247 0.4280 13.9051
v  -2.5247 3.1855 13.5420
v  2.5247 -13.9051 0.4280
v  3.5826 -11.3510 0.4280
v  3.5826 -11.0750 2.5245
v  2.5247 -13.5420 3.1855
v  3.5826 -11.3753 0.5513
v  2.5247 -8.8213 0.5513
v  2.5247 -8.6634 1.7506
v  3.5826 -11.1304 2.4116
v  -2.5247 -8.8213 0.5513
v  -3.5826 -11.3753 0.5513
v  -3.5826 -11.1304 2.4116
v  -2.5247 -8.6634 1.7506
v  -3.5826 -11.3510 0.4280
v  -2.5247 -13.9051 0.4280
v  -2.5247 -13.5420 3.1855
v  -3.5826 -11.0750 2.5245
v  2.5247 -13.3205 4.0123
v  3.5826 -10.8535 3.3512
v  3.5826 -10.0442 5.3049
v  2.5247 -12.2561 6.5819
v  3.5826 -10.8450 3.4767
v  2.5247 -8.3780 2.8156
v  2.5247 -7.9151 3.9332
v  3.5826 -10.1270 5.2102
v  -2.5247 -8.3780 2.8156
v  -3.5826 -10.8450 3.4767
v  -3.5826 -10.1270 5.2102
v  -2.5247 -7.9151 3.9332
v  -3.5826 -10.8535 3.3512
v  -2.5247 -13.3205 4.0123
v  -2.5247 -12.2561 6.5819
v  -3.5826 -10.0442 5.3049
v  2.5247 -11.8282 7.3232
v  3.5826 -9.6163 6.0461
v  3.5826 -8.3290 7.7238
v  2.5247 -10.1350 9.5298
v  3.5826 -9.5757 6.1651
v  2.5247 -7.3638 4.8881
v  2.5247 -6.6274 5.8478
v  3.5826 -8.4334 7.6538
v  -2.5247 -7.3638 4.8881
v  -3.5826 -9.5757 6.1651
v  -3.5826 -8.4334 7.6538
v  -2.5247 -6.6274 5.8478
v  -3.5826 -9.6163 6.0461
v  -2.5247 -11.8282 7.3232
v  -2.5247 -10.1350 9.5298
v  -3.5826 -8.3290 7.7238
v  2.5247 -9.5298 10.1350
v  3.5826 -7.7238 8.3290
v  3.5826 -6.0461 9.6163
v  2.5247 -7.3232 11.8282
v  3.5826 -7.6538 8.4334
v  2.5247 -5.8478 6.6274
v  2.5247 -4.8881 7.3638
v  3.5826 -6.1651 9.5757
v  -2.5247 -5.8478 6.6274
v  -3.5826 -7.6538 8.4334
v  -3.5826 -6.1651 9.5757
v  -2.5247 -4.8881 7.3638
v  -3.5826 -7.7238 8.3290
v  -2.5247 -9.5298 10.1350
v  -2.5247 -7.3232 11.8282
v  -3.5826 -6.0461 9.6163
v  2.5247 -6.5819 12.2561
v  3.5826 -5.3049 10.0442
v  3.5826 -3.3512 10.8535
v  2.5247 -4.0123 13.3205
v  3.5826 -5.2102 10.1270
v  2.5247 -3.9332 7.9151
v  2.5247 -2.8156 8.3780
v  3.5826 -3.4767 10.8450
v  -2.5247 -3.9332 7.9151
v  -3.5826 -5.2102 10.1270
v  -3.5826 -3.4767 10.8450
v  -2.5247 -2.8156 8.3780
v  -3.5826 -5.3049 10.0442
v  -2.5247 -6.5819 12.2561
v  -2.5247 -4.0123 13.3205
v  -3.5826 -3.3512 10.8535
v  2.5247 -3.1855 13.5420
v  3.5826 -2.5245 11.0750
v  3.5826 -0.4280 11.3510
v  2.5247 -0.4280 13.9051
v  3.5826 -2.4116 11.1304
v  2.5247 -1.7506 8.6634
v  2.5247 -0.5513 8.8213
v  3.5826 -0.5513 11.3753
v  -2.5247 -1.7506 8.6634
v  -3.5826 -2.4116 11.1304
v  -3.5826 -0.5513 11.3753
v  -2.5247 -0.5513 8.8213
v  -3.5826 -2.5245 11.0750
v  -2.5247 -3.1855 13.5420
v  -2.5247 -0.4280 13.9051
v  -3.5826 -0.4280 11.3510
# 510 vertices

vn 0.7936 -0.3368 -0.5068
vn 0.5982 -0.5982 -0.5331
vn -0.3512 -0.6621 -0.6621
vn 0.4102 -0.8146 -0.4102
vn -0.6414 0.4211 -0.6414
vn -0.4917 0.7186 -0.4917
vn -0.7071 0.7071 0.0077
vn -0.7071 0.7071 -0.0048
vn -0.7070 -0.7070 -0.0127
vn -0.7071 -0.7071 -0.0003
vn -0.4967 -0.7117 -0.4967
vn -0.6426 -0.4174 -0.6426
vn 0.7071 -0.7071 -0.0003
vn 0.7071 0.7071 -0.0048
vn 0.7071 0.7071 0.0077
vn 0.4917 0.7186 -0.4917
vn 0.6414 0.4211 -0.6414
vn -0.6949 0.1850 0.6949
vn -0.6912 0.2108 0.6912
vn -0.6912 -0.2108 0.6912
vn -0.6949 -0.1850 0.6949
vn -0.8420 -0.3827 -0.3802
vn -0.8462 -0.3369 -0.4127
vn 0.8462 -0.3369 -0.4127
vn 0.8420 -0.3827 -0.3802
vn 0.6511 -0.3902 0.6511
vn 0.6516 -0.3884 0.6516
vn 0.7170 -0.6185 0.3216
vn 0.7180 -0.6067 0.3413
vn -0.7180 -0.6067 0.3413
vn -0.7170 -0.6185 0.3216
vn 0.8420 0.3827 -0.3802
vn 0.8462 0.3369 -0.4127
vn -0.8462 0.3369 -0.4127
vn -0.8420 0.3827 -0.3802
vn -0.7170 0.6185 0.3216
vn -0.7180 0.6067 0.3413
vn 0.6516 0.3884 0.6516
vn 0.6511 0.3902 0.6511
vn 0.7180 0.6067 0.3413
vn 0.7170 0.6185 0.3216
vn 0.7936 0.6073 -0.0383
vn 0.5982 0.7609 -0.2515
vn -0.3512 0.9044 -0.2423
vn 0.4102 0.7625 -0.5004
vn -0.6414 0.3449 0.6853
vn -0.4917 0.0665 0.8682
vn -0.7071 -0.3602 0.6085
vn -0.7071 -0.3494 0.6148
vn -0.7071 0.3645 -0.6060
vn -0.7071 0.3538 -0.6122
vn -0.4967 0.7860 -0.3680
vn -0.6426 0.7652 -0.0402
vn 0.7071 0.3538 -0.6122
vn 0.7071 -0.3494 0.6148
vn 0.7071 -0.3602 0.6085
vn 0.4917 0.0665 0.8682
vn 0.6414 0.3449 0.6853
vn -0.6949 -0.6943 -0.1873
vn -0.6912 -0.7040 -0.1630
vn -0.6912 -0.4932 -0.5282
vn -0.6949 -0.5093 -0.5076
vn -0.8420 0.5206 -0.1413
vn -0.8462 0.5259 -0.0854
vn 0.8462 0.5259 -0.0854
vn 0.8420 0.5206 -0.1413
vn 0.6511 -0.3687 -0.6634
vn 0.6516 -0.3701 -0.6621
vn 0.7170 0.0308 -0.6964
vn 0.7180 0.0078 -0.6960
vn -0.7180 0.0078 -0.6960
vn -0.7170 0.0308 -0.6964
vn 0.8420 0.1379 0.5215
vn 0.8462 0.1890 0.4982
vn -0.8462 0.1890 0.4982
vn -0.8420 0.1379 0.5215
vn -0.7170 -0.5877 0.3748
vn -0.7180 -0.5989 0.3548
vn 0.6516 -0.7585 0.0105
vn 0.6511 -0.7589 0.0124
vn 0.7180 -0.5989 0.3548
vn 0.7170 -0.5877 0.3748
vn 0.7936 -0.2704 0.5451
vn 0.5982 -0.1626 0.7847
vn -0.3512 -0.2423 0.9044
vn 0.4102 0.0521 0.9105
vn -0.6414 -0.7660 -0.0440
vn -0.4917 -0.7852 -0.3765
vn -0.7071 -0.3468 -0.6162
vn -0.7071 -0.3577 -0.6100
vn -0.7071 0.3425 0.6187
vn -0.7071 0.3533 0.6125
vn -0.4967 -0.0743 0.8647
vn -0.6426 -0.3478 0.6827
vn 0.7071 0.3533 0.6125
vn 0.7071 -0.3577 -0.6100
vn 0.7071 -0.3468 -0.6162
vn 0.4917 -0.7852 -0.3765
vn 0.6414 -0.7660 -0.0440
vn -0.6949 0.5093 -0.5076
vn -0.6912 0.4932 -0.5282
vn -0.6912 0.7040 -0.1630
vn -0.6949 0.6943 -0.1873
vn -0.8420 -0.1379 0.5215
vn -0.8462 -0.1890 0.4982
vn 0.8462 -0.1890 0.4982
vn 0.8420 -0.1379 0.5215
vn 0.6511 0.7589 0.0124
vn 0.6516 0.7585 0.0105
vn 0.7170 0.5877 0.3748
vn 0.7180 0.5989 0.3548
vn -0.7180 0.5989 0.3548
vn -0.7170 0.5877 0.3748
vn 0.8420 -0.5206 -0.1413
vn 0.8462 -0.5259 -0.0854
vn -0.8462 -0.5259 -0.0854
vn -0.8420 -0.5206 -0.1413
vn -0.7170 -0.0308 -0.6964
vn -0.7180 -0.0078 -0.6960
vn 0.6516 0.3701 -0.6621
vn 0.6511 0.3687 -0.6634
vn 0.7180 -0.0078 -0.6960
vn 0.7170 -0.0308 -0.6964
vn 0.9227 0.3822 -0.0503
vn 0.9227 -0.3822 0.0503
vn -0.9227 -0.3822 0.0503
vn -0.9227 0.3822 -0.0503
vn 0.9227 0.3562 -0.1475
vn 0.9227 -0.3562 0.1475
vn -0.9227 -0.3562 0.1475
vn -0.9227 0.3562 -0.1475
vn 0.9227 0.3058 -0.2347
vn 0.9227 -0.3058 0.2347
vn -0.9227 -0.3058 0.2347
vn -0.9227 0.3058 -0.2347
vn 0.9227 0.2347 -0.3058
vn 0.9227 -0.2347 0.3058
vn -0.9227 -0.2347 0.3058
vn -0.9227 0.2347 -0.3058
vn 0.9227 0.1475 -0.3562
vn 0.9227 -0.1475 0.3562
vn -0.9227 -0.1475 0.3562
vn -0.9227 0.1475 -0.3562
vn 0.9227 0.0503 -0.3822
vn 0.9227 -0.0503 0.3822
vn -0.9227 -0.0503 0.3822
vn -0.9227 0.0503 -0.3822
vn 0.9227 -0.3822 -0.0503
vn 0.9227 0.3822 0.0503
vn -0.9227 0.3822 0.0503
vn -0.9227 -0.3822 -0.0503
vn 0.9227 -0.3562 -0.1475
vn 0.9227 0.3562 0.1475
vn -0.9227 0.3562 0.1475
vn -0.9227 -0.3562 -0.1475
vn 0.9227 -0.3058 -0.2347
vn 0.9227 0.3058 0.2347
vn -0.9227 0.3058 0.2347
vn -0.9227 -0.3058 -0.2347
vn 0.9227 -0.2347 -0.3058
vn 0.9227 0.2347 0.3058
vn -0.9227 0.2347 0.3058
vn -0.9227 -0.2347 -0.3058
vn 0.9227 -0.1475 -0.3562
vn 0.9227 0.1475 0.3562
vn -0.9227 0.1475 0.3562
vn -0.9227 -0.1475 -0.3562
vn 0.9227 -0.0503 -0.3822
vn 0.9227 0.0503 0.3822
vn -0.9227 0.0503 0.3822
vn -0.9227 -0.0503 -0.3822
# 171 vertex normals

vt 1.0000 0.9307 0.0000
vt 0.9677 1.0000 0.0000
vt 1.0000 1.0000 0.0000
vt 1.0002 0.0126 0.0000
vt 1.0000 0.0693 0.0000
vt 0.0000 0.0693 0.0000
vt 0.0002 0.0121 0.0000
vt 1.0000 0.0121 0.0000
vt 0.0000 0.0126 0.0000
vt 0.0000 0.9874 0.0000
vt 0.0000 0.9307 0.0000
vt 1.0000 0.9879 0.0000
vt 0.0002 0.9879 0.0000
vt 1.0002 0.9874 0.0000
vt 0.0000 0.0000 0.0000
vt 1.0000 0.0000 0.0000
vt 1.0000 0.1770 0.0000
vt 1.0000 0.8230 0.0000
vt 0.0000 1.0000 0.0000
vt 0.0000 0.8230 0.0000
vt 0.0323 0.0000 0.0000
vt 0.0000 0.1770 0.0000
vt 0.0323 1.0000 0.0000
vt 0.1250 0.0000 0.0000
vt 0.2500 0.0000 0.0000
vt 0.2500 0.0417 0.0000
vt 0.1250 0.0417 0.0000
vt 0.3750 0.0000 0.0000
vt 0.3750 0.0417 0.0000
vt 0.6250 0.0000 0.0000
vt 0.7500 0.0000 0.0000
vt 0.7500 0.0417 0.0000
vt 0.6250 0.0417 0.0000
vt 0.8750 0.0000 0.0000
vt 0.8750 0.0417 0.0000
vt 0.2500 0.0833 0.0000
vt 0.1250 0.0833 0.0000
vt 0.3750 0.0833 0.0000
vt 0.7500 0.0833 0.0000
vt 0.6250 0.0833 0.0000
vt 0.8750 0.0833 0.0000
vt 0.2500 0.1250 0.0000
vt 0.1250 0.1250 0.0000
vt 0.3750 0.1250 0.0000
vt 0.7500 0.1250 0.0000
vt 0.6250 0.1250 0.0000
vt 0.8750 0.1250 0.0000
vt 0.2500 0.1667 0.0000
vt 0.1250 0.1667 0.0000
vt 0.3750 0.1667 0.0000
vt 0.7500 0.1667 0.0000
vt 0.6250 0.1667 0.0000
vt 0.8750 0.1667 0.0000
vt 0.2500 0.2083 0.0000
vt 0.1250 0.2083 0.0000
vt 0.3750 0.2083 0.0000
vt 0.7500 0.2083 0.0000
vt 0.6250 0.2083 0.0000
vt 0.8750 0.2083 0.0000
vt 0.2500 0.2500 0.0000
vt 0.1250 0.2500 0.0000
vt 0.3750 0.2500 0.0000
vt 0.7500 0.2500 0.0000
vt 0.6250 0.2500 0.0000
vt 0.8750 0.2500 0.0000
# 65 texture coords

o stargate_a_emissive
g stargate_a_emissive
usemtl 03___Default
s 16
f 1/1/1 2/2/2 3/3/3 4/3/4 
s 2
f 5/4/5 6/5/6 7/6/7 8/7/8 
f 9/8/9 10/5/10 11/6/11 12/9/12 
s 32
f 2/10/2 1/11/1 13/1/13 14/12/13 
s 2
f 15/13/14 16/11/15 17/1/16 18/14/17 
s 32
f 19/15/18 20/15/19 21/16/20 22/5/21 
f 12/16/12 11/5/11 23/17/22 24/16/23 
s 8
f 1/1/1 4/3/4 25/3/24 26/18/25 
s 16
f 27/3/26 28/3/27 29/18/28 30/3/29 
s 32
f 22/5/21 21/16/20 31/16/30 32/17/31 
s 2
f 26/18/25 25/3/24 30/3/29 29/18/28 
f 32/17/31 31/16/30 24/16/23 23/17/22 
s 32
f 18/19/17 17/11/16 33/20/32 34/19/33 
f 6/6/6 5/21/5 35/15/34 36/22/35 
f 20/15/19 19/15/18 37/22/36 38/15/37 
f 39/11/38 40/23/39 41/19/40 42/20/41 
s 2
f 36/22/35 35/15/34 38/15/37 37/22/36 
f 42/20/41 41/19/40 34/19/33 33/20/32 
s 16
f 43/1/42 44/2/43 45/3/44 46/3/45 
s 2
f 47/4/46 48/5/47 49/6/48 50/7/49 
f 51/8/50 52/5/51 53/6/52 54/9/53 
s 32
f 44/10/43 43/11/42 55/1/54 56/12/54 
s 2
f 57/13/55 58/11/56 59/1/57 60/14/58 
s 32
f 61/15/59 62/15/60 63/16/61 64/5/62 
f 54/16/53 53/5/52 65/17/63 66/16/64 
s 8
f 43/1/42 46/3/45 67/3/65 68/18/66 
s 16
f 69/3/67 70/3/68 71/18/69 72/3/70 
s 32
f 64/5/62 63/16/61 73/16/71 74/17/72 
s 2
f 68/18/66 67/3/65 72/3/70 71/18/69 
f 74/17/72 73/16/71 66/16/64 65/17/63 
s 32
f 60/19/58 59/11/57 75/20/73 76/19/74 
f 48/6/47 47/21/46 77/15/75 78/22/76 
f 62/15/60 61/15/59 79/22/77 80/15/78 
f 81/11/79 82/23/80 83/19/81 84/20/82 
s 2
f 78/22/76 77/15/75 80/15/78 79/22/77 
f 84/20/82 83/19/81 76/19/74 75/20/73 
s 16
f 85/1/83 86/2/84 87/3/85 88/3/86 
s 2
f 89/4/87 90/5/88 91/6/89 92/7/90 
f 93/8/91 94/5/92 95/6/93 96/9/94 
s 32
f 86/10/84 85/11/83 97/1/95 98/12/95 
s 2
f 99/13/96 100/11/97 101/1/98 102/14/99 
s 32
f 103/15/100 104/15/101 105/16/102 106/5/103 
f 96/16/94 95/5/93 107/17/104 108/16/105 
s 8
f 85/1/83 88/3/86 109/3/106 110/18/107 
s 16
f 111/3/108 112/3/109 113/18/110 114/3/111 
s 32
f 106/5/103 105/16/102 115/16/112 116/17/113 
s 2
f 110/18/107 109/3/106 114/3/111 113/18/110 
f 116/17/113 115/16/112 108/16/105 107/17/104 
s 32
f 102/19/99 101/11/98 117/20/114 118/19/115 
f 90/6/88 89/21/87 119/15/116 120/22/117 
f 104/15/101 103/15/100 121/22/118 122/15/119 
f 123/11/120 124/23/121 125/19/122 126/20/123 
s 2
f 120/22/117 119/15/116 122/15/119 121/22/118 
f 126/20/123 125/19/122 118/19/115 117/20/114 
s 1
f 127/24/124 128/25/124 129/26/124 130/27/124 
f 131/25/125 132/28/125 133/29/125 134/26/125 
f 135/30/126 136/31/126 137/32/126 138/33/126 
f 139/31/127 140/34/127 141/35/127 142/32/127 
f 143/27/128 144/26/128 145/36/128 146/37/128 
f 147/26/129 148/29/129 149/38/129 150/36/129 
f 151/33/130 152/32/130 153/39/130 154/40/130 
f 155/32/131 156/35/131 157/41/131 158/39/131 
f 159/37/132 160/36/132 161/42/132 162/43/132 
f 163/36/133 164/38/133 165/44/133 166/42/133 
f 167/40/134 168/39/134 169/45/134 170/46/134 
f 171/39/135 172/41/135 173/47/135 174/45/135 
f 175/43/136 176/42/136 177/48/136 178/49/136 
f 179/42/137 180/44/137 181/50/137 182/48/137 
f 183/46/138 184/45/138 185/51/138 186/52/138 
f 187/45/139 188/47/139 189/53/139 190/51/139 
f 191/49/140 192/48/140 193/54/140 194/55/140 
f 195/48/141 196/50/141 197/56/141 198/54/141 
f 199/52/142 200/51/142 201/57/142 202/58/142 
f 203/51/143 204/53/143 205/59/143 206/57/143 
f 207/55/144 208/54/144 209/60/144 210/61/144 
f 211/54/145 212/56/145 213/62/145 214/60/145 
f 215/58/146 216/57/146 217/63/146 218/64/146 
f 219/57/147 220/59/147 221/65/147 222/63/147 
f 223/24/148 224/27/148 225/26/148 226/25/148 
f 227/25/149 228/26/149 229/29/149 230/28/149 
f 231/30/150 232/33/150 233/32/150 234/31/150 
f 235/31/151 236/32/151 237/35/151 238/34/151 
f 239/27/152 240/37/152 241/36/152 242/26/152 
f 243/26/153 244/36/153 245/38/153 246/29/153 
f 247/33/154 248/40/154 249/39/154 250/32/154 
f 251/32/155 252/39/155 253/41/155 254/35/155 
f 255/37/156 256/43/156 257/42/156 258/36/156 
f 259/36/157 260/42/157 261/44/157 262/38/157 
f 263/40/158 264/46/158 265/45/158 266/39/158 
f 267/39/159 268/45/159 269/47/159 270/41/159 
f 271/43/160 272/49/160 273/48/160 274/42/160 
f 275/42/161 276/48/161 277/50/161 278/44/161 
f 279/46/162 280/52/162 281/51/162 282/45/162 
f 283/45/163 284/51/163 285/53/163 286/47/163 
f 287/49/164 288/55/164 289/54/164 290/48/164 
f 291/48/165 292/54/165 293/56/165 294/50/165 
f 295/52/166 296/58/166 297/57/166 298/51/166 
f 299/51/167 300/57/167 301/59/167 302/53/167 
f 303/55/168 304/61/168 305/60/168 306/54/168 
f 307/54/169 308/60/169 309/62/169 310/56/169 
f 311/58/170 312/64/170 313/63/170 314/57/170 
f 315/57/171 316/63/171 317/65/171 318/59/171 
f 319/24/149 320/27/149 321/26/149 322/25/149 
f 323/25/148 324/26/148 325/29/148 326/28/148 
f 327/30/151 328/33/151 329/32/151 330/31/151 
f 331/31/150 332/32/150 333/35/150 334/34/150 
f 335/27/153 336/37/153 337/36/153 338/26/153 
f 339/26/152 340/36/152 341/38/152 342/29/152 
f 343/33/155 344/40/155 345/39/155 346/32/155 
f 347/32/154 348/39/154 349/41/154 350/35/154 
f 351/37/157 352/43/157 353/42/157 354/36/157 
f 355/36/156 356/42/156 357/44/156 358/38/156 
f 359/40/159 360/46/159 361/45/159 362/39/159 
f 363/39/158 364/45/158 365/47/158 366/41/158 
f 367/43/161 368/49/161 369/48/161 370/42/161 
f 371/42/160 372/48/160 373/50/160 374/44/160 
f 375/46/163 376/52/163 377/51/163 378/45/163 
f 379/45/162 380/51/162 381/53/162 382/47/162 
f 383/49/165 384/55/165 385/54/165 386/48/165 
f 387/48/164 388/54/164 389/56/164 390/50/164 
f 391/52/167 392/58/167 393/57/167 394/51/167 
f 395/51/166 396/57/166 397/59/166 398/53/166 
f 399/55/169 400/61/169 401/60/169 402/54/169 
f 403/54/168 404/60/168 405/62/168 406/56/168 
f 407/58/171 408/64/171 409/63/171 410/57/171 
f 411/57/170 412/63/170 413/65/170 414/59/170 
f 415/24/125 416/25/125 417/26/125 418/27/125 
f 419/25/124 420/28/124 421/29/124 422/26/124 
f 423/30/127 424/31/127 425/32/127 426/33/127 
f 427/31/126 428/34/126 429/35/126 430/32/126 
f 431/27/129 432/26/129 433/36/129 434/37/129 
f 435/26/128 436/29/128 437/38/128 438/36/128 
f 439/33/131 440/32/131 441/39/131 442/40/131 
f 443/32/130 444/35/130 445/41/130 446/39/130 
f 447/37/133 448/36/133 449/42/133 450/43/133 
f 451/36/132 452/38/132 453/44/132 454/42/132 
f 455/40/135 456/39/135 457/45/135 458/46/135 
f 459/39/134 460/41/134 461/47/134 462/45/134 
f 463/43/137 464/42/137 465/48/137 466/49/137 
f 467/42/136 468/44/136 469/50/136 470/48/136 
f 471/46/139 472/45/139 473/51/139 474/52/139 
f 475/45/138 476/47/138 477/53/138 478/51/138 
f 479/49/141 480/48/141 481/54/141 482/55/141 
f 483/48/140 484/50/140 485/56/140 486/54/140 
f 487/52/143 488/51/143 489/57/143 490/58/143 
f 491/51/142 492/53/142 493/59/142 494/57/142 
f 495/55/145 496/54/145 497/60/145 498/61/145 
f 499/54/144 500/56/144 501/62/144 502/60/144 
f 503/58/147 504/57/147 505/63/147 506/64/147 
f 507/57/146 508/59/146 509/65/146 510/63/146 
# 150 polygons

