# 3ds Max Wavefront OBJ Exporter v0.97b - (c)2007 guruware
# File Created: 12.09.2026 17:54:37

mtllib towerArm_a_building.mtl

#
# object towerArm_a_base
#

v  -3.4254 0.3942 0.1158
v  -1.9590 0.4945 0.1158
v  -1.1652 0.1665 -5.9761
v  -1.5482 0.1327 -6.2648
v  -1.9590 -0.4945 0.1158
v  -3.4254 -0.3942 0.1158
v  -1.5482 -0.1327 -6.2648
v  -1.1652 -0.1665 -5.9761
v  -3.4254 -0.3942 0.6578
v  -1.9590 -0.4945 0.6578
v  -2.1709 -0.3516 1.3433
v  -3.2135 -0.3531 0.8821
v  -1.9590 0.4945 0.6578
v  -3.4254 0.3942 0.6578
v  -3.2135 0.3531 0.8821
v  -2.1709 0.3516 1.3433
v  -3.3972 0.2902 0.0199
v  -3.3972 -0.2902 0.0199
v  -1.5765 0.0366 -6.1689
v  -1.5765 -0.0366 -6.1689
v  -1.9461 -0.3890 0.0167
v  -1.9461 0.3890 0.0167
v  -1.1781 -0.0717 -5.8769
v  -1.1781 0.0717 -5.8769
v  0.3942 3.4254 0.1158
v  0.4945 1.9590 0.1158
v  0.1665 1.1652 -5.9761
v  0.1327 1.5482 -6.2648
v  -0.4945 1.9590 0.1158
v  -0.3942 3.4254 0.1158
v  -0.1327 1.5482 -6.2648
v  -0.1665 1.1652 -5.9761
v  -0.3942 3.4254 0.6578
v  -0.4945 1.9590 0.6578
v  -0.3516 2.1709 1.3433
v  -0.3531 3.2135 0.8821
v  0.4945 1.9590 0.6578
v  0.3942 3.4254 0.6578
v  0.3531 3.2135 0.8821
v  0.3516 2.1709 1.3433
v  0.2902 3.3972 0.0199
v  -0.2902 3.3972 0.0199
v  0.0366 1.5765 -6.1689
v  -0.0366 1.5765 -6.1689
v  -0.3890 1.9461 0.0167
v  0.3890 1.9461 0.0167
v  -0.0717 1.1781 -5.8769
v  0.0717 1.1781 -5.8769
v  3.4254 -0.3942 0.1158
v  1.9590 -0.4945 0.1158
v  1.1652 -0.1665 -5.9761
v  1.5482 -0.1327 -6.2648
v  1.9590 0.4945 0.1158
v  3.4254 0.3942 0.1158
v  1.5482 0.1327 -6.2648
v  1.1652 0.1665 -5.9761
v  3.4254 0.3942 0.6578
v  1.9590 0.4945 0.6578
v  2.1709 0.3516 1.3433
v  3.2135 0.3531 0.8821
v  1.9590 -0.4945 0.6578
v  3.4254 -0.3942 0.6578
v  3.2135 -0.3531 0.8821
v  2.1709 -0.3516 1.3433
v  3.3972 -0.2902 0.0199
v  3.3972 0.2902 0.0199
v  1.5765 -0.0366 -6.1689
v  1.5765 0.0366 -6.1689
v  1.9461 0.3890 0.0167
v  1.9461 -0.3890 0.0167
v  1.1781 0.0717 -5.8769
v  1.1781 -0.0717 -5.8769
v  -0.3942 -3.4254 0.1158
v  -0.4945 -1.9590 0.1158
v  -0.1665 -1.1652 -5.9761
v  -0.1327 -1.5482 -6.2648
v  0.4945 -1.9590 0.1158
v  0.3942 -3.4254 0.1158
v  0.1327 -1.5482 -6.2648
v  0.1665 -1.1652 -5.9761
v  0.3942 -3.4254 0.6578
v  0.4945 -1.9590 0.6578
v  0.3516 -2.1709 1.3433
v  0.3531 -3.2135 0.8821
v  -0.4945 -1.9590 0.6578
v  -0.3942 -3.4254 0.6578
v  -0.3531 -3.2135 0.8821
v  -0.3516 -2.1709 1.3433
v  -0.2902 -3.3972 0.0199
v  0.2902 -3.3972 0.0199
v  -0.0366 -1.5765 -6.1689
v  0.0366 -1.5765 -6.1689
v  0.3890 -1.9461 0.0167
v  -0.3890 -1.9461 0.0167
v  0.0717 -1.1781 -5.8769
v  -0.0717 -1.1781 -5.8769
# 96 vertices

vn -0.7481 0.6165 -0.2454
vn 0.6347 0.7717 0.0412
vn 0.5891 0.8074 0.0333
vn -0.7731 0.5824 -0.2513
vn 0.6347 -0.7717 0.0412
vn -0.7481 -0.6165 -0.2454
vn -0.7731 -0.5824 -0.2513
vn 0.5891 -0.8074 0.0333
vn -0.6078 -0.4473 0.6561
vn -0.0671 -0.9807 0.1837
vn -0.0783 -0.9805 0.1802
vn -0.4401 -0.7126 0.5464
vn -0.0671 0.9807 0.1837
vn -0.6078 0.4473 0.6561
vn -0.4401 0.7126 0.5464
vn -0.0783 0.9805 0.1802
vn -0.9593 -0.0000 -0.2822
vn -0.9593 0.0000 -0.2822
vn 0.9916 0.0000 0.1292
vn 0.9916 -0.0000 0.1292
vn 0.6165 0.7481 -0.2454
vn 0.7717 -0.6347 0.0412
vn 0.8074 -0.5891 0.0333
vn 0.5824 0.7731 -0.2513
vn -0.7717 -0.6347 0.0412
vn -0.6165 0.7481 -0.2454
vn -0.5824 0.7731 -0.2513
vn -0.8074 -0.5891 0.0333
vn -0.4473 0.6078 0.6561
vn -0.9807 0.0671 0.1837
vn -0.9805 0.0783 0.1802
vn -0.7126 0.4401 0.5464
vn 0.9807 0.0671 0.1837
vn 0.4473 0.6078 0.6561
vn 0.7126 0.4401 0.5464
vn 0.9805 0.0783 0.1802
vn -0.0000 0.9593 -0.2822
vn 0.0000 0.9593 -0.2822
vn 0.0000 -0.9916 0.1292
vn -0.0000 -0.9916 0.1292
vn 0.7481 -0.6165 -0.2454
vn -0.6347 -0.7717 0.0412
vn -0.5891 -0.8074 0.0333
vn 0.7731 -0.5824 -0.2513
vn -0.6347 0.7717 0.0412
vn 0.7481 0.6165 -0.2454
vn 0.7731 0.5824 -0.2513
vn -0.5891 0.8074 0.0333
vn 0.6078 0.4473 0.6561
vn 0.0671 0.9807 0.1837
vn 0.0783 0.9805 0.1802
vn 0.4401 0.7126 0.5464
vn 0.0671 -0.9807 0.1837
vn 0.6078 -0.4473 0.6561
vn 0.4401 -0.7126 0.5464
vn 0.0783 -0.9805 0.1802
vn 0.9593 -0.0000 -0.2822
vn 0.9593 0.0000 -0.2822
vn -0.9916 0.0000 0.1292
vn -0.9916 -0.0000 0.1292
vn -0.6165 -0.7481 -0.2454
vn -0.7717 0.6347 0.0412
vn -0.8074 0.5891 0.0333
vn -0.5824 -0.7731 -0.2513
vn 0.7717 0.6347 0.0412
vn 0.6165 -0.7481 -0.2454
vn 0.5824 -0.7731 -0.2513
vn 0.8074 0.5891 0.0333
vn 0.4473 -0.6078 0.6561
vn 0.9807 -0.0671 0.1837
vn 0.9805 -0.0783 0.1802
vn 0.7126 -0.4401 0.5464
vn -0.9807 -0.0671 0.1837
vn -0.4473 -0.6078 0.6561
vn -0.7126 -0.4401 0.5464
vn -0.9805 -0.0783 0.1802
vn 0.0000 -0.9593 -0.2822
vn -0.0000 -0.9593 -0.2822
vn -0.0000 0.9916 0.1292
vn 0.0000 0.9916 0.1292
# 80 vertex normals

vt 0.4430 0.3406 0.2081
vt 0.1799 0.3406 0.4668
vt 0.0375 0.0159 -0.3797
vt 0.1062 0.0005 -0.4668
vt 0.3006 0.9962 -0.4668
vt 0.0375 0.9962 -0.2081
vt 0.3743 0.6561 0.4668
vt 0.4430 0.6715 0.3797
vt 0.2279 0.6508 0.0395
vt 0.3674 0.6508 -0.0978
vt 0.3472 0.6702 0.0978
vt 0.2480 0.6572 0.0958
vt 0.1433 0.0005 0.0978
vt 0.2828 0.0005 -0.0395
vt 0.2627 0.0068 -0.0958
vt 0.1634 0.0199 -0.0978
vt 0.4129 0.2649 -0.2538
vt 0.5287 0.2649 -0.2538
vt 0.5227 0.2691 -0.1681
vt 0.4190 0.2691 -0.1681
vt 0.9981 0.3266 -0.9997
vt 0.6931 0.3266 -0.9997
vt 0.7334 0.3217 -0.9696
vt 0.9578 0.3217 -0.9696
vt 0.7943 0.0058 0.9997
vt 0.8315 0.0106 0.9696
vt 0.8969 0.0058 0.9997
vt 0.8597 0.0106 0.9696
vt 0.9971 0.5966 -0.3536
vt 0.6773 0.5966 -0.3536
vt 0.7114 0.5924 -0.3421
vt 0.9630 0.5924 -0.3421
vt 0.7834 0.3405 0.3536
vt 0.8140 0.3446 0.3421
vt 0.8910 0.3405 0.3536
vt 0.8604 0.3446 0.3421
# 36 texture coords

o towerArm_a_base
g towerArm_a_base
usemtl base
s off
f 1/1/1 2/2/2 3/3/3 4/4/4 
f 5/5/5 6/6/6 7/7/7 8/8/8 
f 9/9/9 10/10/10 11/11/11 12/12/12 
f 13/13/13 14/14/14 15/15/15 16/16/16 
f 14/17/14 9/18/9 12/19/12 15/20/15 
f 6/21/6 1/22/1 17/23/17 18/24/18 
f 1/22/1 4/25/4 19/26/18 17/23/17 
f 4/25/4 7/27/7 20/28/17 19/26/18 
f 7/27/7 6/21/6 18/24/18 20/28/17 
f 2/29/2 5/30/5 21/31/19 22/32/20 
f 5/30/5 8/33/8 23/34/20 21/31/19 
f 8/33/8 3/35/3 24/36/19 23/34/20 
f 3/35/3 2/29/2 22/32/20 24/36/19 
f 25/1/21 26/2/22 27/3/23 28/4/24 
f 29/5/25 30/6/26 31/7/27 32/8/28 
f 33/9/29 34/10/30 35/11/31 36/12/32 
f 37/13/33 38/14/34 39/15/35 40/16/36 
f 38/17/34 33/18/29 36/19/32 39/20/35 
f 30/21/26 25/22/21 41/23/37 42/24/38 
f 25/22/21 28/25/24 43/26/38 41/23/37 
f 28/25/24 31/27/27 44/28/37 43/26/38 
f 31/27/27 30/21/26 42/24/38 44/28/37 
f 26/29/22 29/30/25 45/31/39 46/32/40 
f 29/30/25 32/33/28 47/34/40 45/31/39 
f 32/33/28 27/35/23 48/36/39 47/34/40 
f 27/35/23 26/29/22 46/32/40 48/36/39 
f 49/1/41 50/2/42 51/3/43 52/4/44 
f 53/5/45 54/6/46 55/7/47 56/8/48 
f 57/9/49 58/10/50 59/11/51 60/12/52 
f 61/13/53 62/14/54 63/15/55 64/16/56 
f 62/17/54 57/18/49 60/19/52 63/20/55 
f 54/21/46 49/22/41 65/23/57 66/24/57 
f 49/22/41 52/25/44 67/26/58 65/23/57 
f 52/25/44 55/27/47 68/28/57 67/26/58 
f 55/27/47 54/21/46 66/24/57 68/28/57 
f 50/29/42 53/30/45 69/31/59 70/32/59 
f 53/30/45 56/33/48 71/34/59 69/31/59 
f 56/33/48 51/35/43 72/36/60 71/34/59 
f 51/35/43 50/29/42 70/32/59 72/36/60 
f 73/1/61 74/2/62 75/3/63 76/4/64 
f 77/5/65 78/6/66 79/7/67 80/8/68 
f 81/9/69 82/10/70 83/11/71 84/12/72 
f 85/13/73 86/14/74 87/15/75 88/16/76 
f 86/17/74 81/18/69 84/19/72 87/20/75 
f 78/21/66 73/22/61 89/23/77 90/24/78 
f 73/22/61 76/25/64 91/26/78 89/23/77 
f 76/25/64 79/27/67 92/28/77 91/26/78 
f 79/27/67 78/21/66 90/24/78 92/28/77 
f 74/29/62 77/30/65 93/31/79 94/32/80 
f 77/30/65 80/33/68 95/34/80 93/31/79 
f 80/33/68 75/35/63 96/36/79 95/34/80 
f 75/35/63 74/29/62 94/32/80 96/36/79 
# 52 polygons

#
# object towerArm_a_emissive
#

v  -3.4254 0.3942 0.1158
v  -3.4254 -0.3942 0.1158
v  -3.3523 -0.3260 0.1158
v  -3.3523 0.3260 0.1158
v  -1.9590 -0.4945 0.1158
v  -2.0273 -0.4214 0.1158
v  -1.9590 0.4945 0.1158
v  -2.0273 0.4214 0.1158
v  -1.9590 -0.4945 0.6578
v  -3.4254 -0.3942 0.6578
v  -3.3523 -0.3260 0.6578
v  -2.0273 -0.4214 0.6578
v  -3.4254 0.3942 0.6578
v  -3.3523 0.3260 0.6578
v  -1.9590 0.4945 0.6578
v  -2.0273 0.4214 0.6578
v  -3.3972 -0.2902 0.0199
v  -3.3972 0.2902 0.0199
v  -3.3012 0.2902 0.0481
v  -3.3012 -0.2902 0.0481
v  -1.5765 0.0366 -6.1689
v  -1.4805 0.0366 -6.1406
v  -1.5765 -0.0366 -6.1689
v  -1.4805 -0.0366 -6.1406
v  -1.9461 0.3890 0.0167
v  -1.9461 -0.3890 0.0167
v  -2.0453 -0.3890 0.0038
v  -2.0453 0.3890 0.0038
v  -1.1781 -0.0717 -5.8769
v  -1.2772 -0.0717 -5.8898
v  -1.1781 0.0717 -5.8769
v  -1.2772 0.0717 -5.8898
v  0.3942 3.4254 0.1158
v  -0.3942 3.4254 0.1158
v  -0.3260 3.3523 0.1158
v  0.3260 3.3523 0.1158
v  -0.4945 1.9590 0.1158
v  -0.4214 2.0273 0.1158
v  0.4945 1.9590 0.1158
v  0.4214 2.0273 0.1158
v  -0.4945 1.9590 0.6578
v  -0.3942 3.4254 0.6578
v  -0.3260 3.3523 0.6578
v  -0.4214 2.0273 0.6578
v  0.3942 3.4254 0.6578
v  0.3260 3.3523 0.6578
v  0.4945 1.9590 0.6578
v  0.4214 2.0273 0.6578
v  -0.2902 3.3972 0.0199
v  0.2902 3.3972 0.0199
v  0.2902 3.3012 0.0481
v  -0.2902 3.3012 0.0481
v  0.0366 1.5765 -6.1689
v  0.0366 1.4805 -6.1406
v  -0.0366 1.5765 -6.1689
v  -0.0366 1.4805 -6.1406
v  0.3890 1.9461 0.0167
v  -0.3890 1.9461 0.0167
v  -0.3890 2.0453 0.0038
v  0.3890 2.0453 0.0038
v  -0.0717 1.1781 -5.8769
v  -0.0717 1.2772 -5.8898
v  0.0717 1.1781 -5.8769
v  0.0717 1.2772 -5.8898
v  3.4254 -0.3942 0.1158
v  3.4254 0.3942 0.1158
v  3.3523 0.3260 0.1158
v  3.3523 -0.3260 0.1158
v  1.9590 0.4945 0.1158
v  2.0273 0.4214 0.1158
v  1.9590 -0.4945 0.1158
v  2.0273 -0.4214 0.1158
v  1.9590 0.4945 0.6578
v  3.4254 0.3942 0.6578
v  3.3523 0.3260 0.6578
v  2.0273 0.4214 0.6578
v  3.4254 -0.3942 0.6578
v  3.3523 -0.3260 0.6578
v  1.9590 -0.4945 0.6578
v  2.0273 -0.4214 0.6578
v  3.3972 0.2902 0.0199
v  3.3972 -0.2902 0.0199
v  3.3012 -0.2902 0.0481
v  3.3012 0.2902 0.0481
v  1.5765 -0.0366 -6.1689
v  1.4805 -0.0366 -6.1406
v  1.5765 0.0366 -6.1689
v  1.4805 0.0366 -6.1406
v  1.9461 -0.3890 0.0167
v  1.9461 0.3890 0.0167
v  2.0453 0.3890 0.0038
v  2.0453 -0.3890 0.0038
v  1.1781 0.0717 -5.8769
v  1.2772 0.0717 -5.8898
v  1.1781 -0.0717 -5.8769
v  1.2772 -0.0717 -5.8898
v  -0.3942 -3.4254 0.1158
v  0.3942 -3.4254 0.1158
v  0.3260 -3.3523 0.1158
v  -0.3260 -3.3523 0.1158
v  0.4945 -1.9590 0.1158
v  0.4214 -2.0273 0.1158
v  -0.4945 -1.9590 0.1158
v  -0.4214 -2.0273 0.1158
v  0.4945 -1.9590 0.6578
v  0.3942 -3.4254 0.6578
v  0.3260 -3.3523 0.6578
v  0.4214 -2.0273 0.6578
v  -0.3942 -3.4254 0.6578
v  -0.3260 -3.3523 0.6578
v  -0.4945 -1.9590 0.6578
v  -0.4214 -2.0273 0.6578
v  0.2902 -3.3972 0.0199
v  -0.2902 -3.3972 0.0199
v  -0.2902 -3.3012 0.0481
v  0.2902 -3.3012 0.0481
v  -0.0366 -1.5765 -6.1689
v  -0.0366 -1.4805 -6.1406
v  0.0366 -1.5765 -6.1689
v  0.0366 -1.4805 -6.1406
v  -0.3890 -1.9461 0.0167
v  0.3890 -1.9461 0.0167
v  0.3890 -2.0453 0.0038
v  -0.3890 -2.0453 0.0038
v  0.0717 -1.1781 -5.8769
v  0.0717 -1.2772 -5.8898
v  -0.0717 -1.1781 -5.8769
v  -0.0717 -1.2772 -5.8898
# 128 vertices

vn 0.0000 0.0000 1.0000
vn -0.0000 -0.0000 -1.0000
vn -0.0000 0.0000 -1.0000
vn 0.1956 0.7209 -0.6649
vn 0.1956 -0.7209 -0.6649
vn -0.2034 -0.6931 0.6916
vn -0.2034 0.6931 0.6916
vn 0.0889 -0.7257 -0.6822
vn 0.0889 0.7257 -0.6822
vn -0.0938 0.6881 0.7196
vn -0.0938 0.6879 0.7197
vn -0.0938 -0.6881 0.7196
vn -0.0938 -0.6879 0.7197
vn 0.0000 0.0000 -1.0000
vn 0.7209 -0.1956 -0.6649
vn -0.7209 -0.1956 -0.6649
vn -0.6931 0.2034 0.6916
vn 0.6931 0.2034 0.6916
vn -0.7258 -0.0889 -0.6821
vn 0.7258 -0.0889 -0.6821
vn 0.7256 -0.0889 -0.6823
vn -0.7256 -0.0889 -0.6823
vn 0.6881 0.0938 0.7196
vn 0.6879 0.0938 0.7197
vn -0.6881 0.0938 0.7196
vn -0.6879 0.0938 0.7197
vn 0.0000 -0.0000 -1.0000
vn -0.1956 -0.7209 -0.6649
vn -0.1956 0.7209 -0.6649
vn 0.2034 0.6931 0.6916
vn 0.2034 -0.6931 0.6916
vn -0.0889 0.7258 -0.6821
vn -0.0889 -0.7258 -0.6821
vn -0.0889 -0.7256 -0.6823
vn -0.0889 0.7256 -0.6823
vn 0.0938 -0.6880 0.7196
vn 0.0938 0.6880 0.7196
vn -0.7209 0.1956 -0.6649
vn 0.7209 0.1956 -0.6649
vn 0.6931 -0.2034 0.6916
vn -0.6931 -0.2034 0.6916
vn 0.7258 0.0889 -0.6821
vn -0.7258 0.0889 -0.6821
vn -0.7256 0.0889 -0.6823
vn 0.7256 0.0889 -0.6823
vn -0.6881 -0.0938 0.7196
vn -0.6879 -0.0938 0.7197
vn 0.6881 -0.0938 0.7196
vn 0.6879 -0.0938 0.7197
# 49 vertex normals

vt 0.2331 0.7362 0.0000
vt 0.2331 0.6720 0.0000
vt 0.2357 0.6776 0.0000
vt 0.2357 0.7307 0.0000
vt 0.2279 0.0757 0.0000
vt 0.3372 0.0587 0.0000
vt 0.3321 0.0711 0.0000
vt 0.2333 0.0874 0.0000
vt 0.4576 0.6720 0.0000
vt 0.4576 0.7518 0.0000
vt 0.4552 0.7459 0.0000
vt 0.4552 0.6779 0.0000
vt 0.5222 0.6795 0.0000
vt 0.4129 0.6625 0.0000
vt 0.4184 0.6508 0.0000
vt 0.5171 0.6671 0.0000
vt 0.2279 0.6561 0.0000
vt 0.3372 0.6732 0.0000
vt 0.3317 0.6848 0.0000
vt 0.2329 0.6686 0.0000
vt 0.2675 0.6773 0.0000
vt 0.2675 0.7415 0.0000
vt 0.2649 0.7360 0.0000
vt 0.2649 0.6828 0.0000
vt 0.3266 0.0544 0.0000
vt 0.2173 0.0715 0.0000
vt 0.2224 0.0591 0.0000
vt 0.3211 0.0428 0.0000
vt 0.2067 0.5033 0.0000
vt 0.2067 0.4235 0.0000
vt 0.2091 0.4294 0.0000
vt 0.2091 0.4974 0.0000
vt 0.4906 0.7460 -0.0010
vt 0.4906 0.7962 -0.0010
vt 0.4869 0.7962 0.0010
vt 0.4869 0.7460 0.0010
vt 0.3072 0.9953 0.3523
vt 0.6587 0.6403 -0.3523
vt 0.6773 0.6419 -0.3523
vt 0.3257 0.9969 0.3523
vt 0.2966 0.7071 -0.0014
vt 0.2966 0.6984 -0.0014
vt 0.3016 0.6984 0.0014
vt 0.3016 0.7071 0.0014
vt 0.1353 0.0005 0.3523
vt 0.4869 0.3555 -0.3523
vt 0.4684 0.3571 -0.3523
vt 0.1168 0.0021 0.3523
vt 0.4869 0.7430 0.0004
vt 0.4869 0.6773 0.0004
vt 0.4906 0.6773 -0.0004
vt 0.4906 0.7430 -0.0004
vt 0.1832 0.4232 -0.5429
vt 0.0005 0.0067 0.5429
vt 0.0241 0.0058 0.5429
vt 0.2068 0.4223 -0.5429
vt 0.3011 0.6826 0.0005
vt 0.3011 0.6973 0.0005
vt 0.2966 0.6973 -0.0005
vt 0.2966 0.6826 -0.0005
vt 0.2121 0.5830 -0.5429
vt 0.0294 0.9995 0.5429
vt 0.0058 0.9986 0.5429
vt 0.1885 0.5821 -0.5429
# 64 texture coords

o towerArm_a_emissive
g towerArm_a_emissive
usemtl emissive
s off
f 97/37/81 98/38/81 99/39/81 100/40/81 
f 98/41/81 101/42/81 102/43/81 99/44/81 
f 101/45/81 103/46/81 104/47/81 102/48/81 
f 103/49/81 97/50/81 100/51/81 104/52/81 
f 105/53/82 106/54/83 107/55/83 108/56/82 
f 106/57/83 109/58/82 110/59/82 107/60/83 
f 109/61/82 111/62/83 112/63/83 110/64/82 
f 111/65/83 105/66/82 108/67/82 112/68/83 
f 113/69/84 114/70/85 115/71/85 116/72/84 
f 114/73/85 117/74/86 118/75/86 115/76/85 
f 117/77/86 119/78/87 120/79/87 118/80/86 
f 119/81/87 113/82/84 116/83/84 120/84/87 
f 121/85/88 122/86/89 123/87/89 124/88/88 
f 122/89/89 125/90/90 126/91/91 123/92/89 
f 125/93/90 127/94/92 128/95/93 126/96/91 
f 127/97/92 121/98/88 124/99/88 128/100/93 
f 129/37/81 130/38/81 131/39/81 132/40/81 
f 130/41/81 133/42/81 134/43/81 131/44/81 
f 133/45/81 135/46/81 136/47/81 134/48/81 
f 135/49/81 129/50/81 132/51/81 136/52/81 
f 137/53/83 138/54/94 139/55/94 140/56/83 
f 138/57/94 141/58/83 142/59/83 139/60/94 
f 141/61/83 143/62/94 144/63/94 142/64/83 
f 143/65/94 137/66/83 140/67/83 144/68/94 
f 145/69/95 146/70/96 147/71/96 148/72/95 
f 146/73/96 149/74/97 150/75/97 147/76/96 
f 149/77/97 151/78/98 152/79/98 150/80/97 
f 151/81/98 145/82/95 148/83/95 152/84/98 
f 153/85/99 154/86/100 155/87/101 156/88/102 
f 154/89/100 157/90/103 158/91/104 155/92/101 
f 157/93/103 159/94/105 160/95/106 158/96/104 
f 159/97/105 153/98/99 156/99/102 160/100/106 
f 161/37/81 162/38/81 163/39/81 164/40/81 
f 162/41/81 165/42/81 166/43/81 163/44/81 
f 165/45/81 167/46/81 168/47/81 166/48/81 
f 167/49/81 161/50/81 164/51/81 168/52/81 
f 169/53/94 170/54/107 171/55/107 172/56/94 
f 170/57/107 173/58/94 174/59/94 171/60/107 
f 173/61/94 175/62/107 176/63/107 174/64/94 
f 175/65/107 169/66/94 172/67/94 176/68/107 
f 177/69/108 178/70/109 179/71/109 180/72/108 
f 178/73/109 181/74/110 182/75/110 179/76/109 
f 181/77/110 183/78/111 184/79/111 182/80/110 
f 183/81/111 177/82/108 180/83/108 184/84/111 
f 185/85/112 186/86/113 187/87/114 188/88/115 
f 186/89/113 189/90/116 190/91/116 187/92/114 
f 189/93/116 191/94/117 192/95/117 190/96/116 
f 191/97/117 185/98/112 188/99/115 192/100/117 
f 193/37/81 194/38/81 195/39/81 196/40/81 
f 194/41/81 197/42/81 198/43/81 195/44/81 
f 197/45/81 199/46/81 200/47/81 198/48/81 
f 199/49/81 193/50/81 196/51/81 200/52/81 
f 201/53/107 202/54/82 203/55/82 204/56/107 
f 202/57/82 205/58/107 206/59/107 203/60/82 
f 205/61/107 207/62/82 208/63/82 206/64/107 
f 207/65/82 201/66/107 204/67/107 208/68/82 
f 209/69/118 210/70/119 211/71/119 212/72/118 
f 210/73/119 213/74/120 214/75/120 211/76/119 
f 213/77/120 215/78/121 216/79/121 214/80/120 
f 215/81/121 209/82/118 212/83/118 216/84/121 
f 217/85/122 218/86/123 219/87/124 220/88/125 
f 218/89/123 221/90/126 222/91/127 219/92/124 
f 221/93/126 223/94/128 224/95/129 222/96/127 
f 223/97/128 217/98/122 220/99/125 224/100/129 
# 64 polygons

#
# object towerArm_a_color
#

v  -3.3523 -0.3260 0.1158
v  -2.0273 -0.4214 0.1158
v  -2.0273 -0.4214 0.6578
v  -3.3523 -0.3260 0.6578
v  -2.0273 0.4214 0.1158
v  -2.0273 0.4214 0.6578
v  -3.3523 0.3260 0.1158
v  -3.3523 0.3260 0.6578
v  -3.3012 -0.2902 0.0481
v  -3.3012 0.2902 0.0481
v  -1.4805 0.0366 -6.1406
v  -1.4805 -0.0366 -6.1406
v  -2.0453 0.3890 0.0038
v  -2.0453 -0.3890 0.0038
v  -1.2772 -0.0717 -5.8898
v  -1.2772 0.0717 -5.8898
v  -0.3260 3.3523 0.1158
v  -0.4214 2.0273 0.1158
v  -0.4214 2.0273 0.6578
v  -0.3260 3.3523 0.6578
v  0.4214 2.0273 0.1158
v  0.4214 2.0273 0.6578
v  0.3260 3.3523 0.1158
v  0.3260 3.3523 0.6578
v  -0.2902 3.3012 0.0481
v  0.2902 3.3012 0.0481
v  0.0366 1.4805 -6.1406
v  -0.0366 1.4805 -6.1406
v  0.3890 2.0453 0.0038
v  -0.3890 2.0453 0.0038
v  -0.0717 1.2772 -5.8898
v  0.0717 1.2772 -5.8898
v  3.3523 0.3260 0.1158
v  2.0273 0.4214 0.1158
v  2.0273 0.4214 0.6578
v  3.3523 0.3260 0.6578
v  2.0273 -0.4214 0.1158
v  2.0273 -0.4214 0.6578
v  3.3523 -0.3260 0.1158
v  3.3523 -0.3260 0.6578
v  3.3012 0.2902 0.0481
v  3.3012 -0.2902 0.0481
v  1.4805 -0.0366 -6.1406
v  1.4805 0.0366 -6.1406
v  2.0453 -0.3890 0.0038
v  2.0453 0.3890 0.0038
v  1.2772 0.0717 -5.8898
v  1.2772 -0.0717 -5.8898
v  0.3260 -3.3523 0.1158
v  0.4214 -2.0273 0.1158
v  0.4214 -2.0273 0.6578
v  0.3260 -3.3523 0.6578
v  -0.4214 -2.0273 0.1158
v  -0.4214 -2.0273 0.6578
v  -0.3260 -3.3523 0.1158
v  -0.3260 -3.3523 0.6578
v  0.2902 -3.3012 0.0481
v  -0.2902 -3.3012 0.0481
v  -0.0366 -1.4805 -6.1406
v  0.0366 -1.4805 -6.1406
v  -0.3890 -2.0453 0.0038
v  0.3890 -2.0453 0.0038
v  0.0717 -1.2772 -5.8898
v  -0.0717 -1.2772 -5.8898
# 64 vertices

vn -0.7321 -0.6812 0.0000
vn 0.6812 -0.7321 0.0000
vn 0.6812 0.7321 0.0000
vn -0.7321 0.6812 0.0000
vn -0.9593 0.0000 -0.2822
vn 0.9916 0.0000 0.1292
vn -0.6812 0.7321 0.0000
vn 0.7321 -0.6812 0.0000
vn 0.0000 0.9593 -0.2822
vn 0.0000 -0.9916 0.1292
vn 0.7321 0.6812 0.0000
vn -0.6812 -0.7321 0.0000
vn 0.9593 0.0000 -0.2822
vn -0.9916 0.0000 0.1292
vn 0.0000 -0.9593 -0.2822
vn 0.0000 0.9916 0.1292
# 16 vertex normals

vt 0.7249 0.5980 0.0683
vt 0.8567 0.5980 -0.0683
vt 0.8567 0.6140 -0.0683
vt 0.7249 0.6140 0.0683
vt 0.3389 0.0587 -0.0000
vt 0.4399 0.0587 0.0000
vt 0.4399 0.0671 0.0000
vt 0.3389 0.0671 -0.0000
vt 0.8676 0.5980 0.0683
vt 0.9994 0.5980 -0.0683
vt 0.9994 0.6140 -0.0683
vt 0.8676 0.6140 0.0683
vt 0.4341 0.3865 0.0000
vt 0.5192 0.3865 -0.0000
vt 0.5192 0.3957 -0.0000
vt 0.4341 0.3957 0.0000
vt 0.8375 0.9983 -1.1486
vt 0.5715 0.9983 -1.1486
vt 0.6877 0.6297 1.1486
vt 0.7212 0.6297 1.1486
vt 0.5336 0.6452 -0.4156
vt 0.2279 0.6452 -0.4156
vt 0.3526 0.3442 0.4156
vt 0.4089 0.3442 0.4156
# 24 texture coords

o towerArm_a_color
g towerArm_a_color
usemtl color
s off
f 225/101/130 226/102/131 227/103/131 228/104/130 
f 226/105/131 229/106/132 230/107/132 227/108/131 
f 229/109/132 231/110/133 232/111/133 230/112/132 
f 231/113/133 225/114/130 228/115/130 232/116/133 
f 233/117/134 234/118/134 235/119/134 236/120/134 
f 237/121/135 238/122/135 239/123/135 240/124/135 
f 241/101/136 242/102/130 243/103/130 244/104/136 
f 242/105/130 245/106/137 246/107/137 243/108/130 
f 245/109/137 247/110/132 248/111/132 246/112/137 
f 247/113/132 241/114/136 244/115/136 248/116/132 
f 249/117/138 250/118/138 251/119/138 252/120/138 
f 253/121/139 254/122/139 255/123/139 256/124/139 
f 257/101/140 258/102/136 259/103/136 260/104/140 
f 258/105/136 261/106/141 262/107/141 259/108/136 
f 261/109/141 263/110/137 264/111/137 262/112/141 
f 263/113/137 257/114/140 260/115/140 264/116/137 
f 265/117/142 266/118/142 267/119/142 268/120/142 
f 269/121/143 270/122/143 271/123/143 272/124/143 
f 273/101/131 274/102/140 275/103/140 276/104/131 
f 274/105/140 277/106/133 278/107/133 275/108/140 
f 277/109/133 279/110/141 280/111/141 278/112/133 
f 279/113/141 273/114/131 276/115/131 280/116/141 
f 281/117/144 282/118/144 283/119/144 284/120/144 
f 285/121/145 286/122/145 287/123/145 288/124/145 
# 24 polygons

#
# object towerArm_a_boltz
#

v  -1.5482 -0.1327 -6.2648
v  -1.5482 0.1327 -6.2648
v  -1.1652 0.1665 -5.9761
v  -1.1652 -0.1665 -5.9761
v  -3.2135 -0.3531 0.8821
v  -2.1709 -0.3516 1.3433
v  -2.1709 0.3516 1.3433
v  -3.2135 0.3531 0.8821
v  -1.9590 -0.4945 0.6578
v  -1.9590 0.4945 0.6578
v  -0.1327 1.5482 -6.2648
v  0.1327 1.5482 -6.2648
v  0.1665 1.1652 -5.9761
v  -0.1665 1.1652 -5.9761
v  -0.3531 3.2135 0.8821
v  -0.3516 2.1709 1.3433
v  0.3516 2.1709 1.3433
v  0.3531 3.2135 0.8821
v  -0.4945 1.9590 0.6578
v  0.4945 1.9590 0.6578
v  1.5482 0.1327 -6.2648
v  1.5482 -0.1327 -6.2648
v  1.1652 -0.1665 -5.9761
v  1.1652 0.1665 -5.9761
v  3.2135 0.3531 0.8821
v  2.1709 0.3516 1.3433
v  2.1709 -0.3516 1.3433
v  3.2135 -0.3531 0.8821
v  1.9590 0.4945 0.6578
v  1.9590 -0.4945 0.6578
v  0.1327 -1.5482 -6.2648
v  -0.1327 -1.5482 -6.2648
v  -0.1665 -1.1652 -5.9761
v  0.1665 -1.1652 -5.9761
v  0.3531 -3.2135 0.8821
v  0.3516 -2.1709 1.3433
v  -0.3516 -2.1709 1.3433
v  -0.3531 -3.2135 0.8821
v  0.4945 -1.9590 0.6578
v  -0.4945 -1.9590 0.6578
# 40 vertices

vn 0.6019 0.0000 -0.7986
vn -0.4045 0.0000 0.9145
vn 0.4732 0.0000 0.8809
vn 0.9554 0.0000 0.2952
vn 0.0000 -0.6019 -0.7986
vn 0.0000 0.4045 0.9145
vn 0.0000 -0.4732 0.8809
vn 0.0000 -0.9554 0.2952
vn -0.6019 0.0000 -0.7986
vn 0.4045 0.0000 0.9145
vn -0.4732 0.0000 0.8809
vn -0.9554 0.0000 0.2952
vn 0.0000 0.6019 -0.7986
vn 0.0000 -0.4045 0.9145
vn 0.0000 0.4732 0.8809
vn 0.0000 0.9554 0.2952
# 16 vertex normals

vt 0.7943 0.3283 0.0123
vt 0.8801 0.3283 0.0123
vt 0.8910 0.3405 0.3536
vt 0.7834 0.3405 0.3536
vt 0.5227 0.2691 -0.1681
vt 0.5225 0.2780 0.2538
vt 0.4192 0.2780 0.2538
vt 0.4190 0.2691 -0.1681
vt 0.1697 0.0269 0.0359
vt 0.2913 0.0269 0.0359
vt 0.2737 0.0379 -0.0359
vt 0.1873 0.0379 -0.0359
# 12 texture coords

o towerArm_a_boltz
g towerArm_a_boltz
usemtl boltz
s off
f 289/125/146 290/126/146 291/127/146 292/128/146 
f 293/129/147 294/130/148 295/131/148 296/132/147 
f 297/133/149 298/134/149 295/135/148 294/136/148 
f 299/125/150 300/126/150 301/127/150 302/128/150 
f 303/129/151 304/130/152 305/131/152 306/132/151 
f 307/133/153 308/134/153 305/135/152 304/136/152 
f 309/125/154 310/126/154 311/127/154 312/128/154 
f 313/129/155 314/130/156 315/131/156 316/132/155 
f 317/133/157 318/134/157 315/135/156 314/136/156 
f 319/125/158 320/126/158 321/127/158 322/128/158 
f 323/129/159 324/130/160 325/131/160 326/132/159 
f 327/133/161 328/134/161 325/135/160 324/136/160 
# 12 polygons

