# 3ds Max Wavefront OBJ Exporter v0.97b - (c)2007 guruware
# File Created: 12.09.2026 17:53:38

mtllib tower_a_building.mtl

#
# object tower_a_base
#

v  1.6412 -0.5974 -0.1000
v  1.3379 -1.1227 -0.1000
v  0.8733 -1.5125 -0.1000
v  0.3033 -1.7200 -0.1000
v  -0.3033 -1.7200 -0.1000
v  -0.8733 -1.5125 -0.1000
v  -1.3379 -1.1227 -0.1000
v  -1.6412 -0.5973 -0.1000
v  -1.7465 0.0000 -0.1000
v  -1.6412 0.5974 -0.1000
v  -1.3379 1.1227 -0.1000
v  -0.8733 1.5125 -0.1000
v  -0.3033 1.7200 -0.1000
v  0.3033 1.7200 -0.1000
v  0.8733 1.5125 -0.1000
v  1.3379 1.1227 -0.1000
v  1.6412 0.5973 -0.1000
v  1.7465 -0.0000 -0.1000
v  2.0000 0.0000 0.0000
v  1.8794 0.6840 0.0000
v  1.8794 0.6840 0.6667
v  2.0000 0.0000 0.6667
v  1.5321 1.2856 0.0000
v  1.5321 1.2856 0.6667
v  1.0000 1.7321 0.0000
v  1.0000 1.7321 0.6667
v  0.3473 1.9696 0.0000
v  0.3473 1.9696 0.6667
v  -0.3473 1.9696 0.0000
v  -0.3473 1.9696 0.6667
v  -1.0000 1.7321 0.0000
v  -1.0000 1.7321 0.6667
v  -1.5321 1.2856 0.0000
v  -1.5321 1.2856 0.6667
v  -1.8794 0.6840 0.0000
v  -1.8794 0.6840 0.6667
v  -2.0000 0.0000 0.0000
v  -2.0000 0.0000 0.6667
v  -1.8794 -0.6840 0.0000
v  -1.8794 -0.6840 0.6667
v  -1.5321 -1.2856 0.0000
v  -1.5321 -1.2856 0.6667
v  -1.0000 -1.7321 0.0000
v  -1.0000 -1.7321 0.6667
v  -0.3473 -1.9696 0.0000
v  -0.3473 -1.9696 0.6667
v  0.3473 -1.9696 0.0000
v  0.3473 -1.9696 0.6667
v  1.0000 -1.7321 0.0000
v  1.0000 -1.7321 0.6667
v  1.5321 -1.2856 0.0000
v  1.5321 -1.2856 0.6667
v  1.8794 -0.6840 0.0000
v  1.8794 -0.6840 0.6667
v  2.0000 0.0000 1.0619
v  1.8794 0.6840 1.0619
v  1.8794 0.6840 1.7286
v  2.0000 0.0000 1.7286
v  1.5321 1.2856 1.0619
v  1.5321 1.2856 1.7286
v  1.0000 1.7321 1.0619
v  1.0000 1.7321 1.7286
v  0.3473 1.9696 1.0619
v  0.3473 1.9696 1.7286
v  -0.3473 1.9696 1.0619
v  -0.3473 1.9696 1.7286
v  -1.0000 1.7321 1.0619
v  -1.0000 1.7321 1.7286
v  -1.5321 1.2856 1.0619
v  -1.5321 1.2856 1.7286
v  -1.8794 0.6840 1.0619
v  -1.8794 0.6840 1.7286
v  -2.0000 0.0000 1.0619
v  -2.0000 0.0000 1.7286
v  -1.8794 -0.6840 1.0619
v  -1.8794 -0.6840 1.7286
v  -1.5321 -1.2856 1.0619
v  -1.5321 -1.2856 1.7286
v  -1.0000 -1.7321 1.0619
v  -1.0000 -1.7321 1.7286
v  -0.3473 -1.9696 1.0619
v  -0.3473 -1.9696 1.7286
v  0.3473 -1.9696 1.0619
v  0.3473 -1.9696 1.7286
v  1.0000 -1.7321 1.0619
v  1.0000 -1.7321 1.7286
v  1.5321 -1.2856 1.0619
v  1.5321 -1.2856 1.7286
v  1.8794 -0.6840 1.0619
v  1.8794 -0.6840 1.7286
v  1.6412 -0.5974 1.8286
v  1.7465 -0.0000 1.8286
v  1.6412 0.5973 1.8286
v  1.3379 1.1227 1.8286
v  0.8733 1.5125 1.8286
v  0.3033 1.7200 1.8286
v  -0.3033 1.7200 1.8286
v  -0.8733 1.5125 1.8286
v  -1.3379 1.1227 1.8286
v  -1.6412 0.5974 1.8286
v  -1.7465 0.0000 1.8286
v  -1.6412 -0.5973 1.8286
v  -1.3379 -1.1227 1.8286
v  -0.8733 -1.5125 1.8286
v  -0.3033 -1.7200 1.8286
v  0.3033 -1.7200 1.8286
v  0.8733 -1.5125 1.8286
v  1.3379 -1.1227 1.8286
v  0.6298 -1.2380 2.1637
v  0.6298 -1.2380 2.4515
v  -0.6298 -1.2380 2.4515
v  -0.6298 -1.2380 2.1637
v  1.2380 0.6298 2.1637
v  1.2380 0.6298 2.4515
v  1.2380 -0.6298 2.4515
v  1.2380 -0.6298 2.1637
v  -0.6298 1.2380 2.1637
v  -0.6298 1.2380 2.4515
v  0.6298 1.2380 2.4515
v  0.6298 1.2380 2.1637
v  -1.2380 -0.6298 2.1637
v  -1.2380 -0.6298 2.4515
v  -1.2380 0.6298 2.4515
v  -1.2380 0.6298 2.1637
v  -0.2830 -0.3830 -4.6404
v  0.2830 -0.3830 -4.6404
v  1.1500 -1.2500 -0.0320
v  -1.1500 -1.2500 -0.0320
v  0.3830 -0.2830 -4.6404
v  0.3830 0.2830 -4.6404
v  1.2500 1.1500 -0.0320
v  1.2500 -1.1500 -0.0320
v  0.2830 0.3830 -4.6404
v  -0.2830 0.3830 -4.6404
v  -1.1500 1.2500 -0.0320
v  1.1500 1.2500 -0.0320
v  -0.3830 0.2830 -4.6404
v  -0.3830 -0.2830 -4.6404
v  -1.2500 -1.1500 -0.0320
v  -1.2500 1.1500 -0.0320
# 140 vertices

vn 0.0000 0.0000 -1.0000
vn 1.0000 -0.0000 0.0000
vn 0.9397 0.3420 0.0000
vn 0.7660 0.6428 0.0000
vn 0.5000 0.8660 0.0000
vn 0.1736 0.9848 0.0000
vn -0.1736 0.9848 0.0000
vn -0.5000 0.8660 0.0000
vn -0.7660 0.6428 0.0000
vn -0.9397 0.3420 0.0000
vn -1.0000 -0.0000 0.0000
vn -0.9397 -0.3420 0.0000
vn -0.7660 -0.6428 0.0000
vn -0.5000 -0.8660 0.0000
vn -0.1736 -0.9848 0.0000
vn 0.1736 -0.9848 0.0000
vn 0.5000 -0.8660 0.0000
vn 0.7660 -0.6428 0.0000
vn 0.9397 -0.3420 0.0000
vn 0.0000 0.0000 1.0000
vn 0.3826 -0.9239 0.0000
vn -0.3826 -0.9239 0.0000
vn 0.9239 0.3826 0.0000
vn 0.9239 -0.3826 0.0000
vn -0.3826 0.9239 0.0000
vn 0.3826 0.9239 0.0000
vn -0.9239 -0.3826 0.0000
vn -0.9239 0.3826 0.0000
vn 0.0000 -0.9828 -0.1849
vn 0.9828 0.0000 -0.1849
vn 0.0000 0.9828 -0.1849
vn -0.9828 0.0000 -0.1849
# 32 vertex normals

vt 0.0291 0.2447 -0.0062
vt 0.0533 0.2021 -0.0062
vt 0.0904 0.1706 -0.0062
vt 0.1358 0.1538 -0.0062
vt 0.1842 0.1538 -0.0062
vt 0.2296 0.1706 -0.0062
vt 0.2667 0.2021 -0.0062
vt 0.2909 0.2447 -0.0062
vt 0.2993 0.2930 -0.0062
vt 0.2909 0.3414 -0.0062
vt 0.2667 0.3839 -0.0062
vt 0.2296 0.4155 -0.0062
vt 0.1842 0.4323 -0.0062
vt 0.1358 0.4323 -0.0062
vt 0.0904 0.4155 -0.0062
vt 0.0533 0.3839 -0.0062
vt 0.0291 0.3414 -0.0062
vt 0.0207 0.2930 -0.0062
vt 0.8596 0.3405 0.0732
vt 0.9340 0.3405 0.0354
vt 0.9340 0.3784 0.0354
vt 0.8596 0.3784 0.0732
vt 0.9993 0.3405 -0.0732
vt 0.9993 0.3784 -0.0732
vt 0.0054 0.0005 -0.1131
vt 0.0647 0.0005 0.0345
vt 0.0647 0.0399 0.0345
vt 0.0054 0.0399 -0.1131
vt 0.1374 0.0005 0.1131
vt 0.1374 0.0399 0.1131
vt 0.2148 0.0005 0.1131
vt 0.2148 0.0399 0.1131
vt 0.2876 0.0005 0.0345
vt 0.2876 0.0399 0.0345
vt 0.3468 0.0005 -0.1131
vt 0.3468 0.0399 -0.1131
vt 0.7199 0.4194 0.0732
vt 0.7853 0.4194 -0.0354
vt 0.7853 0.4572 -0.0354
vt 0.7199 0.4572 0.0732
vt 0.8596 0.4194 -0.0732
vt 0.8596 0.4572 -0.0732
vt 0.9340 0.4194 -0.0354
vt 0.9340 0.4572 -0.0354
vt 0.9993 0.4194 0.0732
vt 0.9993 0.4572 0.0732
vt 0.0005 0.0448 0.1131
vt 0.0598 0.0448 -0.0345
vt 0.0598 0.0843 -0.0345
vt 0.0005 0.0843 0.1131
vt 0.1325 0.0448 -0.1131
vt 0.1325 0.0843 -0.1131
vt 0.2099 0.0448 -0.1131
vt 0.2099 0.0843 -0.1131
vt 0.2826 0.0448 -0.0345
vt 0.2826 0.0843 -0.0345
vt 0.3419 0.0448 0.1131
vt 0.3419 0.0843 0.1131
vt 0.7199 0.3405 -0.0732
vt 0.7853 0.3405 0.0354
vt 0.7853 0.3784 0.0354
vt 0.7199 0.3784 -0.0732
vt 0.8596 0.3011 0.0732
vt 0.9340 0.3011 0.0354
vt 0.9340 0.3389 0.0354
vt 0.8596 0.3389 0.0732
vt 0.9993 0.3011 -0.0732
vt 0.9993 0.3389 -0.0732
vt 0.3504 0.0005 -0.1131
vt 0.4097 0.0005 0.0345
vt 0.4097 0.0399 0.0345
vt 0.3504 0.0399 -0.1131
vt 0.4824 0.0005 0.1131
vt 0.4824 0.0399 0.1131
vt 0.5598 0.0005 0.1131
vt 0.5598 0.0399 0.1131
vt 0.6325 0.0005 0.0345
vt 0.6325 0.0399 0.0345
vt 0.6918 0.0005 -0.1131
vt 0.6918 0.0399 -0.1131
vt 0.7199 0.3799 0.0732
vt 0.7853 0.3799 -0.0354
vt 0.7853 0.4178 -0.0354
vt 0.7199 0.4178 0.0732
vt 0.8596 0.3799 -0.0732
vt 0.8596 0.4178 -0.0732
vt 0.9340 0.3799 -0.0354
vt 0.9340 0.4178 -0.0354
vt 0.9993 0.3799 0.0732
vt 0.9993 0.4178 0.0732
vt 0.0005 0.0892 0.1131
vt 0.0598 0.0892 -0.0345
vt 0.0598 0.1286 -0.0345
vt 0.0005 0.1286 0.1131
vt 0.1325 0.0892 -0.1131
vt 0.1325 0.1286 -0.1131
vt 0.2099 0.0892 -0.1131
vt 0.2099 0.1286 -0.1131
vt 0.2826 0.0892 -0.0345
vt 0.2826 0.1286 -0.0345
vt 0.3419 0.0892 0.1131
vt 0.3419 0.1286 0.1131
vt 0.7199 0.3011 -0.0732
vt 0.7853 0.3011 0.0354
vt 0.7853 0.3389 0.0354
vt 0.7199 0.3389 -0.0732
vt 0.9118 0.7916 0.0062
vt 0.9202 0.8400 0.0062
vt 0.9118 0.8884 0.0062
vt 0.8876 0.9309 0.0062
vt 0.8505 0.9625 0.0062
vt 0.8051 0.9793 0.0062
vt 0.7567 0.9793 0.0062
vt 0.7112 0.9625 0.0062
vt 0.6742 0.9309 0.0062
vt 0.6500 0.8884 0.0062
vt 0.6416 0.8400 0.0062
vt 0.6500 0.7916 0.0062
vt 0.6742 0.7491 0.0062
vt 0.7112 0.7175 0.0062
vt 0.7567 0.7007 0.0062
vt 0.8051 0.7007 0.0062
vt 0.8505 0.7175 0.0062
vt 0.8876 0.7491 0.0062
vt 0.4946 0.3651 -0.0935
vt 0.4946 0.3810 -0.0935
vt 0.3641 0.3810 -0.0935
vt 0.3641 0.3651 -0.0935
vt 0.8047 0.0251 0.0000
vt 0.8047 0.0382 0.0000
vt 0.6953 0.0382 -0.0000
vt 0.6953 0.0251 -0.0000
vt 0.7115 0.1089 0.0935
vt 0.7115 0.1247 0.0935
vt 0.5809 0.1247 0.0935
vt 0.5809 0.1089 0.0935
vt 0.9574 0.9860 -0.0000
vt 0.9574 0.9991 -0.0000
vt 0.8481 0.9991 0.0000
vt 0.8481 0.9860 0.0000
vt 0.5577 0.3651 0.0935
vt 0.5577 0.3810 0.0935
vt 0.3011 0.3810 0.0935
vt 0.3011 0.3651 0.0935
vt 0.5179 0.1247 -0.0935
vt 0.5179 0.1089 -0.0935
vt 0.7745 0.1089 -0.0935
vt 0.7745 0.1247 -0.0935
vt 0.1325 0.6776 0.1339
vt 0.2069 0.6776 0.1339
vt 0.3209 0.9990 -0.2042
vt 0.0186 0.9990 -0.2042
vt 0.8277 0.0116 -0.1294
vt 0.8948 0.0116 -0.1294
vt 0.9976 0.2972 0.1665
vt 0.7249 0.2972 0.1665
vt 0.4627 0.6776 -0.1339
vt 0.5371 0.6776 -0.1339
vt 0.6510 0.9990 0.2042
vt 0.3487 0.9990 0.2042
vt 0.4187 0.0510 0.1294
vt 0.4858 0.0510 0.1294
vt 0.5886 0.3366 -0.1665
vt 0.3159 0.3366 -0.1665
# 164 texture coords

o tower_a_base
g tower_a_base
usemtl base
s 1
f 1/1/1 2/2/1 3/3/1 4/4/1 5/5/1 6/6/1 7/7/1 8/8/1 9/9/1 10/10/1 11/11/1 12/12/1 13/13/1 14/14/1 15/15/1 16/16/1 17/17/1 18/18/1 
f 19/19/2 20/20/3 21/21/3 22/22/2 
f 20/20/3 23/23/4 24/24/4 21/21/3 
f 23/25/4 25/26/5 26/27/5 24/28/4 
f 25/26/5 27/29/6 28/30/6 26/27/5 
f 27/29/6 29/31/7 30/32/7 28/30/6 
f 29/31/7 31/33/8 32/34/8 30/32/7 
f 31/33/8 33/35/9 34/36/9 32/34/8 
f 33/37/9 35/38/10 36/39/10 34/40/9 
f 35/38/10 37/41/11 38/42/11 36/39/10 
f 37/41/11 39/43/12 40/44/12 38/42/11 
f 39/43/12 41/45/13 42/46/13 40/44/12 
f 41/47/13 43/48/14 44/49/14 42/50/13 
f 43/48/14 45/51/15 46/52/15 44/49/14 
f 45/51/15 47/53/16 48/54/16 46/52/15 
f 47/53/16 49/55/17 50/56/17 48/54/16 
f 49/55/17 51/57/18 52/58/18 50/56/17 
f 51/59/18 53/60/19 54/61/19 52/62/18 
f 53/60/19 19/19/2 22/22/2 54/61/19 
f 55/63/2 56/64/3 57/65/3 58/66/2 
f 56/64/3 59/67/4 60/68/4 57/65/3 
f 59/69/4 61/70/5 62/71/5 60/72/4 
f 61/70/5 63/73/6 64/74/6 62/71/5 
f 63/73/6 65/75/7 66/76/7 64/74/6 
f 65/75/7 67/77/8 68/78/8 66/76/7 
f 67/77/8 69/79/9 70/80/9 68/78/8 
f 69/81/9 71/82/10 72/83/10 70/84/9 
f 71/82/10 73/85/11 74/86/11 72/83/10 
f 73/85/11 75/87/12 76/88/12 74/86/11 
f 75/87/12 77/89/13 78/90/13 76/88/12 
f 77/91/13 79/92/14 80/93/14 78/94/13 
f 79/92/14 81/95/15 82/96/15 80/93/14 
f 81/95/15 83/97/16 84/98/16 82/96/15 
f 83/97/16 85/99/17 86/100/17 84/98/16 
f 85/99/17 87/101/18 88/102/18 86/100/17 
f 87/103/18 89/104/19 90/105/19 88/106/18 
f 89/104/19 55/63/2 58/66/2 90/105/19 
f 91/107/20 92/108/20 93/109/20 94/110/20 95/111/20 96/112/20 97/113/20 98/114/20 99/115/20 100/116/20 101/117/20 102/118/20 103/119/20 104/120/20 105/121/20 106/122/20 107/123/20 108/124/20 
f 109/125/21 110/126/21 111/127/22 112/128/22 
f 113/129/23 114/130/23 115/131/24 116/132/24 
f 117/133/25 118/134/25 119/135/26 120/136/26 
f 121/137/27 122/138/27 123/139/28 124/140/28 
f 116/141/24 115/142/24 110/126/21 109/125/21 
f 122/143/27 121/144/27 112/128/22 111/127/22 
f 120/136/26 119/135/26 114/145/23 113/146/23 
f 124/147/28 123/148/28 118/134/25 117/133/25 
f 125/149/29 126/150/29 127/151/29 128/152/29 
f 129/153/30 130/154/30 131/155/30 132/156/30 
f 133/157/31 134/158/31 135/159/31 136/160/31 
f 137/161/32 138/162/32 139/163/32 140/164/32 
# 50 polygons

#
# object tower_a_boltz
#

v  2.0000 -0.0000 0.6667
v  1.8794 0.6840 0.6667
v  1.6914 0.6156 0.7399
v  1.8000 -0.0000 0.7399
v  1.5321 1.2856 0.6667
v  1.3789 1.1570 0.7399
v  1.0000 1.7321 0.6667
v  0.9000 1.5588 0.7399
v  0.3473 1.9696 0.6667
v  0.3126 1.7727 0.7399
v  -0.3473 1.9696 0.6667
v  -0.3126 1.7727 0.7399
v  -1.0000 1.7321 0.6667
v  -0.9000 1.5588 0.7399
v  -1.5321 1.2856 0.6667
v  -1.3789 1.1570 0.7399
v  -1.8794 0.6840 0.6667
v  -1.6914 0.6156 0.7399
v  -2.0000 0.0000 0.6667
v  -1.8000 0.0000 0.7399
v  -1.8794 -0.6840 0.6667
v  -1.6914 -0.6156 0.7399
v  -1.5321 -1.2856 0.6667
v  -1.3789 -1.1570 0.7399
v  -1.0000 -1.7321 0.6667
v  -0.9000 -1.5588 0.7399
v  -0.3473 -1.9696 0.6667
v  -0.3126 -1.7727 0.7399
v  0.3473 -1.9696 0.6667
v  0.3126 -1.7727 0.7399
v  1.0000 -1.7321 0.6667
v  0.9000 -1.5588 0.7399
v  1.5321 -1.2856 0.6667
v  1.3789 -1.1570 0.7399
v  1.8794 -0.6840 0.6667
v  1.6914 -0.6156 0.7399
v  1.8794 0.6840 1.0619
v  2.0000 -0.0000 1.0619
v  1.8000 -0.0000 0.9887
v  1.6914 0.6156 0.9887
v  1.8794 -0.6840 1.0619
v  1.6914 -0.6156 0.9887
v  1.5321 -1.2856 1.0619
v  1.3789 -1.1570 0.9887
v  1.0000 -1.7321 1.0619
v  0.9000 -1.5588 0.9887
v  0.3473 -1.9696 1.0619
v  0.3126 -1.7727 0.9887
v  -0.3473 -1.9696 1.0619
v  -0.3126 -1.7727 0.9887
v  -1.0000 -1.7321 1.0619
v  -0.9000 -1.5588 0.9887
v  -1.5321 -1.2856 1.0619
v  -1.3789 -1.1570 0.9887
v  -1.8794 -0.6840 1.0619
v  -1.6914 -0.6156 0.9887
v  -2.0000 0.0000 1.0619
v  -1.8000 0.0000 0.9887
v  -1.8794 0.6840 1.0619
v  -1.6914 0.6156 0.9887
v  -1.5321 1.2856 1.0619
v  -1.3789 1.1570 0.9887
v  -1.0000 1.7321 1.0619
v  -0.9000 1.5588 0.9887
v  -0.3473 1.9696 1.0619
v  -0.3126 1.7727 0.9887
v  0.3473 1.9696 1.0619
v  0.3126 1.7727 0.9887
v  1.0000 1.7321 1.0619
v  0.9000 1.5588 0.9887
v  1.5321 1.2856 1.0619
v  1.3789 1.1570 0.9887
v  1.8794 0.6840 0.0000
v  2.0000 -0.0000 0.0000
v  1.7465 -0.0000 -0.1000
v  1.6412 0.5973 -0.1000
v  1.8794 -0.6840 0.0000
v  1.6412 -0.5974 -0.1000
v  1.5321 -1.2856 0.0000
v  1.3379 -1.1227 -0.1000
v  1.0000 -1.7321 0.0000
v  0.8733 -1.5125 -0.1000
v  0.3473 -1.9696 0.0000
v  0.3033 -1.7200 -0.1000
v  -0.3473 -1.9696 0.0000
v  -0.3033 -1.7200 -0.1000
v  -1.0000 -1.7321 0.0000
v  -0.8733 -1.5125 -0.1000
v  -1.5321 -1.2856 0.0000
v  -1.3379 -1.1226 -0.1000
v  -1.8794 -0.6840 0.0000
v  -1.6412 -0.5973 -0.1000
v  -2.0000 0.0000 0.0000
v  -1.7465 0.0000 -0.1000
v  -1.8794 0.6840 0.0000
v  -1.6412 0.5974 -0.1000
v  -1.5321 1.2856 0.0000
v  -1.3379 1.1227 -0.1000
v  -1.0000 1.7321 0.0000
v  -0.8733 1.5125 -0.1000
v  -0.3473 1.9696 0.0000
v  -0.3033 1.7200 -0.1000
v  0.3473 1.9696 0.0000
v  0.3033 1.7200 -0.1000
v  1.0000 1.7321 0.0000
v  0.8733 1.5125 -0.1000
v  1.5321 1.2856 0.0000
v  1.3379 1.1227 -0.1000
v  2.0000 -0.0000 1.7286
v  1.8794 0.6840 1.7286
v  1.6412 0.5973 1.8286
v  1.7465 -0.0000 1.8286
v  1.5321 1.2856 1.7286
v  1.3379 1.1227 1.8286
v  1.0000 1.7321 1.7286
v  0.8733 1.5125 1.8286
v  0.3473 1.9696 1.7286
v  0.3033 1.7200 1.8286
v  -0.3473 1.9696 1.7286
v  -0.3033 1.7200 1.8286
v  -1.0000 1.7321 1.7286
v  -0.8733 1.5125 1.8286
v  -1.5321 1.2856 1.7286
v  -1.3379 1.1227 1.8286
v  -1.8794 0.6840 1.7286
v  -1.6412 0.5974 1.8286
v  -2.0000 0.0000 1.7286
v  -1.7465 0.0000 1.8286
v  -1.8794 -0.6840 1.7286
v  -1.6412 -0.5973 1.8286
v  -1.5321 -1.2856 1.7286
v  -1.3379 -1.1226 1.8286
v  -1.0000 -1.7321 1.7286
v  -0.8733 -1.5125 1.8286
v  -0.3473 -1.9696 1.7286
v  -0.3033 -1.7200 1.8286
v  0.3473 -1.9696 1.7286
v  0.3033 -1.7200 1.8286
v  1.0000 -1.7321 1.7286
v  0.8733 -1.5125 1.8286
v  1.5321 -1.2856 1.7286
v  1.3379 -1.1227 1.8286
v  1.8794 -0.6840 1.7286
v  1.6412 -0.5974 1.8286
v  -1.1911 -0.5956 2.9076
v  -0.5956 -1.1911 2.9076
v  0.5956 -1.1911 2.9076
v  1.1911 -0.5956 2.9076
v  1.1911 0.5956 2.9076
v  0.5956 1.1911 2.9076
v  -0.5956 1.1911 2.9076
v  -1.1911 0.5956 2.9076
v  -0.6820 -1.3640 2.1076
v  0.6820 -1.3640 2.1076
v  0.6298 -1.2380 2.1637
v  -0.6298 -1.2380 2.1637
v  1.3640 -0.6820 2.1076
v  1.2380 -0.6298 2.1637
v  1.3640 0.6820 2.1076
v  1.2380 0.6298 2.1637
v  0.6820 1.3640 2.1076
v  0.6298 1.2380 2.1637
v  -0.6820 1.3640 2.1076
v  -0.6298 1.2380 2.1637
v  -1.3640 0.6820 2.1076
v  -1.2380 0.6298 2.1637
v  -1.3640 -0.6820 2.1076
v  -1.2380 -0.6298 2.1637
v  -0.6820 -1.3640 2.5076
v  -1.3640 -0.6820 2.5076
v  -1.2380 -0.6298 2.4515
v  -0.6298 -1.2380 2.4515
v  -1.3640 0.6820 2.5076
v  -1.2380 0.6298 2.4515
v  -0.6820 1.3640 2.5076
v  -0.6298 1.2380 2.4515
v  0.6820 1.3640 2.5076
v  0.6298 1.2380 2.4515
v  1.3640 0.6820 2.5076
v  1.2380 0.6298 2.4515
v  1.3640 -0.6820 2.5076
v  1.2380 -0.6298 2.4515
v  0.6820 -1.3640 2.5076
v  0.6298 -1.2380 2.4515
v  -0.6820 -1.3640 2.8076
v  0.6820 -1.3640 2.8076
v  0.7497 -1.4317 2.9832
v  1.4317 -0.7497 2.9832
v  1.2589 -0.6633 3.0832
v  0.6633 -1.2589 3.0832
v  1.3640 -0.6820 2.8076
v  1.3640 0.6820 2.8076
v  1.4317 0.7497 2.9832
v  0.7497 1.4317 2.9832
v  0.6633 1.2589 3.0832
v  1.2589 0.6633 3.0832
v  0.6820 1.3640 2.8076
v  -0.6820 1.3640 2.8076
v  -0.7497 1.4317 2.9832
v  -1.4317 0.7497 2.9832
v  -1.2589 0.6633 3.0832
v  -0.6633 1.2589 3.0832
v  -1.3640 0.6820 2.8076
v  -1.3640 -0.6820 2.8076
v  -1.4317 -0.7497 2.9832
v  -0.7497 -1.4317 2.9832
v  -0.6633 -1.2589 3.0832
v  -1.2589 -0.6633 3.0832
v  -0.2026 -0.2742 -4.7404
v  -0.2742 -0.2026 -4.7404
v  -0.2742 0.2026 -4.7404
v  -0.2026 0.2742 -4.7404
v  0.2026 0.2742 -4.7404
v  0.2742 0.2026 -4.7404
v  0.2742 -0.2026 -4.7404
v  0.2026 -0.2742 -4.7404
v  -0.3830 -0.2830 -4.6404
v  -0.3830 0.2830 -4.6404
v  -0.2830 0.3830 -4.6404
v  0.2830 0.3830 -4.6404
v  0.3830 0.2830 -4.6404
v  0.3830 -0.2830 -4.6404
v  0.2830 -0.3830 -4.6404
v  -0.2830 -0.3830 -4.6404
# 224 vertices

vn 0.3437 -0.0000 0.9391
vn 0.3230 0.1176 0.9391
vn 0.2633 0.2209 0.9391
vn 0.1719 0.2977 0.9391
vn 0.0597 0.3385 0.9391
vn -0.0597 0.3385 0.9391
vn -0.1719 0.2977 0.9391
vn -0.2633 0.2209 0.9391
vn -0.3230 0.1176 0.9391
vn -0.3437 -0.0000 0.9391
vn -0.3437 0.0000 0.9391
vn -0.3230 -0.1176 0.9391
vn -0.2633 -0.2209 0.9391
vn -0.1719 -0.2977 0.9391
vn -0.0597 -0.3385 0.9391
vn 0.0597 -0.3385 0.9391
vn 0.1719 -0.2977 0.9391
vn 0.2633 -0.2209 0.9391
vn 0.3230 -0.1176 0.9391
vn 0.3230 0.1176 -0.9391
vn 0.3437 -0.0000 -0.9391
vn 0.3230 -0.1176 -0.9391
vn 0.2633 -0.2209 -0.9391
vn 0.1719 -0.2977 -0.9391
vn 0.0597 -0.3385 -0.9391
vn -0.0597 -0.3385 -0.9391
vn -0.1719 -0.2977 -0.9391
vn -0.2633 -0.2209 -0.9391
vn -0.3230 -0.1176 -0.9391
vn -0.3437 -0.0000 -0.9391
vn -0.3437 0.0000 -0.9391
vn -0.3230 0.1176 -0.9391
vn -0.2633 0.2209 -0.9391
vn -0.1719 0.2977 -0.9391
vn -0.0597 0.3385 -0.9391
vn 0.0597 0.3385 -0.9391
vn 0.1719 0.2977 -0.9391
vn 0.2633 0.2209 -0.9391
vn 0.3449 0.1255 -0.9302
vn 0.3670 -0.0000 -0.9302
vn 0.3449 -0.1255 -0.9302
vn 0.2811 -0.2359 -0.9302
vn 0.1835 -0.3178 -0.9302
vn 0.0637 -0.3614 -0.9302
vn -0.0637 -0.3614 -0.9302
vn -0.1835 -0.3178 -0.9302
vn -0.2811 -0.2359 -0.9302
vn -0.3449 -0.1255 -0.9302
vn -0.3670 0.0000 -0.9302
vn -0.3449 0.1255 -0.9302
vn -0.2811 0.2359 -0.9302
vn -0.1835 0.3178 -0.9302
vn -0.0637 0.3614 -0.9302
vn 0.0637 0.3614 -0.9302
vn 0.1835 0.3178 -0.9302
vn 0.2811 0.2359 -0.9302
vn 0.3670 -0.0000 0.9302
vn 0.3449 0.1255 0.9302
vn 0.2811 0.2359 0.9302
vn 0.1835 0.3178 0.9302
vn 0.0637 0.3614 0.9302
vn -0.0637 0.3614 0.9302
vn -0.1835 0.3178 0.9302
vn -0.2811 0.2359 0.9302
vn -0.3449 0.1255 0.9302
vn -0.3670 0.0000 0.9302
vn -0.3449 -0.1255 0.9302
vn -0.2811 -0.2359 0.9302
vn -0.1835 -0.3178 0.9302
vn -0.0637 -0.3614 0.9302
vn 0.0637 -0.3614 0.9302
vn 0.1835 -0.3178 0.9302
vn 0.2811 -0.2359 0.9302
vn 0.3449 -0.1255 0.9302
vn -0.1444 0.4135 0.8990
vn 0.4135 -0.1444 0.8990
vn -0.4135 -0.1444 0.8990
vn 0.1444 0.4135 0.8990
vn 0.1444 -0.4135 0.8990
vn -0.4135 0.1444 0.8990
vn 0.4135 0.1444 0.8990
vn -0.1444 -0.4135 0.8990
vn -0.1456 -0.3514 0.9248
vn 0.1456 -0.3514 0.9248
vn 0.3514 -0.1456 0.9248
vn 0.3514 0.1456 0.9248
vn 0.1456 0.3514 0.9248
vn -0.1456 0.3514 0.9248
vn -0.3514 0.1456 0.9248
vn -0.3514 -0.1456 0.9248
vn -0.1456 -0.3514 -0.9248
vn -0.3514 -0.1456 -0.9248
vn -0.3514 0.1456 -0.9248
vn -0.1456 0.3514 -0.9248
vn 0.1456 0.3514 -0.9248
vn 0.3514 0.1456 -0.9248
vn 0.3514 -0.1456 -0.9248
vn 0.1456 -0.3514 -0.9248
vn 0.1507 -0.9697 0.1921
vn -0.1507 -0.9697 0.1921
vn 0.0311 -0.9657 0.2578
vn 0.9657 -0.0311 0.2578
vn 0.1424 0.5399 0.8296
vn -0.5399 -0.1424 0.8296
vn 0.9697 0.1507 0.1921
vn 0.9697 -0.1507 0.1921
vn 0.9657 0.0311 0.2578
vn 0.0311 0.9657 0.2578
vn -0.5399 0.1424 0.8296
vn 0.1424 -0.5399 0.8296
vn -0.1507 0.9697 0.1921
vn 0.1507 0.9697 0.1921
vn -0.0311 0.9657 0.2578
vn -0.9657 0.0311 0.2578
vn -0.1424 -0.5399 0.8296
vn 0.5399 0.1424 0.8296
vn -0.9697 -0.1507 0.1921
vn -0.9697 0.1507 0.1921
vn -0.9657 -0.0311 0.2578
vn -0.0311 -0.9657 0.2578
vn 0.5399 -0.1424 0.8296
vn -0.1424 0.5399 0.8296
vn -0.1258 -0.3719 -0.9197
vn -0.3719 -0.1258 -0.9197
vn -0.3719 0.1258 -0.9197
vn -0.1258 0.3719 -0.9197
vn 0.1258 0.3719 -0.9197
vn 0.3719 0.1258 -0.9197
vn 0.3719 -0.1258 -0.9197
vn 0.1258 -0.3719 -0.9197
vn -0.5480 -0.2512 -0.7979
vn -0.5480 0.2512 -0.7979
vn -0.2512 0.5480 -0.7979
vn 0.2512 0.5480 -0.7979
vn 0.5480 0.2512 -0.7979
vn 0.5480 -0.2512 -0.7979
vn 0.2512 -0.5480 -0.7979
vn -0.2512 -0.5480 -0.7979
# 138 vertex normals

vt 0.4044 0.6362 -0.0045
vt 0.3948 0.6913 -0.0045
vt 0.3799 0.6858 0.0045
vt 0.3885 0.6362 0.0045
vt 0.4641 0.6318 -0.0045
vt 0.4365 0.6804 -0.0045
vt 0.4243 0.6700 0.0045
vt 0.4491 0.6263 0.0045
vt 0.4057 0.7698 -0.0045
vt 0.3633 0.8059 -0.0045
vt 0.3553 0.7919 0.0045
vt 0.3935 0.7594 0.0045
vt 0.6419 0.2265 -0.0045
vt 0.5897 0.2457 -0.0045
vt 0.5869 0.2297 0.0045
vt 0.6339 0.2124 0.0045
vt 0.3715 0.6522 -0.0045
vt 0.3159 0.6522 -0.0045
vt 0.3187 0.6362 0.0045
vt 0.3687 0.6362 0.0045
vt 0.9643 0.9849 -0.0045
vt 0.9121 0.9656 -0.0045
vt 0.9201 0.9515 0.0045
vt 0.9671 0.9689 0.0045
vt 0.7427 0.2146 -0.0045
vt 0.7002 0.1785 -0.0045
vt 0.7124 0.1680 0.0045
vt 0.7506 0.2006 0.0045
vt 0.9644 0.9416 -0.0045
vt 0.9368 0.8930 -0.0045
vt 0.9517 0.8875 0.0045
vt 0.9766 0.9312 0.0045
vt 0.3944 0.7554 -0.0045
vt 0.3849 0.7002 -0.0045
vt 0.4007 0.7002 0.0045
vt 0.4094 0.7499 0.0045
vt 0.3159 0.7504 -0.0045
vt 0.3254 0.6953 -0.0045
vt 0.3404 0.7008 0.0045
vt 0.3317 0.7504 0.0045
vt 0.6510 0.2314 -0.0045
vt 0.6786 0.1828 -0.0045
vt 0.6908 0.1932 0.0045
vt 0.6659 0.2369 0.0045
vt 0.6854 0.2732 -0.0045
vt 0.7279 0.2370 -0.0045
vt 0.7359 0.2511 0.0045
vt 0.6977 0.2836 0.0045
vt 0.5918 0.2514 -0.0045
vt 0.6440 0.2321 -0.0045
vt 0.6468 0.2481 0.0045
vt 0.5998 0.2654 0.0045
vt 0.3159 0.6756 -0.0045
vt 0.3715 0.6756 -0.0045
vt 0.3687 0.6916 0.0045
vt 0.3187 0.6916 0.0045
vt 0.9445 0.5770 -0.0045
vt 0.9966 0.5963 -0.0045
vt 0.9887 0.6104 0.0045
vt 0.9417 0.5930 0.0045
vt 0.9398 0.7692 -0.0045
vt 0.9822 0.8054 -0.0045
vt 0.9700 0.8158 0.0045
vt 0.9318 0.7832 0.0045
vt 0.9539 0.8481 -0.0045
vt 0.9815 0.8966 -0.0045
vt 0.9665 0.9022 0.0045
vt 0.9417 0.8584 0.0045
vt 0.3554 0.7002 -0.0045
vt 0.3650 0.7554 -0.0045
vt 0.3491 0.7554 0.0045
vt 0.3405 0.7057 0.0045
vt 0.0840 0.7110 0.0045
vt 0.0744 0.6559 0.0045
vt 0.0903 0.6559 -0.0045
vt 0.0989 0.7055 -0.0045
vt 0.3307 0.8096 0.0045
vt 0.3402 0.7544 0.0045
vt 0.3551 0.7599 -0.0045
vt 0.3465 0.8096 -0.0045
vt 0.6066 0.3497 0.0045
vt 0.6342 0.3011 0.0045
vt 0.6464 0.3115 -0.0045
vt 0.6215 0.3552 -0.0045
vt 0.6657 0.2633 0.0045
vt 0.7082 0.2272 0.0045
vt 0.7161 0.2412 -0.0045
vt 0.6780 0.2737 -0.0045
vt 0.5918 0.2810 0.0045
vt 0.6440 0.2617 0.0045
vt 0.6468 0.2777 -0.0045
vt 0.5998 0.2950 -0.0045
vt 0.3159 0.6559 0.0045
vt 0.3715 0.6559 0.0045
vt 0.3687 0.6719 -0.0045
vt 0.3187 0.6719 -0.0045
vt 0.9445 0.5573 0.0045
vt 0.9966 0.5766 0.0045
vt 0.9887 0.5907 -0.0045
vt 0.9417 0.5733 -0.0045
vt 0.8265 0.5327 0.0045
vt 0.8689 0.5688 0.0045
vt 0.8567 0.5793 -0.0045
vt 0.8185 0.5467 -0.0045
vt 0.9539 0.8086 0.0045
vt 0.9815 0.8572 0.0045
vt 0.9665 0.8627 -0.0045
vt 0.9417 0.8190 -0.0045
vt 0.5821 0.2321 0.0045
vt 0.5917 0.2872 0.0045
vt 0.5758 0.2872 -0.0045
vt 0.5672 0.2376 -0.0045
vt 0.4241 0.6460 0.0045
vt 0.4146 0.7012 0.0045
vt 0.3996 0.6956 -0.0045
vt 0.4083 0.6460 -0.0045
vt 0.6316 0.2968 0.0045
vt 0.6040 0.3453 0.0045
vt 0.5918 0.3350 -0.0045
vt 0.6167 0.2912 -0.0045
vt 0.7260 0.2031 0.0045
vt 0.6836 0.2392 0.0045
vt 0.6756 0.2252 -0.0045
vt 0.7138 0.1927 -0.0045
vt 0.6714 0.1920 0.0045
vt 0.6192 0.2112 0.0045
vt 0.6165 0.1953 -0.0045
vt 0.6634 0.1779 -0.0045
vt 0.6031 0.2087 0.0045
vt 0.5475 0.2087 0.0045
vt 0.5503 0.1927 -0.0045
vt 0.6003 0.1927 -0.0045
vt 0.9791 0.9701 0.0045
vt 0.9269 0.9508 0.0045
vt 0.9349 0.9368 -0.0045
vt 0.9819 0.9541 -0.0045
vt 0.8856 0.5743 0.0045
vt 0.8431 0.5382 0.0045
vt 0.8553 0.5278 -0.0045
vt 0.8935 0.5603 -0.0045
vt 0.2745 0.7937 0.0045
vt 0.2469 0.7452 0.0045
vt 0.2618 0.7397 -0.0045
vt 0.2867 0.7834 -0.0045
vt 0.0101 0.3484 0.0062
vt 0.0005 0.2930 0.0062
vt 0.0207 0.2930 -0.0062
vt 0.0291 0.3414 -0.0062
vt 0.0101 0.2376 0.0062
vt 0.0291 0.2447 -0.0062
vt 0.0378 0.1889 0.0062
vt 0.0533 0.2021 -0.0062
vt 0.0802 0.1528 0.0062
vt 0.0904 0.1706 -0.0062
vt 0.1323 0.1335 0.0062
vt 0.1358 0.1538 -0.0062
vt 0.1877 0.1335 0.0062
vt 0.1842 0.1538 -0.0062
vt 0.2397 0.1528 0.0062
vt 0.2296 0.1706 -0.0062
vt 0.2822 0.1889 0.0062
vt 0.2667 0.2021 -0.0062
vt 0.3099 0.2376 0.0062
vt 0.2909 0.2447 -0.0062
vt 0.3195 0.2930 0.0062
vt 0.2993 0.2930 -0.0062
vt 0.3099 0.3484 0.0062
vt 0.2909 0.3414 -0.0062
vt 0.2822 0.3971 0.0062
vt 0.2667 0.3839 -0.0062
vt 0.2397 0.4333 0.0062
vt 0.2296 0.4155 -0.0062
vt 0.1877 0.4525 0.0062
vt 0.1842 0.4323 -0.0062
vt 0.1323 0.4525 0.0062
vt 0.1358 0.4323 -0.0062
vt 0.0802 0.4333 0.0062
vt 0.0904 0.4155 -0.0062
vt 0.0378 0.3971 0.0062
vt 0.0533 0.3839 -0.0062
vt 0.9404 0.8400 -0.0062
vt 0.9307 0.8954 -0.0062
vt 0.9118 0.8884 0.0062
vt 0.9202 0.8400 0.0062
vt 0.9031 0.9441 -0.0062
vt 0.8876 0.9309 0.0062
vt 0.8606 0.9803 -0.0062
vt 0.8505 0.9625 0.0062
vt 0.8086 0.9995 -0.0062
vt 0.8051 0.9793 0.0062
vt 0.7532 0.9995 -0.0062
vt 0.7567 0.9793 0.0062
vt 0.7011 0.9803 -0.0062
vt 0.7112 0.9625 0.0062
vt 0.6587 0.9441 -0.0062
vt 0.6742 0.9309 0.0062
vt 0.6310 0.8954 -0.0062
vt 0.6500 0.8884 0.0062
vt 0.6214 0.8400 -0.0062
vt 0.6416 0.8400 0.0062
vt 0.6310 0.7846 -0.0062
vt 0.6500 0.7916 0.0062
vt 0.6587 0.7359 -0.0062
vt 0.6742 0.7491 0.0062
vt 0.7011 0.6998 -0.0062
vt 0.7112 0.7175 0.0062
vt 0.7532 0.6805 -0.0062
vt 0.7567 0.7007 0.0062
vt 0.8086 0.6805 -0.0062
vt 0.8051 0.7007 0.0062
vt 0.8606 0.6998 -0.0062
vt 0.8505 0.7175 0.0062
vt 0.9031 0.7359 -0.0062
vt 0.8876 0.7491 0.0062
vt 0.9307 0.7846 -0.0062
vt 0.9118 0.7916 0.0062
vt 0.0684 0.5109 0.0062
vt 0.1157 0.4629 0.0062
vt 0.2103 0.4629 0.0062
vt 0.2576 0.5109 0.0062
vt 0.2576 0.6069 0.0062
vt 0.2103 0.6550 0.0062
vt 0.1157 0.6550 0.0062
vt 0.0684 0.6069 0.0062
vt 0.8875 0.5425 -0.0035
vt 0.9961 0.5425 -0.0035
vt 0.9919 0.5527 0.0035
vt 0.8916 0.5527 0.0035
vt 0.2362 0.6904 -0.0035
vt 0.2904 0.7453 -0.0035
vt 0.2804 0.7495 0.0035
vt 0.2321 0.7005 0.0035
vt 0.0400 0.6263 -0.0034
vt 0.0400 0.7352 -0.0034
vt 0.0301 0.7310 0.0034
vt 0.0301 0.6305 0.0034
vt 0.3101 0.6207 -0.0035
vt 0.2560 0.6756 -0.0035
vt 0.2518 0.6655 0.0035
vt 0.3001 0.6165 0.0035
vt 0.9961 0.5232 -0.0035
vt 0.8875 0.5232 -0.0035
vt 0.8916 0.5130 0.0035
vt 0.9919 0.5130 0.0035
vt 0.2862 0.7347 -0.0035
vt 0.2321 0.6798 -0.0035
vt 0.2421 0.6756 0.0035
vt 0.2904 0.7246 0.0035
vt 0.0301 0.6268 -0.0034
vt 0.0301 0.5179 -0.0034
vt 0.0400 0.5221 0.0034
vt 0.0400 0.6226 0.0034
vt 0.2222 0.6714 -0.0035
vt 0.2764 0.6165 -0.0035
vt 0.2805 0.6266 0.0035
vt 0.2322 0.6756 0.0035
vt 0.8719 0.6854 0.0035
vt 0.9260 0.7404 0.0035
vt 0.9160 0.7446 -0.0035
vt 0.8678 0.6956 -0.0035
vt 0.0400 0.4095 0.0034
vt 0.0400 0.5184 0.0034
vt 0.0301 0.5142 -0.0034
vt 0.0301 0.4137 -0.0034
vt 0.3199 0.6305 0.0035
vt 0.2658 0.6855 0.0035
vt 0.2617 0.6753 -0.0035
vt 0.3099 0.6263 -0.0035
vt 0.9961 0.5379 0.0035
vt 0.8875 0.5379 0.0035
vt 0.8916 0.5278 -0.0035
vt 0.9919 0.5278 -0.0035
vt 0.9317 0.7397 0.0035
vt 0.8776 0.6847 0.0035
vt 0.8876 0.6805 -0.0035
vt 0.9359 0.7295 -0.0035
vt 0.0301 0.8436 0.0034
vt 0.0301 0.7347 0.0034
vt 0.0400 0.7389 -0.0034
vt 0.0400 0.8394 -0.0034
vt 0.8875 0.9671 0.0035
vt 0.9416 0.9121 0.0035
vt 0.9457 0.9223 -0.0035
vt 0.8975 0.9713 -0.0035
vt 0.7643 0.5130 0.0035
vt 0.8729 0.5130 0.0035
vt 0.8687 0.5232 -0.0035
vt 0.7684 0.5232 -0.0035
vt 0.3828 0.3561 -0.0993
vt 0.5167 0.3561 -0.0993
vt 0.5082 0.3613 -0.0490
vt 0.3913 0.3613 -0.0490
vt 0.2172 0.4489 -0.0062
vt 0.2713 0.5039 -0.0062
vt 0.5327 0.1766 0.0214
vt 0.6503 0.1766 0.0214
vt 0.6428 0.1811 -0.0214
vt 0.5401 0.1811 -0.0214
vt 0.2713 0.6139 -0.0062
vt 0.2172 0.6689 -0.0062
vt 0.7967 0.5040 0.0993
vt 0.9306 0.5040 0.0993
vt 0.9222 0.5092 0.0490
vt 0.8052 0.5092 0.0490
vt 0.1089 0.6689 -0.0062
vt 0.0547 0.6139 -0.0062
vt 0.6510 0.1520 -0.0214
vt 0.7685 0.1520 -0.0214
vt 0.7611 0.1565 0.0214
vt 0.6584 0.1565 0.0214
vt 0.0547 0.5039 -0.0062
vt 0.1089 0.4489 -0.0062
vt 0.3681 0.8136 0.0000
vt 0.3737 0.8193 0.0000
vt 0.3737 0.8516 0.0000
vt 0.3681 0.8573 0.0000
vt 0.3363 0.8573 0.0000
vt 0.3307 0.8516 0.0000
vt 0.3307 0.8193 0.0000
vt 0.3363 0.8136 0.0000
vt 0.4858 0.0510 0.1294
vt 0.4187 0.0510 0.1294
vt 0.4282 0.0448 0.1665
vt 0.4763 0.0448 0.1665
vt 0.5502 0.6776 -0.1729
vt 0.5371 0.6776 -0.1339
vt 0.5265 0.6707 -0.1763
vt 0.5359 0.6707 -0.2042
vt 0.4627 0.6776 -0.1339
vt 0.4732 0.6707 -0.1763
vt 0.4495 0.6776 -0.1729
vt 0.4638 0.6707 -0.2042
vt 0.8948 0.0116 -0.1294
vt 0.8277 0.0116 -0.1294
vt 0.8372 0.0054 -0.1665
vt 0.8853 0.0054 -0.1665
vt 0.2201 0.6776 0.1729
vt 0.2069 0.6776 0.1339
vt 0.1963 0.6707 0.1763
vt 0.2058 0.6707 0.2042
vt 0.1325 0.6776 0.1339
vt 0.1431 0.6707 0.1763
vt 0.1194 0.6776 0.1729
vt 0.1337 0.6707 0.2042
# 344 texture coords

o tower_a_boltz
g tower_a_boltz
usemtl boltz
s 1
f 141/165/33 142/166/34 143/167/34 144/168/33 
f 142/169/34 145/170/35 146/171/35 143/172/34 
f 145/173/35 147/174/36 148/175/36 146/176/35 
f 147/177/36 149/178/37 150/179/37 148/180/36 
f 149/181/37 151/182/38 152/183/38 150/184/37 
f 151/185/38 153/186/39 154/187/39 152/188/38 
f 153/189/39 155/190/40 156/191/40 154/192/39 
f 155/193/40 157/194/41 158/195/41 156/196/40 
f 157/197/41 159/198/42 160/199/43 158/200/41 
f 159/201/42 161/202/44 162/203/44 160/204/43 
f 161/205/44 163/206/45 164/207/45 162/208/44 
f 163/209/45 165/210/46 166/211/46 164/212/45 
f 165/213/46 167/214/47 168/215/47 166/216/46 
f 167/217/47 169/218/48 170/219/48 168/220/47 
f 169/221/48 171/222/49 172/223/49 170/224/48 
f 171/225/49 173/226/50 174/227/50 172/228/49 
f 173/229/50 175/230/51 176/231/51 174/232/50 
f 175/233/51 141/234/33 144/235/33 176/236/51 
f 177/237/52 178/238/53 179/239/53 180/240/52 
f 178/241/53 181/242/54 182/243/54 179/244/53 
f 181/245/54 183/246/55 184/247/55 182/248/54 
f 183/249/55 185/250/56 186/251/56 184/252/55 
f 185/253/56 187/254/57 188/255/57 186/256/56 
f 187/257/57 189/258/58 190/259/58 188/260/57 
f 189/261/58 191/262/59 192/263/59 190/264/58 
f 191/265/59 193/266/60 194/267/60 192/268/59 
f 193/269/60 195/270/61 196/271/61 194/272/60 
f 195/273/61 197/274/62 198/275/63 196/276/61 
f 197/277/62 199/278/64 200/279/64 198/280/63 
f 199/281/64 201/282/65 202/283/65 200/284/64 
f 201/285/65 203/286/66 204/287/66 202/288/65 
f 203/289/66 205/290/67 206/291/67 204/292/66 
f 205/293/67 207/294/68 208/295/68 206/296/67 
f 207/297/68 209/298/69 210/299/69 208/300/68 
f 209/301/69 211/302/70 212/303/70 210/304/69 
f 211/305/70 177/306/52 180/307/52 212/308/70 
f 213/309/71 214/310/72 215/311/72 216/312/71 
f 214/310/72 217/313/73 218/314/73 215/311/72 
f 217/313/73 219/315/74 220/316/74 218/314/73 
f 219/315/74 221/317/75 222/318/75 220/316/74 
f 221/317/75 223/319/76 224/320/76 222/318/75 
f 223/319/76 225/321/77 226/322/77 224/320/76 
f 225/321/77 227/323/78 228/324/78 226/322/77 
f 227/323/78 229/325/79 230/326/79 228/324/78 
f 229/325/79 231/327/80 232/328/80 230/326/79 
f 231/327/80 233/329/81 234/330/81 232/328/80 
f 233/329/81 235/331/82 236/332/82 234/330/81 
f 235/331/82 237/333/83 238/334/83 236/332/82 
f 237/333/83 239/335/84 240/336/84 238/334/83 
f 239/335/84 241/337/85 242/338/85 240/336/84 
f 241/337/85 243/339/86 244/340/86 242/338/85 
f 243/339/86 245/341/87 246/342/87 244/340/86 
f 245/341/87 247/343/88 248/344/88 246/342/87 
f 247/343/88 213/309/71 216/312/71 248/344/88 
f 249/345/89 250/346/90 251/347/90 252/348/89 
f 250/346/90 253/349/91 254/350/91 251/347/90 
f 253/349/91 255/351/92 256/352/92 254/350/91 
f 255/351/92 257/353/93 258/354/93 256/352/92 
f 257/353/93 259/355/94 260/356/94 258/354/93 
f 259/355/94 261/357/95 262/358/95 260/356/94 
f 261/357/95 263/359/96 264/360/96 262/358/95 
f 263/359/96 265/361/97 266/362/97 264/360/96 
f 265/361/97 267/363/98 268/364/98 266/362/97 
f 267/363/98 269/365/99 270/366/99 268/364/98 
f 269/365/99 271/367/100 272/368/100 270/366/99 
f 271/367/100 273/369/101 274/370/101 272/368/100 
f 273/369/101 275/371/102 276/372/102 274/370/101 
f 275/371/102 277/373/103 278/374/103 276/372/102 
f 277/373/103 279/375/104 280/376/104 278/374/103 
f 279/375/104 281/377/105 282/378/105 280/376/104 
f 281/377/105 283/379/106 284/380/106 282/378/105 
f 283/379/106 249/345/89 252/348/89 284/380/106 
f 285/381/107 286/382/108 287/383/109 288/384/110 289/385/111 290/386/112 291/387/113 292/388/114 
f 293/389/115 294/390/116 295/391/116 296/392/115 
f 294/393/116 297/394/117 298/395/117 295/396/116 
f 297/397/117 299/398/118 300/399/118 298/400/117 
f 299/401/118 301/402/119 302/403/119 300/404/118 
f 301/405/119 303/406/120 304/407/120 302/408/119 
f 303/409/120 305/410/121 306/411/121 304/412/120 
f 305/413/121 307/414/122 308/415/122 306/416/121 
f 307/417/122 293/418/115 296/419/115 308/420/122 
f 309/421/123 310/422/124 311/423/124 312/424/123 
f 310/425/124 313/426/125 314/427/125 311/428/124 
f 313/429/125 315/430/126 316/431/126 314/432/125 
f 315/433/126 317/434/127 318/435/127 316/436/126 
f 317/437/127 319/438/128 320/439/128 318/440/127 
f 319/441/128 321/442/129 322/443/129 320/444/128 
f 321/445/129 323/446/130 324/447/130 322/448/129 
f 323/449/130 309/450/123 312/451/123 324/452/130 
f 325/453/131 326/454/132 287/455/109 286/456/108 
f 327/457/133 328/458/134 329/384/135 330/383/136 
f 331/459/137 332/460/138 289/461/111 288/462/110 
f 333/463/139 334/464/140 335/386/141 336/385/142 
f 337/465/143 338/466/144 291/467/113 290/468/112 
f 339/469/145 340/470/146 341/388/147 342/387/148 
f 343/471/149 344/472/150 285/473/107 292/474/114 
f 345/475/151 346/476/152 347/382/153 348/381/154 
f 349/477/155 350/478/156 351/479/157 352/480/158 353/481/159 354/482/160 355/483/161 356/484/162 
f 357/485/163 358/486/164 351/487/157 350/488/156 
f 358/489/164 359/490/165 352/491/158 351/492/157 
f 359/490/165 360/493/166 353/494/159 352/491/158 
f 360/493/166 361/495/167 354/496/160 353/494/159 
f 361/497/167 362/498/168 355/499/161 354/500/160 
f 362/501/168 363/502/169 356/503/162 355/504/161 
f 363/502/169 364/505/170 349/506/155 356/503/162 
f 364/505/170 357/507/163 350/508/156 349/506/155 
s off
f 288/384/110 287/383/109 330/383/136 329/384/135 
f 287/383/109 326/457/132 327/457/133 330/383/136 
f 326/457/132 331/458/137 328/458/134 327/457/133 
f 331/458/137 288/384/110 329/384/135 328/458/134 
f 290/386/112 289/385/111 336/385/142 335/386/141 
f 289/385/111 332/463/138 333/463/139 336/385/142 
f 332/463/138 337/464/143 334/464/140 333/463/139 
f 337/464/143 290/386/112 335/386/141 334/464/140 
f 292/388/114 291/387/113 342/387/148 341/388/147 
f 291/387/113 338/469/144 339/469/145 342/387/148 
f 338/469/144 343/470/149 340/470/146 339/469/145 
f 343/470/149 292/388/114 341/388/147 340/470/146 
f 286/382/108 285/381/107 348/381/154 347/382/153 
f 285/381/107 344/475/150 345/475/151 348/381/154 
f 344/475/150 325/476/131 346/476/152 345/475/151 
f 325/476/131 286/382/108 347/382/153 346/476/152 
# 122 polygons

#
# object tower_a_color
#

v  -0.6820 -1.3640 1.8076
v  0.6820 -1.3640 1.8076
v  0.6820 -1.3640 2.1076
v  -0.6820 -1.3640 2.1076
v  1.3640 -0.6820 1.8076
v  1.3640 0.6820 1.8076
v  1.3640 0.6820 2.1076
v  1.3640 -0.6820 2.1076
v  0.6820 1.3640 1.8076
v  -0.6820 1.3640 1.8076
v  -0.6820 1.3640 2.1076
v  0.6820 1.3640 2.1076
v  -1.3640 0.6820 1.8076
v  -1.3640 -0.6820 1.8076
v  -1.3640 -0.6820 2.1076
v  -1.3640 0.6820 2.1076
v  -0.6820 -1.3640 2.8076
v  -1.3640 -0.6820 2.8076
v  -1.3640 -0.6820 2.5076
v  -0.6820 -1.3640 2.5076
v  0.6820 -1.3640 2.5076
v  0.6820 -1.3640 2.8076
v  1.3640 0.6820 2.5076
v  1.3640 0.6820 2.8076
v  1.3640 -0.6820 2.8076
v  1.3640 -0.6820 2.5076
v  -0.6820 1.3640 2.5076
v  -0.6820 1.3640 2.8076
v  0.6820 1.3640 2.8076
v  0.6820 1.3640 2.5076
v  -1.3640 0.6820 2.8076
v  -1.3640 0.6820 2.5076
# 32 vertices

vn -0.3826 -0.9239 0.0000
vn 0.3826 -0.9239 0.0000
vn 0.9239 -0.3826 0.0000
vn 0.9239 0.3826 0.0000
vn 0.3826 0.9239 0.0000
vn -0.3826 0.9239 0.0000
vn -0.9239 0.3826 0.0000
vn -0.9239 -0.3826 0.0000
# 8 vertex normals

vt 0.5688 0.0498 -0.1047
vt 0.7099 0.0498 -0.1047
vt 0.7099 0.0662 -0.1047
vt 0.5688 0.0662 -0.1047
vt 0.6953 0.0005 0.0000
vt 0.8134 0.0005 0.0000
vt 0.8134 0.0141 0.0000
vt 0.6953 0.0141 0.0000
vt 0.5786 0.0793 0.1047
vt 0.7198 0.0793 0.1047
vt 0.7198 0.0958 0.1047
vt 0.5786 0.0958 0.1047
vt 0.5278 0.1385 0.0000
vt 0.6458 0.1385 -0.0000
vt 0.6458 0.1520 -0.0000
vt 0.5278 0.1520 0.0000
vt 0.7805 0.0498 0.1047
vt 0.7805 0.0662 0.1047
vt 0.3828 0.3561 -0.0993
vt 0.3159 0.3561 0.0993
vt 0.3159 0.3405 0.0993
vt 0.3828 0.3405 -0.0993
vt 0.5080 0.0793 -0.1047
vt 0.5080 0.0958 -0.1047
vt 0.7904 0.0793 -0.1047
vt 0.7904 0.0958 -0.1047
vt 0.5167 0.3405 -0.0993
vt 0.5167 0.3561 -0.0993
vt 0.6503 0.1631 0.0214
vt 0.6503 0.1766 0.0214
vt 0.5327 0.1766 0.0214
vt 0.5327 0.1631 0.0214
vt 0.9306 0.4883 0.0993
vt 0.9306 0.5040 0.0993
vt 0.7967 0.5040 0.0993
vt 0.7967 0.4883 0.0993
vt 0.7685 0.1385 -0.0214
vt 0.7685 0.1520 -0.0214
vt 0.6510 0.1520 -0.0214
vt 0.6510 0.1385 -0.0214
vt 0.5837 0.3405 0.0993
vt 0.5837 0.3561 0.0993
vt 0.4982 0.0662 0.1047
vt 0.4982 0.0498 0.1047
vt 0.7298 0.5040 -0.0993
vt 0.7298 0.4883 -0.0993
vt 0.9976 0.4883 -0.0993
vt 0.9976 0.5040 -0.0993
# 48 texture coords

o tower_a_color
g tower_a_color
usemtl color
s 1
f 365/509/171 366/510/172 367/511/172 368/512/171 
f 369/513/173 370/514/174 371/515/174 372/516/173 
f 373/517/175 374/518/176 375/519/176 376/520/175 
f 377/521/177 378/522/178 379/523/178 380/524/177 
f 366/510/172 369/525/173 372/526/173 367/511/172 
f 381/527/171 382/528/178 383/529/178 384/530/171 
f 370/531/174 373/517/175 376/520/175 371/532/174 
f 374/518/176 377/533/177 380/534/177 375/519/176 
f 385/535/172 386/536/172 381/527/171 384/530/171 
f 387/537/174 388/538/174 389/539/173 390/540/173 
f 391/541/176 392/542/176 393/543/175 394/544/175 
f 383/545/178 382/546/178 395/547/177 396/548/177 
f 390/549/173 389/550/173 386/536/172 385/535/172 
f 379/551/178 378/552/178 365/509/171 368/512/171 
f 394/544/175 393/543/175 388/553/174 387/554/174 
f 396/555/177 395/556/177 392/542/176 391/541/176 
# 16 polygons

#
# object tower_a_emissive
#

v  1.8000 0.0000 0.7399
v  1.6914 0.6156 0.7399
v  1.6914 0.6156 0.9887
v  1.8000 0.0000 0.9887
v  1.3789 1.1570 0.7399
v  1.3789 1.1570 0.9887
v  0.9000 1.5588 0.7399
v  0.9000 1.5588 0.9887
v  0.3126 1.7727 0.7399
v  0.3126 1.7727 0.9887
v  -0.3126 1.7727 0.7399
v  -0.3126 1.7727 0.9887
v  -0.9000 1.5588 0.7399
v  -0.9000 1.5588 0.9887
v  -1.3789 1.1570 0.7399
v  -1.3789 1.1570 0.9887
v  -1.6914 0.6156 0.7399
v  -1.6914 0.6156 0.9887
v  -1.8000 0.0000 0.7399
v  -1.8000 0.0000 0.9887
v  -1.6914 -0.6156 0.7399
v  -1.6914 -0.6156 0.9887
v  -1.3789 -1.1570 0.7399
v  -1.3789 -1.1570 0.9887
v  -0.9000 -1.5588 0.7399
v  -0.9000 -1.5588 0.9887
v  -0.3126 -1.7727 0.7399
v  -0.3126 -1.7727 0.9887
v  0.3126 -1.7727 0.7399
v  0.3126 -1.7727 0.9887
v  0.9000 -1.5588 0.7399
v  0.9000 -1.5588 0.9887
v  1.3789 -1.1570 0.7399
v  1.3789 -1.1570 0.9887
v  1.6914 -0.6156 0.7399
v  1.6914 -0.6156 0.9887
v  0.2830 -0.3830 -4.6404
v  0.3830 -0.2830 -4.6404
v  1.2500 -1.1500 -0.0320
v  1.1500 -1.2500 -0.0320
v  -1.1500 -1.2500 -0.0320
v  -1.2500 -1.1500 -0.0320
v  -0.3830 -0.2830 -4.6404
v  -0.2830 -0.3830 -4.6404
v  0.3830 0.2830 -4.6404
v  0.2830 0.3830 -4.6404
v  1.1500 1.2500 -0.0320
v  1.2500 1.1500 -0.0320
v  -0.2830 0.3830 -4.6404
v  -0.3830 0.2830 -4.6404
v  -1.2500 1.1500 -0.0320
v  -1.1500 1.2500 -0.0320
# 52 vertices

vn 1.0000 -0.0000 0.0000
vn 0.9397 0.3420 0.0000
vn 0.7660 0.6428 0.0000
vn 0.5000 0.8660 0.0000
vn 0.1736 0.9848 0.0000
vn -0.1736 0.9848 0.0000
vn -0.5000 0.8660 0.0000
vn -0.7660 0.6428 0.0000
vn -0.9397 0.3420 0.0000
vn -1.0000 0.0000 0.0000
vn -0.9397 -0.3420 0.0000
vn -0.7660 -0.6428 0.0000
vn -0.5000 -0.8660 0.0000
vn -0.1736 -0.9848 0.0000
vn 0.1736 -0.9848 0.0000
vn 0.5000 -0.8660 0.0000
vn 0.7660 -0.6428 0.0000
vn 0.9397 -0.3420 0.0000
vn 0.6833 -0.6833 -0.2571
vn -0.6833 -0.6833 -0.2571
vn 0.6833 0.6833 -0.2571
vn -0.6833 0.6833 -0.2571
# 22 vertex normals

vt 0.4041 0.3849 0.0591
vt 0.4642 0.3849 0.0286
vt 0.4642 0.3975 0.0286
vt 0.4041 0.3975 0.0591
vt 0.5171 0.3849 -0.0591
vt 0.5171 0.3975 -0.0591
vt 0.7199 0.4588 -0.0924
vt 0.7684 0.4588 0.0282
vt 0.7684 0.4721 0.0282
vt 0.7199 0.4721 -0.0924
vt 0.8278 0.4588 0.0924
vt 0.8278 0.4721 0.0924
vt 0.8910 0.4588 0.0924
vt 0.8910 0.4721 0.0924
vt 0.9504 0.4588 0.0282
vt 0.9504 0.4721 0.0282
vt 0.9989 0.4588 -0.0924
vt 0.9989 0.4721 -0.0924
vt 0.2814 0.3996 0.0591
vt 0.3342 0.3996 -0.0286
vt 0.3342 0.4123 -0.0286
vt 0.2814 0.4123 0.0591
vt 0.3943 0.3996 -0.0591
vt 0.3943 0.4123 -0.0591
vt 0.4544 0.3996 -0.0286
vt 0.4544 0.4123 -0.0286
vt 0.5072 0.3996 0.0591
vt 0.5072 0.4123 0.0591
vt 0.7199 0.4736 0.0924
vt 0.7684 0.4736 -0.0282
vt 0.7684 0.4869 -0.0282
vt 0.7199 0.4869 0.0924
vt 0.8278 0.4736 -0.0924
vt 0.8278 0.4869 -0.0924
vt 0.8910 0.4736 -0.0924
vt 0.8910 0.4869 -0.0924
vt 0.9504 0.4736 -0.0282
vt 0.9504 0.4869 -0.0282
vt 0.9989 0.4736 0.0924
vt 0.9989 0.4869 0.0924
vt 0.2912 0.3849 -0.0591
vt 0.3441 0.3849 0.0286
vt 0.3441 0.3975 0.0286
vt 0.2912 0.3975 -0.0591
vt 0.2069 0.6776 0.1339
vt 0.2201 0.6776 0.1729
vt 0.3340 0.9990 -0.1652
vt 0.3209 0.9990 -0.2042
vt 0.0186 0.9990 -0.2042
vt 0.0054 0.9990 -0.1652
vt 0.1194 0.6776 0.1729
vt 0.1325 0.6776 0.1339
vt 0.4495 0.6776 -0.1729
vt 0.4627 0.6776 -0.1339
vt 0.3487 0.9990 0.2042
vt 0.3356 0.9990 0.1652
vt 0.5371 0.6776 -0.1339
vt 0.5502 0.6776 -0.1729
vt 0.6642 0.9990 0.1652
vt 0.6510 0.9990 0.2042
# 60 texture coords

o tower_a_emissive
g tower_a_emissive
usemtl emissive
s 1
f 397/557/179 398/558/180 399/559/180 400/560/179 
f 398/558/180 401/561/181 402/562/181 399/559/180 
f 401/563/181 403/564/182 404/565/182 402/566/181 
f 403/564/182 405/567/183 406/568/183 404/565/182 
f 405/567/183 407/569/184 408/570/184 406/568/183 
f 407/569/184 409/571/185 410/572/185 408/570/184 
f 409/571/185 411/573/186 412/574/186 410/572/185 
f 411/575/186 413/576/187 414/577/187 412/578/186 
f 413/576/187 415/579/188 416/580/188 414/577/187 
f 415/579/188 417/581/189 418/582/189 416/580/188 
f 417/581/189 419/583/190 420/584/190 418/582/189 
f 419/585/190 421/586/191 422/587/191 420/588/190 
f 421/586/191 423/589/192 424/590/192 422/587/191 
f 423/589/192 425/591/193 426/592/193 424/590/192 
f 425/591/193 427/593/194 428/594/194 426/592/193 
f 427/593/194 429/595/195 430/596/195 428/594/194 
f 429/597/195 431/598/196 432/599/196 430/600/195 
f 431/598/196 397/557/179 400/560/179 432/599/196 
f 433/601/197 434/602/197 435/603/197 436/604/197 
f 437/605/198 438/606/198 439/607/198 440/608/198 
f 441/609/199 442/610/199 443/611/199 444/612/199 
f 445/613/200 446/614/200 447/615/200 448/616/200 
# 22 polygons

